<svg width="22" height="23" viewBox="0 0 22 23" fill="none" xmlns="http://www.w3.org/2000/svg">
<g clip-path="url(#clip0_141_129)">
<path d="M9.58618 6.21606H11.8596C11.8954 6.15571 11.9171 6.08806 11.9232 6.01814C11.9292 5.94822 11.9193 5.87784 11.8944 5.81226L9.58678 2.98926V6.21606H9.58618Z" fill="#219EBC"/>
<path d="M7.68236 13.9663C7.65173 13.7696 7.61047 13.5747 7.55876 13.3825C7.18676 12.0487 6.87476 11.4841 7.00796 10.0861C7.18196 9.1357 7.17176 7.2283 9.69776 7.5253C10.365 7.6039 11.4036 8.0815 11.9982 8.0713C12.3384 8.0653 12.5862 7.3771 12.6084 7.1479C12.639 6.8323 12.0894 6.2959 11.8596 6.2155C11.3258 6.04274 10.7896 5.87792 10.251 5.7211C9.62756 5.5405 9.65996 4.6981 9.62036 4.3981C9.61164 4.3282 9.62372 4.25728 9.6551 4.19421C9.68647 4.13113 9.73575 4.07871 9.79676 4.0435C9.92276 3.9691 10.0218 4.0387 10.1442 4.1185L10.6752 4.5073C10.9734 4.7629 10.1508 5.2513 10.3734 5.3329C10.3734 5.3329 11.4264 5.7283 11.8776 5.8105C12.1248 5.8555 12.978 4.8931 13.0278 4.3285C13.0668 3.8845 10.989 1.8787 9.50756 1.0999C8.98676 0.826303 8.68136 0.667303 8.33816 0.683503C7.92836 0.702703 7.79936 0.864703 7.28936 1.3015C4.98116 3.2761 2.74076 7.5463 2.41196 8.4913C1.06436 12.3679 0.853762 14.4103 0.805762 15.5641C0.776012 15.9149 0.760799 16.2668 0.760162 16.6189C0.799162 16.6189 0.160162 19.6189 0.760162 20.2189C1.36016 20.8189 3.95576 20.8189 3.95576 20.8189C9.95576 23.2123 21.0978 22.5877 21.0978 16.4791C21.0978 9.1759 9.80996 10.1449 7.68236 13.9663Z" fill="#8ECAE6"/>
<path d="M12.378 19.847C10.482 19.6478 9.00116 18.7184 8.91776 18.665C8.78353 18.5795 8.68878 18.4441 8.65435 18.2887C8.61992 18.1334 8.64863 17.9706 8.73416 17.8364C8.81969 17.7022 8.95504 17.6074 9.11043 17.573C9.26583 17.5386 9.42853 17.5673 9.56276 17.6528C9.58676 17.6678 11.9646 19.148 14.2704 18.533C15.5454 18.1934 16.5906 17.264 17.3766 15.7724C17.4507 15.6316 17.5778 15.526 17.7298 15.4788C17.8818 15.4317 18.0463 15.4469 18.1872 15.521C18.328 15.5952 18.4336 15.7222 18.4807 15.8743C18.5279 16.0263 18.5127 16.1908 18.4386 16.3316C17.4876 18.1352 16.1862 19.2674 14.5704 19.6952C13.8162 19.8944 13.0692 19.9196 12.378 19.847Z" fill="#219EBC"/>
</g>
<defs>
<clipPath id="clip0_141_129">
<rect width="21.6" height="21.6" fill="white" transform="translate(0 0.600098)"/>
</clipPath>
</defs>
</svg>
