<svg width="21" height="25" viewBox="0 0 21 25" fill="none" xmlns="http://www.w3.org/2000/svg">
<path d="M5.18795 3.81298C5.60094 3.78121 5.90998 3.42066 5.87821 3.00766C5.84644 2.59467 5.48589 2.28563 5.0729 2.31739L5.18795 3.81298ZM2.75544 3.58149L2.47689 2.88513L2.75544 3.58149ZM1.20652 5.1304L0.504267 4.86707C0.494278 4.89371 0.485812 4.9209 0.478912 4.9485L1.20652 5.1304ZM0.252591 8.26919C0.218192 8.68197 0.524933 9.04448 0.937716 9.07888C1.3505 9.11328 1.71301 8.80654 1.74741 8.39376L0.252591 8.26919ZM5.13042 3.06519C5.0729 2.31739 5.0728 2.3174 5.0727 2.31741C5.07266 2.31741 5.07256 2.31742 5.07248 2.31743C5.07231 2.31744 5.07213 2.31745 5.07193 2.31747C5.07152 2.3175 5.07103 2.31754 5.07047 2.31758C5.06933 2.31767 5.06786 2.31779 5.06607 2.31794C5.0625 2.31822 5.05765 2.31862 5.05157 2.31914C5.03941 2.32017 5.02233 2.32168 5.00072 2.3237C4.95752 2.32775 4.89614 2.3339 4.81986 2.34257C4.66757 2.35988 4.45437 2.3874 4.20686 2.42865C3.72022 2.50976 3.06589 2.64953 2.47689 2.88513L3.03398 4.27785C3.47759 4.1004 4.01076 3.98202 4.45346 3.90824C4.67062 3.87205 4.85755 3.84794 4.98922 3.83298C5.05492 3.82551 5.10648 3.82037 5.14073 3.81715C5.15785 3.81555 5.17061 3.81443 5.17862 3.81375C5.18262 3.81341 5.18543 3.81318 5.187 3.81305C5.18779 3.81299 5.18827 3.81295 5.18843 3.81294C5.1885 3.81293 5.1885 3.81293 5.18843 3.81294C5.18839 3.81294 5.18833 3.81295 5.18825 3.81295C5.18821 3.81296 5.18813 3.81296 5.18811 3.81296C5.18803 3.81297 5.18795 3.81298 5.13042 3.06519ZM2.47689 2.88513C2.01259 3.07085 1.60399 3.29801 1.26209 3.63581C0.917473 3.97628 0.685008 4.38506 0.504267 4.86707L1.90878 5.39372C2.03779 5.04965 2.1692 4.84821 2.31632 4.70286C2.46614 4.55484 2.67712 4.42059 3.03398 4.27785L2.47689 2.88513ZM0.478912 4.9485C0.303858 5.64876 0.275823 6.20571 0.275821 6.73093C0.275819 7.26301 0.300767 7.69108 0.252591 8.26919L1.74741 8.39376C1.80249 7.73275 1.77582 7.17983 1.77582 6.73094C1.77582 6.27518 1.79942 5.85116 1.93413 5.31229L0.478912 4.9485Z" fill="#8ECAE6"/>
<path d="M6.82125 2.1303C6.41897 2.22903 6.17289 2.63517 6.27161 3.03744C6.37034 3.43972 6.77648 3.6858 7.17875 3.58708L6.82125 2.1303ZM8.22834 2.13587L8.77858 2.6455L8.22834 2.13587ZM8.74464 1V0.25C8.39066 0.25 8.08488 0.497493 8.01111 0.843698L8.74464 1ZM12.2555 1L12.989 0.843698C12.9153 0.497493 12.6095 0.25 12.2555 0.25V1ZM12.7718 2.13587L12.2216 2.6455L12.2216 2.6455L12.7718 2.13587ZM14.3207 2.85869L14.4894 2.1279C14.4743 2.12443 14.4592 2.12143 14.444 2.11889L14.3207 2.85869ZM20 5.74999H20.75C20.75 5.7145 20.7475 5.67905 20.7425 5.64392L20 5.74999ZM19.25 8.53802C19.25 8.95223 19.5858 9.28802 20 9.28802C20.4143 9.28802 20.75 8.95223 20.75 8.53802H19.25ZM7 2.85869C7.17875 3.58708 7.17895 3.58703 7.17915 3.58698C7.17922 3.58696 7.17943 3.58691 7.17957 3.58688C7.17985 3.58681 7.18015 3.58673 7.18045 3.58666C7.18107 3.58651 7.18173 3.58634 7.18243 3.58616C7.18384 3.58581 7.18544 3.58541 7.18721 3.58496C7.19075 3.58406 7.19501 3.58296 7.19995 3.58165C7.20983 3.57904 7.22249 3.57559 7.23766 3.57127C7.26797 3.56263 7.30857 3.5504 7.35747 3.53415C7.45484 3.50178 7.58752 3.45265 7.73894 3.3828C8.03556 3.24596 8.43659 3.01475 8.77858 2.6455L7.67809 1.62623C7.515 1.80232 7.30186 1.93251 7.11059 2.02075C7.01806 2.06344 6.93835 2.09277 6.88434 2.11072C6.85754 2.11963 6.83768 2.12553 6.82647 2.12873C6.82088 2.13032 6.8175 2.13122 6.81654 2.13148C6.81607 2.1316 6.8162 2.13157 6.81697 2.13137C6.81736 2.13127 6.81791 2.13113 6.81862 2.13095C6.81897 2.13086 6.81937 2.13077 6.81981 2.13066C6.82003 2.1306 6.82026 2.13055 6.8205 2.13049C6.82062 2.13046 6.8208 2.13041 6.82086 2.1304C6.82105 2.13035 6.82125 2.1303 7 2.85869ZM8.77858 2.6455C9.06273 2.33872 9.23286 1.93687 9.32609 1.67676C9.37673 1.53549 9.41374 1.40953 9.43829 1.31831C9.45065 1.2724 9.46007 1.23447 9.46665 1.20685C9.46994 1.19301 9.47254 1.1817 9.47446 1.1732C9.47541 1.16894 9.4762 1.16539 9.47682 1.16256C9.47713 1.16115 9.4774 1.15991 9.47762 1.15887C9.47773 1.15835 9.47784 1.15787 9.47793 1.15744C9.47797 1.15723 9.47802 1.15703 9.47806 1.15684C9.47808 1.15674 9.47811 1.15661 9.47812 1.15656C9.47815 1.15643 9.47817 1.1563 8.74464 1C8.01111 0.843698 8.01113 0.843576 8.01116 0.843457C8.01117 0.84342 8.01119 0.843303 8.01121 0.843231C8.01124 0.843086 8.01127 0.842952 8.01129 0.842829C8.01135 0.842583 8.01139 0.842381 8.01142 0.842221C8.01149 0.841902 8.01153 0.841755 8.01152 0.841775C8.01151 0.841815 8.01136 0.842523 8.01106 0.843865C8.01045 0.846553 8.00926 0.851758 8.00748 0.859218C8.00392 0.874179 7.99805 0.89795 7.98983 0.928471C7.97324 0.990136 7.94797 1.07603 7.91405 1.17065C7.83819 1.38232 7.75017 1.54841 7.67809 1.62623L8.77858 2.6455ZM8.74464 1.75H12.2555V0.25H8.74464V1.75ZM12.2555 1C11.522 1.1563 11.522 1.15643 11.522 1.15656C11.522 1.15661 11.5221 1.15674 11.5221 1.15684C11.5221 1.15703 11.5222 1.15723 11.5222 1.15745C11.5223 1.15787 11.5224 1.15835 11.5225 1.15887C11.5227 1.15992 11.523 1.16115 11.5233 1.16256C11.5239 1.16539 11.5247 1.16894 11.5257 1.1732C11.5276 1.1817 11.5302 1.19301 11.5335 1.20685C11.5401 1.23447 11.5495 1.2724 11.5618 1.31832C11.5864 1.40953 11.6234 1.53549 11.674 1.67676C11.7673 1.93687 11.9374 2.33872 12.2216 2.6455L13.322 1.62623C13.25 1.54841 13.162 1.38232 13.0861 1.17065C13.0522 1.07603 13.0269 0.990136 13.0103 0.928471C13.0021 0.897949 12.9962 0.874178 12.9927 0.859217C12.9909 0.851757 12.9897 0.846552 12.9891 0.843864C12.9888 0.842522 12.9886 0.841815 12.9886 0.841774C12.9886 0.841754 12.9886 0.841902 12.9887 0.842221C12.9887 0.84238 12.9888 0.842583 12.9888 0.842829C12.9889 0.842952 12.9889 0.843086 12.9889 0.843231C12.9889 0.843303 12.989 0.84342 12.989 0.843456C12.989 0.843576 12.989 0.843698 12.2555 1ZM12.2216 2.6455C12.8347 3.30747 13.5237 3.48621 14.1974 3.59849L14.444 2.11889C13.8786 2.02465 13.5943 1.9202 13.322 1.62623L12.2216 2.6455ZM14.1521 3.58948C14.8742 3.75613 15.7066 3.81668 16.3849 3.89997C17.1094 3.98895 17.7221 4.10717 18.219 4.35559L18.8898 3.01395C18.1475 2.64282 17.3146 2.50288 16.5677 2.41116C15.7744 2.31374 15.1096 2.27103 14.4894 2.1279L14.1521 3.58948ZM18.219 4.35559C18.6378 4.56503 18.9003 4.92269 19.0633 5.26906C19.1436 5.43966 19.1939 5.59597 19.2237 5.70767C19.2385 5.76301 19.2478 5.80593 19.253 5.83234C19.2556 5.84551 19.2572 5.85443 19.2579 5.85859C19.2583 5.86066 19.2584 5.86153 19.2583 5.86114C19.2583 5.86094 19.2582 5.86042 19.2581 5.85958C19.258 5.85915 19.258 5.85865 19.2579 5.85806C19.2578 5.85777 19.2578 5.85745 19.2577 5.85712C19.2577 5.85695 19.2577 5.85668 19.2577 5.8566C19.2576 5.85633 19.2576 5.85605 20 5.74999C20.7425 5.64392 20.7425 5.64363 20.7424 5.64334C20.7424 5.64323 20.7424 5.64293 20.7423 5.64272C20.7423 5.6423 20.7422 5.64185 20.7421 5.64138C20.742 5.64044 20.7418 5.63941 20.7417 5.63829C20.7413 5.63606 20.741 5.63346 20.7405 5.6305C20.7396 5.6246 20.7384 5.61728 20.7369 5.60861C20.734 5.59129 20.7299 5.56855 20.7245 5.54097C20.7136 5.4859 20.6971 5.41105 20.6731 5.32117C20.6254 5.14246 20.5467 4.89863 20.4205 4.63037C20.1705 4.09903 19.7101 3.42409 18.8898 3.01395L18.219 4.35559ZM20 5.74999C19.25 5.74999 19.25 5.74999 19.25 5.75C19.25 5.75002 19.25 5.75003 19.25 5.75006C19.25 5.75008 19.25 5.75011 19.25 5.75015C19.25 5.75018 19.25 5.75023 19.25 5.75027C19.25 5.75032 19.25 5.75038 19.25 5.75043C19.25 5.75049 19.25 5.75056 19.25 5.75063C19.25 5.7507 19.25 5.75078 19.25 5.75087C19.25 5.75095 19.25 5.75104 19.25 5.75113C19.25 5.75123 19.25 5.75133 19.25 5.75144C19.25 5.75154 19.25 5.75166 19.25 5.75178C19.25 5.7519 19.25 5.75202 19.25 5.75215C19.25 5.75228 19.25 5.75242 19.25 5.75256C19.25 5.7527 19.25 5.75285 19.25 5.75301C19.25 5.75316 19.25 5.75332 19.25 5.75349C19.25 5.75365 19.25 5.75382 19.25 5.754C19.25 5.75418 19.25 5.75436 19.25 5.75455C19.25 5.75474 19.25 5.75493 19.25 5.75513C19.25 5.75533 19.25 5.75554 19.25 5.75575C19.25 5.75596 19.25 5.75618 19.25 5.75641C19.25 5.75663 19.25 5.75686 19.25 5.75709C19.25 5.75733 19.25 5.75757 19.25 5.75782C19.25 5.75806 19.25 5.75831 19.25 5.75857C19.25 5.75883 19.25 5.75909 19.25 5.75936C19.25 5.75963 19.25 5.75991 19.25 5.76019C19.25 5.76047 19.25 5.76076 19.25 5.76105C19.25 5.76134 19.25 5.76164 19.25 5.76194C19.25 5.76224 19.25 5.76255 19.25 5.76287C19.25 5.76318 19.25 5.7635 19.25 5.76383C19.25 5.76415 19.25 5.76448 19.25 5.76482C19.25 5.76516 19.25 5.7655 19.25 5.76585C19.25 5.7662 19.25 5.76655 19.25 5.76691C19.25 5.76727 19.25 5.76763 19.25 5.76801C19.25 5.76838 19.25 5.76875 19.25 5.76913C19.25 5.76951 19.25 5.7699 19.25 5.77029C19.25 5.77069 19.25 5.77109 19.25 5.77149C19.25 5.77189 19.25 5.7723 19.25 5.77272C19.25 5.77313 19.25 5.77355 19.25 5.77398C19.25 5.7744 19.25 5.77483 19.25 5.77527C19.25 5.77571 19.25 5.77615 19.25 5.7766C19.25 5.77704 19.25 5.7775 19.25 5.77796C19.25 5.77841 19.25 5.77888 19.25 5.77935C19.25 5.77982 19.25 5.78029 19.25 5.78077C19.25 5.78125 19.25 5.78174 19.25 5.78223C19.25 5.78272 19.25 5.78322 19.25 5.78372C19.25 5.78422 19.25 5.78473 19.25 5.78524C19.25 5.78575 19.25 5.78627 19.25 5.78679C19.25 5.78732 19.25 5.78784 19.25 5.78838C19.25 5.78891 19.25 5.78945 19.25 5.79C19.25 5.79054 19.25 5.79109 19.25 5.79165C19.25 5.7922 19.25 5.79276 19.25 5.79333C19.25 5.79389 19.25 5.79446 19.25 5.79504C19.25 5.79562 19.25 5.7962 19.25 5.79678C19.25 5.79737 19.25 5.79796 19.25 5.79856C19.25 5.79916 19.25 5.79976 19.25 5.80037C19.25 5.80098 19.25 5.80159 19.25 5.80221C19.25 5.80283 19.25 5.80345 19.25 5.80408C19.25 5.80471 19.25 5.80534 19.25 5.80598C19.25 5.80662 19.25 5.80727 19.25 5.80792C19.25 5.80856 19.25 5.80922 19.25 5.80988C19.25 5.81054 19.25 5.8112 19.25 5.81187C19.25 5.81254 19.25 5.81322 19.25 5.8139C19.25 5.81458 19.25 5.81527 19.25 5.81596C19.25 5.81665 19.25 5.81734 19.25 5.81805C19.25 5.81875 19.25 5.81945 19.25 5.82016C19.25 5.82088 19.25 5.82159 19.25 5.82231C19.25 5.82303 19.25 5.82376 19.25 5.82449C19.25 5.82522 19.25 5.82596 19.25 5.8267C19.25 5.82744 19.25 5.82819 19.25 5.82894C19.25 5.82969 19.25 5.83045 19.25 5.83121C19.25 5.83197 19.25 5.83274 19.25 5.83351C19.25 5.83428 19.25 5.83506 19.25 5.83584C19.25 5.83663 19.25 5.83741 19.25 5.8382C19.25 5.839 19.25 5.83979 19.25 5.84059C19.25 5.8414 19.25 5.8422 19.25 5.84301C19.25 5.84383 19.25 5.84464 19.25 5.84546C19.25 5.84629 19.25 5.84711 19.25 5.84794C19.25 5.84877 19.25 5.84961 19.25 5.85045C19.25 5.85129 19.25 5.85214 19.25 5.85299C19.25 5.85384 19.25 5.8547 19.25 5.85556C19.25 5.85642 19.25 5.85728 19.25 5.85815C19.25 5.85902 19.25 5.8599 19.25 5.86078C19.25 5.86166 19.25 5.86255 19.25 5.86344C19.25 5.86433 19.25 5.86522 19.25 5.86612C19.25 5.86702 19.25 5.86792 19.25 5.86883C19.25 5.86974 19.25 5.87066 19.25 5.87157C19.25 5.87249 19.25 5.87342 19.25 5.87434C19.25 5.87527 19.25 5.87621 19.25 5.87714C19.25 5.87808 19.25 5.87902 19.25 5.87997C19.25 5.88092 19.25 5.88187 19.25 5.88283C19.25 5.88378 19.25 5.88475 19.25 5.88571C19.25 5.88668 19.25 5.88765 19.25 5.88862C19.25 5.8896 19.25 5.89058 19.25 5.89157C19.25 5.89255 19.25 5.89354 19.25 5.89453C19.25 5.89553 19.25 5.89653 19.25 5.89753C19.25 5.89854 19.25 5.89954 19.25 5.90056C19.25 5.90157 19.25 5.90259 19.25 5.90361C19.25 5.90463 19.25 5.90566 19.25 5.90669C19.25 5.90772 19.25 5.90876 19.25 5.9098C19.25 5.91084 19.25 5.91189 19.25 5.91294C19.25 5.91398 19.25 5.91504 19.25 5.9161C19.25 5.91716 19.25 5.91822 19.25 5.91929C19.25 5.92036 19.25 5.92143 19.25 5.92251C19.25 5.92359 19.25 5.92467 19.25 5.92575C19.25 5.92684 19.25 5.92793 19.25 5.92903C19.25 5.93012 19.25 5.93122 19.25 5.93233C19.25 5.93343 19.25 5.93454 19.25 5.93565C19.25 5.93677 19.25 5.93788 19.25 5.93901C19.25 5.94013 19.25 5.94126 19.25 5.94239C19.25 5.94352 19.25 5.94465 19.25 5.94579C19.25 5.94693 19.25 5.94808 19.25 5.94923C19.25 5.95038 19.25 5.95153 19.25 5.95269C19.25 5.95385 19.25 5.95501 19.25 5.95617C19.25 5.95734 19.25 5.95851 19.25 5.95969C19.25 5.96086 19.25 5.96204 19.25 5.96323C19.25 5.96441 19.25 5.9656 19.25 5.96679C19.25 5.96799 19.25 5.96918 19.25 5.97038C19.25 5.97159 19.25 5.97279 19.25 5.974C19.25 5.97521 19.25 5.97643 19.25 5.97765C19.25 5.97887 19.25 5.98009 19.25 5.98132C19.25 5.98254 19.25 5.98378 19.25 5.98501C19.25 5.98625 19.25 5.98749 19.25 5.98873C19.25 5.98998 19.25 5.99123 19.25 5.99248C19.25 5.99373 19.25 5.99499 19.25 5.99625C19.25 5.99751 19.25 5.99878 19.25 6.00005C19.25 6.00132 19.25 6.00259 19.25 6.00387C19.25 6.00515 19.25 6.00643 19.25 6.00772C19.25 6.00901 19.25 6.0103 19.25 6.01159C19.25 6.01289 19.25 6.01419 19.25 6.01549C19.25 6.0168 19.25 6.0181 19.25 6.01941C19.25 6.02073 19.25 6.02204 19.25 6.02336C19.25 6.02468 19.25 6.02601 19.25 6.02734C19.25 6.02866 19.25 6.03 19.25 6.03133C19.25 6.03267 19.25 6.03401 19.25 6.03536C19.25 6.0367 19.25 6.03805 19.25 6.0394C19.25 6.04076 19.25 6.04211 19.25 6.04347C19.25 6.04484 19.25 6.0462 19.25 6.04757C19.25 6.04894 19.25 6.05031 19.25 6.05169C19.25 6.05307 19.25 6.05445 19.25 6.05584C19.25 6.05722 19.25 6.05861 19.25 6.06C19.25 6.0614 19.25 6.06279 19.25 6.0642C19.25 6.0656 19.25 6.067 19.25 6.06841C19.25 6.06982 19.25 6.07124 19.25 6.07265C19.25 6.07407 19.25 6.07549 19.25 6.07692C19.25 6.07834 19.25 6.07977 19.25 6.0812C19.25 6.08264 19.25 6.08407 19.25 6.08552C19.25 6.08696 19.25 6.0884 19.25 6.08985C19.25 6.0913 19.25 6.09275 19.25 6.09421C19.25 6.09567 19.25 6.09713 19.25 6.09859C19.25 6.10005 19.25 6.10152 19.25 6.10299C19.25 6.10447 19.25 6.10594 19.25 6.10742C19.25 6.1089 19.25 6.11039 19.25 6.11187C19.25 6.11336 19.25 6.11485 19.25 6.11635C19.25 6.11784 19.25 6.11934 19.25 6.12084C19.25 6.12235 19.25 6.12385 19.25 6.12536C19.25 6.12687 19.25 6.12839 19.25 6.12991C19.25 6.13142 19.25 6.13295 19.25 6.13447C19.25 6.136 19.25 6.13753 19.25 6.13906C19.25 6.14059 19.25 6.14213 19.25 6.14367C19.25 6.14521 19.25 6.14675 19.25 6.1483C19.25 6.14985 19.25 6.1514 19.25 6.15296C19.25 6.15451 19.25 6.15607 19.25 6.15763C19.25 6.1592 19.25 6.16076 19.25 6.16233C19.25 6.1639 19.25 6.16548 19.25 6.16705C19.25 6.16863 19.25 6.17021 19.25 6.1718C19.25 6.17338 19.25 6.17497 19.25 6.17656C19.25 6.17815 19.25 6.17975 19.25 6.18135C19.25 6.18295 19.25 6.18455 19.25 6.18616C19.25 6.18776 19.25 6.18937 19.25 6.19099C19.25 6.1926 19.25 6.19422 19.25 6.19584C19.25 6.19746 19.25 6.19908 19.25 6.20071C19.25 6.20234 19.25 6.20397 19.25 6.2056C19.25 6.20724 19.25 6.20888 19.25 6.21052C19.25 6.21216 19.25 6.21381 19.25 6.21546C19.25 6.21711 19.25 6.21876 19.25 6.22041C19.25 6.22207 19.25 6.22373 19.25 6.22539C19.25 6.22706 19.25 6.22872 19.25 6.23039C19.25 6.23206 19.25 6.23374 19.25 6.23541C19.25 6.23709 19.25 6.23877 19.25 6.24045C19.25 6.24214 19.25 6.24382 19.25 6.24551C19.25 6.24721 19.25 6.2489 19.25 6.2506C19.25 6.25229 19.25 6.254 19.25 6.2557C19.25 6.2574 19.25 6.25911 19.25 6.26082C19.25 6.26253 19.25 6.26425 19.25 6.26597C19.25 6.26768 19.25 6.2694 19.25 6.27113C19.25 6.27285 19.25 6.27458 19.25 6.27631C19.25 6.27804 19.25 6.27978 19.25 6.28152C19.25 6.28325 19.25 6.285 19.25 6.28674C19.25 6.28848 19.25 6.29023 19.25 6.29198C19.25 6.29373 19.25 6.29549 19.25 6.29725C19.25 6.299 19.25 6.30077 19.25 6.30253C19.25 6.30429 19.25 6.30606 19.25 6.30783C19.25 6.3096 19.25 6.31138 19.25 6.31315C19.25 6.31493 19.25 6.31671 19.25 6.3185C19.25 6.32028 19.25 6.32207 19.25 6.32386C19.25 6.32565 19.25 6.32744 19.25 6.32924C19.25 6.33103 19.25 6.33283 19.25 6.33463C19.25 6.33644 19.25 6.33824 19.25 6.34005C19.25 6.34186 19.25 6.34367 19.25 6.34549C19.25 6.34731 19.25 6.34912 19.25 6.35095C19.25 6.35277 19.25 6.35459 19.25 6.35642C19.25 6.35825 19.25 6.36008 19.25 6.36191C19.25 6.36375 19.25 6.36559 19.25 6.36743C19.25 6.36927 19.25 6.37111 19.25 6.37296C19.25 6.3748 19.25 6.37665 19.25 6.37851C19.25 6.38036 19.25 6.38222 19.25 6.38407C19.25 6.38593 19.25 6.38779 19.25 6.38966C19.25 6.39152 19.25 6.39339 19.25 6.39526C19.25 6.39713 19.25 6.39901 19.25 6.40089C19.25 6.40276 19.25 6.40464 19.25 6.40653C19.25 6.40841 19.25 6.4103 19.25 6.41218C19.25 6.41407 19.25 6.41597 19.25 6.41786C19.25 6.41975 19.25 6.42165 19.25 6.42355C19.25 6.42545 19.25 6.42736 19.25 6.42927C19.25 6.43117 19.25 6.43308 19.25 6.43499C19.25 6.43691 19.25 6.43882 19.25 6.44074C19.25 6.44266 19.25 6.44458 19.25 6.4465C19.25 6.44843 19.25 6.45036 19.25 6.45229C19.25 6.45422 19.25 6.45615 19.25 6.45808C19.25 6.46002 19.25 6.46196 19.25 6.4639C19.25 6.46584 19.25 6.46779 19.25 6.46973C19.25 6.47168 19.25 6.47363 19.25 6.47558C19.25 6.47753 19.25 6.47949 19.25 6.48145C19.25 6.48341 19.25 6.48537 19.25 6.48733C19.25 6.4893 19.25 6.49126 19.25 6.49323C19.25 6.4952 19.25 6.49717 19.25 6.49915C19.25 6.50112 19.25 6.5031 19.25 6.50508C19.25 6.50706 19.25 6.50905 19.25 6.51103C19.25 6.51302 19.25 6.51501 19.25 6.517C19.25 6.51899 19.25 6.52098 19.25 6.52298C19.25 6.52498 19.25 6.52698 19.25 6.52898C19.25 6.53098 19.25 6.53298 19.25 6.53499C19.25 6.537 19.25 6.53901 19.25 6.54102C19.25 6.54304 19.25 6.54505 19.25 6.54707C19.25 6.54909 19.25 6.55111 19.25 6.55313C19.25 6.55516 19.25 6.55718 19.25 6.55921C19.25 6.56124 19.25 6.56327 19.25 6.5653C19.25 6.56734 19.25 6.56937 19.25 6.57141C19.25 6.57345 19.25 6.57549 19.25 6.57754C19.25 6.57958 19.25 6.58163 19.25 6.58368C19.25 6.58573 19.25 6.58778 19.25 6.58983C19.25 6.59189 19.25 6.59395 19.25 6.59601C19.25 6.59806 19.25 6.60013 19.25 6.60219C19.25 6.60426 19.25 6.60632 19.25 6.60839C19.25 6.61046 19.25 6.61253 19.25 6.61461C19.25 6.61668 19.25 6.61876 19.25 6.62084C19.25 6.62292 19.25 6.625 19.25 6.62709C19.25 6.62917 19.25 6.63126 19.25 6.63335C19.25 6.63544 19.25 6.63753 19.25 6.63962C19.25 6.64172 19.25 6.64381 19.25 6.64591C19.25 6.64801 19.25 6.65011 19.25 6.65221C19.25 6.65432 19.25 6.65642 19.25 6.65853C19.25 6.66064 19.25 6.66275 19.25 6.66487C19.25 6.66698 19.25 6.66909 19.25 6.67121C19.25 6.67333 19.25 6.67545 19.25 6.67757C19.25 6.6797 19.25 6.68182 19.25 6.68395C19.25 6.68608 19.25 6.68821 19.25 6.69034C19.25 6.69247 19.25 6.6946 19.25 6.69674C19.25 6.69888 19.25 6.70102 19.25 6.70316C19.25 6.7053 19.25 6.70744 19.25 6.70959C19.25 6.71173 19.25 6.71388 19.25 6.71603C19.25 6.71818 19.25 6.72033 19.25 6.72249C19.25 6.72464 19.25 6.7268 19.25 6.72896C19.25 6.73112 19.25 6.73328 19.25 6.73544C19.25 6.73761 19.25 6.73977 19.25 6.74194C19.25 6.74411 19.25 6.74628 19.25 6.74845C19.25 6.75062 19.25 6.7528 19.25 6.75498C19.25 6.75715 19.25 6.75933 19.25 6.76151C19.25 6.76369 19.25 6.76588 19.25 6.76806C19.25 6.77025 19.25 6.77243 19.25 6.77462C19.25 6.77681 19.25 6.779 19.25 6.7812C19.25 6.78339 19.25 6.78559 19.25 6.78779C19.25 6.78998 19.25 6.79218 19.25 6.79439C19.25 6.79659 19.25 6.79879 19.25 6.801C19.25 6.8032 19.25 6.80541 19.25 6.80762C19.25 6.80983 19.25 6.81205 19.25 6.81426C19.25 6.81647 19.25 6.81869 19.25 6.82091C19.25 6.82313 19.25 6.82535 19.25 6.82757C19.25 6.82979 19.25 6.83202 19.25 6.83424C19.25 6.83647 19.25 6.8387 19.25 6.84093C19.25 6.84316 19.25 6.84539 19.25 6.84763C19.25 6.84986 19.25 6.8521 19.25 6.85434C19.25 6.85657 19.25 6.85881 19.25 6.86106C19.25 6.8633 19.25 6.86554 19.25 6.86779C19.25 6.87004 19.25 6.87228 19.25 6.87453C19.25 6.87678 19.25 6.87903 19.25 6.88129C19.25 6.88354 19.25 6.8858 19.25 6.88805C19.25 6.89031 19.25 6.89257 19.25 6.89483C19.25 6.89709 19.25 6.89936 19.25 6.90162C19.25 6.90389 19.25 6.90615 19.25 6.90842C19.25 6.91069 19.25 6.91296 19.25 6.91523C19.25 6.9175 19.25 6.91978 19.25 6.92205C19.25 6.92433 19.25 6.92661 19.25 6.92889C19.25 6.93117 19.25 6.93345 19.25 6.93573C19.25 6.93801 19.25 6.9403 19.25 6.94258C19.25 6.94487 19.25 6.94716 19.25 6.94945C19.25 6.95174 19.25 6.95403 19.25 6.95632C19.25 6.95862 19.25 6.96091 19.25 6.96321C19.25 6.96551 19.25 6.9678 19.25 6.9701C19.25 6.9724 19.25 6.97471 19.25 6.97701C19.25 6.97931 19.25 6.98162 19.25 6.98393C19.25 6.98623 19.25 6.98854 19.25 6.99085C19.25 6.99316 19.25 6.99547 19.25 6.99779C19.25 7.0001 19.25 7.00242 19.25 7.00473C19.25 7.00705 19.25 7.00937 19.25 7.01169C19.25 7.01401 19.25 7.01633 19.25 7.01865C19.25 7.02098 19.25 7.0233 19.25 7.02563C19.25 7.02795 19.25 7.03028 19.25 7.03261C19.25 7.03494 19.25 7.03727 19.25 7.03961C19.25 7.04194 19.25 7.04427 19.25 7.04661C19.25 7.04894 19.25 7.05128 19.25 7.05362C19.25 7.05596 19.25 7.0583 19.25 7.06064C19.25 7.06298 19.25 7.06533 19.25 7.06767C19.25 7.07002 19.25 7.07236 19.25 7.07471C19.25 7.07706 19.25 7.07941 19.25 7.08176C19.25 7.08411 19.25 7.08646 19.25 7.08882C19.25 7.09117 19.25 7.09353 19.25 7.09588C19.25 7.09824 19.25 7.1006 19.25 7.10296C19.25 7.10532 19.25 7.10768 19.25 7.11004C19.25 7.1124 19.25 7.11477 19.25 7.11713C19.25 7.1195 19.25 7.12186 19.25 7.12423C19.25 7.1266 19.25 7.12897 19.25 7.13134C19.25 7.13371 19.25 7.13608 19.25 7.13845C19.25 7.14083 19.25 7.1432 19.25 7.14558C19.25 7.14795 19.25 7.15033 19.25 7.15271C19.25 7.15509 19.25 7.15747 19.25 7.15985C19.25 7.16223 19.25 7.16461 19.25 7.167C19.25 7.16938 19.25 7.17177 19.25 7.17415C19.25 7.17654 19.25 7.17893 19.25 7.18132C19.25 7.18371 19.25 7.1861 19.25 7.18849C19.25 7.19088 19.25 7.19327 19.25 7.19567C19.25 7.19806 19.25 7.20046 19.25 7.20285C19.25 7.20525 19.25 7.20765 19.25 7.21005C19.25 7.21245 19.25 7.21485 19.25 7.21725C19.25 7.21965 19.25 7.22205 19.25 7.22445C19.25 7.22686 19.25 7.22926 19.25 7.23167C19.25 7.23407 19.25 7.23648 19.25 7.23889C19.25 7.2413 19.25 7.24371 19.25 7.24612C19.25 7.24853 19.25 7.25094 19.25 7.25335C19.25 7.25577 19.25 7.25818 19.25 7.2606C19.25 7.26301 19.25 7.26543 19.25 7.26784C19.25 7.27026 19.25 7.27268 19.25 7.2751C19.25 7.27752 19.25 7.27994 19.25 7.28236C19.25 7.28478 19.25 7.28721 19.25 7.28963C19.25 7.29205 19.25 7.29448 19.25 7.2969C19.25 7.29933 19.25 7.30176 19.25 7.30418C19.25 7.30661 19.25 7.30904 19.25 7.31147C19.25 7.3139 19.25 7.31633 19.25 7.31876C19.25 7.32119 19.25 7.32363 19.25 7.32606C19.25 7.3285 19.25 7.33093 19.25 7.33337C19.25 7.3358 19.25 7.33824 19.25 7.34068C19.25 7.34311 19.25 7.34555 19.25 7.34799C19.25 7.35043 19.25 7.35287 19.25 7.35531C19.25 7.35775 19.25 7.3602 19.25 7.36264C19.25 7.36508 19.25 7.36753 19.25 7.36997C19.25 7.37242 19.25 7.37486 19.25 7.37731C19.25 7.37976 19.25 7.3822 19.25 7.38465C19.25 7.3871 19.25 7.38955 19.25 7.392C19.25 7.39445 19.25 7.3969 19.25 7.39935C19.25 7.4018 19.25 7.40426 19.25 7.40671C19.25 7.40916 19.25 7.41162 19.25 7.41407C19.25 7.41653 19.25 7.41898 19.25 7.42144C19.25 7.4239 19.25 7.42635 19.25 7.42881C19.25 7.43127 19.25 7.43373 19.25 7.43619C19.25 7.43865 19.25 7.44111 19.25 7.44357C19.25 7.44603 19.25 7.44849 19.25 7.45096C19.25 7.45342 19.25 7.45588 19.25 7.45835C19.25 7.46081 19.25 7.46328 19.25 7.46574C19.25 7.46821 19.25 7.47067 19.25 7.47314C19.25 7.47561 19.25 7.47807 19.25 7.48054C19.25 7.48301 19.25 7.48548 19.25 7.48795C19.25 7.49042 19.25 7.49289 19.25 7.49536C19.25 7.49783 19.25 7.5003 19.25 7.50277C19.25 7.50525 19.25 7.50772 19.25 7.51019C19.25 7.51267 19.25 7.51514 19.25 7.51762C19.25 7.52009 19.25 7.52256 19.25 7.52504C19.25 7.52752 19.25 7.52999 19.25 7.53247C19.25 7.53495 19.25 7.53742 19.25 7.5399C19.25 7.54238 19.25 7.54486 19.25 7.54734C19.25 7.54982 19.25 7.5523 19.25 7.55478C19.25 7.55726 19.25 7.55974 19.25 7.56222C19.25 7.5647 19.25 7.56718 19.25 7.56966C19.25 7.57215 19.25 7.57463 19.25 7.57711C19.25 7.5796 19.25 7.58208 19.25 7.58456C19.25 7.58705 19.25 7.58953 19.25 7.59202C19.25 7.5945 19.25 7.59699 19.25 7.59947C19.25 7.60196 19.25 7.60445 19.25 7.60693C19.25 7.60942 19.25 7.61191 19.25 7.61439C19.25 7.61688 19.25 7.61937 19.25 7.62186C19.25 7.62435 19.25 7.62684 19.25 7.62932C19.25 7.63181 19.25 7.6343 19.25 7.63679C19.25 7.63928 19.25 7.64177 19.25 7.64426C19.25 7.64675 19.25 7.64925 19.25 7.65174C19.25 7.65423 19.25 7.65672 19.25 7.65921C19.25 7.6617 19.25 7.6642 19.25 7.66669C19.25 7.66918 19.25 7.67167 19.25 7.67417C19.25 7.67666 19.25 7.67915 19.25 7.68165C19.25 7.68414 19.25 7.68664 19.25 7.68913C19.25 7.69162 19.25 7.69412 19.25 7.69661C19.25 7.69911 19.25 7.7016 19.25 7.7041C19.25 7.70659 19.25 7.70909 19.25 7.71159C19.25 7.71408 19.25 7.71658 19.25 7.71907C19.25 7.72157 19.25 7.72407 19.25 7.72656C19.25 7.72906 19.25 7.73156 19.25 7.73405C19.25 7.73655 19.25 7.73905 19.25 7.74154C19.25 7.74404 19.25 7.74654 19.25 7.74904C19.25 7.75153 19.25 7.75403 19.25 7.75653C19.25 7.75903 19.25 7.76153 19.25 7.76402C19.25 7.76652 19.25 7.76902 19.25 7.77152C19.25 7.77402 19.25 7.77652 19.25 7.77901C19.25 7.78151 19.25 7.78401 19.25 7.78651C19.25 7.78901 19.25 7.79151 19.25 7.79401C19.25 7.79651 19.25 7.799 19.25 7.8015C19.25 7.804 19.25 7.8065 19.25 7.809C19.25 7.8115 19.25 7.814 19.25 7.8165C19.25 7.819 19.25 7.8215 19.25 7.82399C19.25 7.82649 19.25 7.82899 19.25 7.83149C19.25 7.83399 19.25 7.83649 19.25 7.83899C19.25 7.84149 19.25 7.84399 19.25 7.84649C19.25 7.84898 19.25 7.85148 19.25 7.85398C19.25 7.85648 19.25 7.85898 19.25 7.86148C19.25 7.86398 19.25 7.86648 19.25 7.86897C19.25 7.87147 19.25 7.87397 19.25 7.87647C19.25 7.87897 19.25 7.88147 19.25 7.88396C19.25 7.88646 19.25 7.88896 19.25 7.89146C19.25 7.89396 19.25 7.89645 19.25 7.89895C19.25 7.90145 19.25 7.90395 19.25 7.90644C19.25 7.90894 19.25 7.91144 19.25 7.91394C19.25 7.91643 19.25 7.91893 19.25 7.92143C19.25 7.92392 19.25 7.92642 19.25 7.92892C19.25 7.93141 19.25 7.93391 19.25 7.9364C19.25 7.9389 19.25 7.9414 19.25 7.94389C19.25 7.94639 19.25 7.94888 19.25 7.95138C19.25 7.95387 19.25 7.95637 19.25 7.95886C19.25 7.96135 19.25 7.96385 19.25 7.96634C19.25 7.96884 19.25 7.97133 19.25 7.97382C19.25 7.97632 19.25 7.97881 19.25 7.9813C19.25 7.9838 19.25 7.98629 19.25 7.98878C19.25 7.99127 19.25 7.99376 19.25 7.99626C19.25 7.99875 19.25 8.00124 19.25 8.00373C19.25 8.00622 19.25 8.00871 19.25 8.0112C19.25 8.01369 19.25 8.01618 19.25 8.01867C19.25 8.02116 19.25 8.02365 19.25 8.02614C19.25 8.02862 19.25 8.03111 19.25 8.0336C19.25 8.03609 19.25 8.03858 19.25 8.04106C19.25 8.04355 19.25 8.04604 19.25 8.04852C19.25 8.05101 19.25 8.05349 19.25 8.05598C19.25 8.05846 19.25 8.06095 19.25 8.06343C19.25 8.06592 19.25 8.0684 19.25 8.07088C19.25 8.07337 19.25 8.07585 19.25 8.07833C19.25 8.08082 19.25 8.0833 19.25 8.08578C19.25 8.08826 19.25 8.09074 19.25 8.09322C19.25 8.0957 19.25 8.09818 19.25 8.10066C19.25 8.10314 19.25 8.10562 19.25 8.1081C19.25 8.11058 19.25 8.11305 19.25 8.11553C19.25 8.11801 19.25 8.12048 19.25 8.12296C19.25 8.12544 19.25 8.12791 19.25 8.13039C19.25 8.13286 19.25 8.13534 19.25 8.13781C19.25 8.14028 19.25 8.14276 19.25 8.14523C19.25 8.1477 19.25 8.15017 19.25 8.15264C19.25 8.15511 19.25 8.15758 19.25 8.16005C19.25 8.16252 19.25 8.16499 19.25 8.16746C19.25 8.16993 19.25 8.1724 19.25 8.17487C19.25 8.17733 19.25 8.1798 19.25 8.18226C19.25 8.18473 19.25 8.1872 19.25 8.18966C19.25 8.19212 19.25 8.19459 19.25 8.19705C19.25 8.19951 19.25 8.20198 19.25 8.20444C19.25 8.2069 19.25 8.20936 19.25 8.21182C19.25 8.21428 19.25 8.21674 19.25 8.2192C19.25 8.22166 19.25 8.22411 19.25 8.22657C19.25 8.22903 19.25 8.23148 19.25 8.23394C19.25 8.23639 19.25 8.23885 19.25 8.2413C19.25 8.24376 19.25 8.24621 19.25 8.24866C19.25 8.25111 19.25 8.25356 19.25 8.25601C19.25 8.25846 19.25 8.26091 19.25 8.26336C19.25 8.26581 19.25 8.26826 19.25 8.27071C19.25 8.27315 19.25 8.2756 19.25 8.27805C19.25 8.28049 19.25 8.28293 19.25 8.28538C19.25 8.28782 19.25 8.29026 19.25 8.29271C19.25 8.29515 19.25 8.29759 19.25 8.30003C19.25 8.30247 19.25 8.30491 19.25 8.30734C19.25 8.30978 19.25 8.31222 19.25 8.31466C19.25 8.31709 19.25 8.31953 19.25 8.32196C19.25 8.3244 19.25 8.32683 19.25 8.32926C19.25 8.33169 19.25 8.33412 19.25 8.33655C19.25 8.33898 19.25 8.34141 19.25 8.34384C19.25 8.34627 19.25 8.3487 19.25 8.35112C19.25 8.35355 19.25 8.35597 19.25 8.3584C19.25 8.36082 19.25 8.36325 19.25 8.36567C19.25 8.36809 19.25 8.37051 19.25 8.37293C19.25 8.37535 19.25 8.37777 19.25 8.38019C19.25 8.3826 19.25 8.38502 19.25 8.38744C19.25 8.38985 19.25 8.39227 19.25 8.39468C19.25 8.39709 19.25 8.3995 19.25 8.40192C19.25 8.40433 19.25 8.40674 19.25 8.40915C19.25 8.41155 19.25 8.41396 19.25 8.41637C19.25 8.41877 19.25 8.42118 19.25 8.42358C19.25 8.42599 19.25 8.42839 19.25 8.43079C19.25 8.43319 19.25 8.43559 19.25 8.43799C19.25 8.44039 19.25 8.44279 19.25 8.44519C19.25 8.44759 19.25 8.44998 19.25 8.45238C19.25 8.45477 19.25 8.45716 19.25 8.45956C19.25 8.46195 19.25 8.46434 19.25 8.46673C19.25 8.46912 19.25 8.47151 19.25 8.47389C19.25 8.47628 19.25 8.47867 19.25 8.48105C19.25 8.48343 19.25 8.48582 19.25 8.4882C19.25 8.49058 19.25 8.49296 19.25 8.49534C19.25 8.49772 19.25 8.5001 19.25 8.50247C19.25 8.50485 19.25 8.50723 19.25 8.5096C19.25 8.51197 19.25 8.51435 19.25 8.51672C19.25 8.51909 19.25 8.52146 19.25 8.52383C19.25 8.52619 19.25 8.52856 19.25 8.53093C19.25 8.53329 19.25 8.53566 19.25 8.53802H20.75C20.75 8.53566 20.75 8.53329 20.75 8.53093C20.75 8.52856 20.75 8.52619 20.75 8.52383C20.75 8.52146 20.75 8.51909 20.75 8.51672C20.75 8.51435 20.75 8.51197 20.75 8.5096C20.75 8.50723 20.75 8.50485 20.75 8.50247C20.75 8.5001 20.75 8.49772 20.75 8.49534C20.75 8.49296 20.75 8.49058 20.75 8.4882C20.75 8.48582 20.75 8.48343 20.75 8.48105C20.75 8.47867 20.75 8.47628 20.75 8.47389C20.75 8.47151 20.75 8.46912 20.75 8.46673C20.75 8.46434 20.75 8.46195 20.75 8.45956C20.75 8.45716 20.75 8.45477 20.75 8.45238C20.75 8.44998 20.75 8.44759 20.75 8.44519C20.75 8.44279 20.75 8.44039 20.75 8.43799C20.75 8.43559 20.75 8.43319 20.75 8.43079C20.75 8.42839 20.75 8.42599 20.75 8.42358C20.75 8.42118 20.75 8.41877 20.75 8.41637C20.75 8.41396 20.75 8.41155 20.75 8.40915C20.75 8.40674 20.75 8.40433 20.75 8.40192C20.75 8.3995 20.75 8.39709 20.75 8.39468C20.75 8.39227 20.75 8.38985 20.75 8.38744C20.75 8.38502 20.75 8.3826 20.75 8.38019C20.75 8.37777 20.75 8.37535 20.75 8.37293C20.75 8.37051 20.75 8.36809 20.75 8.36567C20.75 8.36325 20.75 8.36082 20.75 8.3584C20.75 8.35597 20.75 8.35355 20.75 8.35112C20.75 8.3487 20.75 8.34627 20.75 8.34384C20.75 8.34141 20.75 8.33898 20.75 8.33655C20.75 8.33412 20.75 8.33169 20.75 8.32926C20.75 8.32683 20.75 8.3244 20.75 8.32196C20.75 8.31953 20.75 8.31709 20.75 8.31466C20.75 8.31222 20.75 8.30978 20.75 8.30734C20.75 8.30491 20.75 8.30247 20.75 8.30003C20.75 8.29759 20.75 8.29515 20.75 8.29271C20.75 8.29026 20.75 8.28782 20.75 8.28538C20.75 8.28293 20.75 8.28049 20.75 8.27805C20.75 8.2756 20.75 8.27315 20.75 8.27071C20.75 8.26826 20.75 8.26581 20.75 8.26336C20.75 8.26091 20.75 8.25846 20.75 8.25601C20.75 8.25356 20.75 8.25111 20.75 8.24866C20.75 8.24621 20.75 8.24376 20.75 8.2413C20.75 8.23885 20.75 8.23639 20.75 8.23394C20.75 8.23148 20.75 8.22903 20.75 8.22657C20.75 8.22411 20.75 8.22166 20.75 8.2192C20.75 8.21674 20.75 8.21428 20.75 8.21182C20.75 8.20936 20.75 8.2069 20.75 8.20444C20.75 8.20198 20.75 8.19951 20.75 8.19705C20.75 8.19459 20.75 8.19212 20.75 8.18966C20.75 8.1872 20.75 8.18473 20.75 8.18226C20.75 8.1798 20.75 8.17733 20.75 8.17487C20.75 8.1724 20.75 8.16993 20.75 8.16746C20.75 8.16499 20.75 8.16252 20.75 8.16005C20.75 8.15758 20.75 8.15511 20.75 8.15264C20.75 8.15017 20.75 8.1477 20.75 8.14523C20.75 8.14276 20.75 8.14028 20.75 8.13781C20.75 8.13534 20.75 8.13286 20.75 8.13039C20.75 8.12791 20.75 8.12544 20.75 8.12296C20.75 8.12048 20.75 8.11801 20.75 8.11553C20.75 8.11305 20.75 8.11058 20.75 8.1081C20.75 8.10562 20.75 8.10314 20.75 8.10066C20.75 8.09818 20.75 8.0957 20.75 8.09322C20.75 8.09074 20.75 8.08826 20.75 8.08578C20.75 8.0833 20.75 8.08082 20.75 8.07833C20.75 8.07585 20.75 8.07337 20.75 8.07088C20.75 8.0684 20.75 8.06592 20.75 8.06343C20.75 8.06095 20.75 8.05846 20.75 8.05598C20.75 8.05349 20.75 8.05101 20.75 8.04852C20.75 8.04604 20.75 8.04355 20.75 8.04106C20.75 8.03858 20.75 8.03609 20.75 8.0336C20.75 8.03111 20.75 8.02862 20.75 8.02614C20.75 8.02365 20.75 8.02116 20.75 8.01867C20.75 8.01618 20.75 8.01369 20.75 8.0112C20.75 8.00871 20.75 8.00622 20.75 8.00373C20.75 8.00124 20.75 7.99875 20.75 7.99626C20.75 7.99376 20.75 7.99127 20.75 7.98878C20.75 7.98629 20.75 7.9838 20.75 7.9813C20.75 7.97881 20.75 7.97632 20.75 7.97382C20.75 7.97133 20.75 7.96884 20.75 7.96634C20.75 7.96385 20.75 7.96135 20.75 7.95886C20.75 7.95637 20.75 7.95387 20.75 7.95138C20.75 7.94888 20.75 7.94639 20.75 7.94389C20.75 7.9414 20.75 7.9389 20.75 7.9364C20.75 7.93391 20.75 7.93141 20.75 7.92892C20.75 7.92642 20.75 7.92392 20.75 7.92143C20.75 7.91893 20.75 7.91643 20.75 7.91394C20.75 7.91144 20.75 7.90894 20.75 7.90644C20.75 7.90395 20.75 7.90145 20.75 7.89895C20.75 7.89645 20.75 7.89396 20.75 7.89146C20.75 7.88896 20.75 7.88646 20.75 7.88396C20.75 7.88147 20.75 7.87897 20.75 7.87647C20.75 7.87397 20.75 7.87147 20.75 7.86897C20.75 7.86648 20.75 7.86398 20.75 7.86148C20.75 7.85898 20.75 7.85648 20.75 7.85398C20.75 7.85148 20.75 7.84898 20.75 7.84649C20.75 7.84399 20.75 7.84149 20.75 7.83899C20.75 7.83649 20.75 7.83399 20.75 7.83149C20.75 7.82899 20.75 7.82649 20.75 7.82399C20.75 7.8215 20.75 7.819 20.75 7.8165C20.75 7.814 20.75 7.8115 20.75 7.809C20.75 7.8065 20.75 7.804 20.75 7.8015C20.75 7.799 20.75 7.79651 20.75 7.79401C20.75 7.79151 20.75 7.78901 20.75 7.78651C20.75 7.78401 20.75 7.78151 20.75 7.77901C20.75 7.77652 20.75 7.77402 20.75 7.77152C20.75 7.76902 20.75 7.76652 20.75 7.76402C20.75 7.76153 20.75 7.75903 20.75 7.75653C20.75 7.75403 20.75 7.75153 20.75 7.74904C20.75 7.74654 20.75 7.74404 20.75 7.74154C20.75 7.73905 20.75 7.73655 20.75 7.73405C20.75 7.73156 20.75 7.72906 20.75 7.72656C20.75 7.72407 20.75 7.72157 20.75 7.71907C20.75 7.71658 20.75 7.71408 20.75 7.71159C20.75 7.70909 20.75 7.70659 20.75 7.7041C20.75 7.7016 20.75 7.69911 20.75 7.69661C20.75 7.69412 20.75 7.69162 20.75 7.68913C20.75 7.68664 20.75 7.68414 20.75 7.68165C20.75 7.67915 20.75 7.67666 20.75 7.67417C20.75 7.67167 20.75 7.66918 20.75 7.66669C20.75 7.6642 20.75 7.6617 20.75 7.65921C20.75 7.65672 20.75 7.65423 20.75 7.65174C20.75 7.64925 20.75 7.64675 20.75 7.64426C20.75 7.64177 20.75 7.63928 20.75 7.63679C20.75 7.6343 20.75 7.63181 20.75 7.62932C20.75 7.62684 20.75 7.62435 20.75 7.62186C20.75 7.61937 20.75 7.61688 20.75 7.61439C20.75 7.61191 20.75 7.60942 20.75 7.60693C20.75 7.60445 20.75 7.60196 20.75 7.59947C20.75 7.59699 20.75 7.5945 20.75 7.59202C20.75 7.58953 20.75 7.58705 20.75 7.58456C20.75 7.58208 20.75 7.5796 20.75 7.57711C20.75 7.57463 20.75 7.57215 20.75 7.56966C20.75 7.56718 20.75 7.5647 20.75 7.56222C20.75 7.55974 20.75 7.55726 20.75 7.55478C20.75 7.5523 20.75 7.54982 20.75 7.54734C20.75 7.54486 20.75 7.54238 20.75 7.5399C20.75 7.53742 20.75 7.53495 20.75 7.53247C20.75 7.52999 20.75 7.52752 20.75 7.52504C20.75 7.52256 20.75 7.52009 20.75 7.51762C20.75 7.51514 20.75 7.51267 20.75 7.51019C20.75 7.50772 20.75 7.50525 20.75 7.50277C20.75 7.5003 20.75 7.49783 20.75 7.49536C20.75 7.49289 20.75 7.49042 20.75 7.48795C20.75 7.48548 20.75 7.48301 20.75 7.48054C20.75 7.47807 20.75 7.47561 20.75 7.47314C20.75 7.47067 20.75 7.46821 20.75 7.46574C20.75 7.46328 20.75 7.46081 20.75 7.45835C20.75 7.45588 20.75 7.45342 20.75 7.45096C20.75 7.44849 20.75 7.44603 20.75 7.44357C20.75 7.44111 20.75 7.43865 20.75 7.43619C20.75 7.43373 20.75 7.43127 20.75 7.42881C20.75 7.42635 20.75 7.4239 20.75 7.42144C20.75 7.41898 20.75 7.41653 20.75 7.41407C20.75 7.41162 20.75 7.40916 20.75 7.40671C20.75 7.40426 20.75 7.4018 20.75 7.39935C20.75 7.3969 20.75 7.39445 20.75 7.392C20.75 7.38955 20.75 7.3871 20.75 7.38465C20.75 7.3822 20.75 7.37976 20.75 7.37731C20.75 7.37486 20.75 7.37242 20.75 7.36997C20.75 7.36753 20.75 7.36508 20.75 7.36264C20.75 7.3602 20.75 7.35775 20.75 7.35531C20.75 7.35287 20.75 7.35043 20.75 7.34799C20.75 7.34555 20.75 7.34311 20.75 7.34068C20.75 7.33824 20.75 7.3358 20.75 7.33337C20.75 7.33093 20.75 7.3285 20.75 7.32606C20.75 7.32363 20.75 7.32119 20.75 7.31876C20.75 7.31633 20.75 7.3139 20.75 7.31147C20.75 7.30904 20.75 7.30661 20.75 7.30418C20.75 7.30176 20.75 7.29933 20.75 7.2969C20.75 7.29448 20.75 7.29205 20.75 7.28963C20.75 7.28721 20.75 7.28478 20.75 7.28236C20.75 7.27994 20.75 7.27752 20.75 7.2751C20.75 7.27268 20.75 7.27026 20.75 7.26784C20.75 7.26543 20.75 7.26301 20.75 7.2606C20.75 7.25818 20.75 7.25577 20.75 7.25335C20.75 7.25094 20.75 7.24853 20.75 7.24612C20.75 7.24371 20.75 7.2413 20.75 7.23889C20.75 7.23648 20.75 7.23407 20.75 7.23167C20.75 7.22926 20.75 7.22686 20.75 7.22445C20.75 7.22205 20.75 7.21965 20.75 7.21725C20.75 7.21485 20.75 7.21245 20.75 7.21005C20.75 7.20765 20.75 7.20525 20.75 7.20285C20.75 7.20046 20.75 7.19806 20.75 7.19567C20.75 7.19327 20.75 7.19088 20.75 7.18849C20.75 7.1861 20.75 7.18371 20.75 7.18132C20.75 7.17893 20.75 7.17654 20.75 7.17415C20.75 7.17177 20.75 7.16938 20.75 7.167C20.75 7.16461 20.75 7.16223 20.75 7.15985C20.75 7.15747 20.75 7.15509 20.75 7.15271C20.75 7.15033 20.75 7.14795 20.75 7.14558C20.75 7.1432 20.75 7.14083 20.75 7.13845C20.75 7.13608 20.75 7.13371 20.75 7.13134C20.75 7.12897 20.75 7.1266 20.75 7.12423C20.75 7.12186 20.75 7.1195 20.75 7.11713C20.75 7.11477 20.75 7.1124 20.75 7.11004C20.75 7.10768 20.75 7.10532 20.75 7.10296C20.75 7.1006 20.75 7.09824 20.75 7.09588C20.75 7.09353 20.75 7.09117 20.75 7.08882C20.75 7.08646 20.75 7.08411 20.75 7.08176C20.75 7.07941 20.75 7.07706 20.75 7.07471C20.75 7.07236 20.75 7.07002 20.75 7.06767C20.75 7.06533 20.75 7.06298 20.75 7.06064C20.75 7.0583 20.75 7.05596 20.75 7.05362C20.75 7.05128 20.75 7.04894 20.75 7.04661C20.75 7.04427 20.75 7.04194 20.75 7.03961C20.75 7.03727 20.75 7.03494 20.75 7.03261C20.75 7.03028 20.75 7.02795 20.75 7.02563C20.75 7.0233 20.75 7.02098 20.75 7.01865C20.75 7.01633 20.75 7.01401 20.75 7.01169C20.75 7.00937 20.75 7.00705 20.75 7.00473C20.75 7.00242 20.75 7.0001 20.75 6.99779C20.75 6.99547 20.75 6.99316 20.75 6.99085C20.75 6.98854 20.75 6.98623 20.75 6.98393C20.75 6.98162 20.75 6.97931 20.75 6.97701C20.75 6.97471 20.75 6.9724 20.75 6.9701C20.75 6.9678 20.75 6.96551 20.75 6.96321C20.75 6.96091 20.75 6.95862 20.75 6.95632C20.75 6.95403 20.75 6.95174 20.75 6.94945C20.75 6.94716 20.75 6.94487 20.75 6.94258C20.75 6.9403 20.75 6.93801 20.75 6.93573C20.75 6.93345 20.75 6.93117 20.75 6.92889C20.75 6.92661 20.75 6.92433 20.75 6.92205C20.75 6.91978 20.75 6.9175 20.75 6.91523C20.75 6.91296 20.75 6.91069 20.75 6.90842C20.75 6.90615 20.75 6.90389 20.75 6.90162C20.75 6.89936 20.75 6.89709 20.75 6.89483C20.75 6.89257 20.75 6.89031 20.75 6.88805C20.75 6.8858 20.75 6.88354 20.75 6.88129C20.75 6.87903 20.75 6.87678 20.75 6.87453C20.75 6.87228 20.75 6.87004 20.75 6.86779C20.75 6.86554 20.75 6.8633 20.75 6.86106C20.75 6.85881 20.75 6.85657 20.75 6.85434C20.75 6.8521 20.75 6.84986 20.75 6.84763C20.75 6.84539 20.75 6.84316 20.75 6.84093C20.75 6.8387 20.75 6.83647 20.75 6.83424C20.75 6.83202 20.75 6.82979 20.75 6.82757C20.75 6.82535 20.75 6.82313 20.75 6.82091C20.75 6.81869 20.75 6.81647 20.75 6.81426C20.75 6.81205 20.75 6.80983 20.75 6.80762C20.75 6.80541 20.75 6.8032 20.75 6.801C20.75 6.79879 20.75 6.79659 20.75 6.79439C20.75 6.79218 20.75 6.78998 20.75 6.78779C20.75 6.78559 20.75 6.78339 20.75 6.7812C20.75 6.779 20.75 6.77681 20.75 6.77462C20.75 6.77243 20.75 6.77025 20.75 6.76806C20.75 6.76588 20.75 6.76369 20.75 6.76151C20.75 6.75933 20.75 6.75715 20.75 6.75498C20.75 6.7528 20.75 6.75062 20.75 6.74845C20.75 6.74628 20.75 6.74411 20.75 6.74194C20.75 6.73977 20.75 6.73761 20.75 6.73544C20.75 6.73328 20.75 6.73112 20.75 6.72896C20.75 6.7268 20.75 6.72464 20.75 6.72249C20.75 6.72033 20.75 6.71818 20.75 6.71603C20.75 6.71388 20.75 6.71173 20.75 6.70959C20.75 6.70744 20.75 6.7053 20.75 6.70316C20.75 6.70102 20.75 6.69888 20.75 6.69674C20.75 6.6946 20.75 6.69247 20.75 6.69034C20.75 6.68821 20.75 6.68608 20.75 6.68395C20.75 6.68182 20.75 6.6797 20.75 6.67757C20.75 6.67545 20.75 6.67333 20.75 6.67121C20.75 6.66909 20.75 6.66698 20.75 6.66487C20.75 6.66275 20.75 6.66064 20.75 6.65853C20.75 6.65642 20.75 6.65432 20.75 6.65221C20.75 6.65011 20.75 6.64801 20.75 6.64591C20.75 6.64381 20.75 6.64172 20.75 6.63962C20.75 6.63753 20.75 6.63544 20.75 6.63335C20.75 6.63126 20.75 6.62917 20.75 6.62709C20.75 6.625 20.75 6.62292 20.75 6.62084C20.75 6.61876 20.75 6.61668 20.75 6.61461C20.75 6.61253 20.75 6.61046 20.75 6.60839C20.75 6.60632 20.75 6.60426 20.75 6.60219C20.75 6.60013 20.75 6.59806 20.75 6.59601C20.75 6.59395 20.75 6.59189 20.75 6.58983C20.75 6.58778 20.75 6.58573 20.75 6.58368C20.75 6.58163 20.75 6.57958 20.75 6.57754C20.75 6.57549 20.75 6.57345 20.75 6.57141C20.75 6.56937 20.75 6.56734 20.75 6.5653C20.75 6.56327 20.75 6.56124 20.75 6.55921C20.75 6.55718 20.75 6.55516 20.75 6.55313C20.75 6.55111 20.75 6.54909 20.75 6.54707C20.75 6.54505 20.75 6.54304 20.75 6.54102C20.75 6.53901 20.75 6.537 20.75 6.53499C20.75 6.53298 20.75 6.53098 20.75 6.52898C20.75 6.52698 20.75 6.52498 20.75 6.52298C20.75 6.52098 20.75 6.51899 20.75 6.517C20.75 6.51501 20.75 6.51302 20.75 6.51103C20.75 6.50905 20.75 6.50706 20.75 6.50508C20.75 6.5031 20.75 6.50112 20.75 6.49915C20.75 6.49717 20.75 6.4952 20.75 6.49323C20.75 6.49126 20.75 6.4893 20.75 6.48733C20.75 6.48537 20.75 6.48341 20.75 6.48145C20.75 6.47949 20.75 6.47753 20.75 6.47558C20.75 6.47363 20.75 6.47168 20.75 6.46973C20.75 6.46779 20.75 6.46584 20.75 6.4639C20.75 6.46196 20.75 6.46002 20.75 6.45808C20.75 6.45615 20.75 6.45422 20.75 6.45229C20.75 6.45036 20.75 6.44843 20.75 6.4465C20.75 6.44458 20.75 6.44266 20.75 6.44074C20.75 6.43882 20.75 6.43691 20.75 6.43499C20.75 6.43308 20.75 6.43117 20.75 6.42927C20.75 6.42736 20.75 6.42545 20.75 6.42355C20.75 6.42165 20.75 6.41975 20.75 6.41786C20.75 6.41597 20.75 6.41407 20.75 6.41218C20.75 6.4103 20.75 6.40841 20.75 6.40653C20.75 6.40464 20.75 6.40276 20.75 6.40089C20.75 6.39901 20.75 6.39713 20.75 6.39526C20.75 6.39339 20.75 6.39152 20.75 6.38966C20.75 6.38779 20.75 6.38593 20.75 6.38407C20.75 6.38222 20.75 6.38036 20.75 6.37851C20.75 6.37665 20.75 6.3748 20.75 6.37296C20.75 6.37111 20.75 6.36927 20.75 6.36743C20.75 6.36559 20.75 6.36375 20.75 6.36191C20.75 6.36008 20.75 6.35825 20.75 6.35642C20.75 6.35459 20.75 6.35277 20.75 6.35095C20.75 6.34912 20.75 6.34731 20.75 6.34549C20.75 6.34367 20.75 6.34186 20.75 6.34005C20.75 6.33824 20.75 6.33644 20.75 6.33463C20.75 6.33283 20.75 6.33103 20.75 6.32924C20.75 6.32744 20.75 6.32565 20.75 6.32386C20.75 6.32207 20.75 6.32028 20.75 6.3185C20.75 6.31671 20.75 6.31493 20.75 6.31315C20.75 6.31138 20.75 6.3096 20.75 6.30783C20.75 6.30606 20.75 6.30429 20.75 6.30253C20.75 6.30077 20.75 6.299 20.75 6.29725C20.75 6.29549 20.75 6.29373 20.75 6.29198C20.75 6.29023 20.75 6.28848 20.75 6.28674C20.75 6.285 20.75 6.28325 20.75 6.28152C20.75 6.27978 20.75 6.27804 20.75 6.27631C20.75 6.27458 20.75 6.27285 20.75 6.27113C20.75 6.2694 20.75 6.26768 20.75 6.26597C20.75 6.26425 20.75 6.26253 20.75 6.26082C20.75 6.25911 20.75 6.2574 20.75 6.2557C20.75 6.254 20.75 6.25229 20.75 6.2506C20.75 6.2489 20.75 6.24721 20.75 6.24551C20.75 6.24382 20.75 6.24214 20.75 6.24045C20.75 6.23877 20.75 6.23709 20.75 6.23541C20.75 6.23374 20.75 6.23206 20.75 6.23039C20.75 6.22872 20.75 6.22706 20.75 6.22539C20.75 6.22373 20.75 6.22207 20.75 6.22041C20.75 6.21876 20.75 6.21711 20.75 6.21546C20.75 6.21381 20.75 6.21216 20.75 6.21052C20.75 6.20888 20.75 6.20724 20.75 6.2056C20.75 6.20397 20.75 6.20234 20.75 6.20071C20.75 6.19908 20.75 6.19746 20.75 6.19584C20.75 6.19422 20.75 6.1926 20.75 6.19099C20.75 6.18937 20.75 6.18776 20.75 6.18616C20.75 6.18455 20.75 6.18295 20.75 6.18135C20.75 6.17975 20.75 6.17815 20.75 6.17656C20.75 6.17497 20.75 6.17338 20.75 6.1718C20.75 6.17021 20.75 6.16863 20.75 6.16705C20.75 6.16548 20.75 6.1639 20.75 6.16233C20.75 6.16076 20.75 6.1592 20.75 6.15763C20.75 6.15607 20.75 6.15451 20.75 6.15296C20.75 6.1514 20.75 6.14985 20.75 6.1483C20.75 6.14675 20.75 6.14521 20.75 6.14367C20.75 6.14213 20.75 6.14059 20.75 6.13906C20.75 6.13753 20.75 6.136 20.75 6.13447C20.75 6.13295 20.75 6.13142 20.75 6.12991C20.75 6.12839 20.75 6.12687 20.75 6.12536C20.75 6.12385 20.75 6.12235 20.75 6.12084C20.75 6.11934 20.75 6.11784 20.75 6.11635C20.75 6.11485 20.75 6.11336 20.75 6.11187C20.75 6.11039 20.75 6.1089 20.75 6.10742C20.75 6.10594 20.75 6.10447 20.75 6.10299C20.75 6.10152 20.75 6.10005 20.75 6.09859C20.75 6.09713 20.75 6.09567 20.75 6.09421C20.75 6.09275 20.75 6.0913 20.75 6.08985C20.75 6.0884 20.75 6.08696 20.75 6.08552C20.75 6.08407 20.75 6.08264 20.75 6.0812C20.75 6.07977 20.75 6.07834 20.75 6.07692C20.75 6.07549 20.75 6.07407 20.75 6.07265C20.75 6.07124 20.75 6.06982 20.75 6.06841C20.75 6.067 20.75 6.0656 20.75 6.0642C20.75 6.06279 20.75 6.0614 20.75 6.06C20.75 6.05861 20.75 6.05722 20.75 6.05584C20.75 6.05445 20.75 6.05307 20.75 6.05169C20.75 6.05031 20.75 6.04894 20.75 6.04757C20.75 6.0462 20.75 6.04484 20.75 6.04347C20.75 6.04211 20.75 6.04076 20.75 6.0394C20.75 6.03805 20.75 6.0367 20.75 6.03536C20.75 6.03401 20.75 6.03267 20.75 6.03133C20.75 6.03 20.75 6.02866 20.75 6.02734C20.75 6.02601 20.75 6.02468 20.75 6.02336C20.75 6.02204 20.75 6.02073 20.75 6.01941C20.75 6.0181 20.75 6.0168 20.75 6.01549C20.75 6.01419 20.75 6.01289 20.75 6.01159C20.75 6.0103 20.75 6.00901 20.75 6.00772C20.75 6.00643 20.75 6.00515 20.75 6.00387C20.75 6.00259 20.75 6.00132 20.75 6.00005C20.75 5.99878 20.75 5.99751 20.75 5.99625C20.75 5.99499 20.75 5.99373 20.75 5.99248C20.75 5.99123 20.75 5.98998 20.75 5.98873C20.75 5.98749 20.75 5.98625 20.75 5.98501C20.75 5.98378 20.75 5.98254 20.75 5.98132C20.75 5.98009 20.75 5.97887 20.75 5.97765C20.75 5.97643 20.75 5.97521 20.75 5.974C20.75 5.97279 20.75 5.97159 20.75 5.97038C20.75 5.96918 20.75 5.96799 20.75 5.96679C20.75 5.9656 20.75 5.96441 20.75 5.96323C20.75 5.96204 20.75 5.96086 20.75 5.95969C20.75 5.95851 20.75 5.95734 20.75 5.95617C20.75 5.95501 20.75 5.95385 20.75 5.95269C20.75 5.95153 20.75 5.95038 20.75 5.94923C20.75 5.94808 20.75 5.94693 20.75 5.94579C20.75 5.94465 20.75 5.94352 20.75 5.94239C20.75 5.94126 20.75 5.94013 20.75 5.93901C20.75 5.93788 20.75 5.93677 20.75 5.93565C20.75 5.93454 20.75 5.93343 20.75 5.93233C20.75 5.93122 20.75 5.93012 20.75 5.92903C20.75 5.92793 20.75 5.92684 20.75 5.92575C20.75 5.92467 20.75 5.92359 20.75 5.92251C20.75 5.92143 20.75 5.92036 20.75 5.91929C20.75 5.91822 20.75 5.91716 20.75 5.9161C20.75 5.91504 20.75 5.91398 20.75 5.91294C20.75 5.91189 20.75 5.91084 20.75 5.9098C20.75 5.90876 20.75 5.90772 20.75 5.90669C20.75 5.90566 20.75 5.90463 20.75 5.90361C20.75 5.90259 20.75 5.90157 20.75 5.90056C20.75 5.89954 20.75 5.89854 20.75 5.89753C20.75 5.89653 20.75 5.89553 20.75 5.89453C20.75 5.89354 20.75 5.89255 20.75 5.89157C20.75 5.89058 20.75 5.8896 20.75 5.88862C20.75 5.88765 20.75 5.88668 20.75 5.88571C20.75 5.88475 20.75 5.88378 20.75 5.88283C20.75 5.88187 20.75 5.88092 20.75 5.87997C20.75 5.87902 20.75 5.87808 20.75 5.87714C20.75 5.87621 20.75 5.87527 20.75 5.87434C20.75 5.87342 20.75 5.87249 20.75 5.87157C20.75 5.87066 20.75 5.86974 20.75 5.86883C20.75 5.86792 20.75 5.86702 20.75 5.86612C20.75 5.86522 20.75 5.86433 20.75 5.86344C20.75 5.86255 20.75 5.86166 20.75 5.86078C20.75 5.8599 20.75 5.85902 20.75 5.85815C20.75 5.85728 20.75 5.85642 20.75 5.85556C20.75 5.8547 20.75 5.85384 20.75 5.85299C20.75 5.85214 20.75 5.85129 20.75 5.85045C20.75 5.84961 20.75 5.84877 20.75 5.84794C20.75 5.84711 20.75 5.84629 20.75 5.84546C20.75 5.84464 20.75 5.84383 20.75 5.84301C20.75 5.8422 20.75 5.8414 20.75 5.84059C20.75 5.83979 20.75 5.839 20.75 5.8382C20.75 5.83741 20.75 5.83663 20.75 5.83584C20.75 5.83506 20.75 5.83428 20.75 5.83351C20.75 5.83274 20.75 5.83197 20.75 5.83121C20.75 5.83045 20.75 5.82969 20.75 5.82894C20.75 5.82819 20.75 5.82744 20.75 5.8267C20.75 5.82596 20.75 5.82522 20.75 5.82449C20.75 5.82376 20.75 5.82303 20.75 5.82231C20.75 5.82159 20.75 5.82088 20.75 5.82016C20.75 5.81945 20.75 5.81875 20.75 5.81805C20.75 5.81734 20.75 5.81665 20.75 5.81596C20.75 5.81527 20.75 5.81458 20.75 5.8139C20.75 5.81322 20.75 5.81254 20.75 5.81187C20.75 5.8112 20.75 5.81054 20.75 5.80988C20.75 5.80922 20.75 5.80856 20.75 5.80792C20.75 5.80727 20.75 5.80662 20.75 5.80598C20.75 5.80534 20.75 5.80471 20.75 5.80408C20.75 5.80345 20.75 5.80283 20.75 5.80221C20.75 5.80159 20.75 5.80098 20.75 5.80037C20.75 5.79976 20.75 5.79916 20.75 5.79856C20.75 5.79796 20.75 5.79737 20.75 5.79678C20.75 5.7962 20.75 5.79562 20.75 5.79504C20.75 5.79446 20.75 5.79389 20.75 5.79333C20.75 5.79276 20.75 5.7922 20.75 5.79165C20.75 5.79109 20.75 5.79054 20.75 5.79C20.75 5.78945 20.75 5.78891 20.75 5.78838C20.75 5.78784 20.75 5.78732 20.75 5.78679C20.75 5.78627 20.75 5.78575 20.75 5.78524C20.75 5.78473 20.75 5.78422 20.75 5.78372C20.75 5.78322 20.75 5.78272 20.75 5.78223C20.75 5.78174 20.75 5.78125 20.75 5.78077C20.75 5.78029 20.75 5.77982 20.75 5.77935C20.75 5.77888 20.75 5.77841 20.75 5.77796C20.75 5.7775 20.75 5.77704 20.75 5.7766C20.75 5.77615 20.75 5.77571 20.75 5.77527C20.75 5.77483 20.75 5.7744 20.75 5.77398C20.75 5.77355 20.75 5.77313 20.75 5.77272C20.75 5.7723 20.75 5.77189 20.75 5.77149C20.75 5.77109 20.75 5.77069 20.75 5.77029C20.75 5.7699 20.75 5.76951 20.75 5.76913C20.75 5.76875 20.75 5.76838 20.75 5.76801C20.75 5.76763 20.75 5.76727 20.75 5.76691C20.75 5.76655 20.75 5.7662 20.75 5.76585C20.75 5.7655 20.75 5.76516 20.75 5.76482C20.75 5.76448 20.75 5.76415 20.75 5.76383C20.75 5.7635 20.75 5.76318 20.75 5.76287C20.75 5.76255 20.75 5.76224 20.75 5.76194C20.75 5.76164 20.75 5.76134 20.75 5.76105C20.75 5.76076 20.75 5.76047 20.75 5.76019C20.75 5.75991 20.75 5.75963 20.75 5.75936C20.75 5.75909 20.75 5.75883 20.75 5.75857C20.75 5.75831 20.75 5.75806 20.75 5.75782C20.75 5.75757 20.75 5.75733 20.75 5.75709C20.75 5.75686 20.75 5.75663 20.75 5.75641C20.75 5.75618 20.75 5.75596 20.75 5.75575C20.75 5.75554 20.75 5.75533 20.75 5.75513C20.75 5.75493 20.75 5.75474 20.75 5.75455C20.75 5.75436 20.75 5.75418 20.75 5.754C20.75 5.75382 20.75 5.75365 20.75 5.75349C20.75 5.75332 20.75 5.75316 20.75 5.75301C20.75 5.75285 20.75 5.7527 20.75 5.75256C20.75 5.75242 20.75 5.75228 20.75 5.75215C20.75 5.75202 20.75 5.7519 20.75 5.75178C20.75 5.75166 20.75 5.75154 20.75 5.75144C20.75 5.75133 20.75 5.75123 20.75 5.75113C20.75 5.75104 20.75 5.75095 20.75 5.75087C20.75 5.75078 20.75 5.7507 20.75 5.75063C20.75 5.75056 20.75 5.75049 20.75 5.75043C20.75 5.75038 20.75 5.75032 20.75 5.75027C20.75 5.75023 20.75 5.75018 20.75 5.75015C20.75 5.75011 20.75 5.75008 20.75 5.75006C20.75 5.75003 20.75 5.75002 20.75 5.75C20.75 5.74999 20.75 5.74999 20 5.74999Z" fill="#8ECAE6"/>
<path d="M9.88036 6.36382C9.99122 5.96472 9.75755 5.55131 9.35845 5.44045C8.95935 5.32959 8.54594 5.56325 8.43508 5.96235L9.88036 6.36382ZM6.29625 9.72688C6.04034 10.0526 6.09692 10.5241 6.42262 10.78C6.74832 11.0359 7.21982 10.9793 7.47573 10.6536L6.29625 9.72688ZM8.43508 5.96235C7.96247 7.66374 7.42986 8.2841 6.29625 9.72688L7.47573 10.6536C8.61385 9.2051 9.32036 8.37981 9.88036 6.36382L8.43508 5.96235Z" fill="#219EBC"/>
<path d="M11.522 6.32023C11.4352 5.91521 11.6932 5.51652 12.0982 5.42973C12.5032 5.34294 12.9019 5.60092 12.9887 6.00594L11.522 6.32023ZM15.0782 9.68154C15.3592 9.9859 15.3402 10.4604 15.0358 10.7414C14.7314 11.0223 14.2569 11.0033 13.976 10.699L15.0782 9.68154ZM12.9887 6.00594C13.2625 7.28367 13.901 8.40627 15.0782 9.68154L13.976 10.699C12.6749 9.28945 11.8678 7.93379 11.522 6.32023L12.9887 6.00594Z" fill="#219EBC"/>
<path d="M9.75009 23.614C9.75009 24.0282 10.0859 24.364 10.5001 24.364C10.9143 24.364 11.2501 24.0282 11.2501 23.614H9.75009ZM11.2501 12.6683C11.2501 12.2541 10.9143 11.9183 10.5001 11.9183C10.0859 11.9183 9.75009 12.2541 9.75009 12.6683H11.2501ZM5.25935 18.882C5.19415 19.291 5.4729 19.6755 5.88195 19.7407C6.291 19.8058 6.67546 19.5271 6.74065 19.118L5.25935 18.882ZM6.16314 16.7988L6.91313 16.7949L6.16314 16.7988ZM5.7501 14.114L6.4717 13.9096L5.7501 14.114ZM4.82076 11.739L5.54195 11.5331L4.82076 11.739ZM5.15445 9.19081C5.11582 8.7784 4.75019 8.47539 4.33778 8.51401C3.92537 8.55263 3.62236 8.91827 3.66098 9.33068L5.15445 9.19081ZM11.2501 23.614V12.6683H9.75009V23.614H11.2501ZM6 19C6.74065 19.118 6.74066 19.118 6.74067 19.1179C6.74068 19.1179 6.74069 19.1178 6.7407 19.1177C6.74072 19.1176 6.74074 19.1175 6.74076 19.1174C6.74081 19.1171 6.74087 19.1167 6.74093 19.1163C6.74107 19.1154 6.74124 19.1143 6.74146 19.1129C6.74188 19.1102 6.74247 19.1065 6.74319 19.1017C6.74465 19.0923 6.74668 19.0789 6.74921 19.0617C6.75426 19.0275 6.7613 18.9784 6.76964 18.9163C6.78631 18.7923 6.80824 18.616 6.82993 18.4031C6.8731 17.9792 6.91627 17.4006 6.91313 16.7949L5.41315 16.8026C5.41593 17.3375 5.37753 17.8595 5.33765 18.2511C5.31781 18.4459 5.29785 18.6061 5.283 18.7166C5.27559 18.7718 5.26946 18.8144 5.2653 18.8427C5.26321 18.8568 5.26162 18.8672 5.2606 18.8739C5.26009 18.8772 5.25973 18.8795 5.25951 18.8809C5.25941 18.8816 5.25934 18.882 5.25931 18.8822C5.2593 18.8823 5.25929 18.8823 5.2593 18.8823C5.2593 18.8822 5.25931 18.8822 5.25932 18.8822C5.25932 18.8821 5.25933 18.8821 5.25933 18.8821C5.25934 18.882 5.25935 18.882 6 19ZM6.91313 16.7949C6.90698 15.6076 6.78427 15.0129 6.4717 13.9096L5.0285 14.3184C5.31596 15.3331 5.4079 15.7886 5.41315 16.8026L6.91313 16.7949ZM6.4717 13.9096C6.32347 13.3863 6.13392 12.9754 5.9677 12.6133C5.80001 12.2481 5.65591 11.9324 5.54195 11.5331L4.09956 11.9448C4.24869 12.4673 4.43863 12.8779 4.60453 13.2393C4.77189 13.6037 4.91547 13.9194 5.0285 14.3184L6.4717 13.9096ZM5.54195 11.5331C5.42247 11.1145 5.32485 10.5383 5.25613 10.043C5.22245 9.80027 5.19689 9.58578 5.17976 9.4322C5.17122 9.35551 5.1648 9.29428 5.16057 9.25263C5.15845 9.23181 5.15688 9.21591 5.15585 9.20542C5.15534 9.20018 5.15497 9.1963 5.15474 9.19385C5.15462 9.19262 5.15454 9.19174 5.15449 9.19123C5.15446 9.19098 5.15445 9.19082 5.15444 9.19074C5.15444 9.19071 5.15444 9.1907 5.15444 9.19071C5.15444 9.19071 5.15444 9.19074 5.15444 9.19074C5.15444 9.19077 5.15445 9.19081 4.40771 9.26074C3.66098 9.33068 3.66099 9.33073 3.66099 9.33078C3.66099 9.33081 3.661 9.33087 3.66101 9.33092C3.66101 9.33102 3.66103 9.33115 3.66104 9.3313C3.66107 9.3316 3.66111 9.332 3.66115 9.33248C3.66124 9.33346 3.66137 9.3348 3.66153 9.3365C3.66186 9.33991 3.66233 9.34476 3.66293 9.35099C3.66415 9.36345 3.66593 9.38144 3.66827 9.40443C3.67294 9.4504 3.67986 9.51645 3.689 9.59839C3.70724 9.76205 3.73444 9.99023 3.77036 10.2491C3.84084 10.7571 3.94974 11.42 4.09956 11.9448L5.54195 11.5331Z" fill="#219EBC"/>
<path d="M17.3372 9.34815C17.3855 8.93676 17.0911 8.56413 16.6797 8.51585C16.2683 8.46758 15.8957 8.76194 15.8474 9.17334L17.3372 9.34815ZM16.1793 11.5325L15.4532 11.3444L16.1793 11.5325ZM15.1467 14.4238L15.8702 14.6211L15.1467 14.4238ZM14.8369 17.4183L14.0895 17.4806C14.0914 17.5039 14.0944 17.5271 14.0986 17.5502L14.8369 17.4183ZM15.7662 23.614V24.364C15.9813 24.364 16.1861 24.2716 16.3285 24.1103C16.4708 23.949 16.5371 23.7344 16.5104 23.5209L15.7662 23.614ZM5.23364 23.614L4.48878 23.5263C4.46376 23.739 4.53086 23.9523 4.67319 24.1123C4.81551 24.2724 5.01947 24.364 5.23364 24.364V23.614ZM6.28763 21.1255C6.33901 20.7145 6.04747 20.3396 5.63645 20.2882C5.22544 20.2369 4.85059 20.5284 4.79922 20.9394L6.28763 21.1255ZM16.5923 9.26074C15.8474 9.17334 15.8474 9.1733 15.8474 9.17327C15.8474 9.17326 15.8474 9.17323 15.8474 9.17322C15.8474 9.1732 15.8474 9.1732 15.8474 9.17322C15.8474 9.17326 15.8474 9.17337 15.8474 9.17355C15.8473 9.17392 15.8473 9.17458 15.8472 9.17554C15.8469 9.17744 15.8466 9.1805 15.8461 9.18468C15.845 9.19302 15.8435 9.20582 15.8414 9.22271C15.8371 9.25649 15.8307 9.30661 15.8221 9.37027C15.805 9.49771 15.7793 9.67876 15.7455 9.8912C15.6774 10.3196 15.5785 10.8609 15.4532 11.3444L16.9053 11.7206C17.0478 11.1705 17.1554 10.5759 17.2269 10.1268C17.2629 9.90054 17.2903 9.70746 17.3087 9.57044C17.3179 9.50187 17.325 9.44719 17.3297 9.40922C17.3321 9.39023 17.3339 9.37542 17.3352 9.36512C17.3358 9.35998 17.3363 9.35596 17.3366 9.35311C17.3368 9.35169 17.3369 9.35056 17.337 9.34974C17.3371 9.34932 17.3371 9.34898 17.3371 9.34872C17.3371 9.34858 17.3372 9.34847 17.3372 9.34838C17.3372 9.34833 17.3372 9.34827 17.3372 9.34825C17.3372 9.3482 17.3372 9.34815 16.5923 9.26074ZM15.4532 11.3444C15.3238 11.844 15.1617 12.2398 14.9785 12.6813C14.796 13.1209 14.5921 13.6066 14.4231 14.2264L15.8702 14.6211C16.011 14.105 16.1795 13.7007 16.3639 13.2563C16.5476 12.8138 16.7469 12.332 16.9053 11.7206L15.4532 11.3444ZM14.4231 14.2264C14.1555 15.2076 13.9766 16.1259 14.0895 17.4806L15.5843 17.356C15.4907 16.2325 15.6309 15.4986 15.8702 14.6211L14.4231 14.2264ZM14.0986 17.5502C14.3544 18.9831 14.5853 20.522 14.7525 21.7053C14.8361 22.2964 14.9035 22.7974 14.95 23.1505C14.9733 23.327 14.9913 23.4665 15.0035 23.5617C15.0096 23.6092 15.0143 23.6458 15.0174 23.6703C15.0189 23.6825 15.0201 23.6918 15.0209 23.698C15.0213 23.701 15.0216 23.7033 15.0217 23.7048C15.0218 23.7056 15.0219 23.7062 15.022 23.7065C15.022 23.7067 15.022 23.7068 15.022 23.7069C15.022 23.7069 15.022 23.707 15.022 23.707C15.022 23.707 15.022 23.707 15.7662 23.614C16.5104 23.5209 16.5104 23.5209 16.5104 23.5209C16.5104 23.5208 16.5104 23.5208 16.5104 23.5207C16.5104 23.5206 16.5104 23.5204 16.5103 23.5202C16.5103 23.5197 16.5102 23.5191 16.5101 23.5183C16.5099 23.5166 16.5096 23.5141 16.5092 23.5108C16.5083 23.5043 16.5071 23.4947 16.5055 23.482C16.5023 23.4567 16.4976 23.4194 16.4914 23.371C16.479 23.2742 16.4607 23.1329 16.4372 22.9545C16.3901 22.5976 16.3221 22.0919 16.2378 21.4954C16.0694 20.3038 15.8356 18.7449 15.5752 17.2865L14.0986 17.5502ZM15.7662 22.864H5.23364V24.364H15.7662V22.864ZM5.23364 23.614C5.97851 23.7016 5.97851 23.7016 5.97851 23.7016C5.97851 23.7016 5.97851 23.7015 5.97851 23.7015C5.97852 23.7015 5.97853 23.7014 5.97854 23.7013C5.97857 23.7011 5.9786 23.7008 5.97865 23.7003C5.97875 23.6995 5.9789 23.6982 5.9791 23.6966C5.97949 23.6932 5.98007 23.6883 5.98084 23.6818C5.98237 23.6687 5.98464 23.6495 5.98756 23.6247C5.9934 23.5752 6.00186 23.5034 6.01234 23.4148C6.0333 23.2375 6.06231 22.9924 6.09455 22.7216C6.15911 22.1794 6.23631 21.536 6.28763 21.1255L4.79922 20.9394C4.74728 21.3549 4.66959 22.0023 4.60507 22.5443C4.57277 22.8156 4.5437 23.0611 4.52271 23.2387C4.51221 23.3276 4.50373 23.3994 4.49788 23.4491C4.49495 23.4739 4.49268 23.4932 4.49113 23.5063C4.49036 23.5129 4.48978 23.5179 4.48938 23.5212C4.48918 23.5229 4.48903 23.5242 4.48893 23.525C4.48888 23.5255 4.48884 23.5258 4.48882 23.526C4.48881 23.5261 4.4888 23.5262 4.48879 23.5262C4.48879 23.5263 4.48878 23.5263 4.48878 23.5263C4.48878 23.5263 4.48878 23.5263 5.23364 23.614Z" fill="#8ECAE6"/>
</svg>
