<svg width="25" height="23" viewBox="0 0 25 23" fill="none" xmlns="http://www.w3.org/2000/svg">
<path d="M1.85462 3.9701C1.74432 3.71694 1.44968 3.60114 1.19652 3.71143C0.943368 3.82173 0.827559 4.11637 0.937858 4.36953L1.85462 3.9701ZM3.62234 7.7774L3.44902 8.24639L3.48996 8.26152L3.5329 8.26933L3.62234 7.7774ZM7.17065 7.49353L7.04443 7.00972L7.02833 7.01393L7.01253 7.01919L7.17065 7.49353ZM11.0772 6.67133L11.1984 7.1564C11.2338 7.14755 11.2682 7.13486 11.3008 7.11854L11.0772 6.67133ZM12.5707 1C12.5707 0.723858 12.3468 0.5 12.0707 0.5C11.7946 0.5 11.5707 0.723858 11.5707 1H12.5707ZM13.2062 6.67133L12.9244 7.08435L13.0021 7.13737L13.0937 7.15852L13.2062 6.67133ZM16.8964 7.49353L17.0042 7.00518L16.9941 7.00317L16.8964 7.49353ZM20.4447 7.80678L20.566 8.29185L20.5989 8.28362L20.6304 8.27102L20.4447 7.80678ZM23.2711 4.31459C23.351 4.05028 23.2016 3.77119 22.9373 3.69124C22.673 3.61128 22.3939 3.76073 22.3139 4.02504L23.2711 4.31459ZM1.39624 4.16982C0.937858 4.36953 0.93788 4.36958 0.937907 4.36964C0.937924 4.36968 0.937957 4.36976 0.937989 4.36983C0.938055 4.36998 0.938143 4.37018 0.938253 4.37044C0.938472 4.37094 0.938779 4.37164 0.939172 4.37254C0.939959 4.37434 0.941093 4.37693 0.942565 4.38028C0.945509 4.38699 0.949807 4.39676 0.955395 4.4094C0.966569 4.43466 0.982908 4.47141 1.00389 4.51807C1.04585 4.61138 1.10645 4.74449 1.18155 4.90494C1.3315 5.22529 1.54045 5.65714 1.77508 6.09973C2.00843 6.53987 2.27323 7.00217 2.53537 7.37811C2.6662 7.56572 2.80358 7.74234 2.94295 7.8868C3.07371 8.02232 3.24495 8.17098 3.44902 8.24639L3.79567 7.3084C3.80477 7.31177 3.76022 7.29364 3.66261 7.19247C3.57363 7.10024 3.47008 6.97024 3.35565 6.80614C3.12728 6.47863 2.8843 6.05706 2.6586 5.63133C2.43419 5.20804 2.23284 4.79204 2.08725 4.481C2.01458 4.32576 1.9561 4.19729 1.91592 4.10794C1.89584 4.06328 1.88034 4.02843 1.86995 4.00494C1.86476 3.99319 1.86084 3.98428 1.85826 3.97841C1.85697 3.97548 1.85602 3.9733 1.85541 3.97191C1.85511 3.97121 1.85489 3.97071 1.85476 3.97041C1.85469 3.97026 1.85465 3.97016 1.85462 3.9701C1.85461 3.97008 1.85461 3.97008 1.85461 3.97007C1.85461 3.97008 1.85462 3.9701 1.39624 4.16982ZM3.5329 8.26933C4.34138 8.41633 4.95874 8.4585 5.5527 8.39911C6.1429 8.34009 6.68332 8.18302 7.32876 7.96787L7.01253 7.01919C6.38059 7.22984 5.92748 7.35664 5.45319 7.40407C4.98265 7.45112 4.46456 7.42233 3.71179 7.28546L3.5329 8.26933ZM7.29686 7.97734C8.92184 7.55343 9.73985 7.38758 10.2159 7.30975C10.4532 7.27095 10.607 7.2537 10.7483 7.23607C10.8925 7.21806 11.0271 7.19922 11.1984 7.1564L10.9559 6.18626C10.8434 6.21439 10.7558 6.22737 10.6244 6.24377C10.49 6.26054 10.3148 6.28031 10.0545 6.32286C9.53528 6.40775 8.68389 6.58204 7.04443 7.00972L7.29686 7.97734ZM11.3008 7.11854C11.6141 6.96189 11.8444 6.80895 12.0397 6.60084C12.2248 6.4035 12.3585 6.17549 12.502 5.93075L11.6394 5.42485C11.4849 5.68835 11.4056 5.81518 11.3104 5.91658C11.2254 6.0072 11.108 6.0969 10.8536 6.22411L11.3008 7.11854ZM12.5707 5.6778C12.5707 5.67596 12.5707 5.67411 12.5707 5.67225C12.5707 5.67039 12.5707 5.66851 12.5707 5.66663C12.5707 5.66475 12.5707 5.66286 12.5707 5.66095C12.5707 5.65905 12.5707 5.65713 12.5707 5.65521C12.5707 5.65328 12.5707 5.65135 12.5707 5.6494C12.5707 5.64746 12.5707 5.6455 12.5707 5.64353C12.5707 5.64157 12.5707 5.63959 12.5707 5.6376C12.5707 5.63562 12.5707 5.63362 12.5707 5.63161C12.5707 5.6296 12.5707 5.62759 12.5707 5.62556C12.5707 5.62353 12.5707 5.62149 12.5707 5.61944C12.5707 5.61739 12.5707 5.61533 12.5707 5.61327C12.5707 5.6112 12.5707 5.60912 12.5707 5.60703C12.5707 5.60494 12.5707 5.60284 12.5707 5.60073C12.5707 5.59862 12.5707 5.5965 12.5707 5.59437C12.5707 5.59224 12.5707 5.59011 12.5707 5.58796C12.5707 5.58581 12.5707 5.58365 12.5707 5.58148C12.5707 5.57931 12.5707 5.57713 12.5707 5.57494C12.5707 5.57275 12.5707 5.57056 12.5707 5.56835C12.5707 5.56614 12.5707 5.56392 12.5707 5.56169C12.5707 5.55947 12.5707 5.55723 12.5707 5.55498C12.5707 5.55273 12.5707 5.55048 12.5707 5.54821C12.5707 5.54594 12.5707 5.54367 12.5707 5.54138C12.5707 5.5391 12.5707 5.5368 12.5707 5.5345C12.5707 5.53219 12.5707 5.52988 12.5707 5.52755C12.5707 5.52523 12.5707 5.5229 12.5707 5.52055C12.5707 5.51821 12.5707 5.51586 12.5707 5.5135C12.5707 5.51114 12.5707 5.50877 12.5707 5.50639C12.5707 5.504 12.5707 5.50162 12.5707 5.49922C12.5707 5.49682 12.5707 5.49441 12.5707 5.49199C12.5707 5.48957 12.5707 5.48715 12.5707 5.48471C12.5707 5.48228 12.5707 5.47983 12.5707 5.47738C12.5707 5.47492 12.5707 5.47246 12.5707 5.46999C12.5707 5.46751 12.5707 5.46503 12.5707 5.46254C12.5707 5.46005 12.5707 5.45755 12.5707 5.45504C12.5707 5.45253 12.5707 5.45002 12.5707 5.44749C12.5707 5.44496 12.5707 5.44243 12.5707 5.43988C12.5707 5.43734 12.5707 5.43478 12.5707 5.43222C12.5707 5.42966 12.5707 5.42709 12.5707 5.42451C12.5707 5.42193 12.5707 5.41934 12.5707 5.41674C12.5707 5.41414 12.5707 5.41154 12.5707 5.40892C12.5707 5.40631 12.5707 5.40368 12.5707 5.40105C12.5707 5.39842 12.5707 5.39578 12.5707 5.39313C12.5707 5.39048 12.5707 5.38782 12.5707 5.38515C12.5707 5.38249 12.5707 5.37981 12.5707 5.37713C12.5707 5.37444 12.5707 5.37175 12.5707 5.36905C12.5707 5.36635 12.5707 5.36364 12.5707 5.36092C12.5707 5.35821 12.5707 5.35548 12.5707 5.35275C12.5707 5.35001 12.5707 5.34727 12.5707 5.34452C12.5707 5.34177 12.5707 5.33901 12.5707 5.33624C12.5707 5.33347 12.5707 5.33069 12.5707 5.32791C12.5707 5.32513 12.5707 5.32233 12.5707 5.31953C12.5707 5.31673 12.5707 5.31392 12.5707 5.31111C12.5707 5.30829 12.5707 5.30546 12.5707 5.30263C12.5707 5.2998 12.5707 5.29696 12.5707 5.29411C12.5707 5.29126 12.5707 5.2884 12.5707 5.28553C12.5707 5.28267 12.5707 5.2798 12.5707 5.27691C12.5707 5.27403 12.5707 5.27114 12.5707 5.26825C12.5707 5.26535 12.5707 5.26244 12.5707 5.25953C12.5707 5.25662 12.5707 5.2537 12.5707 5.25077C12.5707 5.24784 12.5707 5.24491 12.5707 5.24196C12.5707 5.23902 12.5707 5.23607 12.5707 5.23311C12.5707 5.23015 12.5707 5.22718 12.5707 5.22421C12.5707 5.22123 12.5707 5.21825 12.5707 5.21526C12.5707 5.21227 12.5707 5.20927 12.5707 5.20627C12.5707 5.20326 12.5707 5.20025 12.5707 5.19723C12.5707 5.19421 12.5707 5.19118 12.5707 5.18815C12.5707 5.18511 12.5707 5.18207 12.5707 5.17902C12.5707 5.17597 12.5707 5.17291 12.5707 5.16985C12.5707 5.16678 12.5707 5.16371 12.5707 5.16063C12.5707 5.15755 12.5707 5.15447 12.5707 5.15137C12.5707 5.14828 12.5707 5.14518 12.5707 5.14207C12.5707 5.13896 12.5707 5.13585 12.5707 5.13272C12.5707 5.1296 12.5707 5.12647 12.5707 5.12333C12.5707 5.1202 12.5707 5.11705 12.5707 5.1139C12.5707 5.11075 12.5707 5.10759 12.5707 5.10443C12.5707 5.10126 12.5707 5.09809 12.5707 5.09491C12.5707 5.09173 12.5707 5.08855 12.5707 5.08535C12.5707 5.08216 12.5707 5.07896 12.5707 5.07575C12.5707 5.07255 12.5707 5.06933 12.5707 5.06611C12.5707 5.06289 12.5707 5.05967 12.5707 5.05643C12.5707 5.0532 12.5707 5.04996 12.5707 5.04671C12.5707 5.04346 12.5707 5.04021 12.5707 5.03695C12.5707 5.03369 12.5707 5.03042 12.5707 5.02715C12.5707 5.02387 12.5707 5.02059 12.5707 5.0173C12.5707 5.01402 12.5707 5.01072 12.5707 5.00742C12.5707 5.00412 12.5707 5.00081 12.5707 4.9975C12.5707 4.99419 12.5707 4.99087 12.5707 4.98754C12.5707 4.98422 12.5707 4.98088 12.5707 4.97754C12.5707 4.9742 12.5707 4.97086 12.5707 4.96751C12.5707 4.96416 12.5707 4.9608 12.5707 4.95743C12.5707 4.95407 12.5707 4.9507 12.5707 4.94732C12.5707 4.94394 12.5707 4.94056 12.5707 4.93717C12.5707 4.93378 12.5707 4.93039 12.5707 4.92699C12.5707 4.92358 12.5707 4.92018 12.5707 4.91676C12.5707 4.91335 12.5707 4.90993 12.5707 4.9065C12.5707 4.90308 12.5707 4.89965 12.5707 4.89621C12.5707 4.89277 12.5707 4.88933 12.5707 4.88588C12.5707 4.88243 12.5707 4.87897 12.5707 4.87551C12.5707 4.87205 12.5707 4.86858 12.5707 4.86511C12.5707 4.86163 12.5707 4.85815 12.5707 4.85467C12.5707 4.85118 12.5707 4.84769 12.5707 4.8442C12.5707 4.8407 12.5707 4.8372 12.5707 4.83369C12.5707 4.83018 12.5707 4.82667 12.5707 4.82315C12.5707 4.81963 12.5707 4.8161 12.5707 4.81257C12.5707 4.80904 12.5707 4.80551 12.5707 4.80196C12.5707 4.79842 12.5707 4.79488 12.5707 4.79132C12.5707 4.78777 12.5707 4.78421 12.5707 4.78065C12.5707 4.77708 12.5707 4.77352 12.5707 4.76994C12.5707 4.76637 12.5707 4.76279 12.5707 4.7592C12.5707 4.75562 12.5707 4.75202 12.5707 4.74843C12.5707 4.74483 12.5707 4.74123 12.5707 4.73763C12.5707 4.73402 12.5707 4.73041 12.5707 4.72679C12.5707 4.72317 12.5707 4.71955 12.5707 4.71592C12.5707 4.7123 12.5707 4.70866 12.5707 4.70503C12.5707 4.70139 12.5707 4.69775 12.5707 4.6941C12.5707 4.69045 12.5707 4.6868 12.5707 4.68314C12.5707 4.67948 12.5707 4.67582 12.5707 4.67215C12.5707 4.66848 12.5707 4.66481 12.5707 4.66113C12.5707 4.65745 12.5707 4.65377 12.5707 4.65008C12.5707 4.6464 12.5707 4.6427 12.5707 4.63901C12.5707 4.63531 12.5707 4.63161 12.5707 4.6279C12.5707 4.62419 12.5707 4.62048 12.5707 4.61677C12.5707 4.61305 12.5707 4.60933 12.5707 4.6056C12.5707 4.60188 12.5707 4.59815 12.5707 4.59441C12.5707 4.59068 12.5707 4.58694 12.5707 4.58319C12.5707 4.57945 12.5707 4.5757 12.5707 4.57195C12.5707 4.56819 12.5707 4.56444 12.5707 4.56067C12.5707 4.55691 12.5707 4.55314 12.5707 4.54937C12.5707 4.5456 12.5707 4.54183 12.5707 4.53805C12.5707 4.53427 12.5707 4.53048 12.5707 4.52669C12.5707 4.5229 12.5707 4.51911 12.5707 4.51531C12.5707 4.51152 12.5707 4.50772 12.5707 4.50391C12.5707 4.5001 12.5707 4.49629 12.5707 4.49248C12.5707 4.48866 12.5707 4.48485 12.5707 4.48102C12.5707 4.4772 12.5707 4.47337 12.5707 4.46954C12.5707 4.46571 12.5707 4.46188 12.5707 4.45804C12.5707 4.4542 12.5707 4.45036 12.5707 4.44651C12.5707 4.44266 12.5707 4.43881 12.5707 4.43496C12.5707 4.4311 12.5707 4.42724 12.5707 4.42338C12.5707 4.41952 12.5707 4.41565 12.5707 4.41178C12.5707 4.40791 12.5707 4.40404 12.5707 4.40016C12.5707 4.39628 12.5707 4.3924 12.5707 4.38851C12.5707 4.38463 12.5707 4.38074 12.5707 4.37684C12.5707 4.37295 12.5707 4.36905 12.5707 4.36515C12.5707 4.36125 12.5707 4.35735 12.5707 4.35344C12.5707 4.34953 12.5707 4.34562 12.5707 4.34171C12.5707 4.33779 12.5707 4.33387 12.5707 4.32995C12.5707 4.32603 12.5707 4.3221 12.5707 4.31818C12.5707 4.31425 12.5707 4.31031 12.5707 4.30638C12.5707 4.30244 12.5707 4.2985 12.5707 4.29456C12.5707 4.29062 12.5707 4.28667 12.5707 4.28272C12.5707 4.27877 12.5707 4.27482 12.5707 4.27087C12.5707 4.26691 12.5707 4.26295 12.5707 4.25899C12.5707 4.25503 12.5707 4.25106 12.5707 4.24709C12.5707 4.24312 12.5707 4.23915 12.5707 4.23518C12.5707 4.2312 12.5707 4.22722 12.5707 4.22324C12.5707 4.21926 12.5707 4.21528 12.5707 4.21129C12.5707 4.2073 12.5707 4.20331 12.5707 4.19932C12.5707 4.19533 12.5707 4.19133 12.5707 4.18733C12.5707 4.18333 12.5707 4.17933 12.5707 4.17533C12.5707 4.17132 12.5707 4.16731 12.5707 4.1633C12.5707 4.15929 12.5707 4.15528 12.5707 4.15126C12.5707 4.14725 12.5707 4.14323 12.5707 4.13921C12.5707 4.13518 12.5707 4.13116 12.5707 4.12713C12.5707 4.12311 12.5707 4.11908 12.5707 4.11504C12.5707 4.11101 12.5707 4.10698 12.5707 4.10294C12.5707 4.0989 12.5707 4.09486 12.5707 4.09082C12.5707 4.08678 12.5707 4.08273 12.5707 4.07868C12.5707 4.07464 12.5707 4.07059 12.5707 4.06653C12.5707 4.06248 12.5707 4.05843 12.5707 4.05437C12.5707 4.05031 12.5707 4.04625 12.5707 4.04219C12.5707 4.03813 12.5707 4.03406 12.5707 4.02999C12.5707 4.02593 12.5707 4.02186 12.5707 4.01779C12.5707 4.01372 12.5707 4.00964 12.5707 4.00557C12.5707 4.00149 12.5707 3.99741 12.5707 3.99333C12.5707 3.98925 12.5707 3.98517 12.5707 3.98109C12.5707 3.977 12.5707 3.97292 12.5707 3.96883C12.5707 3.96474 12.5707 3.96065 12.5707 3.95656C12.5707 3.95246 12.5707 3.94837 12.5707 3.94427C12.5707 3.94018 12.5707 3.93608 12.5707 3.93198C12.5707 3.92788 12.5707 3.92377 12.5707 3.91967C12.5707 3.91557 12.5707 3.91146 12.5707 3.90735C12.5707 3.90325 12.5707 3.89914 12.5707 3.89502C12.5707 3.89091 12.5707 3.8868 12.5707 3.88269C12.5707 3.87857 12.5707 3.87445 12.5707 3.87034C12.5707 3.86622 12.5707 3.8621 12.5707 3.85798C12.5707 3.85386 12.5707 3.84973 12.5707 3.84561C12.5707 3.84148 12.5707 3.83736 12.5707 3.83323C12.5707 3.8291 12.5707 3.82497 12.5707 3.82084C12.5707 3.81671 12.5707 3.81258 12.5707 3.80845C12.5707 3.80431 12.5707 3.80018 12.5707 3.79604C12.5707 3.79191 12.5707 3.78777 12.5707 3.78363C12.5707 3.77949 12.5707 3.77535 12.5707 3.77121C12.5707 3.76707 12.5707 3.76293 12.5707 3.75878C12.5707 3.75464 12.5707 3.75049 12.5707 3.74635C12.5707 3.7422 12.5707 3.73805 12.5707 3.7339C12.5707 3.72976 12.5707 3.72561 12.5707 3.72145C12.5707 3.7173 12.5707 3.71315 12.5707 3.709C12.5707 3.70485 12.5707 3.70069 12.5707 3.69654C12.5707 3.69238 12.5707 3.68823 12.5707 3.68407C12.5707 3.67991 12.5707 3.67576 12.5707 3.6716C12.5707 3.66744 12.5707 3.66328 12.5707 3.65912C12.5707 3.65496 12.5707 3.6508 12.5707 3.64663C12.5707 3.64247 12.5707 3.63831 12.5707 3.63415C12.5707 3.62998 12.5707 3.62582 12.5707 3.62165C12.5707 3.61749 12.5707 3.61332 12.5707 3.60916C12.5707 3.60499 12.5707 3.60082 12.5707 3.59666C12.5707 3.59249 12.5707 3.58832 12.5707 3.58415C12.5707 3.57998 12.5707 3.57582 12.5707 3.57165C12.5707 3.56748 12.5707 3.56331 12.5707 3.55914C12.5707 3.55497 12.5707 3.55079 12.5707 3.54662C12.5707 3.54245 12.5707 3.53828 12.5707 3.53411C12.5707 3.52994 12.5707 3.52576 12.5707 3.52159C12.5707 3.51742 12.5707 3.51325 12.5707 3.50907C12.5707 3.5049 12.5707 3.50073 12.5707 3.49655C12.5707 3.49238 12.5707 3.4882 12.5707 3.48403C12.5707 3.47986 12.5707 3.47568 12.5707 3.47151C12.5707 3.46733 12.5707 3.46316 12.5707 3.45898C12.5707 3.45481 12.5707 3.45064 12.5707 3.44646C12.5707 3.44229 12.5707 3.43811 12.5707 3.43394C12.5707 3.42976 12.5707 3.42559 12.5707 3.42141C12.5707 3.41724 12.5707 3.41307 12.5707 3.40889C12.5707 3.40472 12.5707 3.40054 12.5707 3.39637C12.5707 3.3922 12.5707 3.38802 12.5707 3.38385C12.5707 3.37968 12.5707 3.3755 12.5707 3.37133C12.5707 3.36716 12.5707 3.36299 12.5707 3.35881C12.5707 3.35464 12.5707 3.35047 12.5707 3.3463C12.5707 3.34213 12.5707 3.33796 12.5707 3.33379C12.5707 3.32961 12.5707 3.32544 12.5707 3.32127C12.5707 3.31711 12.5707 3.31294 12.5707 3.30877C12.5707 3.3046 12.5707 3.30043 12.5707 3.29626C12.5707 3.2921 12.5707 3.28793 12.5707 3.28376C12.5707 3.2796 12.5707 3.27543 12.5707 3.27127C12.5707 3.2671 12.5707 3.26294 12.5707 3.25877C12.5707 3.25461 12.5707 3.25045 12.5707 3.24628C12.5707 3.24212 12.5707 3.23796 12.5707 3.2338C12.5707 3.22964 12.5707 3.22548 12.5707 3.22132C12.5707 3.21716 12.5707 3.213 12.5707 3.20885C12.5707 3.20469 12.5707 3.20053 12.5707 3.19638C12.5707 3.19222 12.5707 3.18807 12.5707 3.18392C12.5707 3.17976 12.5707 3.17561 12.5707 3.17146C12.5707 3.16731 12.5707 3.16316 12.5707 3.15901C12.5707 3.15486 12.5707 3.15071 12.5707 3.14657C12.5707 3.14242 12.5707 3.13827 12.5707 3.13413C12.5707 3.12999 12.5707 3.12584 12.5707 3.1217C12.5707 3.11756 12.5707 3.11342 12.5707 3.10928C12.5707 3.10514 12.5707 3.101 12.5707 3.09687C12.5707 3.09273 12.5707 3.0886 12.5707 3.08446C12.5707 3.08033 12.5707 3.0762 12.5707 3.07206C12.5707 3.06793 12.5707 3.0638 12.5707 3.05968C12.5707 3.05555 12.5707 3.05142 12.5707 3.0473C12.5707 3.04317 12.5707 3.03905 12.5707 3.03493C12.5707 3.03081 12.5707 3.02669 12.5707 3.02257C12.5707 3.01845 12.5707 3.01433 12.5707 3.01022C12.5707 3.0061 12.5707 3.00199 12.5707 2.99788C12.5707 2.99377 12.5707 2.98966 12.5707 2.98555C12.5707 2.98144 12.5707 2.97733 12.5707 2.97323C12.5707 2.96912 12.5707 2.96502 12.5707 2.96092C12.5707 2.95682 12.5707 2.95272 12.5707 2.94863C12.5707 2.94453 12.5707 2.94043 12.5707 2.93634C12.5707 2.93225 12.5707 2.92816 12.5707 2.92407C12.5707 2.91998 12.5707 2.91589 12.5707 2.91181C12.5707 2.90772 12.5707 2.90364 12.5707 2.89956C12.5707 2.89548 12.5707 2.8914 12.5707 2.88732C12.5707 2.88325 12.5707 2.87917 12.5707 2.8751C12.5707 2.87103 12.5707 2.86696 12.5707 2.86289C12.5707 2.85883 12.5707 2.85476 12.5707 2.8507C12.5707 2.84664 12.5707 2.84258 12.5707 2.83852C12.5707 2.83446 12.5707 2.8304 12.5707 2.82635C12.5707 2.8223 12.5707 2.81825 12.5707 2.8142C12.5707 2.81015 12.5707 2.80611 12.5707 2.80206C12.5707 2.79802 12.5707 2.79398 12.5707 2.78994C12.5707 2.7859 12.5707 2.78187 12.5707 2.77783C12.5707 2.7738 12.5707 2.76977 12.5707 2.76574C12.5707 2.76172 12.5707 2.75769 12.5707 2.75367C12.5707 2.74965 12.5707 2.74563 12.5707 2.74161C12.5707 2.73759 12.5707 2.73358 12.5707 2.72957C12.5707 2.72556 12.5707 2.72155 12.5707 2.71754C12.5707 2.71354 12.5707 2.70953 12.5707 2.70554C12.5707 2.70154 12.5707 2.69754 12.5707 2.69354C12.5707 2.68955 12.5707 2.68556 12.5707 2.68157C12.5707 2.67758 12.5707 2.6736 12.5707 2.66962C12.5707 2.66564 12.5707 2.66166 12.5707 2.65768C12.5707 2.65371 12.5707 2.64973 12.5707 2.64576C12.5707 2.6418 12.5707 2.63783 12.5707 2.63387C12.5707 2.6299 12.5707 2.62594 12.5707 2.62199C12.5707 2.61803 12.5707 2.61408 12.5707 2.61013C12.5707 2.60618 12.5707 2.60223 12.5707 2.59829C12.5707 2.59434 12.5707 2.59041 12.5707 2.58647C12.5707 2.58253 12.5707 2.5786 12.5707 2.57467C12.5707 2.57074 12.5707 2.56681 12.5707 2.56289C12.5707 2.55897 12.5707 2.55505 12.5707 2.55113C12.5707 2.54722 12.5707 2.54331 12.5707 2.5394C12.5707 2.53549 12.5707 2.53158 12.5707 2.52768C12.5707 2.52378 12.5707 2.51988 12.5707 2.51599C12.5707 2.5121 12.5707 2.50821 12.5707 2.50432C12.5707 2.50043 12.5707 2.49655 12.5707 2.49267C12.5707 2.48879 12.5707 2.48492 12.5707 2.48105C12.5707 2.47717 12.5707 2.47331 12.5707 2.46944C12.5707 2.46558 12.5707 2.46172 12.5707 2.45786C12.5707 2.45401 12.5707 2.45016 12.5707 2.44631C12.5707 2.44246 12.5707 2.43862 12.5707 2.43478C12.5707 2.43094 12.5707 2.4271 12.5707 2.42327C12.5707 2.41944 12.5707 2.41561 12.5707 2.41179C12.5707 2.40796 12.5707 2.40414 12.5707 2.40033C12.5707 2.39651 12.5707 2.3927 12.5707 2.3889C12.5707 2.38509 12.5707 2.38129 12.5707 2.37749C12.5707 2.37369 12.5707 2.3699 12.5707 2.36611C12.5707 2.36232 12.5707 2.35853 12.5707 2.35475C12.5707 2.35097 12.5707 2.34719 12.5707 2.34342C12.5707 2.33965 12.5707 2.33588 12.5707 2.33212C12.5707 2.32836 12.5707 2.3246 12.5707 2.32084C12.5707 2.31709 12.5707 2.31334 12.5707 2.30959C12.5707 2.30585 12.5707 2.30211 12.5707 2.29837C12.5707 2.29464 12.5707 2.2909 12.5707 2.28718C12.5707 2.28345 12.5707 2.27973 12.5707 2.27601C12.5707 2.2723 12.5707 2.26858 12.5707 2.26487C12.5707 2.26117 12.5707 2.25746 12.5707 2.25377C12.5707 2.25007 12.5707 2.24637 12.5707 2.24269C12.5707 2.239 12.5707 2.23531 12.5707 2.23163C12.5707 2.22796 12.5707 2.22428 12.5707 2.22061C12.5707 2.21694 12.5707 2.21328 12.5707 2.20962C12.5707 2.20596 12.5707 2.20231 12.5707 2.19866C12.5707 2.19501 12.5707 2.19137 12.5707 2.18773C12.5707 2.18409 12.5707 2.18046 12.5707 2.17683C12.5707 2.1732 12.5707 2.16958 12.5707 2.16596C12.5707 2.16234 12.5707 2.15873 12.5707 2.15512C12.5707 2.15151 12.5707 2.14791 12.5707 2.14431C12.5707 2.14071 12.5707 2.13712 12.5707 2.13354C12.5707 2.12995 12.5707 2.12637 12.5707 2.12279C12.5707 2.11922 12.5707 2.11565 12.5707 2.11208C12.5707 2.10852 12.5707 2.10496 12.5707 2.1014C12.5707 2.09785 12.5707 2.0943 12.5707 2.09076C12.5707 2.08722 12.5707 2.08368 12.5707 2.08015C12.5707 2.07661 12.5707 2.07309 12.5707 2.06957C12.5707 2.06605 12.5707 2.06253 12.5707 2.05902C12.5707 2.05551 12.5707 2.05201 12.5707 2.04851C12.5707 2.04502 12.5707 2.04152 12.5707 2.03804C12.5707 2.03455 12.5707 2.03107 12.5707 2.0276C12.5707 2.02412 12.5707 2.02065 12.5707 2.01719C12.5707 2.01373 12.5707 2.01027 12.5707 2.00682C12.5707 2.00337 12.5707 1.99992 12.5707 1.99648C12.5707 1.99304 12.5707 1.98961 12.5707 1.98618C12.5707 1.98276 12.5707 1.97933 12.5707 1.97592C12.5707 1.9725 12.5707 1.9691 12.5707 1.96569C12.5707 1.96229 12.5707 1.95889 12.5707 1.9555C12.5707 1.95211 12.5707 1.94873 12.5707 1.94535C12.5707 1.94197 12.5707 1.9386 12.5707 1.93523C12.5707 1.93187 12.5707 1.92851 12.5707 1.92516C12.5707 1.9218 12.5707 1.91846 12.5707 1.91512C12.5707 1.91178 12.5707 1.90844 12.5707 1.90511C12.5707 1.90179 12.5707 1.89846 12.5707 1.89515C12.5707 1.89184 12.5707 1.88853 12.5707 1.88523C12.5707 1.88192 12.5707 1.87863 12.5707 1.87534C12.5707 1.87205 12.5707 1.86877 12.5707 1.86549C12.5707 1.86222 12.5707 1.85895 12.5707 1.85569C12.5707 1.85243 12.5707 1.84917 12.5707 1.84592C12.5707 1.84267 12.5707 1.83943 12.5707 1.83619C12.5707 1.83296 12.5707 1.82973 12.5707 1.82651C12.5707 1.82329 12.5707 1.82007 12.5707 1.81686C12.5707 1.81366 12.5707 1.81045 12.5707 1.80726C12.5707 1.80407 12.5707 1.80088 12.5707 1.7977C12.5707 1.79452 12.5707 1.79134 12.5707 1.78818C12.5707 1.78501 12.5707 1.78185 12.5707 1.7787C12.5707 1.77555 12.5707 1.7724 12.5707 1.76926C12.5707 1.76612 12.5707 1.76299 12.5707 1.75987C12.5707 1.75674 12.5707 1.75363 12.5707 1.75052C12.5707 1.74741 12.5707 1.74431 12.5707 1.74121C12.5707 1.73811 12.5707 1.73503 12.5707 1.73195C12.5707 1.72887 12.5707 1.72579 12.5707 1.72273C12.5707 1.71966 12.5707 1.7166 12.5707 1.71355C12.5707 1.7105 12.5707 1.70745 12.5707 1.70442C12.5707 1.70138 12.5707 1.69835 12.5707 1.69533C12.5707 1.69231 12.5707 1.68929 12.5707 1.68629C12.5707 1.68328 12.5707 1.68028 12.5707 1.67729C12.5707 1.6743 12.5707 1.67132 12.5707 1.66834C12.5707 1.66536 12.5707 1.66239 12.5707 1.65943C12.5707 1.65647 12.5707 1.65352 12.5707 1.65057C12.5707 1.64763 12.5707 1.64469 12.5707 1.64176C12.5707 1.63883 12.5707 1.63591 12.5707 1.63299C12.5707 1.63008 12.5707 1.62717 12.5707 1.62427C12.5707 1.62137 12.5707 1.61848 12.5707 1.6156C12.5707 1.61272 12.5707 1.60984 12.5707 1.60698C12.5707 1.60411 12.5707 1.60125 12.5707 1.5984C12.5707 1.59555 12.5707 1.59271 12.5707 1.58987C12.5707 1.58704 12.5707 1.58421 12.5707 1.58139C12.5707 1.57857 12.5707 1.57576 12.5707 1.57296C12.5707 1.57016 12.5707 1.56736 12.5707 1.56458C12.5707 1.56179 12.5707 1.55901 12.5707 1.55624C12.5707 1.55347 12.5707 1.55071 12.5707 1.54796C12.5707 1.54521 12.5707 1.54246 12.5707 1.53972C12.5707 1.53699 12.5707 1.53426 12.5707 1.53154C12.5707 1.52882 12.5707 1.52611 12.5707 1.52341C12.5707 1.5207 12.5707 1.51801 12.5707 1.51532C12.5707 1.51264 12.5707 1.50996 12.5707 1.50729C12.5707 1.50462 12.5707 1.50196 12.5707 1.49931C12.5707 1.49666 12.5707 1.49402 12.5707 1.49138C12.5707 1.48875 12.5707 1.48613 12.5707 1.48351C12.5707 1.48089 12.5707 1.47828 12.5707 1.47568C12.5707 1.47308 12.5707 1.47049 12.5707 1.46791C12.5707 1.46533 12.5707 1.46276 12.5707 1.46019C12.5707 1.45763 12.5707 1.45507 12.5707 1.45253C12.5707 1.44998 12.5707 1.44744 12.5707 1.44491C12.5707 1.44239 12.5707 1.43987 12.5707 1.43736C12.5707 1.43485 12.5707 1.43234 12.5707 1.42985C12.5707 1.42736 12.5707 1.42488 12.5707 1.4224C12.5707 1.41993 12.5707 1.41746 12.5707 1.41501C12.5707 1.41255 12.5707 1.4101 12.5707 1.40766C12.5707 1.40523 12.5707 1.4028 12.5707 1.40038C12.5707 1.39796 12.5707 1.39555 12.5707 1.39315C12.5707 1.39075 12.5707 1.38835 12.5707 1.38597C12.5707 1.38359 12.5707 1.38122 12.5707 1.37885C12.5707 1.37649 12.5707 1.37414 12.5707 1.37179C12.5707 1.36945 12.5707 1.36711 12.5707 1.36479C12.5707 1.36246 12.5707 1.36014 12.5707 1.35784C12.5707 1.35553 12.5707 1.35323 12.5707 1.35094C12.5707 1.34866 12.5707 1.34638 12.5707 1.34411C12.5707 1.34184 12.5707 1.33958 12.5707 1.33733C12.5707 1.33509 12.5707 1.33285 12.5707 1.33062C12.5707 1.32839 12.5707 1.32617 12.5707 1.32396C12.5707 1.32175 12.5707 1.31954 12.5707 1.31735C12.5707 1.31516 12.5707 1.31298 12.5707 1.31081C12.5707 1.30864 12.5707 1.30648 12.5707 1.30433C12.5707 1.30218 12.5707 1.30004 12.5707 1.2979C12.5707 1.29577 12.5707 1.29365 12.5707 1.29154C12.5707 1.28943 12.5707 1.28733 12.5707 1.28524C12.5707 1.28315 12.5707 1.28106 12.5707 1.27899C12.5707 1.27692 12.5707 1.27486 12.5707 1.27281C12.5707 1.27076 12.5707 1.26872 12.5707 1.26669C12.5707 1.26466 12.5707 1.26264 12.5707 1.26063C12.5707 1.25862 12.5707 1.25662 12.5707 1.25463C12.5707 1.25264 12.5707 1.25066 12.5707 1.24869C12.5707 1.24672 12.5707 1.24477 12.5707 1.24282C12.5707 1.24087 12.5707 1.23893 12.5707 1.23701C12.5707 1.23508 12.5707 1.23316 12.5707 1.23126C12.5707 1.22935 12.5707 1.22745 12.5707 1.22557C12.5707 1.22368 12.5707 1.22181 12.5707 1.21995C12.5707 1.21808 12.5707 1.21623 12.5707 1.21439C12.5707 1.21254 12.5707 1.21071 12.5707 1.20889C12.5707 1.20707 12.5707 1.20526 12.5707 1.20346C12.5707 1.20166 12.5707 1.19987 12.5707 1.19809C12.5707 1.19631 12.5707 1.19455 12.5707 1.19279C12.5707 1.19103 12.5707 1.18929 12.5707 1.18755C12.5707 1.18582 12.5707 1.18409 12.5707 1.18238C12.5707 1.18067 12.5707 1.17896 12.5707 1.17727C12.5707 1.17558 12.5707 1.1739 12.5707 1.17223C12.5707 1.17056 12.5707 1.16891 12.5707 1.16726C12.5707 1.16561 12.5707 1.16398 12.5707 1.16235C12.5707 1.16073 12.5707 1.15911 12.5707 1.15751C12.5707 1.15591 12.5707 1.15432 12.5707 1.15274C12.5707 1.15116 12.5707 1.14959 12.5707 1.14803C12.5707 1.14647 12.5707 1.14493 12.5707 1.14339C12.5707 1.14186 12.5707 1.14033 12.5707 1.13882C12.5707 1.13731 12.5707 1.13581 12.5707 1.13432C12.5707 1.13283 12.5707 1.13135 12.5707 1.12989C12.5707 1.12842 12.5707 1.12696 12.5707 1.12552C12.5707 1.12408 12.5707 1.12265 12.5707 1.12122C12.5707 1.1198 12.5707 1.1184 12.5707 1.117C12.5707 1.1156 12.5707 1.11422 12.5707 1.11284C12.5707 1.11147 12.5707 1.11011 12.5707 1.10876C12.5707 1.10741 12.5707 1.10607 12.5707 1.10474C12.5707 1.10341 12.5707 1.1021 12.5707 1.10079C12.5707 1.09949 12.5707 1.0982 12.5707 1.09692C12.5707 1.09564 12.5707 1.09437 12.5707 1.09312C12.5707 1.09186 12.5707 1.09062 12.5707 1.08938C12.5707 1.08815 12.5707 1.08693 12.5707 1.08572C12.5707 1.08452 12.5707 1.08332 12.5707 1.08214C12.5707 1.08095 12.5707 1.07978 12.5707 1.07862C12.5707 1.07746 12.5707 1.07631 12.5707 1.07518C12.5707 1.07404 12.5707 1.07292 12.5707 1.07181C12.5707 1.0707 12.5707 1.0696 12.5707 1.06851C12.5707 1.06742 12.5707 1.06635 12.5707 1.06529C12.5707 1.06422 12.5707 1.06317 12.5707 1.06214C12.5707 1.0611 12.5707 1.06007 12.5707 1.05906C12.5707 1.05805 12.5707 1.05705 12.5707 1.05606C12.5707 1.05507 12.5707 1.0541 12.5707 1.05313C12.5707 1.05217 12.5707 1.05122 12.5707 1.05028C12.5707 1.04934 12.5707 1.04842 12.5707 1.04751C12.5707 1.04659 12.5707 1.04569 12.5707 1.04481C12.5707 1.04392 12.5707 1.04304 12.5707 1.04218C12.5707 1.04132 12.5707 1.04047 12.5707 1.03963C12.5707 1.0388 12.5707 1.03797 12.5707 1.03716C12.5707 1.03635 12.5707 1.03555 12.5707 1.03477C12.5707 1.03398 12.5707 1.03321 12.5707 1.03245C12.5707 1.03169 12.5707 1.03094 12.5707 1.03021C12.5707 1.02947 12.5707 1.02875 12.5707 1.02804C12.5707 1.02734 12.5707 1.02664 12.5707 1.02596C12.5707 1.02528 12.5707 1.02461 12.5707 1.02395C12.5707 1.0233 12.5707 1.02265 12.5707 1.02202C12.5707 1.02139 12.5707 1.02078 12.5707 1.02017C12.5707 1.01957 12.5707 1.01898 12.5707 1.0184C12.5707 1.01783 12.5707 1.01726 12.5707 1.01671C12.5707 1.01616 12.5707 1.01562 12.5707 1.0151C12.5707 1.01458 12.5707 1.01406 12.5707 1.01357C12.5707 1.01307 12.5707 1.01259 12.5707 1.01212C12.5707 1.01165 12.5707 1.01119 12.5707 1.01074C12.5707 1.0103 12.5707 1.00987 12.5707 1.00945C12.5707 1.00904 12.5707 1.00863 12.5707 1.00825C12.5707 1.00786 12.5707 1.00748 12.5707 1.00712C12.5707 1.00676 12.5707 1.00641 12.5707 1.00607C12.5707 1.00574 12.5707 1.00542 12.5707 1.00511C12.5707 1.0048 12.5707 1.00451 12.5707 1.00423C12.5707 1.00395 12.5707 1.00368 12.5707 1.00343C12.5707 1.00317 12.5707 1.00294 12.5707 1.00271C12.5707 1.00249 12.5707 1.00228 12.5707 1.00208C12.5707 1.00188 12.5707 1.0017 12.5707 1.00153C12.5707 1.00136 12.5707 1.0012 12.5707 1.00106C12.5707 1.00092 12.5707 1.00079 12.5707 1.00068C12.5707 1.00057 12.5707 1.00047 12.5707 1.00038C12.5707 1.0003 12.5707 1.00023 12.5707 1.00017C12.5707 1.00011 12.5707 1.00007 12.5707 1.00004C12.5707 1.00001 12.5707 1 12.0707 1C11.5707 1 11.5707 1.00001 11.5707 1.00004C11.5707 1.00007 11.5707 1.00011 11.5707 1.00017C11.5707 1.00023 11.5707 1.0003 11.5707 1.00038C11.5707 1.00047 11.5707 1.00057 11.5707 1.00068C11.5707 1.00079 11.5707 1.00092 11.5707 1.00106C11.5707 1.0012 11.5707 1.00136 11.5707 1.00153C11.5707 1.0017 11.5707 1.00188 11.5707 1.00208C11.5707 1.00228 11.5707 1.00249 11.5707 1.00271C11.5707 1.00294 11.5707 1.00317 11.5707 1.00343C11.5707 1.00368 11.5707 1.00395 11.5707 1.00423C11.5707 1.00451 11.5707 1.0048 11.5707 1.00511C11.5707 1.00542 11.5707 1.00574 11.5707 1.00607C11.5707 1.00641 11.5707 1.00676 11.5707 1.00712C11.5707 1.00748 11.5707 1.00786 11.5707 1.00825C11.5707 1.00863 11.5707 1.00904 11.5707 1.00945C11.5707 1.00987 11.5707 1.0103 11.5707 1.01074C11.5707 1.01119 11.5707 1.01165 11.5707 1.01212C11.5707 1.01259 11.5707 1.01307 11.5707 1.01357C11.5707 1.01406 11.5707 1.01458 11.5707 1.0151C11.5707 1.01562 11.5707 1.01616 11.5707 1.01671C11.5707 1.01726 11.5707 1.01783 11.5707 1.0184C11.5707 1.01898 11.5707 1.01957 11.5707 1.02017C11.5707 1.02078 11.5707 1.02139 11.5707 1.02202C11.5707 1.02265 11.5707 1.0233 11.5707 1.02395C11.5707 1.02461 11.5707 1.02528 11.5707 1.02596C11.5707 1.02664 11.5707 1.02734 11.5707 1.02804C11.5707 1.02875 11.5707 1.02947 11.5707 1.03021C11.5707 1.03094 11.5707 1.03169 11.5707 1.03245C11.5707 1.03321 11.5707 1.03398 11.5707 1.03477C11.5707 1.03555 11.5707 1.03635 11.5707 1.03716C11.5707 1.03797 11.5707 1.0388 11.5707 1.03963C11.5707 1.04047 11.5707 1.04132 11.5707 1.04218C11.5707 1.04304 11.5707 1.04392 11.5707 1.04481C11.5707 1.04569 11.5707 1.04659 11.5707 1.04751C11.5707 1.04842 11.5707 1.04934 11.5707 1.05028C11.5707 1.05122 11.5707 1.05217 11.5707 1.05313C11.5707 1.0541 11.5707 1.05507 11.5707 1.05606C11.5707 1.05705 11.5707 1.05805 11.5707 1.05906C11.5707 1.06007 11.5707 1.0611 11.5707 1.06214C11.5707 1.06317 11.5707 1.06422 11.5707 1.06529C11.5707 1.06635 11.5707 1.06742 11.5707 1.06851C11.5707 1.0696 11.5707 1.0707 11.5707 1.07181C11.5707 1.07292 11.5707 1.07404 11.5707 1.07518C11.5707 1.07631 11.5707 1.07746 11.5707 1.07862C11.5707 1.07978 11.5707 1.08095 11.5707 1.08214C11.5707 1.08332 11.5707 1.08452 11.5707 1.08572C11.5707 1.08693 11.5707 1.08815 11.5707 1.08938C11.5707 1.09062 11.5707 1.09186 11.5707 1.09312C11.5707 1.09437 11.5707 1.09564 11.5707 1.09692C11.5707 1.0982 11.5707 1.09949 11.5707 1.10079C11.5707 1.1021 11.5707 1.10341 11.5707 1.10474C11.5707 1.10607 11.5707 1.10741 11.5707 1.10876C11.5707 1.11011 11.5707 1.11147 11.5707 1.11284C11.5707 1.11422 11.5707 1.1156 11.5707 1.117C11.5707 1.1184 11.5707 1.1198 11.5707 1.12122C11.5707 1.12265 11.5707 1.12408 11.5707 1.12552C11.5707 1.12696 11.5707 1.12842 11.5707 1.12989C11.5707 1.13135 11.5707 1.13283 11.5707 1.13432C11.5707 1.13581 11.5707 1.13731 11.5707 1.13882C11.5707 1.14033 11.5707 1.14186 11.5707 1.14339C11.5707 1.14493 11.5707 1.14647 11.5707 1.14803C11.5707 1.14959 11.5707 1.15116 11.5707 1.15274C11.5707 1.15432 11.5707 1.15591 11.5707 1.15751C11.5707 1.15911 11.5707 1.16073 11.5707 1.16235C11.5707 1.16398 11.5707 1.16561 11.5707 1.16726C11.5707 1.16891 11.5707 1.17056 11.5707 1.17223C11.5707 1.1739 11.5707 1.17558 11.5707 1.17727C11.5707 1.17896 11.5707 1.18067 11.5707 1.18238C11.5707 1.18409 11.5707 1.18582 11.5707 1.18755C11.5707 1.18929 11.5707 1.19103 11.5707 1.19279C11.5707 1.19455 11.5707 1.19631 11.5707 1.19809C11.5707 1.19987 11.5707 1.20166 11.5707 1.20346C11.5707 1.20526 11.5707 1.20707 11.5707 1.20889C11.5707 1.21071 11.5707 1.21254 11.5707 1.21439C11.5707 1.21623 11.5707 1.21808 11.5707 1.21995C11.5707 1.22181 11.5707 1.22368 11.5707 1.22557C11.5707 1.22745 11.5707 1.22935 11.5707 1.23126C11.5707 1.23316 11.5707 1.23508 11.5707 1.23701C11.5707 1.23893 11.5707 1.24087 11.5707 1.24282C11.5707 1.24477 11.5707 1.24672 11.5707 1.24869C11.5707 1.25066 11.5707 1.25264 11.5707 1.25463C11.5707 1.25662 11.5707 1.25862 11.5707 1.26063C11.5707 1.26264 11.5707 1.26466 11.5707 1.26669C11.5707 1.26872 11.5707 1.27076 11.5707 1.27281C11.5707 1.27486 11.5707 1.27692 11.5707 1.27899C11.5707 1.28106 11.5707 1.28315 11.5707 1.28524C11.5707 1.28733 11.5707 1.28943 11.5707 1.29154C11.5707 1.29365 11.5707 1.29577 11.5707 1.2979C11.5707 1.30004 11.5707 1.30218 11.5707 1.30433C11.5707 1.30648 11.5707 1.30864 11.5707 1.31081C11.5707 1.31298 11.5707 1.31516 11.5707 1.31735C11.5707 1.31954 11.5707 1.32175 11.5707 1.32396C11.5707 1.32617 11.5707 1.32839 11.5707 1.33062C11.5707 1.33285 11.5707 1.33509 11.5707 1.33733C11.5707 1.33958 11.5707 1.34184 11.5707 1.34411C11.5707 1.34638 11.5707 1.34866 11.5707 1.35094C11.5707 1.35323 11.5707 1.35553 11.5707 1.35784C11.5707 1.36014 11.5707 1.36246 11.5707 1.36479C11.5707 1.36711 11.5707 1.36945 11.5707 1.37179C11.5707 1.37414 11.5707 1.37649 11.5707 1.37885C11.5707 1.38122 11.5707 1.38359 11.5707 1.38597C11.5707 1.38835 11.5707 1.39075 11.5707 1.39315C11.5707 1.39555 11.5707 1.39796 11.5707 1.40038C11.5707 1.4028 11.5707 1.40523 11.5707 1.40766C11.5707 1.4101 11.5707 1.41255 11.5707 1.41501C11.5707 1.41746 11.5707 1.41993 11.5707 1.4224C11.5707 1.42488 11.5707 1.42736 11.5707 1.42985C11.5707 1.43234 11.5707 1.43485 11.5707 1.43736C11.5707 1.43987 11.5707 1.44239 11.5707 1.44491C11.5707 1.44744 11.5707 1.44998 11.5707 1.45253C11.5707 1.45507 11.5707 1.45763 11.5707 1.46019C11.5707 1.46276 11.5707 1.46533 11.5707 1.46791C11.5707 1.47049 11.5707 1.47308 11.5707 1.47568C11.5707 1.47828 11.5707 1.48089 11.5707 1.48351C11.5707 1.48613 11.5707 1.48875 11.5707 1.49138C11.5707 1.49402 11.5707 1.49666 11.5707 1.49931C11.5707 1.50196 11.5707 1.50462 11.5707 1.50729C11.5707 1.50996 11.5707 1.51264 11.5707 1.51532C11.5707 1.51801 11.5707 1.5207 11.5707 1.52341C11.5707 1.52611 11.5707 1.52882 11.5707 1.53154C11.5707 1.53426 11.5707 1.53699 11.5707 1.53972C11.5707 1.54246 11.5707 1.54521 11.5707 1.54796C11.5707 1.55071 11.5707 1.55347 11.5707 1.55624C11.5707 1.55901 11.5707 1.56179 11.5707 1.56458C11.5707 1.56736 11.5707 1.57016 11.5707 1.57296C11.5707 1.57576 11.5707 1.57857 11.5707 1.58139C11.5707 1.58421 11.5707 1.58704 11.5707 1.58987C11.5707 1.59271 11.5707 1.59555 11.5707 1.5984C11.5707 1.60125 11.5707 1.60411 11.5707 1.60698C11.5707 1.60984 11.5707 1.61272 11.5707 1.6156C11.5707 1.61848 11.5707 1.62137 11.5707 1.62427C11.5707 1.62717 11.5707 1.63008 11.5707 1.63299C11.5707 1.63591 11.5707 1.63883 11.5707 1.64176C11.5707 1.64469 11.5707 1.64763 11.5707 1.65057C11.5707 1.65352 11.5707 1.65647 11.5707 1.65943C11.5707 1.66239 11.5707 1.66536 11.5707 1.66834C11.5707 1.67132 11.5707 1.6743 11.5707 1.67729C11.5707 1.68028 11.5707 1.68328 11.5707 1.68629C11.5707 1.68929 11.5707 1.69231 11.5707 1.69533C11.5707 1.69835 11.5707 1.70138 11.5707 1.70442C11.5707 1.70745 11.5707 1.7105 11.5707 1.71355C11.5707 1.7166 11.5707 1.71966 11.5707 1.72273C11.5707 1.72579 11.5707 1.72887 11.5707 1.73195C11.5707 1.73503 11.5707 1.73811 11.5707 1.74121C11.5707 1.74431 11.5707 1.74741 11.5707 1.75052C11.5707 1.75363 11.5707 1.75674 11.5707 1.75987C11.5707 1.76299 11.5707 1.76612 11.5707 1.76926C11.5707 1.7724 11.5707 1.77555 11.5707 1.7787C11.5707 1.78185 11.5707 1.78501 11.5707 1.78818C11.5707 1.79134 11.5707 1.79452 11.5707 1.7977C11.5707 1.80088 11.5707 1.80407 11.5707 1.80726C11.5707 1.81045 11.5707 1.81366 11.5707 1.81686C11.5707 1.82007 11.5707 1.82329 11.5707 1.82651C11.5707 1.82973 11.5707 1.83296 11.5707 1.83619C11.5707 1.83943 11.5707 1.84267 11.5707 1.84592C11.5707 1.84917 11.5707 1.85243 11.5707 1.85569C11.5707 1.85895 11.5707 1.86222 11.5707 1.86549C11.5707 1.86877 11.5707 1.87205 11.5707 1.87534C11.5707 1.87863 11.5707 1.88192 11.5707 1.88523C11.5707 1.88853 11.5707 1.89184 11.5707 1.89515C11.5707 1.89846 11.5707 1.90179 11.5707 1.90511C11.5707 1.90844 11.5707 1.91178 11.5707 1.91512C11.5707 1.91846 11.5707 1.9218 11.5707 1.92516C11.5707 1.92851 11.5707 1.93187 11.5707 1.93523C11.5707 1.9386 11.5707 1.94197 11.5707 1.94535C11.5707 1.94873 11.5707 1.95211 11.5707 1.9555C11.5707 1.95889 11.5707 1.96229 11.5707 1.96569C11.5707 1.9691 11.5707 1.9725 11.5707 1.97592C11.5707 1.97933 11.5707 1.98276 11.5707 1.98618C11.5707 1.98961 11.5707 1.99304 11.5707 1.99648C11.5707 1.99992 11.5707 2.00337 11.5707 2.00682C11.5707 2.01027 11.5707 2.01373 11.5707 2.01719C11.5707 2.02065 11.5707 2.02412 11.5707 2.0276C11.5707 2.03107 11.5707 2.03455 11.5707 2.03804C11.5707 2.04152 11.5707 2.04502 11.5707 2.04851C11.5707 2.05201 11.5707 2.05551 11.5707 2.05902C11.5707 2.06253 11.5707 2.06605 11.5707 2.06957C11.5707 2.07309 11.5707 2.07661 11.5707 2.08015C11.5707 2.08368 11.5707 2.08722 11.5707 2.09076C11.5707 2.0943 11.5707 2.09785 11.5707 2.1014C11.5707 2.10496 11.5707 2.10852 11.5707 2.11208C11.5707 2.11565 11.5707 2.11922 11.5707 2.12279C11.5707 2.12637 11.5707 2.12995 11.5707 2.13354C11.5707 2.13712 11.5707 2.14071 11.5707 2.14431C11.5707 2.14791 11.5707 2.15151 11.5707 2.15512C11.5707 2.15873 11.5707 2.16234 11.5707 2.16596C11.5707 2.16958 11.5707 2.1732 11.5707 2.17683C11.5707 2.18046 11.5707 2.18409 11.5707 2.18773C11.5707 2.19137 11.5707 2.19501 11.5707 2.19866C11.5707 2.20231 11.5707 2.20596 11.5707 2.20962C11.5707 2.21328 11.5707 2.21694 11.5707 2.22061C11.5707 2.22428 11.5707 2.22796 11.5707 2.23163C11.5707 2.23531 11.5707 2.239 11.5707 2.24269C11.5707 2.24637 11.5707 2.25007 11.5707 2.25377C11.5707 2.25746 11.5707 2.26117 11.5707 2.26487C11.5707 2.26858 11.5707 2.2723 11.5707 2.27601C11.5707 2.27973 11.5707 2.28345 11.5707 2.28718C11.5707 2.2909 11.5707 2.29464 11.5707 2.29837C11.5707 2.30211 11.5707 2.30585 11.5707 2.30959C11.5707 2.31334 11.5707 2.31709 11.5707 2.32084C11.5707 2.3246 11.5707 2.32836 11.5707 2.33212C11.5707 2.33588 11.5707 2.33965 11.5707 2.34342C11.5707 2.34719 11.5707 2.35097 11.5707 2.35475C11.5707 2.35853 11.5707 2.36232 11.5707 2.36611C11.5707 2.3699 11.5707 2.37369 11.5707 2.37749C11.5707 2.38129 11.5707 2.38509 11.5707 2.3889C11.5707 2.3927 11.5707 2.39651 11.5707 2.40033C11.5707 2.40414 11.5707 2.40796 11.5707 2.41179C11.5707 2.41561 11.5707 2.41944 11.5707 2.42327C11.5707 2.4271 11.5707 2.43094 11.5707 2.43478C11.5707 2.43862 11.5707 2.44246 11.5707 2.44631C11.5707 2.45016 11.5707 2.45401 11.5707 2.45786C11.5707 2.46172 11.5707 2.46558 11.5707 2.46944C11.5707 2.47331 11.5707 2.47717 11.5707 2.48105C11.5707 2.48492 11.5707 2.48879 11.5707 2.49267C11.5707 2.49655 11.5707 2.50043 11.5707 2.50432C11.5707 2.50821 11.5707 2.5121 11.5707 2.51599C11.5707 2.51988 11.5707 2.52378 11.5707 2.52768C11.5707 2.53158 11.5707 2.53549 11.5707 2.5394C11.5707 2.54331 11.5707 2.54722 11.5707 2.55113C11.5707 2.55505 11.5707 2.55897 11.5707 2.56289C11.5707 2.56681 11.5707 2.57074 11.5707 2.57467C11.5707 2.5786 11.5707 2.58253 11.5707 2.58647C11.5707 2.59041 11.5707 2.59434 11.5707 2.59829C11.5707 2.60223 11.5707 2.60618 11.5707 2.61013C11.5707 2.61408 11.5707 2.61803 11.5707 2.62199C11.5707 2.62594 11.5707 2.6299 11.5707 2.63387C11.5707 2.63783 11.5707 2.6418 11.5707 2.64576C11.5707 2.64973 11.5707 2.65371 11.5707 2.65768C11.5707 2.66166 11.5707 2.66564 11.5707 2.66962C11.5707 2.6736 11.5707 2.67758 11.5707 2.68157C11.5707 2.68556 11.5707 2.68955 11.5707 2.69354C11.5707 2.69754 11.5707 2.70154 11.5707 2.70554C11.5707 2.70953 11.5707 2.71354 11.5707 2.71754C11.5707 2.72155 11.5707 2.72556 11.5707 2.72957C11.5707 2.73358 11.5707 2.73759 11.5707 2.74161C11.5707 2.74563 11.5707 2.74965 11.5707 2.75367C11.5707 2.75769 11.5707 2.76172 11.5707 2.76574C11.5707 2.76977 11.5707 2.7738 11.5707 2.77783C11.5707 2.78187 11.5707 2.7859 11.5707 2.78994C11.5707 2.79398 11.5707 2.79802 11.5707 2.80206C11.5707 2.80611 11.5707 2.81015 11.5707 2.8142C11.5707 2.81825 11.5707 2.8223 11.5707 2.82635C11.5707 2.8304 11.5707 2.83446 11.5707 2.83852C11.5707 2.84258 11.5707 2.84664 11.5707 2.8507C11.5707 2.85476 11.5707 2.85883 11.5707 2.86289C11.5707 2.86696 11.5707 2.87103 11.5707 2.8751C11.5707 2.87917 11.5707 2.88325 11.5707 2.88732C11.5707 2.8914 11.5707 2.89548 11.5707 2.89956C11.5707 2.90364 11.5707 2.90772 11.5707 2.91181C11.5707 2.91589 11.5707 2.91998 11.5707 2.92407C11.5707 2.92816 11.5707 2.93225 11.5707 2.93634C11.5707 2.94043 11.5707 2.94453 11.5707 2.94863C11.5707 2.95272 11.5707 2.95682 11.5707 2.96092C11.5707 2.96502 11.5707 2.96912 11.5707 2.97323C11.5707 2.97733 11.5707 2.98144 11.5707 2.98555C11.5707 2.98966 11.5707 2.99377 11.5707 2.99788C11.5707 3.00199 11.5707 3.0061 11.5707 3.01022C11.5707 3.01433 11.5707 3.01845 11.5707 3.02257C11.5707 3.02669 11.5707 3.03081 11.5707 3.03493C11.5707 3.03905 11.5707 3.04317 11.5707 3.0473C11.5707 3.05142 11.5707 3.05555 11.5707 3.05968C11.5707 3.0638 11.5707 3.06793 11.5707 3.07206C11.5707 3.0762 11.5707 3.08033 11.5707 3.08446C11.5707 3.0886 11.5707 3.09273 11.5707 3.09687C11.5707 3.101 11.5707 3.10514 11.5707 3.10928C11.5707 3.11342 11.5707 3.11756 11.5707 3.1217C11.5707 3.12584 11.5707 3.12999 11.5707 3.13413C11.5707 3.13827 11.5707 3.14242 11.5707 3.14657C11.5707 3.15071 11.5707 3.15486 11.5707 3.15901C11.5707 3.16316 11.5707 3.16731 11.5707 3.17146C11.5707 3.17561 11.5707 3.17976 11.5707 3.18392C11.5707 3.18807 11.5707 3.19222 11.5707 3.19638C11.5707 3.20053 11.5707 3.20469 11.5707 3.20885C11.5707 3.213 11.5707 3.21716 11.5707 3.22132C11.5707 3.22548 11.5707 3.22964 11.5707 3.2338C11.5707 3.23796 11.5707 3.24212 11.5707 3.24628C11.5707 3.25045 11.5707 3.25461 11.5707 3.25877C11.5707 3.26294 11.5707 3.2671 11.5707 3.27127C11.5707 3.27543 11.5707 3.2796 11.5707 3.28376C11.5707 3.28793 11.5707 3.2921 11.5707 3.29626C11.5707 3.30043 11.5707 3.3046 11.5707 3.30877C11.5707 3.31294 11.5707 3.31711 11.5707 3.32127C11.5707 3.32544 11.5707 3.32961 11.5707 3.33379C11.5707 3.33796 11.5707 3.34213 11.5707 3.3463C11.5707 3.35047 11.5707 3.35464 11.5707 3.35881C11.5707 3.36299 11.5707 3.36716 11.5707 3.37133C11.5707 3.3755 11.5707 3.37968 11.5707 3.38385C11.5707 3.38802 11.5707 3.3922 11.5707 3.39637C11.5707 3.40054 11.5707 3.40472 11.5707 3.40889C11.5707 3.41307 11.5707 3.41724 11.5707 3.42141C11.5707 3.42559 11.5707 3.42976 11.5707 3.43394C11.5707 3.43811 11.5707 3.44229 11.5707 3.44646C11.5707 3.45064 11.5707 3.45481 11.5707 3.45898C11.5707 3.46316 11.5707 3.46733 11.5707 3.47151C11.5707 3.47568 11.5707 3.47986 11.5707 3.48403C11.5707 3.4882 11.5707 3.49238 11.5707 3.49655C11.5707 3.50073 11.5707 3.5049 11.5707 3.50907C11.5707 3.51325 11.5707 3.51742 11.5707 3.52159C11.5707 3.52576 11.5707 3.52994 11.5707 3.53411C11.5707 3.53828 11.5707 3.54245 11.5707 3.54662C11.5707 3.55079 11.5707 3.55497 11.5707 3.55914C11.5707 3.56331 11.5707 3.56748 11.5707 3.57165C11.5707 3.57582 11.5707 3.57998 11.5707 3.58415C11.5707 3.58832 11.5707 3.59249 11.5707 3.59666C11.5707 3.60082 11.5707 3.60499 11.5707 3.60916C11.5707 3.61332 11.5707 3.61749 11.5707 3.62165C11.5707 3.62582 11.5707 3.62998 11.5707 3.63415C11.5707 3.63831 11.5707 3.64247 11.5707 3.64663C11.5707 3.6508 11.5707 3.65496 11.5707 3.65912C11.5707 3.66328 11.5707 3.66744 11.5707 3.6716C11.5707 3.67576 11.5707 3.67991 11.5707 3.68407C11.5707 3.68823 11.5707 3.69238 11.5707 3.69654C11.5707 3.70069 11.5707 3.70485 11.5707 3.709C11.5707 3.71315 11.5707 3.7173 11.5707 3.72145C11.5707 3.72561 11.5707 3.72976 11.5707 3.7339C11.5707 3.73805 11.5707 3.7422 11.5707 3.74635C11.5707 3.75049 11.5707 3.75464 11.5707 3.75878C11.5707 3.76293 11.5707 3.76707 11.5707 3.77121C11.5707 3.77535 11.5707 3.77949 11.5707 3.78363C11.5707 3.78777 11.5707 3.79191 11.5707 3.79604C11.5707 3.80018 11.5707 3.80431 11.5707 3.80845C11.5707 3.81258 11.5707 3.81671 11.5707 3.82084C11.5707 3.82497 11.5707 3.8291 11.5707 3.83323C11.5707 3.83736 11.5707 3.84148 11.5707 3.84561C11.5707 3.84973 11.5707 3.85386 11.5707 3.85798C11.5707 3.8621 11.5707 3.86622 11.5707 3.87034C11.5707 3.87445 11.5707 3.87857 11.5707 3.88269C11.5707 3.8868 11.5707 3.89091 11.5707 3.89502C11.5707 3.89914 11.5707 3.90325 11.5707 3.90735C11.5707 3.91146 11.5707 3.91557 11.5707 3.91967C11.5707 3.92377 11.5707 3.92788 11.5707 3.93198C11.5707 3.93608 11.5707 3.94018 11.5707 3.94427C11.5707 3.94837 11.5707 3.95246 11.5707 3.95656C11.5707 3.96065 11.5707 3.96474 11.5707 3.96883C11.5707 3.97292 11.5707 3.977 11.5707 3.98109C11.5707 3.98517 11.5707 3.98925 11.5707 3.99333C11.5707 3.99741 11.5707 4.00149 11.5707 4.00557C11.5707 4.00964 11.5707 4.01372 11.5707 4.01779C11.5707 4.02186 11.5707 4.02593 11.5707 4.02999C11.5707 4.03406 11.5707 4.03813 11.5707 4.04219C11.5707 4.04625 11.5707 4.05031 11.5707 4.05437C11.5707 4.05843 11.5707 4.06248 11.5707 4.06653C11.5707 4.07059 11.5707 4.07464 11.5707 4.07868C11.5707 4.08273 11.5707 4.08678 11.5707 4.09082C11.5707 4.09486 11.5707 4.0989 11.5707 4.10294C11.5707 4.10698 11.5707 4.11101 11.5707 4.11504C11.5707 4.11908 11.5707 4.12311 11.5707 4.12713C11.5707 4.13116 11.5707 4.13518 11.5707 4.13921C11.5707 4.14323 11.5707 4.14725 11.5707 4.15126C11.5707 4.15528 11.5707 4.15929 11.5707 4.1633C11.5707 4.16731 11.5707 4.17132 11.5707 4.17533C11.5707 4.17933 11.5707 4.18333 11.5707 4.18733C11.5707 4.19133 11.5707 4.19533 11.5707 4.19932C11.5707 4.20331 11.5707 4.2073 11.5707 4.21129C11.5707 4.21528 11.5707 4.21926 11.5707 4.22324C11.5707 4.22722 11.5707 4.2312 11.5707 4.23518C11.5707 4.23915 11.5707 4.24312 11.5707 4.24709C11.5707 4.25106 11.5707 4.25503 11.5707 4.25899C11.5707 4.26295 11.5707 4.26691 11.5707 4.27087C11.5707 4.27482 11.5707 4.27877 11.5707 4.28272C11.5707 4.28667 11.5707 4.29062 11.5707 4.29456C11.5707 4.2985 11.5707 4.30244 11.5707 4.30638C11.5707 4.31031 11.5707 4.31425 11.5707 4.31818C11.5707 4.3221 11.5707 4.32603 11.5707 4.32995C11.5707 4.33387 11.5707 4.33779 11.5707 4.34171C11.5707 4.34562 11.5707 4.34953 11.5707 4.35344C11.5707 4.35735 11.5707 4.36125 11.5707 4.36515C11.5707 4.36905 11.5707 4.37295 11.5707 4.37684C11.5707 4.38074 11.5707 4.38463 11.5707 4.38851C11.5707 4.3924 11.5707 4.39628 11.5707 4.40016C11.5707 4.40404 11.5707 4.40791 11.5707 4.41178C11.5707 4.41565 11.5707 4.41952 11.5707 4.42338C11.5707 4.42724 11.5707 4.4311 11.5707 4.43496C11.5707 4.43881 11.5707 4.44266 11.5707 4.44651C11.5707 4.45036 11.5707 4.4542 11.5707 4.45804C11.5707 4.46188 11.5707 4.46571 11.5707 4.46954C11.5707 4.47337 11.5707 4.4772 11.5707 4.48102C11.5707 4.48485 11.5707 4.48866 11.5707 4.49248C11.5707 4.49629 11.5707 4.5001 11.5707 4.50391C11.5707 4.50772 11.5707 4.51152 11.5707 4.51531C11.5707 4.51911 11.5707 4.5229 11.5707 4.52669C11.5707 4.53048 11.5707 4.53427 11.5707 4.53805C11.5707 4.54183 11.5707 4.5456 11.5707 4.54937C11.5707 4.55314 11.5707 4.55691 11.5707 4.56067C11.5707 4.56444 11.5707 4.56819 11.5707 4.57195C11.5707 4.5757 11.5707 4.57945 11.5707 4.58319C11.5707 4.58694 11.5707 4.59068 11.5707 4.59441C11.5707 4.59815 11.5707 4.60188 11.5707 4.6056C11.5707 4.60933 11.5707 4.61305 11.5707 4.61677C11.5707 4.62048 11.5707 4.62419 11.5707 4.6279C11.5707 4.63161 11.5707 4.63531 11.5707 4.63901C11.5707 4.6427 11.5707 4.6464 11.5707 4.65008C11.5707 4.65377 11.5707 4.65745 11.5707 4.66113C11.5707 4.66481 11.5707 4.66848 11.5707 4.67215C11.5707 4.67582 11.5707 4.67948 11.5707 4.68314C11.5707 4.6868 11.5707 4.69045 11.5707 4.6941C11.5707 4.69775 11.5707 4.70139 11.5707 4.70503C11.5707 4.70866 11.5707 4.7123 11.5707 4.71592C11.5707 4.71955 11.5707 4.72317 11.5707 4.72679C11.5707 4.73041 11.5707 4.73402 11.5707 4.73763C11.5707 4.74123 11.5707 4.74483 11.5707 4.74843C11.5707 4.75202 11.5707 4.75562 11.5707 4.7592C11.5707 4.76279 11.5707 4.76637 11.5707 4.76994C11.5707 4.77352 11.5707 4.77708 11.5707 4.78065C11.5707 4.78421 11.5707 4.78777 11.5707 4.79132C11.5707 4.79488 11.5707 4.79842 11.5707 4.80196C11.5707 4.80551 11.5707 4.80904 11.5707 4.81257C11.5707 4.8161 11.5707 4.81963 11.5707 4.82315C11.5707 4.82667 11.5707 4.83018 11.5707 4.83369C11.5707 4.8372 11.5707 4.8407 11.5707 4.8442C11.5707 4.84769 11.5707 4.85118 11.5707 4.85467C11.5707 4.85815 11.5707 4.86163 11.5707 4.86511C11.5707 4.86858 11.5707 4.87205 11.5707 4.87551C11.5707 4.87897 11.5707 4.88243 11.5707 4.88588C11.5707 4.88933 11.5707 4.89277 11.5707 4.89621C11.5707 4.89965 11.5707 4.90308 11.5707 4.9065C11.5707 4.90993 11.5707 4.91335 11.5707 4.91676C11.5707 4.92018 11.5707 4.92358 11.5707 4.92699C11.5707 4.93039 11.5707 4.93378 11.5707 4.93717C11.5707 4.94056 11.5707 4.94394 11.5707 4.94732C11.5707 4.9507 11.5707 4.95407 11.5707 4.95743C11.5707 4.9608 11.5707 4.96416 11.5707 4.96751C11.5707 4.97086 11.5707 4.9742 11.5707 4.97754C11.5707 4.98088 11.5707 4.98422 11.5707 4.98754C11.5707 4.99087 11.5707 4.99419 11.5707 4.9975C11.5707 5.00081 11.5707 5.00412 11.5707 5.00742C11.5707 5.01072 11.5707 5.01402 11.5707 5.0173C11.5707 5.02059 11.5707 5.02387 11.5707 5.02715C11.5707 5.03042 11.5707 5.03369 11.5707 5.03695C11.5707 5.04021 11.5707 5.04346 11.5707 5.04671C11.5707 5.04996 11.5707 5.0532 11.5707 5.05643C11.5707 5.05967 11.5707 5.06289 11.5707 5.06611C11.5707 5.06933 11.5707 5.07255 11.5707 5.07575C11.5707 5.07896 11.5707 5.08216 11.5707 5.08535C11.5707 5.08855 11.5707 5.09173 11.5707 5.09491C11.5707 5.09809 11.5707 5.10126 11.5707 5.10443C11.5707 5.10759 11.5707 5.11075 11.5707 5.1139C11.5707 5.11705 11.5707 5.1202 11.5707 5.12333C11.5707 5.12647 11.5707 5.1296 11.5707 5.13272C11.5707 5.13585 11.5707 5.13896 11.5707 5.14207C11.5707 5.14518 11.5707 5.14828 11.5707 5.15137C11.5707 5.15447 11.5707 5.15755 11.5707 5.16063C11.5707 5.16371 11.5707 5.16678 11.5707 5.16985C11.5707 5.17291 11.5707 5.17597 11.5707 5.17902C11.5707 5.18207 11.5707 5.18511 11.5707 5.18815C11.5707 5.19118 11.5707 5.19421 11.5707 5.19723C11.5707 5.20025 11.5707 5.20326 11.5707 5.20627C11.5707 5.20927 11.5707 5.21227 11.5707 5.21526C11.5707 5.21825 11.5707 5.22123 11.5707 5.22421C11.5707 5.22718 11.5707 5.23015 11.5707 5.23311C11.5707 5.23607 11.5707 5.23902 11.5707 5.24196C11.5707 5.24491 11.5707 5.24784 11.5707 5.25077C11.5707 5.2537 11.5707 5.25662 11.5707 5.25953C11.5707 5.26244 11.5707 5.26535 11.5707 5.26825C11.5707 5.27114 11.5707 5.27403 11.5707 5.27691C11.5707 5.2798 11.5707 5.28267 11.5707 5.28553C11.5707 5.2884 11.5707 5.29126 11.5707 5.29411C11.5707 5.29696 11.5707 5.2998 11.5707 5.30263C11.5707 5.30546 11.5707 5.30829 11.5707 5.31111C11.5707 5.31392 11.5707 5.31673 11.5707 5.31953C11.5707 5.32233 11.5707 5.32513 11.5707 5.32791C11.5707 5.33069 11.5707 5.33347 11.5707 5.33624C11.5707 5.33901 11.5707 5.34177 11.5707 5.34452C11.5707 5.34727 11.5707 5.35001 11.5707 5.35275C11.5707 5.35548 11.5707 5.35821 11.5707 5.36092C11.5707 5.36364 11.5707 5.36635 11.5707 5.36905C11.5707 5.37175 11.5707 5.37444 11.5707 5.37713C11.5707 5.37981 11.5707 5.38249 11.5707 5.38515C11.5707 5.38782 11.5707 5.39048 11.5707 5.39313C11.5707 5.39578 11.5707 5.39842 11.5707 5.40105C11.5707 5.40368 11.5707 5.40631 11.5707 5.40892C11.5707 5.41154 11.5707 5.41414 11.5707 5.41674C11.5707 5.41934 11.5707 5.42193 11.5707 5.42451C11.5707 5.42709 11.5707 5.42966 11.5707 5.43222C11.5707 5.43478 11.5707 5.43734 11.5707 5.43988C11.5707 5.44243 11.5707 5.44496 11.5707 5.44749C11.5707 5.45002 11.5707 5.45253 11.5707 5.45504C11.5707 5.45755 11.5707 5.46005 11.5707 5.46254C11.5707 5.46503 11.5707 5.46751 11.5707 5.46999C11.5707 5.47246 11.5707 5.47492 11.5707 5.47738C11.5707 5.47983 11.5707 5.48228 11.5707 5.48471C11.5707 5.48715 11.5707 5.48957 11.5707 5.49199C11.5707 5.49441 11.5707 5.49682 11.5707 5.49922C11.5707 5.50162 11.5707 5.504 11.5707 5.50639C11.5707 5.50877 11.5707 5.51114 11.5707 5.5135C11.5707 5.51586 11.5707 5.51821 11.5707 5.52055C11.5707 5.5229 11.5707 5.52523 11.5707 5.52755C11.5707 5.52988 11.5707 5.53219 11.5707 5.5345C11.5707 5.5368 11.5707 5.5391 11.5707 5.54138C11.5707 5.54367 11.5707 5.54594 11.5707 5.54821C11.5707 5.55048 11.5707 5.55273 11.5707 5.55498C11.5707 5.55723 11.5707 5.55947 11.5707 5.56169C11.5707 5.56392 11.5707 5.56614 11.5707 5.56835C11.5707 5.57056 11.5707 5.57275 11.5707 5.57494C11.5707 5.57713 11.5707 5.57931 11.5707 5.58148C11.5707 5.58365 11.5707 5.58581 11.5707 5.58796C11.5707 5.59011 11.5707 5.59224 11.5707 5.59437C11.5707 5.5965 11.5707 5.59862 11.5707 5.60073C11.5707 5.60284 11.5707 5.60494 11.5707 5.60703C11.5707 5.60912 11.5707 5.6112 11.5707 5.61327C11.5707 5.61533 11.5707 5.61739 11.5707 5.61944C11.5707 5.62149 11.5707 5.62353 11.5707 5.62556C11.5707 5.62759 11.5707 5.6296 11.5707 5.63161C11.5707 5.63362 11.5707 5.63562 11.5707 5.6376C11.5707 5.63959 11.5707 5.64157 11.5707 5.64353C11.5707 5.6455 11.5707 5.64746 11.5707 5.6494C11.5707 5.65135 11.5707 5.65328 11.5707 5.65521C11.5707 5.65713 11.5707 5.65905 11.5707 5.66095C11.5707 5.66286 11.5707 5.66475 11.5707 5.66663C11.5707 5.66851 11.5707 5.67039 11.5707 5.67225C11.5707 5.67411 11.5707 5.67596 11.5707 5.6778H12.5707ZM11.7171 6.03136C12.1613 6.47554 12.4563 6.76498 12.9244 7.08435L13.488 6.25831C13.1044 5.99662 12.8669 5.76691 12.4243 5.32425L11.7171 6.03136ZM13.0937 7.15852C14.934 7.58321 15.5118 7.72753 16.7987 7.9839L16.9941 7.00317C15.7262 6.75058 15.1685 6.61104 13.3186 6.18413L13.0937 7.15852ZM16.7886 7.98178C18.1575 8.28389 19.2892 8.61105 20.566 8.29185L20.3234 7.32171C19.3293 7.57024 18.4739 7.32967 17.0042 7.00528L16.7886 7.98178ZM20.6304 8.27102C21.1037 8.08168 21.4941 7.70464 21.8046 7.30646C22.1203 6.9016 22.3869 6.43133 22.6001 5.99488C22.8144 5.55627 22.9813 5.13837 23.0944 4.83103C23.1512 4.67693 23.1948 4.54958 23.2245 4.46C23.2393 4.41518 23.2507 4.37975 23.2585 4.35507C23.2624 4.34273 23.2654 4.33308 23.2675 4.32627C23.2686 4.32287 23.2694 4.32018 23.27 4.31823C23.2703 4.31725 23.2705 4.31646 23.2707 4.31585C23.2708 4.31555 23.2709 4.31529 23.2709 4.31508C23.271 4.31498 23.271 4.31486 23.271 4.3148C23.2711 4.31469 23.2711 4.31459 22.7925 4.16982C22.3139 4.02504 22.3139 4.02496 22.314 4.0249C22.314 4.02489 22.314 4.02484 22.314 4.02483C22.314 4.02481 22.314 4.02483 22.314 4.0249C22.3139 4.02504 22.3138 4.02536 22.3137 4.02586C22.3134 4.02686 22.3128 4.02858 22.3121 4.031C22.3106 4.03585 22.3082 4.0435 22.305 4.05378C22.2985 4.07434 22.2885 4.1054 22.2752 4.14562C22.2485 4.2261 22.2085 4.34297 22.156 4.48548C22.0508 4.77136 21.8968 5.15626 21.7016 5.55592C21.5053 5.95775 21.2736 6.36123 21.016 6.69153C20.7532 7.02851 20.4953 7.24802 20.259 7.34254L20.6304 8.27102Z" fill="#219EBC"/>
<circle cx="12.0709" cy="19.871" r="0.567728" fill="#219EBC"/>
<path d="M1.97285 2.74977C1.84504 2.21248 1.30586 1.88053 0.768571 2.00835C0.23128 2.13616 -0.100666 2.67534 0.0271481 3.21263L1.97285 2.74977ZM1.56773 6.67144L0.568044 6.69655L1.56773 6.67144ZM1.85159 9.79394L0.877227 10.0189L1.85159 9.79394ZM2.56125 12.3487L3.50957 12.0314L3.50957 12.0314L2.56125 12.3487ZM2.84512 15.3293L1.84577 15.2931L2.84512 15.3293ZM2.13546 19.0195L1.13718 19.0782L2.13546 19.0195ZM2.98705 22.0001L2.28409 22.7113C2.47128 22.8963 2.72386 23.0001 2.98705 23.0001V22.0001ZM21.1544 22.0001V23.0001C21.5567 23.0001 21.9198 22.759 22.0759 22.3883L21.1544 22.0001ZM22.4084 16.0803C22.2744 15.5445 21.7315 15.2187 21.1957 15.3527C20.6599 15.4866 20.3341 16.0296 20.4681 16.5654L22.4084 16.0803ZM1 2.9812C0.0271481 3.21263 0.0271353 3.21258 0.0271244 3.21253C0.0271235 3.21253 0.0271147 3.21249 0.0271128 3.21248C0.0271091 3.21247 0.0271133 3.21248 0.0271255 3.21253C0.0271499 3.21264 0.027206 3.21287 0.0272934 3.21324C0.0274682 3.21398 0.0277681 3.21525 0.0281891 3.21704C0.0290311 3.22061 0.0303574 3.22625 0.032137 3.23388C0.0356966 3.24913 0.0410668 3.2723 0.0479993 3.30265C0.0618688 3.36338 0.0819637 3.45273 0.106304 3.56489C0.155052 3.78953 0.220473 4.10402 0.28691 4.46212C0.422527 5.19311 0.551825 6.05098 0.568044 6.69655L2.56741 6.64632C2.54701 5.83427 2.39245 4.84702 2.25335 4.0973C2.18244 3.71504 2.11279 3.38028 2.06081 3.14075C2.03479 3.02083 2.0131 2.92438 1.99779 2.85731C1.99012 2.82376 1.98405 2.79754 1.97981 2.77938C1.97769 2.7703 1.97603 2.76323 1.97486 2.75826C1.97428 2.75578 1.97381 2.75383 1.97348 2.75241C1.97331 2.7517 1.97317 2.75112 1.97307 2.75068C1.97302 2.75046 1.97297 2.75028 1.97294 2.75013C1.97292 2.75005 1.9729 2.74996 1.97289 2.74992C1.97287 2.74984 1.97285 2.74977 1 2.9812ZM0.568044 6.69655C0.599282 7.94 0.561535 8.65164 0.877227 10.0189L2.82596 9.56897C2.56588 8.44255 2.60045 7.96137 2.56741 6.64632L0.568044 6.69655ZM0.877227 10.0189C1.12216 11.0797 1.26183 11.6168 1.61294 12.6661L3.50957 12.0314C3.184 11.0585 3.06075 10.5859 2.82596 9.56897L0.877227 10.0189ZM1.61294 12.6661C1.92146 13.588 1.88868 14.1082 1.84577 15.2931L3.84446 15.3655C3.88665 14.2003 3.94729 13.3395 3.50957 12.0314L1.61294 12.6661ZM1.84577 15.2931C1.82477 15.8731 1.67684 16.2885 1.48762 16.8614C1.29703 17.4385 1.08181 18.1369 1.13718 19.0782L3.13373 18.9608C3.10146 18.4123 3.21407 18.0113 3.38672 17.4886C3.56074 16.9618 3.81145 16.277 3.84446 15.3655L1.84577 15.2931ZM1.13718 19.0782C1.20982 20.313 1.44441 21.1728 1.69113 21.7528C1.81432 22.0424 1.93936 22.2595 2.04596 22.4162C2.09917 22.4944 2.14745 22.5571 2.18815 22.6059C2.20848 22.6302 2.22687 22.6511 2.24299 22.6686C2.25105 22.6774 2.25853 22.6853 2.2654 22.6924C2.26883 22.696 2.27211 22.6993 2.27522 22.7025C2.27678 22.704 2.2783 22.7056 2.27978 22.707C2.28052 22.7078 2.28125 22.7085 2.28196 22.7092C2.28232 22.7096 2.28286 22.7101 2.28303 22.7103C2.28356 22.7108 2.28409 22.7113 2.98705 22.0001C3.69001 21.2889 3.69053 21.2894 3.69105 21.2899C3.69122 21.2901 3.69173 21.2906 3.69207 21.2909C3.69274 21.2916 3.69341 21.2922 3.69406 21.2929C3.69536 21.2942 3.69662 21.2955 3.69783 21.2967C3.70026 21.2991 3.7025 21.3015 3.70457 21.3036C3.70872 21.3079 3.71215 21.3115 3.71492 21.3146C3.72045 21.3206 3.72329 21.3239 3.72373 21.3245C3.72463 21.3256 3.71578 21.3151 3.69958 21.2913C3.66739 21.2439 3.60457 21.1417 3.53156 20.97C3.38588 20.6275 3.19468 19.9969 3.13373 18.9608L1.13718 19.0782ZM2.98705 23.0001H21.1544V21.0001H2.98705V23.0001ZM21.1544 22.0001C22.0759 22.3883 22.076 22.3882 22.076 22.3881C22.076 22.388 22.0761 22.3879 22.0761 22.3878C22.0762 22.3877 22.0763 22.3875 22.0764 22.3872C22.0766 22.3868 22.0768 22.3863 22.077 22.3857C22.0776 22.3844 22.0782 22.3828 22.079 22.3809C22.0807 22.377 22.0829 22.3716 22.0857 22.3649C22.0912 22.3514 22.099 22.3324 22.1087 22.3084C22.1282 22.2605 22.1553 22.1922 22.1879 22.1076C22.2529 21.9388 22.3402 21.7025 22.4303 21.4303C22.6033 20.9075 22.8144 20.1712 22.8614 19.517L20.8666 19.3736C20.8382 19.7684 20.6945 20.3095 20.5315 20.8019C20.4537 21.0372 20.3777 21.2429 20.3214 21.3892C20.2933 21.4622 20.2703 21.5198 20.2548 21.5583C20.247 21.5775 20.2411 21.5919 20.2373 21.601C20.2354 21.6056 20.2341 21.6088 20.2333 21.6106C20.2329 21.6115 20.2327 21.6121 20.2326 21.6123C20.2325 21.6125 20.2325 21.6125 20.2326 21.6124C20.2326 21.6124 20.2326 21.6123 20.2326 21.6122C20.2327 21.6122 20.2327 21.6121 20.2327 21.6121C20.2327 21.612 20.2328 21.6119 21.1544 22.0001ZM22.8614 19.517C22.9498 18.2886 22.6897 17.2058 22.4084 16.0803L20.4681 16.5654C20.7544 17.7108 20.9291 18.5041 20.8666 19.3736L22.8614 19.517Z" fill="#8ECAE6"/>
<path d="M20.4385 13.0584C20.4385 13.6107 20.8862 14.0584 21.4385 14.0584C21.9908 14.0584 22.4385 13.6107 22.4385 13.0584H20.4385ZM22.2901 9.79394L23.2753 9.96503L22.2901 9.79394ZM22.5739 6.81337L23.5614 6.97136C23.5697 6.91911 23.5739 6.86628 23.5739 6.81337H22.5739ZM24.1118 3.22374C24.2458 2.68794 23.92 2.14501 23.3842 2.01106C22.8484 1.87711 22.3055 2.20287 22.1715 2.73867L24.1118 3.22374ZM22.4385 13.0584C22.4385 12.6007 22.5412 12.2645 22.7097 11.8189C22.8795 11.3698 23.1354 10.771 23.2753 9.96503L21.3048 9.62285C21.2049 10.1984 21.035 10.5932 20.8389 11.1115C20.6416 11.6334 20.4385 12.2386 20.4385 13.0584H22.4385ZM23.2753 9.96503C23.3869 9.32223 23.4042 8.86767 23.4227 8.43549C23.4405 8.02008 23.4596 7.60713 23.5614 6.97136L21.5865 6.65538C21.4665 7.4053 21.4434 7.90858 21.4245 8.35C21.4064 8.77465 21.3926 9.11753 21.3048 9.62285L23.2753 9.96503ZM23.5739 6.81337C23.5739 4.83262 23.8192 4.3943 24.1118 3.22374L22.1715 2.73867C21.8964 3.83901 21.5739 4.53615 21.5739 6.81337H23.5739Z" fill="#8ECAE6"/>
</svg>
