<svg width="23" height="23" viewBox="0 0 23 23" fill="none" xmlns="http://www.w3.org/2000/svg">
<path d="M15.879 0.467102C18.2001 1.25869 19.0319 5.90085 16.5121 7.04574C15.4989 7.50574 13.9253 8.0111 12.5606 7.70508C10.812 7.31344 9.54441 7.55302 9.54441 7.55302C9.54441 7.55302 12.6092 8.95219 13.5943 11.5927C14.5795 14.2332 14.2792 16.1742 15.6611 17.4469C16.7524 18.4518 17.4436 19.8107 16.7083 20.6375C15.7212 21.7479 14.1981 20.6196 12.811 22.2219C11.8387 23.3451 9.73799 22.9771 8.2826 22.3126C6.44324 21.4731 8.79819 20.9128 9.45944 20.8451C10.1942 20.7704 12.8392 19.345 11.5869 17.3031C8.90616 12.9325 6.15574 10.5667 4.35919 9.24671C2.75302 8.06732 2.58819 5.8523 4.26527 3.83852C5.3271 2.5633 7.60602 1.56791 10.1769 0.814658C11.9658 0.29013 13.993 -0.176259 15.879 0.467102V0.467102Z" fill="#8ECAE6"/>
<path d="M5.28171 8.33566L5.25488 8.32289C5.13817 8.261 5.0508 8.15531 5.01199 8.02904C4.97317 7.90277 4.98608 7.76625 5.04788 7.6495C5.78516 6.25736 5.34943 5.09458 5.33091 5.04539C5.28331 4.92249 5.28614 4.78577 5.33878 4.66494C5.39142 4.54412 5.48961 4.44895 5.61202 4.40011C5.73411 4.35138 5.87055 4.35307 5.99141 4.40481C6.11226 4.45656 6.20765 4.55412 6.25666 4.67611C6.28285 4.74127 6.89107 6.29952 5.92891 8.11525C5.86948 8.22759 5.76937 8.31297 5.64907 8.35395C5.52877 8.39492 5.39735 8.38838 5.28171 8.33566V8.33566Z" fill="#219EBC"/>
</svg>
