<svg width="29" height="29" viewBox="0 0 29 29" fill="none" xmlns="http://www.w3.org/2000/svg">
<path fill-rule="evenodd" clip-rule="evenodd" d="M6.25106 4.18387C6.24441 4.10535 6.22235 4.02891 6.18616 3.95892C6.14996 3.88892 6.10033 3.82674 6.0401 3.77593C5.97987 3.72511 5.91022 3.68666 5.83513 3.66277C5.76004 3.63887 5.68098 3.63001 5.60246 3.63667L4.40666 3.73867C4.2482 3.75211 4.10155 3.82791 3.99894 3.94942C3.89634 4.07092 3.84617 4.22819 3.85946 4.38667L4.05686 6.70807C3.97054 6.76826 3.90157 6.8501 3.85687 6.94536C3.81217 7.04063 3.79331 7.14598 3.80219 7.25083C3.81106 7.35569 3.84736 7.45637 3.90743 7.54277C3.96751 7.62917 4.04925 7.69824 4.14446 7.74307L4.35446 10.2163C4.36111 10.2948 4.38317 10.3712 4.41936 10.4412C4.45556 10.5112 4.50519 10.5734 4.56542 10.6242C4.62565 10.675 4.6953 10.7135 4.77039 10.7374C4.84548 10.7613 4.92454 10.7701 5.00306 10.7635L6.19886 10.6615C6.35733 10.648 6.50397 10.5722 6.60658 10.4507C6.70918 10.3292 6.75935 10.1719 6.74606 10.0135L6.52406 7.40587C6.83006 7.35127 7.13006 7.29907 7.42646 7.24987C7.48946 8.23987 7.67246 9.91927 8.00966 11.5009C8.22566 12.5089 8.52086 13.5613 8.93126 14.3893C9.13526 14.8021 9.40046 15.2245 9.75146 15.5581C10.0617 15.8533 10.4817 16.1143 11.0001 16.1827V18.7819C10.9348 18.7585 10.8696 18.7351 10.8045 18.7117L10.6707 18.6637C10.0677 18.4477 9.45506 18.2281 8.98706 18.1099C8.76026 18.0523 8.41646 17.9773 8.07926 18.0073C7.79142 18.0293 7.51679 18.1372 7.29086 18.3169C7.13646 18.4427 7.01222 18.6015 6.92729 18.7817C6.84235 18.9618 6.79888 19.1587 6.80006 19.3579C6.80006 19.8517 6.96866 21.1219 7.11206 22.1365C7.20047 22.7628 7.29248 23.3886 7.38806 24.0139L7.40726 24.1393L7.41266 24.1723L7.41386 24.1807V24.1837L8.60006 24.0001L7.41446 24.1843C7.46045 24.475 7.61168 24.7387 7.83941 24.9252C8.06713 25.1117 8.35546 25.208 8.64956 25.1958C8.94365 25.1835 9.223 25.0637 9.43446 24.8589C9.64593 24.6541 9.77476 24.3788 9.79646 24.0853L10.0185 20.9797C10.6851 21.2185 11.4633 21.4939 12.2319 21.7099C12.9957 21.9247 13.8339 22.1059 14.6001 22.1059C15.3663 22.1059 16.2045 21.9247 16.9683 21.7099C17.7303 21.4957 18.5019 21.2227 19.1643 20.9857L19.4037 24.0919C19.4264 24.3851 19.5561 24.6598 19.7681 24.8637C19.9801 25.0677 20.2596 25.1866 20.5535 25.198C20.8475 25.2094 21.1354 25.1125 21.3625 24.9256C21.5896 24.7387 21.7402 24.4749 21.7857 24.1843L20.6001 24.0001L21.7857 24.1837L21.7863 24.1807L21.7875 24.1723L21.7929 24.1393L21.8121 24.0133C21.9081 23.3883 22.0001 22.7627 22.0881 22.1365C22.2315 21.1219 22.4001 19.8517 22.4001 19.3585C22.4001 19.0045 22.2621 18.6037 21.9093 18.3169C21.6833 18.1371 21.4087 18.0293 21.1209 18.0073C20.7837 17.9773 20.4399 18.0523 20.2125 18.1093C19.7445 18.2281 19.1325 18.4477 18.5295 18.6637L18.3957 18.7117L18.2001 18.7819V16.1857C19.3341 16.0591 20.0211 15.1399 20.3997 14.4085C20.8389 13.5613 21.1257 12.4903 21.3201 11.4769C21.6249 9.89347 21.7449 8.23087 21.7839 7.25767C22.0767 7.30567 22.3737 7.35667 22.6755 7.41007L22.4535 10.0135C22.4402 10.172 22.4904 10.3294 22.5932 10.4509C22.6959 10.5724 22.8427 10.6482 23.0013 10.6615L24.1965 10.7635C24.275 10.7701 24.354 10.7613 24.4291 10.7374C24.5042 10.7135 24.5739 10.675 24.6341 10.6242C24.6943 10.5734 24.744 10.5112 24.7802 10.4412C24.8164 10.3712 24.8384 10.2948 24.8451 10.2163L25.0551 7.74307C25.1506 7.69857 25.2327 7.62965 25.293 7.54327C25.3534 7.45689 25.3899 7.35611 25.3989 7.25111C25.4078 7.14611 25.3889 7.0406 25.344 6.94525C25.2991 6.84991 25.2299 6.76809 25.1433 6.70807L25.3407 4.38667C25.354 4.22819 25.3038 4.07092 25.2012 3.94942C25.0986 3.82791 24.9519 3.75211 24.7935 3.73867L23.5977 3.63667C23.4392 3.62338 23.2819 3.67355 23.1604 3.77615C23.0389 3.87876 22.9631 4.02541 22.9497 4.18387L22.7775 6.20947C22.4026 6.14352 22.0271 6.08052 21.6513 6.02047C21.5616 5.85783 21.4354 5.71823 21.2826 5.61266C21.1297 5.50708 20.9545 5.43842 20.7707 5.41207C20.5868 5.38573 20.3994 5.40241 20.2231 5.46082C20.0468 5.51923 19.8864 5.61777 19.7547 5.74867C16.1085 5.28847 13.0215 5.28907 9.43886 5.74267C9.30711 5.61377 9.14743 5.51696 8.97222 5.45973C8.79701 5.40251 8.61097 5.38641 8.42854 5.4127C8.2461 5.43899 8.07217 5.50694 7.92024 5.6113C7.76831 5.71566 7.64246 5.85362 7.55246 6.01447C7.18286 6.07327 6.80666 6.13687 6.42266 6.20527L6.25106 4.18327V4.18387ZM10.3569 10.9999C10.0777 9.64956 9.8948 8.28111 9.80966 6.90487C13.1283 6.50107 16.0167 6.50107 19.3947 6.91327C19.3719 7.71247 19.2699 9.42967 18.9633 11.0233C18.7833 11.9599 18.5493 12.7639 18.2691 13.3045C18.0783 13.6723 17.9475 13.7755 17.9043 13.8001H11.3859C11.3163 13.7275 11.2089 13.5805 11.0817 13.3237C10.8045 12.7639 10.5585 11.9413 10.3569 10.9993V10.9999ZM17.3001 9.90007C17.3001 10.6162 17.0156 11.3029 16.5092 11.8093C16.0029 12.3156 15.3161 12.6001 14.6001 12.6001C13.884 12.6001 13.1972 12.3156 12.6909 11.8093C12.1845 11.3029 11.9001 10.6162 11.9001 9.90007C11.9001 9.18399 12.1845 8.49723 12.6909 7.99088C13.1972 7.48453 13.884 7.20007 14.6001 7.20007C15.3161 7.20007 16.0029 7.48453 16.5092 7.99088C17.0156 8.49723 17.3001 9.18399 17.3001 9.90007Z" fill="#8ECAE6"/>
</svg>
