<svg width="38" height="38" viewBox="0 0 38 38" fill="none" xmlns="http://www.w3.org/2000/svg">
<g clip-path="url(#clip0)">
<path class="primary" fill-rule="evenodd" clip-rule="evenodd" d="M24.2776 13.2361H26.9165V26.4305H24.2776V20.493H13.7221V26.4305H11.0832V13.2361H13.7221V19.1736H24.2776V13.2361ZM7.12486 19.1736V15.2153H9.76375V24.4514H7.12486V20.493H5.80542V19.1736H7.12486ZM32.1943 20.493H30.8749V24.4514H28.236V15.2153H30.8749V19.1736H32.1943V20.493Z" fill="#219EBC"/>
<circle class="background" cx="30.6667" cy="7.33337" r="10" fill="none"/>
<path class="secondary" d="M30.6664 0.041626C28.7398 0.0648705 26.8986 0.84056 25.5361 2.20301C24.1737 3.56545 23.398 5.40664 23.3748 7.33329C23.398 9.25994 24.1737 11.1011 25.5361 12.4636C26.8986 13.826 28.7398 14.6017 30.6664 14.625C32.5931 14.6017 34.4343 13.826 35.7967 12.4636C37.1592 11.1011 37.9348 9.25994 37.9581 7.33329C37.9348 5.40664 37.1592 3.56545 35.7967 2.20301C34.4343 0.84056 32.5931 0.0648705 30.6664 0.041626ZM34.8331 7.85413H31.1873V11.5H30.1456V7.85413H26.4998V6.81246H30.1456V3.16663H31.1873V6.81246H34.8331V7.85413Z" fill="#FFB703"/>
</g>
<defs>
<clipPath id="clip0">
<rect width="38" height="38" fill="white"/>
</clipPath>
</defs>
</svg>
