<svg width="39" height="39" viewBox="0 0 39 39" fill="none" xmlns="http://www.w3.org/2000/svg">
<g clip-path="url(#clip0)">
<path fill-rule="evenodd" clip-rule="evenodd" d="M25.1111 12.2361H27.75V25.4306H25.1111V19.4931H14.5556V25.4306H11.9167V12.2361H14.5556V18.1736H25.1111V12.2361ZM7.95836 18.1736V14.2153H10.5973V23.4514H7.95836V19.4931H6.63892V18.1736H7.95836ZM33.0278 19.4931H31.7084V23.4514H29.0695V14.2153H31.7084V18.1736H33.0278V19.4931Z" fill="#219EBC"/>
<circle cx="31.6667" cy="7.33334" r="10" fill="#F4F1DE"/>
<path d="M31.6664 0.0416565C29.7398 0.064901 27.8986 0.840591 26.5361 2.20304C25.1737 3.56548 24.398 5.40667 24.3748 7.33332C24.398 9.25997 25.1737 11.1012 26.5361 12.4636C27.8986 13.8261 29.7398 14.6017 31.6664 14.625C33.5931 14.6017 35.4343 13.8261 36.7967 12.4636C38.1592 11.1012 38.9348 9.25997 38.9581 7.33332C38.9348 5.40667 38.1592 3.56548 36.7967 2.20304C35.4343 0.840591 33.5931 0.064901 31.6664 0.0416565ZM35.8331 7.85416H32.1873V11.5H31.1456V7.85416H27.4998V6.81249H31.1456V3.16666H32.1873V6.81249H35.8331V7.85416Z" fill="#FFB703"/>
</g>
<defs>
<clipPath id="clip0">
<rect width="39" height="39" fill="white"/>
</clipPath>
</defs>
</svg>
