<svg width="39" height="39" viewBox="0 0 39 39" fill="none" xmlns="http://www.w3.org/2000/svg">
<g clip-path="url(#clip0)">
<path class="primary" d="M30.4167 10.6666H15.2083C15.0938 10.6666 15 10.7603 15 10.8749V12.3333C15 12.4478 15.0938 12.5416 15.2083 12.5416H30.4167C30.5313 12.5416 30.625 12.4478 30.625 12.3333V10.8749C30.625 10.7603 30.5313 10.6666 30.4167 10.6666ZM30.4167 18.0624H15.2083C15.0938 18.0624 15 18.1562 15 18.2708V19.7291C15 19.8437 15.0938 19.9374 15.2083 19.9374H30.4167C30.5313 19.9374 30.625 19.8437 30.625 19.7291V18.2708C30.625 18.1562 30.5313 18.0624 30.4167 18.0624ZM30.4167 25.4583H15.2083C15.0938 25.4583 15 25.552 15 25.6666V27.1249C15 27.2395 15.0938 27.3333 15.2083 27.3333H30.4167C30.5313 27.3333 30.625 27.2395 30.625 27.1249V25.6666C30.625 25.552 30.5313 25.4583 30.4167 25.4583ZM9.375 11.6041C9.375 11.7956 9.41272 11.9852 9.48601 12.1622C9.5593 12.3391 9.66672 12.4999 9.80214 12.6353C9.93755 12.7707 10.0983 12.8781 10.2753 12.9514C10.4522 13.0247 10.6418 13.0624 10.8333 13.0624C11.0248 13.0624 11.2145 13.0247 11.3914 12.9514C11.5683 12.8781 11.7291 12.7707 11.8645 12.6353C11.9999 12.4999 12.1074 12.3391 12.1807 12.1622C12.2539 11.9852 12.2917 11.7956 12.2917 11.6041C12.2917 11.4126 12.2539 11.2229 12.1807 11.046C12.1074 10.8691 11.9999 10.7083 11.8645 10.5729C11.7291 10.4375 11.5683 10.33 11.3914 10.2568C11.2145 10.1835 11.0248 10.1458 10.8333 10.1458C10.6418 10.1458 10.4522 10.1835 10.2753 10.2568C10.0983 10.33 9.93755 10.4375 9.80214 10.5729C9.66672 10.7083 9.5593 10.8691 9.48601 11.046C9.41272 11.2229 9.375 11.4126 9.375 11.6041ZM9.375 18.9999C9.375 19.1914 9.41272 19.3811 9.48601 19.558C9.5593 19.7349 9.66672 19.8957 9.80214 20.0311C9.93755 20.1665 10.0983 20.274 10.2753 20.3472C10.4522 20.4205 10.6418 20.4583 10.8333 20.4583C11.0248 20.4583 11.2145 20.4205 11.3914 20.3472C11.5683 20.274 11.7291 20.1665 11.8645 20.0311C11.9999 19.8957 12.1074 19.7349 12.1807 19.558C12.2539 19.3811 12.2917 19.1914 12.2917 18.9999C12.2917 18.8084 12.2539 18.6188 12.1807 18.4418C12.1074 18.2649 11.9999 18.1041 11.8645 17.9687C11.7291 17.8333 11.5683 17.7259 11.3914 17.6526C11.2145 17.5793 11.0248 17.5416 10.8333 17.5416C10.6418 17.5416 10.4522 17.5793 10.2753 17.6526C10.0983 17.7259 9.93755 17.8333 9.80214 17.9687C9.66672 18.1041 9.5593 18.2649 9.48601 18.4418C9.41272 18.6188 9.375 18.8084 9.375 18.9999ZM9.375 26.3958C9.375 26.5873 9.41272 26.7769 9.48601 26.9538C9.5593 27.1308 9.66672 27.2915 9.80214 27.427C9.93755 27.5624 10.0983 27.6698 10.2753 27.7431C10.4522 27.8164 10.6418 27.8541 10.8333 27.8541C11.0248 27.8541 11.2145 27.8164 11.3914 27.7431C11.5683 27.6698 11.7291 27.5624 11.8645 27.427C11.9999 27.2915 12.1074 27.1308 12.1807 26.9538C12.2539 26.7769 12.2917 26.5873 12.2917 26.3958C12.2917 26.2042 12.2539 26.0146 12.1807 25.8377C12.1074 25.6607 11.9999 25.5 11.8645 25.3646C11.7291 25.2291 11.5683 25.1217 11.3914 25.0484C11.2145 24.9751 11.0248 24.9374 10.8333 24.9374C10.6418 24.9374 10.4522 24.9751 10.2753 25.0484C10.0983 25.1217 9.93755 25.2291 9.80214 25.3646C9.66672 25.5 9.5593 25.6607 9.48601 25.8377C9.41272 26.0146 9.375 26.2042 9.375 26.3958Z" fill="#219EBC"/>
<circle class="background" cx="31.6665" cy="7.33337" r="10" fill="#F4F1DE"/>
<path class="secondary" d="M31.6664 0.041626C29.7398 0.0648705 27.8986 0.84056 26.5361 2.20301C25.1737 3.56545 24.398 5.40664 24.3748 7.33329C24.398 9.25994 25.1737 11.1011 26.5361 12.4636C27.8986 13.826 29.7398 14.6017 31.6664 14.625C33.5931 14.6017 35.4343 13.826 36.7967 12.4636C38.1592 11.1011 38.9348 9.25994 38.9581 7.33329C38.9348 5.40664 38.1592 3.56545 36.7967 2.20301C35.4343 0.84056 33.5931 0.0648705 31.6664 0.041626ZM35.8331 7.85413H32.1873V11.5H31.1456V7.85413H27.4998V6.81246H31.1456V3.16663H32.1873V6.81246H35.8331V7.85413Z" fill="#FFB703"/>
</g>
<defs>
<clipPath id="clip0">
<rect width="39" height="39" fill="white"/>
</clipPath>
</defs>
</svg>
