<svg width="39" height="39" viewBox="0 0 39 39" fill="none" xmlns="http://www.w3.org/2000/svg">
<g clip-path="url(#clip0)">
<path d="M30.4167 10.6667H15.2083C15.0938 10.6667 15 10.7604 15 10.875V12.3333C15 12.4479 15.0938 12.5417 15.2083 12.5417H30.4167C30.5313 12.5417 30.625 12.4479 30.625 12.3333V10.875C30.625 10.7604 30.5313 10.6667 30.4167 10.6667ZM30.4167 18.0625H15.2083C15.0938 18.0625 15 18.1563 15 18.2708V19.7292C15 19.8438 15.0938 19.9375 15.2083 19.9375H30.4167C30.5313 19.9375 30.625 19.8438 30.625 19.7292V18.2708C30.625 18.1563 30.5313 18.0625 30.4167 18.0625ZM30.4167 25.4583H15.2083C15.0938 25.4583 15 25.5521 15 25.6667V27.125C15 27.2396 15.0938 27.3333 15.2083 27.3333H30.4167C30.5313 27.3333 30.625 27.2396 30.625 27.125V25.6667C30.625 25.5521 30.5313 25.4583 30.4167 25.4583ZM9.375 11.6042C9.375 11.7957 9.41272 11.9853 9.48601 12.1623C9.5593 12.3392 9.66672 12.5 9.80214 12.6354C9.93755 12.7708 10.0983 12.8782 10.2753 12.9515C10.4522 13.0248 10.6418 13.0625 10.8333 13.0625C11.0248 13.0625 11.2145 13.0248 11.3914 12.9515C11.5683 12.8782 11.7291 12.7708 11.8645 12.6354C11.9999 12.5 12.1074 12.3392 12.1807 12.1623C12.2539 11.9853 12.2917 11.7957 12.2917 11.6042C12.2917 11.4127 12.2539 11.223 12.1807 11.0461C12.1074 10.8692 11.9999 10.7084 11.8645 10.573C11.7291 10.4376 11.5683 10.3301 11.3914 10.2569C11.2145 10.1836 11.0248 10.1458 10.8333 10.1458C10.6418 10.1458 10.4522 10.1836 10.2753 10.2569C10.0983 10.3301 9.93755 10.4376 9.80214 10.573C9.66672 10.7084 9.5593 10.8692 9.48601 11.0461C9.41272 11.223 9.375 11.4127 9.375 11.6042ZM9.375 19C9.375 19.1915 9.41272 19.3812 9.48601 19.5581C9.5593 19.735 9.66672 19.8958 9.80214 20.0312C9.93755 20.1666 10.0983 20.274 10.2753 20.3473C10.4522 20.4206 10.6418 20.4583 10.8333 20.4583C11.0248 20.4583 11.2145 20.4206 11.3914 20.3473C11.5683 20.274 11.7291 20.1666 11.8645 20.0312C11.9999 19.8958 12.1074 19.735 12.1807 19.5581C12.2539 19.3812 12.2917 19.1915 12.2917 19C12.2917 18.8085 12.2539 18.6189 12.1807 18.4419C12.1074 18.265 11.9999 18.1042 11.8645 17.9688C11.7291 17.8334 11.5683 17.726 11.3914 17.6527C11.2145 17.5794 11.0248 17.5417 10.8333 17.5417C10.6418 17.5417 10.4522 17.5794 10.2753 17.6527C10.0983 17.726 9.93755 17.8334 9.80214 17.9688C9.66672 18.1042 9.5593 18.265 9.48601 18.4419C9.41272 18.6189 9.375 18.8085 9.375 19ZM9.375 26.3958C9.375 26.5874 9.41272 26.777 9.48601 26.9539C9.5593 27.1309 9.66672 27.2916 9.80214 27.427C9.93755 27.5625 10.0983 27.6699 10.2753 27.7432C10.4522 27.8165 10.6418 27.8542 10.8333 27.8542C11.0248 27.8542 11.2145 27.8165 11.3914 27.7432C11.5683 27.6699 11.7291 27.5625 11.8645 27.427C11.9999 27.2916 12.1074 27.1309 12.1807 26.9539C12.2539 26.777 12.2917 26.5874 12.2917 26.3958C12.2917 26.2043 12.2539 26.0147 12.1807 25.8378C12.1074 25.6608 11.9999 25.5001 11.8645 25.3646C11.7291 25.2292 11.5683 25.1218 11.3914 25.0485C11.2145 24.9752 11.0248 24.9375 10.8333 24.9375C10.6418 24.9375 10.4522 24.9752 10.2753 25.0485C10.0983 25.1218 9.93755 25.2292 9.80214 25.3646C9.66672 25.5001 9.5593 25.6608 9.48601 25.8378C9.41272 26.0147 9.375 26.2043 9.375 26.3958Z" fill="#219EBC"/>
<circle cx="31.6665" cy="7.33333" r="10" fill="#F4F1DE"/>
<path d="M31.6664 0.0416565C29.7398 0.064901 27.8986 0.840591 26.5361 2.20304C25.1737 3.56548 24.398 5.40667 24.3748 7.33332C24.398 9.25997 25.1737 11.1012 26.5361 12.4636C27.8986 13.8261 29.7398 14.6017 31.6664 14.625C33.5931 14.6017 35.4343 13.8261 36.7967 12.4636C38.1592 11.1012 38.9348 9.25997 38.9581 7.33332C38.9348 5.40667 38.1592 3.56548 36.7967 2.20304C35.4343 0.840591 33.5931 0.064901 31.6664 0.0416565ZM35.8331 7.85416H32.1873V11.5H31.1456V7.85416H27.4998V6.81249H31.1456V3.16666H32.1873V6.81249H35.8331V7.85416Z" fill="#FFB703"/>
</g>
<defs>
<clipPath id="clip0">
<rect width="39" height="39" fill="white"/>
</clipPath>
</defs>
</svg>
