<svg width="34" height="34" viewBox="0 0 34 34" fill="none" xmlns="http://www.w3.org/2000/svg">
<path d="M30.4584 5.66669H27.3889V7.55558H30.2222V28.3333H3.7778V7.55558H6.61114V5.66669H3.54169C3.32092 5.67038 3.10303 5.71752 2.90048 5.80543C2.69793 5.89334 2.51468 6.0203 2.36119 6.17904C2.20771 6.33778 2.08701 6.52521 2.00597 6.7306C1.92494 6.936 1.88516 7.15536 1.88891 7.37613V28.5128C1.88516 28.7336 1.92494 28.9529 2.00597 29.1583C2.08701 29.3637 2.20771 29.5511 2.36119 29.7099C2.51468 29.8686 2.69793 29.9956 2.90048 30.0835C3.10303 30.1714 3.32092 30.2185 3.54169 30.2222H30.4584C30.6791 30.2185 30.897 30.1714 31.0996 30.0835C31.3021 29.9956 31.4854 29.8686 31.6389 29.7099C31.7923 29.5511 31.913 29.3637 31.9941 29.1583C32.0751 28.9529 32.1149 28.7336 32.1111 28.5128V7.37613C32.1149 7.15536 32.0751 6.936 31.9941 6.7306C31.913 6.52521 31.7923 6.33778 31.6389 6.17904C31.4854 6.0203 31.3021 5.89334 31.0996 5.80543C30.897 5.71752 30.6791 5.67038 30.4584 5.66669V5.66669Z" fill="#219EBC"/>
<path d="M7.55542 13.2222H9.44431V15.1111H7.55542V13.2222Z" fill="#023047"/>
<path d="M13.2222 13.2222H15.1111V15.1111H13.2222V13.2222Z" fill="#023047"/>
<path d="M18.8889 13.2222H20.7778V15.1111H18.8889V13.2222Z" fill="#023047"/>
<path d="M24.5554 13.2222H26.4443V15.1111H24.5554V13.2222Z" fill="#FB8500"/>
<path d="M7.55542 17.9444H9.44431V19.8333H7.55542V17.9444Z" fill="#FB8500"/>
<path d="M13.2222 17.9444H15.1111V19.8333H13.2222V17.9444Z" fill="#FB8500"/>
<path d="M18.8889 17.9444H20.7778V19.8333H18.8889V17.9444Z" fill="#FB8500"/>
<path d="M24.5554 17.9444H26.4443V19.8333H24.5554V17.9444Z" fill="#FB8500"/>
<path d="M7.55542 22.6667H9.44431V24.5556H7.55542V22.6667Z" fill="#FB8500"/>
<path d="M13.2222 22.6667H15.1111V24.5556H13.2222V22.6667Z" fill="#023047"/>
<path d="M18.8889 22.6667H20.7778V24.5556H18.8889V22.6667Z" fill="#023047"/>
<path d="M24.5554 22.6667H26.4443V24.5556H24.5554V22.6667Z" fill="#023047"/>
<path d="M9.44444 9.44444C9.69493 9.44444 9.93515 9.34494 10.1123 9.16782C10.2894 8.9907 10.3889 8.75048 10.3889 8.5V2.83333C10.3889 2.58285 10.2894 2.34262 10.1123 2.16551C9.93515 1.98839 9.69493 1.88889 9.44444 1.88889C9.19396 1.88889 8.95374 1.98839 8.77662 2.16551C8.5995 2.34262 8.5 2.58285 8.5 2.83333V8.5C8.5 8.75048 8.5995 8.9907 8.77662 9.16782C8.95374 9.34494 9.19396 9.44444 9.44444 9.44444Z" fill="#219EBC"/>
<path d="M24.5555 9.44444C24.806 9.44444 25.0462 9.34494 25.2234 9.16782C25.4005 8.9907 25.5 8.75048 25.5 8.5V2.83333C25.5 2.58285 25.4005 2.34262 25.2234 2.16551C25.0462 1.98839 24.806 1.88889 24.5555 1.88889C24.305 1.88889 24.0648 1.98839 23.8877 2.16551C23.7106 2.34262 23.6111 2.58285 23.6111 2.83333V8.5C23.6111 8.75048 23.7106 8.9907 23.8877 9.16782C24.0648 9.34494 24.305 9.44444 24.5555 9.44444Z" fill="#219EBC"/>
<path d="M12.2778 5.66669H21.7223V7.55558H12.2778V5.66669Z" fill="#219EBC"/>
</svg>
