<svg width="25" height="25" viewBox="0 0 25 25" fill="none" xmlns="http://www.w3.org/2000/svg">
<path fill-rule="evenodd" clip-rule="evenodd" d="M2.57193 10.3844C2.6445 10.3117 2.73071 10.2539 2.82563 10.2146C2.92054 10.1752 3.02229 10.1549 3.12505 10.1549C3.22782 10.1549 3.32957 10.1752 3.42448 10.2146C3.5194 10.2539 3.60561 10.3117 3.67818 10.3844L12.5001 19.2079L21.3219 10.3844C21.4686 10.2377 21.6676 10.1553 21.8751 10.1553C22.0825 10.1553 22.2815 10.2377 22.4282 10.3844C22.5749 10.5311 22.6573 10.7301 22.6573 10.9376C22.6573 11.145 22.5749 11.344 22.4282 11.4907L13.0532 20.8657C12.9806 20.9384 12.8944 20.9962 12.7995 21.0355C12.7046 21.0749 12.6028 21.0952 12.5001 21.0952C12.3973 21.0952 12.2955 21.0749 12.2006 21.0355C12.1057 20.9962 12.0195 20.9384 11.9469 20.8657L2.57193 11.4907C2.49917 11.4181 2.44145 11.3319 2.40207 11.237C2.36268 11.1421 2.34241 11.0403 2.34241 10.9376C2.34241 10.8348 2.36268 10.733 2.40207 10.6381C2.44145 10.5432 2.49917 10.457 2.57193 10.3844V10.3844Z" fill="black"/>
<path fill-rule="evenodd" clip-rule="evenodd" d="M2.57193 4.13443C2.6445 4.06167 2.73071 4.00395 2.82563 3.96457C2.92054 3.92518 3.02229 3.90491 3.12505 3.90491C3.22782 3.90491 3.32957 3.92518 3.42448 3.96457C3.5194 4.00395 3.60561 4.06167 3.67818 4.13443L12.5001 12.9579L21.3219 4.13443C21.3946 4.06179 21.4808 4.00417 21.5757 3.96486C21.6706 3.92555 21.7723 3.90532 21.8751 3.90532C21.9778 3.90532 22.0795 3.92555 22.1744 3.96486C22.2693 4.00417 22.3555 4.06179 22.4282 4.13443C22.5008 4.20707 22.5584 4.2933 22.5977 4.3882C22.6371 4.48311 22.6573 4.58483 22.6573 4.68755C22.6573 4.79028 22.6371 4.892 22.5977 4.9869C22.5584 5.08181 22.5008 5.16804 22.4282 5.24068L13.0532 14.6157C12.9806 14.6884 12.8944 14.7462 12.7995 14.7855C12.7046 14.8249 12.6028 14.8452 12.5001 14.8452C12.3973 14.8452 12.2955 14.8249 12.2006 14.7855C12.1057 14.7462 12.0195 14.6884 11.9469 14.6157L2.57193 5.24068C2.49917 5.16811 2.44145 5.0819 2.40207 4.98698C2.36268 4.89207 2.34241 4.79032 2.34241 4.68755C2.34241 4.58479 2.36268 4.48304 2.40207 4.38813C2.44145 4.29321 2.49917 4.207 2.57193 4.13443V4.13443Z" fill="black"/>
</svg>
