<svg width="324" height="60" viewBox="0 0 324 60" fill="none" xmlns="http://www.w3.org/2000/svg">
<g>
<path d="M41.25 24.375C41.25 23.8777 41.4475 23.4008 41.7992 23.0492C42.1508 22.6975 42.6277 22.5 43.125 22.5H46.875C47.3723 22.5 47.8492 22.6975 48.2008 23.0492C48.5525 23.4008 48.75 23.8777 48.75 24.375V28.125C48.75 28.6223 48.5525 29.0992 48.2008 29.4508C47.8492 29.8025 47.3723 30 46.875 30H43.125C42.6277 30 42.1508 29.8025 41.7992 29.4508C41.4475 29.0992 41.25 28.6223 41.25 28.125V24.375ZM30 24.375C30 23.8777 30.1975 23.4008 30.5492 23.0492C30.9008 22.6975 31.3777 22.5 31.875 22.5H35.625C36.1223 22.5 36.5992 22.6975 36.9508 23.0492C37.3025 23.4008 37.5 23.8777 37.5 24.375V28.125C37.5 28.6223 37.3025 29.0992 36.9508 29.4508C36.5992 29.8025 36.1223 30 35.625 30H31.875C31.3777 30 30.9008 29.8025 30.5492 29.4508C30.1975 29.0992 30 28.6223 30 28.125V24.375ZM11.25 35.625C11.25 35.1277 11.4475 34.6508 11.7992 34.2992C12.1508 33.9475 12.6277 33.75 13.125 33.75H16.875C17.3723 33.75 17.8492 33.9475 18.2008 34.2992C18.5525 34.6508 18.75 35.1277 18.75 35.625V39.375C18.75 39.8723 18.5525 40.3492 18.2008 40.7008C17.8492 41.0525 17.3723 41.25 16.875 41.25H13.125C12.6277 41.25 12.1508 41.0525 11.7992 40.7008C11.4475 40.3492 11.25 39.8723 11.25 39.375V35.625ZM22.5 35.625C22.5 35.1277 22.6975 34.6508 23.0492 34.2992C23.4008 33.9475 23.8777 33.75 24.375 33.75H28.125C28.6223 33.75 29.0992 33.9475 29.4508 34.2992C29.8025 34.6508 30 35.1277 30 35.625V39.375C30 39.8723 29.8025 40.3492 29.4508 40.7008C29.0992 41.0525 28.6223 41.25 28.125 41.25H24.375C23.8777 41.25 23.4008 41.0525 23.0492 40.7008C22.6975 40.3492 22.5 39.8723 22.5 39.375V35.625Z" fill="#FFB703"/>
<path d="M13.125 0C13.6223 0 14.0992 0.197544 14.4508 0.549175C14.8025 0.900806 15 1.37772 15 1.875V3.75H45V1.875C45 1.37772 45.1975 0.900806 45.5492 0.549175C45.9008 0.197544 46.3777 0 46.875 0C47.3723 0 47.8492 0.197544 48.2008 0.549175C48.5525 0.900806 48.75 1.37772 48.75 1.875V3.75H52.5C54.4891 3.75 56.3968 4.54018 57.8033 5.9467C59.2098 7.35322 60 9.26088 60 11.25V52.5C60 54.4891 59.2098 56.3968 57.8033 57.8033C56.3968 59.2098 54.4891 60 52.5 60H7.5C5.51088 60 3.60322 59.2098 2.1967 57.8033C0.790176 56.3968 0 54.4891 0 52.5V11.25C0 9.26088 0.790176 7.35322 2.1967 5.9467C3.60322 4.54018 5.51088 3.75 7.5 3.75H11.25V1.875C11.25 1.37772 11.4475 0.900806 11.7992 0.549175C12.1508 0.197544 12.6277 0 13.125 0V0ZM3.75 15V52.5C3.75 53.4946 4.14509 54.4484 4.84835 55.1516C5.55161 55.8549 6.50544 56.25 7.5 56.25H52.5C53.4946 56.25 54.4484 55.8549 55.1516 55.1516C55.8549 54.4484 56.25 53.4946 56.25 52.5V15H3.75Z" fill="#023047"/>
</g>
<g><path d="M173.25 24.375C173.25 23.8777 173.448 23.4008 173.799 23.0492C174.151 22.6975 174.628 22.5 175.125 22.5H178.875C179.372 22.5 179.849 22.6975 180.201 23.0492C180.552 23.4008 180.75 23.8777 180.75 24.375V28.125C180.75 28.6223 180.552 29.0992 180.201 29.4508C179.849 29.8025 179.372 30 178.875 30H175.125C174.628 30 174.151 29.8025 173.799 29.4508C173.448 29.0992 173.25 28.6223 173.25 28.125V24.375ZM162 24.375C162 23.8777 162.198 23.4008 162.549 23.0492C162.901 22.6975 163.378 22.5 163.875 22.5H167.625C168.122 22.5 168.599 22.6975 168.951 23.0492C169.302 23.4008 169.5 23.8777 169.5 24.375V28.125C169.5 28.6223 169.302 29.0992 168.951 29.4508C168.599 29.8025 168.122 30 167.625 30H163.875C163.378 30 162.901 29.8025 162.549 29.4508C162.198 29.0992 162 28.6223 162 28.125V24.375ZM143.25 35.625C143.25 35.1277 143.448 34.6508 143.799 34.2992C144.151 33.9475 144.628 33.75 145.125 33.75H148.875C149.372 33.75 149.849 33.9475 150.201 34.2992C150.552 34.6508 150.75 35.1277 150.75 35.625V39.375C150.75 39.8723 150.552 40.3492 150.201 40.7008C149.849 41.0525 149.372 41.25 148.875 41.25H145.125C144.628 41.25 144.151 41.0525 143.799 40.7008C143.448 40.3492 143.25 39.8723 143.25 39.375V35.625ZM154.5 35.625C154.5 35.1277 154.698 34.6508 155.049 34.2992C155.401 33.9475 155.878 33.75 156.375 33.75H160.125C160.622 33.75 161.099 33.9475 161.451 34.2992C161.802 34.6508 162 35.1277 162 35.625V39.375C162 39.8723 161.802 40.3492 161.451 40.7008C161.099 41.0525 160.622 41.25 160.125 41.25H156.375C155.878 41.25 155.401 41.0525 155.049 40.7008C154.698 40.3492 154.5 39.8723 154.5 39.375V35.625Z" fill="#FFB703"/>
<path d="M145.125 0C145.622 0 146.099 0.197544 146.451 0.549175C146.802 0.900806 147 1.37772 147 1.875V3.75H177V1.875C177 1.37772 177.198 0.900806 177.549 0.549175C177.901 0.197544 178.378 0 178.875 0C179.372 0 179.849 0.197544 180.201 0.549175C180.552 0.900806 180.75 1.37772 180.75 1.875V3.75H184.5C186.489 3.75 188.397 4.54018 189.803 5.9467C191.21 7.35322 192 9.26088 192 11.25V52.5C192 54.4891 191.21 56.3968 189.803 57.8033C188.397 59.2098 186.489 60 184.5 60H139.5C137.511 60 135.603 59.2098 134.197 57.8033C132.79 56.3968 132 54.4891 132 52.5V11.25C132 9.26088 132.79 7.35322 134.197 5.9467C135.603 4.54018 137.511 3.75 139.5 3.75H143.25V1.875C143.25 1.37772 143.448 0.900806 143.799 0.549175C144.151 0.197544 144.628 0 145.125 0V0ZM135.75 15V52.5C135.75 53.4946 136.145 54.4484 136.848 55.1516C137.552 55.8549 138.505 56.25 139.5 56.25H184.5C185.495 56.25 186.448 55.8549 187.152 55.1516C187.855 54.4484 188.25 53.4946 188.25 52.5V15H135.75Z" fill="#023047"/>
</g>
<g><path d="M305.25 24.375C305.25 23.8777 305.448 23.4008 305.799 23.0492C306.151 22.6975 306.628 22.5 307.125 22.5H310.875C311.372 22.5 311.849 22.6975 312.201 23.0492C312.552 23.4008 312.75 23.8777 312.75 24.375V28.125C312.75 28.6223 312.552 29.0992 312.201 29.4508C311.849 29.8025 311.372 30 310.875 30H307.125C306.628 30 306.151 29.8025 305.799 29.4508C305.448 29.0992 305.25 28.6223 305.25 28.125V24.375ZM294 24.375C294 23.8777 294.198 23.4008 294.549 23.0492C294.901 22.6975 295.378 22.5 295.875 22.5H299.625C300.122 22.5 300.599 22.6975 300.951 23.0492C301.302 23.4008 301.5 23.8777 301.5 24.375V28.125C301.5 28.6223 301.302 29.0992 300.951 29.4508C300.599 29.8025 300.122 30 299.625 30H295.875C295.378 30 294.901 29.8025 294.549 29.4508C294.198 29.0992 294 28.6223 294 28.125V24.375ZM275.25 35.625C275.25 35.1277 275.448 34.6508 275.799 34.2992C276.151 33.9475 276.628 33.75 277.125 33.75H280.875C281.372 33.75 281.849 33.9475 282.201 34.2992C282.552 34.6508 282.75 35.1277 282.75 35.625V39.375C282.75 39.8723 282.552 40.3492 282.201 40.7008C281.849 41.0525 281.372 41.25 280.875 41.25H277.125C276.628 41.25 276.151 41.0525 275.799 40.7008C275.448 40.3492 275.25 39.8723 275.25 39.375V35.625ZM286.5 35.625C286.5 35.1277 286.698 34.6508 287.049 34.2992C287.401 33.9475 287.878 33.75 288.375 33.75H292.125C292.622 33.75 293.099 33.9475 293.451 34.2992C293.802 34.6508 294 35.1277 294 35.625V39.375C294 39.8723 293.802 40.3492 293.451 40.7008C293.099 41.0525 292.622 41.25 292.125 41.25H288.375C287.878 41.25 287.401 41.0525 287.049 40.7008C286.698 40.3492 286.5 39.8723 286.5 39.375V35.625Z" fill="#FFB703"/>
<path d="M277.125 0C277.622 0 278.099 0.197544 278.451 0.549175C278.802 0.900806 279 1.37772 279 1.875V3.75H309V1.875C309 1.37772 309.198 0.900806 309.549 0.549175C309.901 0.197544 310.378 0 310.875 0C311.372 0 311.849 0.197544 312.201 0.549175C312.552 0.900806 312.75 1.37772 312.75 1.875V3.75H316.5C318.489 3.75 320.397 4.54018 321.803 5.9467C323.21 7.35322 324 9.26088 324 11.25V52.5C324 54.4891 323.21 56.3968 321.803 57.8033C320.397 59.2098 318.489 60 316.5 60H271.5C269.511 60 267.603 59.2098 266.197 57.8033C264.79 56.3968 264 54.4891 264 52.5V11.25C264 9.26088 264.79 7.35322 266.197 5.9467C267.603 4.54018 269.511 3.75 271.5 3.75H275.25V1.875C275.25 1.37772 275.448 0.900806 275.799 0.549175C276.151 0.197544 276.628 0 277.125 0V0ZM267.75 15V52.5C267.75 53.4946 268.145 54.4484 268.848 55.1516C269.552 55.8549 270.505 56.25 271.5 56.25H316.5C317.495 56.25 318.448 55.8549 319.152 55.1516C319.855 54.4484 320.25 53.4946 320.25 52.5V15H267.75Z" fill="#023047"/>
</g>
</svg>
