<svg width="30" height="30" viewBox="0 0 30 30" fill="none" xmlns="http://www.w3.org/2000/svg">
<path class="primary" d="M11.25 2.5H22.5C23.875 2.5 25 3.625 25 5V25C25 26.375 23.875 27.5 22.5 27.5H11.25C9.875 27.5 8.75 26.375 8.75 25V23.75C8.75 23.4185 8.8817 23.1005 9.11612 22.8661C9.35054 22.6317 9.66848 22.5 10 22.5C10.3315 22.5 10.6495 22.6317 10.8839 22.8661C11.1183 23.1005 11.25 23.4185 11.25 23.75V25H22.5V5H11.25V6.25C11.25 6.58152 11.1183 6.89946 10.8839 7.13388C10.6495 7.3683 10.3315 7.5 10 7.5C9.66848 7.5 9.35054 7.3683 9.11612 7.13388C8.8817 6.89946 8.75 6.58152 8.75 6.25V5C8.75 3.625 9.875 2.5 11.25 2.5Z" fill="#219EBC"/>
<path class="secondary" d="M13.4937 20.3688C13.9812 20.8563 14.7688 20.8563 15.2563 20.3688L19.7413 15.8838C19.9756 15.6493 20.1072 15.3315 20.1072 15C20.1072 14.6685 19.9756 14.3507 19.7413 14.1163L15.2563 9.63125C15.0186 9.4165 14.7076 9.30125 14.3874 9.30933C14.0672 9.31741 13.7624 9.44821 13.5359 9.67468C13.3095 9.90115 13.1787 10.206 13.1706 10.5262C13.1625 10.8463 13.2777 11.1574 13.4925 11.395L15.8375 13.75H5C4.66848 13.75 4.35054 13.8817 4.11612 14.1161C3.8817 14.3505 3.75 14.6685 3.75 15C3.75 15.3315 3.8817 15.6495 4.11612 15.8839C4.35054 16.1183 4.66848 16.25 5 16.25H15.8375L13.4925 18.605C13.2592 18.8393 13.1283 19.1565 13.1285 19.4871C13.1287 19.8178 13.2601 20.1348 13.4937 20.3688Z" fill="#FFB703"/>
</svg>
