<svg width="41" height="40" viewBox="0 0 41 40" fill="none" xmlns="http://www.w3.org/2000/svg">
<path class="secondary" d="M7.56526 21.6667C8.47773 21.6667 9.21743 20.9205 9.21743 20C9.21743 19.0795 8.47773 18.3333 7.56526 18.3333C6.65279 18.3333 5.91309 19.0795 5.91309 20C5.91309 20.9205 6.65279 21.6667 7.56526 21.6667Z" fill="#FFB703"/>
<path class="primary" d="M34.0991 18.3333H14.0748C13.217 18.3333 12.5217 19.0348 12.5217 19.9V20.1C12.5217 20.9653 13.217 21.6667 14.0748 21.6667H34.0991C34.9568 21.6667 35.6522 20.9653 35.6522 20.1V19.9C35.6522 19.0348 34.9568 18.3333 34.0991 18.3333Z" fill="#219EBC"/>
<path class="primary" d="M34.0992 26.6667H7.46613C6.60841 26.6667 5.91309 27.3681 5.91309 28.2333V28.4333C5.91309 29.2986 6.60841 30 7.46613 30H34.0992C34.9569 30 35.6522 29.2986 35.6522 28.4333V28.2333C35.6522 27.3681 34.9569 26.6667 34.0992 26.6667Z" fill="#219EBC"/>
<path class="primary" d="M34.0992 10H7.46613C6.60841 10 5.91309 10.7014 5.91309 11.5667V11.7667C5.91309 12.6319 6.60841 13.3333 7.46613 13.3333H34.0992C34.9569 13.3333 35.6522 12.6319 35.6522 11.7667V11.5667C35.6522 10.7014 34.9569 10 34.0992 10Z" fill="#219EBC"/>
</svg>
