<svg width="20" height="20" viewBox="0 0 20 20" fill="none" xmlns="http://www.w3.org/2000/svg">
<path d="M14.1434 5.20916C13.9521 5.10271 13.7417 5.03501 13.5242 5.00994C13.3067 4.98486 13.0863 5.00291 12.8758 5.06305C12.6653 5.12319 12.4687 5.22423 12.2973 5.36041C12.1258 5.49658 11.9829 5.66521 11.8767 5.85666L8.78255 11.425L7.01172 9.65416C6.85798 9.49498 6.67407 9.36801 6.47073 9.28066C6.26739 9.19331 6.04869 9.14734 5.82739 9.14541C5.60609 9.14349 5.38662 9.18566 5.1818 9.26946C4.97697 9.35326 4.79088 9.47702 4.6344 9.63351C4.47791 9.78999 4.35415 9.97608 4.27035 10.1809C4.18655 10.3857 4.14438 10.6052 4.1463 10.8265C4.14823 11.0478 4.1942 11.2665 4.28155 11.4698C4.3689 11.6732 4.49587 11.8571 4.65505 12.0108L7.98839 15.3442C8.30339 15.66 8.72839 15.8333 9.16672 15.8333L9.39755 15.8167C9.65301 15.7809 9.89669 15.6864 10.1094 15.5405C10.3221 15.3946 10.4981 15.2013 10.6234 14.9758L14.7901 7.47583C14.8964 7.28454 14.9641 7.07417 14.9892 6.85673C15.0142 6.63929 14.9962 6.41904 14.9362 6.20856C14.8761 5.99808 14.7752 5.80149 14.6392 5.63001C14.5032 5.45853 14.3347 5.31553 14.1434 5.20916Z" fill="#FB8500"/>
</svg>
