<svg width="25" height="25" viewBox="0 0 25 25" fill="none" xmlns="http://www.w3.org/2000/svg">
<path fill-rule="evenodd" clip-rule="evenodd" d="M2.57193 14.6156C2.6445 14.6883 2.73071 14.7461 2.82563 14.7854C2.92054 14.8248 3.02229 14.8451 3.12505 14.8451C3.22782 14.8451 3.32957 14.8248 3.42448 14.7854C3.5194 14.7461 3.60561 14.6883 3.67818 14.6156L12.5001 5.79213L21.3219 14.6156C21.4686 14.7623 21.6676 14.8447 21.8751 14.8447C22.0825 14.8447 22.2815 14.7623 22.4282 14.6156C22.5749 14.4689 22.6573 14.2699 22.6573 14.0624C22.6573 13.855 22.5749 13.656 22.4282 13.5093L13.0532 4.13432C12.9806 4.06157 12.8944 4.00384 12.7995 3.96446C12.7046 3.92507 12.6028 3.9048 12.5001 3.9048C12.3973 3.9048 12.2955 3.92507 12.2006 3.96446C12.1057 4.00384 12.0195 4.06157 11.9469 4.13432L2.57193 13.5093C2.49917 13.5819 2.44145 13.6681 2.40207 13.763C2.36268 13.8579 2.34241 13.9597 2.34241 14.0624C2.34241 14.1652 2.36268 14.267 2.40207 14.3619C2.44145 14.4568 2.49917 14.543 2.57193 14.6156V14.6156Z" fill="black"/>
<path fill-rule="evenodd" clip-rule="evenodd" d="M2.57193 20.8656C2.6445 20.9383 2.73071 20.996 2.82563 21.0354C2.92054 21.0748 3.02229 21.0951 3.12505 21.0951C3.22782 21.0951 3.32957 21.0748 3.42448 21.0354C3.5194 20.996 3.60561 20.9383 3.67818 20.8656L12.5001 12.0421L21.3219 20.8656C21.3946 20.9382 21.4808 20.9958 21.5757 21.0351C21.6706 21.0744 21.7723 21.0947 21.8751 21.0947C21.9778 21.0947 22.0795 21.0744 22.1744 21.0351C22.2693 20.9958 22.3555 20.9382 22.4282 20.8656C22.5008 20.7929 22.5584 20.7067 22.5977 20.6118C22.6371 20.5169 22.6573 20.4152 22.6573 20.3124C22.6573 20.2097 22.6371 20.108 22.5977 20.0131C22.5584 19.9182 22.5008 19.832 22.4282 19.7593L13.0532 10.3843C12.9806 10.3116 12.8944 10.2538 12.7995 10.2145C12.7046 10.1751 12.6028 10.1548 12.5001 10.1548C12.3973 10.1548 12.2955 10.1751 12.2006 10.2145C12.1057 10.2538 12.0195 10.3116 11.9469 10.3843L2.57193 19.7593C2.49917 19.8319 2.44145 19.9181 2.40207 20.013C2.36268 20.1079 2.34241 20.2097 2.34241 20.3124C2.34241 20.4152 2.36268 20.517 2.40207 20.6119C2.44145 20.7068 2.49917 20.793 2.57193 20.8656V20.8656Z" fill="black"/>
</svg>
