<svg width="27" height="27" viewBox="0 0 27 27" fill="none" xmlns="http://www.w3.org/2000/svg">
<path d="M11.9827 7.02007H14.8244C14.8692 6.94464 14.8964 6.86007 14.9039 6.77267C14.9114 6.68527 14.8991 6.59731 14.8679 6.51532L11.9834 2.98657V7.02007H11.9827Z" fill="#FFB703"/>
<path d="M9.60295 16.7077C9.56466 16.4618 9.51308 16.2182 9.44845 15.9779C8.98345 14.3107 8.59345 13.6049 8.75995 11.8574C8.97745 10.6694 8.9647 8.2852 12.1222 8.65644C12.9562 8.75469 14.2545 9.3517 14.9977 9.33895C15.423 9.33144 15.7327 8.4712 15.7605 8.1847C15.7987 7.7902 15.1117 7.1197 14.8245 7.0192C14.1573 6.80324 13.487 6.59722 12.8137 6.4012C12.0345 6.17545 12.075 5.12245 12.0255 4.74745C12.0145 4.66007 12.0297 4.57141 12.0689 4.49257C12.1081 4.41373 12.1697 4.34821 12.246 4.30419C12.4035 4.21119 12.5272 4.29819 12.6802 4.39794L13.344 4.88395C13.7167 5.20345 12.6885 5.81395 12.9667 5.91595C12.9667 5.91595 14.283 6.4102 14.847 6.51295C15.156 6.5692 16.2225 5.3662 16.2847 4.66045C16.3335 4.10545 13.7362 1.5982 11.8845 0.624695C11.2335 0.282695 10.8517 0.0839451 10.4227 0.104195C9.91045 0.128195 9.7492 0.330695 9.1117 0.876695C6.22645 3.34494 3.42595 8.6827 3.01495 9.86395C1.33045 14.7097 1.0672 17.2627 1.0072 18.7049C0.970015 19.1435 0.950998 19.5833 0.950202 20.0234C0.998953 20.0234 0.200202 23.7734 0.950202 24.5234C1.7002 25.2734 4.9447 25.2734 4.9447 25.2734C12.4447 28.2652 26.3722 27.4844 26.3722 19.8487C26.3722 10.7197 12.2625 11.9309 9.60295 16.7077Z" fill="#FB8500"/>
<path d="M15.4726 24.0586C13.1026 23.8096 11.2516 22.6478 11.1473 22.5811C10.9795 22.4742 10.8611 22.305 10.8181 22.1107C10.775 21.9165 10.8109 21.7131 10.9178 21.5453C11.0247 21.3776 11.1939 21.2591 11.3882 21.2161C11.5824 21.173 11.7858 21.2089 11.9536 21.3158C11.9836 21.3346 14.9558 23.1848 17.8381 22.4161C19.4318 21.9916 20.7383 20.8298 21.7208 18.9653C21.8135 18.7893 21.9723 18.6573 22.1624 18.5984C22.3524 18.5394 22.558 18.5584 22.7341 18.6511C22.9101 18.7438 23.0421 18.9026 23.101 19.0926C23.16 19.2827 23.141 19.4883 23.0483 19.6643C21.8596 21.9188 20.2328 23.3341 18.2131 23.8688C17.2703 24.1178 16.3366 24.1493 15.4726 24.0586Z" fill="#FFB703"/>
</svg>
