<svg width="29" height="34" viewBox="0 0 29 34" fill="none" xmlns="http://www.w3.org/2000/svg">
<path d="M6.83012 4.87376C7.38078 4.8314 7.79284 4.35067 7.75048 3.80001C7.70812 3.24935 7.22739 2.8373 6.67673 2.87965L6.83012 4.87376ZM3.44522 4.59589L3.07383 3.66741L3.44522 4.59589ZM1.28767 6.75342L0.351333 6.40232C0.338013 6.43784 0.326726 6.47409 0.317526 6.5109L1.28767 6.75342ZM0.00345427 11.1293C-0.0424105 11.6797 0.366578 12.163 0.916955 12.2089C1.46733 12.2547 1.95068 11.8457 1.99655 11.2954L0.00345427 11.1293ZM6.75342 3.87671C6.67673 2.87965 6.6766 2.87966 6.67647 2.87967C6.67641 2.87968 6.67627 2.87969 6.67616 2.8797C6.67594 2.87972 6.67569 2.87973 6.67542 2.87976C6.67487 2.8798 6.6742 2.87985 6.67342 2.87991C6.67187 2.88004 6.66985 2.8802 6.6674 2.88039C6.66248 2.88079 6.65579 2.88134 6.64738 2.88206C6.63057 2.88349 6.60689 2.88557 6.57693 2.88838C6.51703 2.89399 6.43182 2.90253 6.32588 2.91457C6.11436 2.9386 5.81817 2.97684 5.47431 3.03415C4.79775 3.14691 3.88993 3.34097 3.07383 3.66741L3.8166 5.52436C4.43887 5.27546 5.18515 5.10993 5.80311 5.00694C6.1065 4.95637 6.36767 4.92269 6.5517 4.90178C6.64353 4.89134 6.71564 4.88414 6.76361 4.87965C6.78759 4.8774 6.80549 4.87583 6.81677 4.87487C6.82241 4.87439 6.82639 4.87407 6.82864 4.87388C6.82976 4.87379 6.83045 4.87374 6.8307 4.87372C6.83083 4.87371 6.83084 4.87371 6.83075 4.87372C6.8307 4.87372 6.83062 4.87372 6.83052 4.87373C6.83047 4.87374 6.83037 4.87374 6.83034 4.87375C6.83024 4.87375 6.83012 4.87376 6.75342 3.87671ZM3.07383 3.66741C2.43028 3.92482 1.86702 4.23848 1.39649 4.70335C0.92235 5.17179 0.601552 5.73502 0.351333 6.40232L2.22401 7.10452C2.40526 6.62114 2.59132 6.33436 2.80213 6.12609C3.01655 5.91425 3.31632 5.72448 3.8166 5.52436L3.07383 3.66741ZM0.317526 6.5109C0.0748883 7.4815 0.0359703 8.25334 0.0359674 8.98287C0.0359643 9.72154 0.0707666 10.3215 0.00345427 11.1293L1.99655 11.2954C2.07307 10.3771 2.03596 9.61064 2.03597 8.98288C2.03597 8.34597 2.06897 7.75137 2.25782 6.99594L0.317526 6.5109Z" fill="#FB8500"/>
<path d="M8.69502 2.61267C8.15579 2.73203 7.81541 3.26592 7.93476 3.80516C8.05412 4.34439 8.58801 4.68477 9.12725 4.56541L8.69502 2.61267ZM11.0687 2.58219L11.8023 3.26171L11.0687 2.58219ZM11.7878 1V0C11.3159 0 10.9082 0.329991 10.8098 0.791598L11.7878 1ZM16.6783 1L17.6563 0.791598C17.5579 0.329991 17.1502 0 16.6783 0V1ZM17.3974 2.58219L16.6638 3.26171L17.3974 2.58219ZM19.555 3.58904L19.7798 2.61465C19.7598 2.61003 19.7396 2.60603 19.7194 2.60265L19.555 3.58904ZM27.4659 7.61644H28.4659C28.4659 7.56912 28.4626 7.52186 28.4559 7.47502L27.4659 7.61644ZM26.4659 11.5C26.4659 12.0523 26.9136 12.5 27.4659 12.5C28.0182 12.5 28.4659 12.0523 28.4659 11.5H26.4659ZM8.91113 3.58904C9.12725 4.56541 9.12741 4.56537 9.12758 4.56534C9.12764 4.56532 9.12782 4.56528 9.12794 4.56525C9.1282 4.5652 9.12848 4.56514 9.12878 4.56507C9.12939 4.56493 9.1301 4.56478 9.13089 4.5646C9.13249 4.56424 9.13446 4.5638 9.1368 4.56326C9.14148 4.5622 9.14763 4.56079 9.15518 4.55904C9.17027 4.55553 9.19098 4.55062 9.21669 4.54432C9.26804 4.53172 9.33972 4.51347 9.4267 4.48955C9.59963 4.44199 9.83833 4.37059 10.1011 4.27483C10.5771 4.10134 11.3186 3.78401 11.8023 3.26171L10.335 1.90268C10.2021 2.04615 9.86481 2.23225 9.41624 2.39574C9.21668 2.46847 9.03162 2.52395 8.89636 2.56114C8.82925 2.5796 8.77573 2.59319 8.7404 2.60186C8.72277 2.60618 8.70978 2.60925 8.702 2.61106C8.69811 2.61196 8.69553 2.61255 8.69434 2.61282C8.69375 2.61296 8.6935 2.61301 8.69361 2.61299C8.69367 2.61297 8.69381 2.61294 8.69404 2.61289C8.69416 2.61286 8.6943 2.61283 8.69446 2.6128C8.69454 2.61278 8.69468 2.61275 8.69472 2.61274C8.69487 2.61271 8.69502 2.61267 8.91113 3.58904ZM11.8023 3.26171C12.1918 2.84119 12.4263 2.28847 12.5557 1.9276C12.6257 1.73221 12.6769 1.55795 12.7109 1.43177C12.728 1.36827 12.741 1.31587 12.7501 1.27776C12.7546 1.25868 12.7582 1.24311 12.7608 1.23144C12.7621 1.2256 12.7632 1.22073 12.7641 1.21687C12.7645 1.21495 12.7648 1.21327 12.7651 1.21186C12.7653 1.21115 12.7654 1.21051 12.7656 1.20993C12.7656 1.20965 12.7657 1.20937 12.7657 1.20912C12.7658 1.20899 12.7658 1.20881 12.7658 1.20875C12.7659 1.20857 12.7659 1.2084 11.7878 1C10.8098 0.791598 10.8098 0.791435 10.8099 0.791276C10.8099 0.791228 10.8099 0.791072 10.8099 0.790977C10.81 0.790785 10.81 0.790609 10.81 0.790447C10.8101 0.790125 10.8102 0.789863 10.8102 0.789661C10.8103 0.789257 10.8103 0.789093 10.8103 0.789162C10.8103 0.789301 10.8101 0.790372 10.8096 0.792328C10.8087 0.796246 10.807 0.803677 10.8045 0.814259C10.7995 0.835476 10.7912 0.869009 10.7796 0.911983C10.7563 0.998759 10.7207 1.1196 10.673 1.25279C10.5668 1.54907 10.4417 1.78745 10.335 1.90268L11.8023 3.26171ZM11.7878 2H16.6783V0H11.7878V2ZM16.6783 1C15.7002 1.2084 15.7002 1.20857 15.7003 1.20875C15.7003 1.20881 15.7003 1.20899 15.7004 1.20912C15.7004 1.20937 15.7005 1.20965 15.7005 1.20993C15.7007 1.21051 15.7008 1.21115 15.701 1.21186C15.7013 1.21327 15.7016 1.21495 15.702 1.21687C15.7029 1.22073 15.704 1.2256 15.7053 1.23144C15.7079 1.24311 15.7115 1.25868 15.716 1.27776C15.7251 1.31587 15.7381 1.36827 15.7552 1.43177C15.7892 1.55795 15.8404 1.73221 15.9104 1.9276C16.0398 2.28847 16.2743 2.84119 16.6638 3.26171L18.1311 1.90268C18.0244 1.78745 17.8993 1.54907 17.7931 1.25279C17.7454 1.1196 17.7098 0.998759 17.6865 0.911983C17.6749 0.869009 17.6666 0.835476 17.6616 0.814259C17.6591 0.803677 17.6574 0.796246 17.6565 0.792328C17.656 0.790372 17.6558 0.789301 17.6558 0.789162C17.6558 0.789093 17.6558 0.789257 17.6559 0.789661C17.6559 0.789863 17.656 0.790125 17.6561 0.790447C17.6561 0.790609 17.6561 0.790785 17.6562 0.790977C17.6562 0.791072 17.6562 0.791228 17.6562 0.791276C17.6563 0.791435 17.6563 0.791598 16.6783 1ZM16.6638 3.26171C17.5076 4.17282 18.4554 4.41958 19.3906 4.57544L19.7194 2.60265C18.9285 2.47083 18.5205 2.32313 18.1311 1.90268L16.6638 3.26171ZM19.3301 4.56343C20.333 4.79486 21.4875 4.87867 22.4356 4.99511C23.4456 5.11914 24.3056 5.28445 25.005 5.63415L25.8994 3.8453C24.8728 3.33199 23.7192 3.13771 22.6794 3.01003C21.5779 2.87475 20.6468 2.81473 19.7798 2.61465L19.3301 4.56343ZM25.005 5.63415C25.6004 5.93186 25.9719 6.43952 26.2015 6.92751C26.3147 7.16805 26.3858 7.38839 26.4278 7.54598C26.4486 7.62409 26.4618 7.68483 26.4692 7.72247C26.473 7.74124 26.4752 7.75408 26.4763 7.76026C26.4768 7.76335 26.477 7.76476 26.4769 7.76439C26.4769 7.76421 26.4768 7.76358 26.4767 7.7625C26.4766 7.76195 26.4765 7.7613 26.4764 7.76053C26.4763 7.76014 26.4762 7.75972 26.4762 7.75928C26.4762 7.75906 26.4761 7.7587 26.4761 7.75859C26.476 7.75823 26.476 7.75786 27.4659 7.61644C28.4559 7.47502 28.4558 7.47463 28.4558 7.47424C28.4557 7.4741 28.4557 7.4737 28.4556 7.47341C28.4556 7.47285 28.4555 7.47225 28.4554 7.47162C28.4552 7.47036 28.455 7.46897 28.4548 7.46745C28.4543 7.46443 28.4538 7.4609 28.4532 7.45688C28.4519 7.44884 28.4503 7.43884 28.4483 7.42696C28.4443 7.40323 28.4387 7.37196 28.4311 7.33398C28.4161 7.25813 28.3934 7.15481 28.3602 7.03065C28.2944 6.7837 28.1856 6.44668 28.0112 6.07592C27.6655 5.3413 27.0301 4.41061 25.8994 3.8453L25.005 5.63415ZM27.4659 7.61644C26.4659 7.61644 26.4659 7.61645 26.4659 7.61646C26.4659 7.61648 26.4659 7.61651 26.4659 7.61654C26.4659 7.61657 26.4659 7.61661 26.4659 7.61666C26.4659 7.61671 26.4659 7.61677 26.4659 7.61684C26.4659 7.61691 26.4659 7.61698 26.4659 7.61706C26.4659 7.61715 26.4659 7.61724 26.4659 7.61734C26.4659 7.61744 26.4659 7.61755 26.4659 7.61766C26.4659 7.61778 26.4659 7.61791 26.4659 7.61804C26.4659 7.61817 26.4659 7.61831 26.4659 7.61846C26.4659 7.61861 26.4659 7.61877 26.4659 7.61893C26.4659 7.6191 26.4659 7.61927 26.4659 7.61946C26.4659 7.61964 26.4659 7.61983 26.4659 7.62003C26.4659 7.62022 26.4659 7.62043 26.4659 7.62065C26.4659 7.62086 26.4659 7.62108 26.4659 7.62131C26.4659 7.62154 26.4659 7.62178 26.4659 7.62203C26.4659 7.62228 26.4659 7.62253 26.4659 7.6228C26.4659 7.62306 26.4659 7.62333 26.4659 7.62361C26.4659 7.62389 26.4659 7.62418 26.4659 7.62447C26.4659 7.62477 26.4659 7.62507 26.4659 7.62538C26.4659 7.62569 26.4659 7.62601 26.4659 7.62634C26.4659 7.62667 26.4659 7.627 26.4659 7.62735C26.4659 7.62769 26.4659 7.62804 26.4659 7.6284C26.4659 7.62876 26.4659 7.62913 26.4659 7.6295C26.4659 7.62988 26.4659 7.63026 26.4659 7.63065C26.4659 7.63104 26.4659 7.63144 26.4659 7.63185C26.4659 7.63225 26.4659 7.63267 26.4659 7.63309C26.4659 7.63351 26.4659 7.63394 26.4659 7.63438C26.4659 7.63482 26.4659 7.63527 26.4659 7.63572C26.4659 7.63617 26.4659 7.63663 26.4659 7.6371C26.4659 7.63757 26.4659 7.63805 26.4659 7.63854C26.4659 7.63902 26.4659 7.63951 26.4659 7.64001C26.4659 7.64051 26.4659 7.64102 26.4659 7.64154C26.4659 7.64206 26.4659 7.64258 26.4659 7.64311C26.4659 7.64364 26.4659 7.64418 26.4659 7.64473C26.4659 7.64528 26.4659 7.64583 26.4659 7.64639C26.4659 7.64695 26.4659 7.64752 26.4659 7.6481C26.4659 7.64868 26.4659 7.64926 26.4659 7.64986C26.4659 7.65045 26.4659 7.65105 26.4659 7.65166C26.4659 7.65227 26.4659 7.65288 26.4659 7.65351C26.4659 7.65413 26.4659 7.65476 26.4659 7.6554C26.4659 7.65604 26.4659 7.65668 26.4659 7.65734C26.4659 7.65799 26.4659 7.65865 26.4659 7.65932C26.4659 7.65999 26.4659 7.66067 26.4659 7.66135C26.4659 7.66203 26.4659 7.66273 26.4659 7.66342C26.4659 7.66412 26.4659 7.66483 26.4659 7.66554C26.4659 7.66626 26.4659 7.66698 26.4659 7.66771C26.4659 7.66844 26.4659 7.66917 26.4659 7.66992C26.4659 7.67066 26.4659 7.67141 26.4659 7.67217C26.4659 7.67293 26.4659 7.67369 26.4659 7.67447C26.4659 7.67524 26.4659 7.67602 26.4659 7.67681C26.4659 7.6776 26.4659 7.67839 26.4659 7.6792C26.4659 7.68 26.4659 7.68081 26.4659 7.68163C26.4659 7.68245 26.4659 7.68327 26.4659 7.6841C26.4659 7.68493 26.4659 7.68577 26.4659 7.68662C26.4659 7.68747 26.4659 7.68832 26.4659 7.68918C26.4659 7.69004 26.4659 7.69091 26.4659 7.69179C26.4659 7.69266 26.4659 7.69355 26.4659 7.69444C26.4659 7.69533 26.4659 7.69623 26.4659 7.69713C26.4659 7.69804 26.4659 7.69895 26.4659 7.69987C26.4659 7.70079 26.4659 7.70171 26.4659 7.70265C26.4659 7.70358 26.4659 7.70452 26.4659 7.70547C26.4659 7.70642 26.4659 7.70737 26.4659 7.70833C26.4659 7.7093 26.4659 7.71027 26.4659 7.71124C26.4659 7.71222 26.4659 7.7132 26.4659 7.71419C26.4659 7.71518 26.4659 7.71618 26.4659 7.71719C26.4659 7.71819 26.4659 7.7192 26.4659 7.72022C26.4659 7.72124 26.4659 7.72227 26.4659 7.7233C26.4659 7.72433 26.4659 7.72537 26.4659 7.72642C26.4659 7.72747 26.4659 7.72852 26.4659 7.72958C26.4659 7.73064 26.4659 7.73171 26.4659 7.73279C26.4659 7.73386 26.4659 7.73494 26.4659 7.73603C26.4659 7.73712 26.4659 7.73822 26.4659 7.73932C26.4659 7.74042 26.4659 7.74153 26.4659 7.74265C26.4659 7.74377 26.4659 7.74489 26.4659 7.74602C26.4659 7.74715 26.4659 7.74829 26.4659 7.74943C26.4659 7.75058 26.4659 7.75173 26.4659 7.75289C26.4659 7.75405 26.4659 7.75521 26.4659 7.75638C26.4659 7.75755 26.4659 7.75873 26.4659 7.75992C26.4659 7.7611 26.4659 7.7623 26.4659 7.76349C26.4659 7.76469 26.4659 7.7659 26.4659 7.76711C26.4659 7.76832 26.4659 7.76954 26.4659 7.77077C26.4659 7.772 26.4659 7.77323 26.4659 7.77447C26.4659 7.77571 26.4659 7.77695 26.4659 7.77821C26.4659 7.77946 26.4659 7.78072 26.4659 7.78199C26.4659 7.78325 26.4659 7.78452 26.4659 7.7858C26.4659 7.78708 26.4659 7.78837 26.4659 7.78966C26.4659 7.79096 26.4659 7.79226 26.4659 7.79356C26.4659 7.79487 26.4659 7.79618 26.4659 7.7975C26.4659 7.79882 26.4659 7.80015 26.4659 7.80148C26.4659 7.80281 26.4659 7.80415 26.4659 7.8055C26.4659 7.80684 26.4659 7.8082 26.4659 7.80955C26.4659 7.81091 26.4659 7.81228 26.4659 7.81365C26.4659 7.81502 26.4659 7.8164 26.4659 7.81779C26.4659 7.81917 26.4659 7.82056 26.4659 7.82196C26.4659 7.82336 26.4659 7.82476 26.4659 7.82618C26.4659 7.82759 26.4659 7.829 26.4659 7.83043C26.4659 7.83185 26.4659 7.83328 26.4659 7.83472C26.4659 7.83616 26.4659 7.8376 26.4659 7.83905C26.4659 7.8405 26.4659 7.84196 26.4659 7.84342C26.4659 7.84488 26.4659 7.84635 26.4659 7.84782C26.4659 7.8493 26.4659 7.85078 26.4659 7.85227C26.4659 7.85376 26.4659 7.85525 26.4659 7.85675C26.4659 7.85825 26.4659 7.85976 26.4659 7.86127C26.4659 7.86279 26.4659 7.86431 26.4659 7.86583C26.4659 7.86736 26.4659 7.86889 26.4659 7.87043C26.4659 7.87197 26.4659 7.87351 26.4659 7.87506C26.4659 7.87661 26.4659 7.87817 26.4659 7.87973C26.4659 7.8813 26.4659 7.88287 26.4659 7.88444C26.4659 7.88602 26.4659 7.8876 26.4659 7.88919C26.4659 7.89078 26.4659 7.89237 26.4659 7.89397C26.4659 7.89557 26.4659 7.89718 26.4659 7.89879C26.4659 7.9004 26.4659 7.90202 26.4659 7.90365C26.4659 7.90527 26.4659 7.9069 26.4659 7.90854C26.4659 7.91018 26.4659 7.91182 26.4659 7.91347C26.4659 7.91512 26.4659 7.91678 26.4659 7.91844C26.4659 7.9201 26.4659 7.92177 26.4659 7.92344C26.4659 7.92512 26.4659 7.9268 26.4659 7.92848C26.4659 7.93017 26.4659 7.93186 26.4659 7.93356C26.4659 7.93525 26.4659 7.93696 26.4659 7.93867C26.4659 7.94038 26.4659 7.94209 26.4659 7.94382C26.4659 7.94554 26.4659 7.94726 26.4659 7.949C26.4659 7.95073 26.4659 7.95247 26.4659 7.95422C26.4659 7.95596 26.4659 7.95771 26.4659 7.95947C26.4659 7.96123 26.4659 7.96299 26.4659 7.96476C26.4659 7.96653 26.4659 7.96831 26.4659 7.97009C26.4659 7.97187 26.4659 7.97365 26.4659 7.97545C26.4659 7.97724 26.4659 7.97904 26.4659 7.98084C26.4659 7.98265 26.4659 7.98446 26.4659 7.98627C26.4659 7.98809 26.4659 7.98991 26.4659 7.99174C26.4659 7.99356 26.4659 7.9954 26.4659 7.99724C26.4659 7.99908 26.4659 8.00092 26.4659 8.00277C26.4659 8.00462 26.4659 8.00648 26.4659 8.00834C26.4659 8.0102 26.4659 8.01207 26.4659 8.01394C26.4659 8.01582 26.4659 8.0177 26.4659 8.01958C26.4659 8.02146 26.4659 8.02336 26.4659 8.02525C26.4659 8.02715 26.4659 8.02905 26.4659 8.03096C26.4659 8.03286 26.4659 8.03478 26.4659 8.0367C26.4659 8.03861 26.4659 8.04054 26.4659 8.04247C26.4659 8.0444 26.4659 8.04633 26.4659 8.04827C26.4659 8.05022 26.4659 8.05216 26.4659 8.05411C26.4659 8.05607 26.4659 8.05802 26.4659 8.05999C26.4659 8.06195 26.4659 8.06392 26.4659 8.06589C26.4659 8.06787 26.4659 8.06985 26.4659 8.07183C26.4659 8.07382 26.4659 8.07581 26.4659 8.07781C26.4659 8.0798 26.4659 8.0818 26.4659 8.08381C26.4659 8.08582 26.4659 8.08783 26.4659 8.08985C26.4659 8.09187 26.4659 8.09389 26.4659 8.09592C26.4659 8.09795 26.4659 8.09998 26.4659 8.10202C26.4659 8.10406 26.4659 8.10611 26.4659 8.10816C26.4659 8.11021 26.4659 8.11227 26.4659 8.11433C26.4659 8.11639 26.4659 8.11845 26.4659 8.12053C26.4659 8.1226 26.4659 8.12468 26.4659 8.12676C26.4659 8.12884 26.4659 8.13093 26.4659 8.13302C26.4659 8.13512 26.4659 8.13721 26.4659 8.13932C26.4659 8.14142 26.4659 8.14353 26.4659 8.14565C26.4659 8.14776 26.4659 8.14988 26.4659 8.152C26.4659 8.15413 26.4659 8.15626 26.4659 8.15839C26.4659 8.16053 26.4659 8.16267 26.4659 8.16482C26.4659 8.16696 26.4659 8.16911 26.4659 8.17127C26.4659 8.17343 26.4659 8.17559 26.4659 8.17775C26.4659 8.17992 26.4659 8.18209 26.4659 8.18427C26.4659 8.18644 26.4659 8.18863 26.4659 8.19081C26.4659 8.193 26.4659 8.19519 26.4659 8.19739C26.4659 8.19959 26.4659 8.20179 26.4659 8.204C26.4659 8.2062 26.4659 8.20842 26.4659 8.21063C26.4659 8.21285 26.4659 8.21507 26.4659 8.2173C26.4659 8.21953 26.4659 8.22176 26.4659 8.224C26.4659 8.22624 26.4659 8.22848 26.4659 8.23073C26.4659 8.23297 26.4659 8.23523 26.4659 8.23748C26.4659 8.23974 26.4659 8.242 26.4659 8.24427C26.4659 8.24654 26.4659 8.24881 26.4659 8.25109C26.4659 8.25337 26.4659 8.25565 26.4659 8.25794C26.4659 8.26022 26.4659 8.26251 26.4659 8.26481C26.4659 8.26711 26.4659 8.26941 26.4659 8.27172C26.4659 8.27402 26.4659 8.27634 26.4659 8.27865C26.4659 8.28097 26.4659 8.28329 26.4659 8.28562C26.4659 8.28794 26.4659 8.29027 26.4659 8.29261C26.4659 8.29494 26.4659 8.29729 26.4659 8.29963C26.4659 8.30198 26.4659 8.30433 26.4659 8.30668C26.4659 8.30904 26.4659 8.3114 26.4659 8.31376C26.4659 8.31612 26.4659 8.31849 26.4659 8.32087C26.4659 8.32324 26.4659 8.32562 26.4659 8.328C26.4659 8.33039 26.4659 8.33278 26.4659 8.33517C26.4659 8.33756 26.4659 8.33996 26.4659 8.34236C26.4659 8.34476 26.4659 8.34717 26.4659 8.34958C26.4659 8.35199 26.4659 8.35441 26.4659 8.35683C26.4659 8.35925 26.4659 8.36168 26.4659 8.36411C26.4659 8.36654 26.4659 8.36897 26.4659 8.37141C26.4659 8.37385 26.4659 8.37629 26.4659 8.37874C26.4659 8.38119 26.4659 8.38364 26.4659 8.3861C26.4659 8.38856 26.4659 8.39102 26.4659 8.39348C26.4659 8.39595 26.4659 8.39842 26.4659 8.4009C26.4659 8.40337 26.4659 8.40585 26.4659 8.40834C26.4659 8.41082 26.4659 8.41331 26.4659 8.41581C26.4659 8.4183 26.4659 8.4208 26.4659 8.4233C26.4659 8.4258 26.4659 8.42831 26.4659 8.43082C26.4659 8.43333 26.4659 8.43585 26.4659 8.43837C26.4659 8.44089 26.4659 8.44341 26.4659 8.44594C26.4659 8.44847 26.4659 8.451 26.4659 8.45354C26.4659 8.45608 26.4659 8.45862 26.4659 8.46117C26.4659 8.46371 26.4659 8.46626 26.4659 8.46882C26.4659 8.47137 26.4659 8.47393 26.4659 8.4765C26.4659 8.47906 26.4659 8.48163 26.4659 8.4842C26.4659 8.48677 26.4659 8.48935 26.4659 8.49193C26.4659 8.49451 26.4659 8.4971 26.4659 8.49969C26.4659 8.50227 26.4659 8.50487 26.4659 8.50747C26.4659 8.51006 26.4659 8.51267 26.4659 8.51527C26.4659 8.51788 26.4659 8.52049 26.4659 8.5231C26.4659 8.52572 26.4659 8.52834 26.4659 8.53096C26.4659 8.53358 26.4659 8.53621 26.4659 8.53884C26.4659 8.54147 26.4659 8.54411 26.4659 8.54675C26.4659 8.54939 26.4659 8.55203 26.4659 8.55468C26.4659 8.55733 26.4659 8.55998 26.4659 8.56263C26.4659 8.56529 26.4659 8.56795 26.4659 8.57061C26.4659 8.57328 26.4659 8.57595 26.4659 8.57862C26.4659 8.58129 26.4659 8.58397 26.4659 8.58665C26.4659 8.58933 26.4659 8.59201 26.4659 8.5947C26.4659 8.59739 26.4659 8.60008 26.4659 8.60278C26.4659 8.60547 26.4659 8.60817 26.4659 8.61088C26.4659 8.61358 26.4659 8.61629 26.4659 8.619C26.4659 8.62171 26.4659 8.62443 26.4659 8.62715C26.4659 8.62987 26.4659 8.63259 26.4659 8.63532C26.4659 8.63805 26.4659 8.64078 26.4659 8.64352C26.4659 8.64625 26.4659 8.64899 26.4659 8.65173C26.4659 8.65448 26.4659 8.65723 26.4659 8.65998C26.4659 8.66273 26.4659 8.66548 26.4659 8.66824C26.4659 8.671 26.4659 8.67376 26.4659 8.67653C26.4659 8.6793 26.4659 8.68207 26.4659 8.68484C26.4659 8.68761 26.4659 8.69039 26.4659 8.69317C26.4659 8.69595 26.4659 8.69874 26.4659 8.70153C26.4659 8.70432 26.4659 8.70711 26.4659 8.70991C26.4659 8.7127 26.4659 8.7155 26.4659 8.71831C26.4659 8.72111 26.4659 8.72392 26.4659 8.72673C26.4659 8.72954 26.4659 8.73235 26.4659 8.73517C26.4659 8.73799 26.4659 8.74081 26.4659 8.74364C26.4659 8.74647 26.4659 8.74929 26.4659 8.75213C26.4659 8.75496 26.4659 8.7578 26.4659 8.76064C26.4659 8.76348 26.4659 8.76632 26.4659 8.76917C26.4659 8.77202 26.4659 8.77487 26.4659 8.77772C26.4659 8.78058 26.4659 8.78344 26.4659 8.7863C26.4659 8.78916 26.4659 8.79202 26.4659 8.79489C26.4659 8.79776 26.4659 8.80063 26.4659 8.80351C26.4659 8.80639 26.4659 8.80926 26.4659 8.81215C26.4659 8.81503 26.4659 8.81792 26.4659 8.82081C26.4659 8.8237 26.4659 8.82659 26.4659 8.82948C26.4659 8.83238 26.4659 8.83528 26.4659 8.83818C26.4659 8.84109 26.4659 8.844 26.4659 8.84691C26.4659 8.84982 26.4659 8.85273 26.4659 8.85565C26.4659 8.85856 26.4659 8.86148 26.4659 8.86441C26.4659 8.86733 26.4659 8.87026 26.4659 8.87319C26.4659 8.87612 26.4659 8.87905 26.4659 8.88199C26.4659 8.88493 26.4659 8.88787 26.4659 8.89081C26.4659 8.89375 26.4659 8.8967 26.4659 8.89965C26.4659 8.9026 26.4659 8.90556 26.4659 8.90851C26.4659 8.91147 26.4659 8.91443 26.4659 8.91739C26.4659 8.92036 26.4659 8.92332 26.4659 8.92629C26.4659 8.92926 26.4659 8.93223 26.4659 8.93521C26.4659 8.93819 26.4659 8.94117 26.4659 8.94415C26.4659 8.94713 26.4659 8.95012 26.4659 8.95311C26.4659 8.95609 26.4659 8.95909 26.4659 8.96208C26.4659 8.96508 26.4659 8.96808 26.4659 8.97108C26.4659 8.97408 26.4659 8.97708 26.4659 8.98009C26.4659 8.9831 26.4659 8.98611 26.4659 8.98912C26.4659 8.99214 26.4659 8.99515 26.4659 8.99817C26.4659 9.00119 26.4659 9.00422 26.4659 9.00724C26.4659 9.01027 26.4659 9.0133 26.4659 9.01633C26.4659 9.01936 26.4659 9.0224 26.4659 9.02543C26.4659 9.02847 26.4659 9.03151 26.4659 9.03456C26.4659 9.0376 26.4659 9.04065 26.4659 9.0437C26.4659 9.04675 26.4659 9.0498 26.4659 9.05285C26.4659 9.05591 26.4659 9.05897 26.4659 9.06203C26.4659 9.06509 26.4659 9.06816 26.4659 9.07122C26.4659 9.07429 26.4659 9.07736 26.4659 9.08043C26.4659 9.08351 26.4659 9.08658 26.4659 9.08966C26.4659 9.09274 26.4659 9.09582 26.4659 9.09891C26.4659 9.10199 26.4659 9.10508 26.4659 9.10817C26.4659 9.11126 26.4659 9.11435 26.4659 9.11745C26.4659 9.12055 26.4659 9.12364 26.4659 9.12675C26.4659 9.12985 26.4659 9.13295 26.4659 9.13606C26.4659 9.13916 26.4659 9.14227 26.4659 9.14539C26.4659 9.1485 26.4659 9.15161 26.4659 9.15473C26.4659 9.15785 26.4659 9.16097 26.4659 9.16409C26.4659 9.16722 26.4659 9.17034 26.4659 9.17347C26.4659 9.1766 26.4659 9.17973 26.4659 9.18287C26.4659 9.186 26.4659 9.18914 26.4659 9.19227C26.4659 9.19541 26.4659 9.19855 26.4659 9.2017C26.4659 9.20484 26.4659 9.20799 26.4659 9.21114C26.4659 9.21429 26.4659 9.21744 26.4659 9.2206C26.4659 9.22375 26.4659 9.22691 26.4659 9.23007C26.4659 9.23323 26.4659 9.23639 26.4659 9.23956C26.4659 9.24272 26.4659 9.24589 26.4659 9.24906C26.4659 9.25223 26.4659 9.2554 26.4659 9.25858C26.4659 9.26175 26.4659 9.26493 26.4659 9.26811C26.4659 9.27129 26.4659 9.27447 26.4659 9.27766C26.4659 9.28084 26.4659 9.28403 26.4659 9.28722C26.4659 9.29041 26.4659 9.2936 26.4659 9.29679C26.4659 9.29999 26.4659 9.30318 26.4659 9.30638C26.4659 9.30958 26.4659 9.31279 26.4659 9.31599C26.4659 9.31919 26.4659 9.3224 26.4659 9.32561C26.4659 9.32882 26.4659 9.33203 26.4659 9.33524C26.4659 9.33846 26.4659 9.34167 26.4659 9.34489C26.4659 9.34811 26.4659 9.35133 26.4659 9.35455C26.4659 9.35777 26.4659 9.361 26.4659 9.36423C26.4659 9.36745 26.4659 9.37068 26.4659 9.37391C26.4659 9.37714 26.4659 9.38038 26.4659 9.38362C26.4659 9.38685 26.4659 9.39009 26.4659 9.39333C26.4659 9.39657 26.4659 9.39981 26.4659 9.40306C26.4659 9.4063 26.4659 9.40955 26.4659 9.4128C26.4659 9.41605 26.4659 9.4193 26.4659 9.42255C26.4659 9.42581 26.4659 9.42906 26.4659 9.43232C26.4659 9.43558 26.4659 9.43884 26.4659 9.4421C26.4659 9.44536 26.4659 9.44863 26.4659 9.4519C26.4659 9.45516 26.4659 9.45843 26.4659 9.4617C26.4659 9.46497 26.4659 9.46824 26.4659 9.47152C26.4659 9.47479 26.4659 9.47807 26.4659 9.48135C26.4659 9.48463 26.4659 9.48791 26.4659 9.49119C26.4659 9.49447 26.4659 9.49776 26.4659 9.50104C26.4659 9.50433 26.4659 9.50762 26.4659 9.51091C26.4659 9.5142 26.4659 9.51749 26.4659 9.52079C26.4659 9.52408 26.4659 9.52738 26.4659 9.53068C26.4659 9.53398 26.4659 9.53728 26.4659 9.54058C26.4659 9.54388 26.4659 9.54718 26.4659 9.55049C26.4659 9.5538 26.4659 9.5571 26.4659 9.56041C26.4659 9.56372 26.4659 9.56704 26.4659 9.57035C26.4659 9.57366 26.4659 9.57698 26.4659 9.58029C26.4659 9.58361 26.4659 9.58693 26.4659 9.59025C26.4659 9.59357 26.4659 9.59689 26.4659 9.60022C26.4659 9.60354 26.4659 9.60687 26.4659 9.6102C26.4659 9.61352 26.4659 9.61685 26.4659 9.62019C26.4659 9.62352 26.4659 9.62685 26.4659 9.63019C26.4659 9.63352 26.4659 9.63686 26.4659 9.64019C26.4659 9.64353 26.4659 9.64687 26.4659 9.65021C26.4659 9.65356 26.4659 9.6569 26.4659 9.66024C26.4659 9.66359 26.4659 9.66693 26.4659 9.67028C26.4659 9.67363 26.4659 9.67698 26.4659 9.68033C26.4659 9.68368 26.4659 9.68704 26.4659 9.69039C26.4659 9.69375 26.4659 9.6971 26.4659 9.70046C26.4659 9.70382 26.4659 9.70718 26.4659 9.71054C26.4659 9.7139 26.4659 9.71726 26.4659 9.72063C26.4659 9.72399 26.4659 9.72736 26.4659 9.73072C26.4659 9.73409 26.4659 9.73746 26.4659 9.74083C26.4659 9.7442 26.4659 9.74757 26.4659 9.75094C26.4659 9.75432 26.4659 9.75769 26.4659 9.76107C26.4659 9.76444 26.4659 9.76782 26.4659 9.7712C26.4659 9.77458 26.4659 9.77796 26.4659 9.78134C26.4659 9.78472 26.4659 9.78811 26.4659 9.79149C26.4659 9.79488 26.4659 9.79826 26.4659 9.80165C26.4659 9.80504 26.4659 9.80843 26.4659 9.81182C26.4659 9.81521 26.4659 9.8186 26.4659 9.82199C26.4659 9.82538 26.4659 9.82878 26.4659 9.83217C26.4659 9.83557 26.4659 9.83896 26.4659 9.84236C26.4659 9.84576 26.4659 9.84916 26.4659 9.85256C26.4659 9.85596 26.4659 9.85936 26.4659 9.86277C26.4659 9.86617 26.4659 9.86957 26.4659 9.87298C26.4659 9.87639 26.4659 9.87979 26.4659 9.8832C26.4659 9.88661 26.4659 9.89002 26.4659 9.89343C26.4659 9.89684 26.4659 9.90025 26.4659 9.90366C26.4659 9.90708 26.4659 9.91049 26.4659 9.91391C26.4659 9.91732 26.4659 9.92074 26.4659 9.92416C26.4659 9.92757 26.4659 9.93099 26.4659 9.93441C26.4659 9.93783 26.4659 9.94125 26.4659 9.94467C26.4659 9.9481 26.4659 9.95152 26.4659 9.95494C26.4659 9.95837 26.4659 9.96179 26.4659 9.96522C26.4659 9.96864 26.4659 9.97207 26.4659 9.9755C26.4659 9.97893 26.4659 9.98236 26.4659 9.98579C26.4659 9.98922 26.4659 9.99265 26.4659 9.99608C26.4659 9.99951 26.4659 10.0029 26.4659 10.0064C26.4659 10.0098 26.4659 10.0133 26.4659 10.0167C26.4659 10.0201 26.4659 10.0236 26.4659 10.027C26.4659 10.0304 26.4659 10.0339 26.4659 10.0373C26.4659 10.0408 26.4659 10.0442 26.4659 10.0476C26.4659 10.0511 26.4659 10.0545 26.4659 10.058C26.4659 10.0614 26.4659 10.0649 26.4659 10.0683C26.4659 10.0717 26.4659 10.0752 26.4659 10.0786C26.4659 10.0821 26.4659 10.0855 26.4659 10.089C26.4659 10.0924 26.4659 10.0959 26.4659 10.0993C26.4659 10.1028 26.4659 10.1062 26.4659 10.1097C26.4659 10.1131 26.4659 10.1166 26.4659 10.12C26.4659 10.1235 26.4659 10.1269 26.4659 10.1304C26.4659 10.1339 26.4659 10.1373 26.4659 10.1408C26.4659 10.1442 26.4659 10.1477 26.4659 10.1511C26.4659 10.1546 26.4659 10.1581 26.4659 10.1615C26.4659 10.165 26.4659 10.1684 26.4659 10.1719C26.4659 10.1754 26.4659 10.1788 26.4659 10.1823C26.4659 10.1857 26.4659 10.1892 26.4659 10.1927C26.4659 10.1961 26.4659 10.1996 26.4659 10.2031C26.4659 10.2065 26.4659 10.21 26.4659 10.2134C26.4659 10.2169 26.4659 10.2204 26.4659 10.2238C26.4659 10.2273 26.4659 10.2308 26.4659 10.2342C26.4659 10.2377 26.4659 10.2412 26.4659 10.2446C26.4659 10.2481 26.4659 10.2516 26.4659 10.2551C26.4659 10.2585 26.4659 10.262 26.4659 10.2655C26.4659 10.2689 26.4659 10.2724 26.4659 10.2759C26.4659 10.2793 26.4659 10.2828 26.4659 10.2863C26.4659 10.2898 26.4659 10.2932 26.4659 10.2967C26.4659 10.3002 26.4659 10.3037 26.4659 10.3071C26.4659 10.3106 26.4659 10.3141 26.4659 10.3175C26.4659 10.321 26.4659 10.3245 26.4659 10.328C26.4659 10.3314 26.4659 10.3349 26.4659 10.3384C26.4659 10.3419 26.4659 10.3454 26.4659 10.3488C26.4659 10.3523 26.4659 10.3558 26.4659 10.3593C26.4659 10.3627 26.4659 10.3662 26.4659 10.3697C26.4659 10.3732 26.4659 10.3766 26.4659 10.3801C26.4659 10.3836 26.4659 10.3871 26.4659 10.3906C26.4659 10.394 26.4659 10.3975 26.4659 10.401C26.4659 10.4045 26.4659 10.408 26.4659 10.4114C26.4659 10.4149 26.4659 10.4184 26.4659 10.4219C26.4659 10.4254 26.4659 10.4288 26.4659 10.4323C26.4659 10.4358 26.4659 10.4393 26.4659 10.4428C26.4659 10.4462 26.4659 10.4497 26.4659 10.4532C26.4659 10.4567 26.4659 10.4602 26.4659 10.4636C26.4659 10.4671 26.4659 10.4706 26.4659 10.4741C26.4659 10.4776 26.4659 10.481 26.4659 10.4845C26.4659 10.488 26.4659 10.4915 26.4659 10.495C26.4659 10.4984 26.4659 10.5019 26.4659 10.5054C26.4659 10.5089 26.4659 10.5124 26.4659 10.5158C26.4659 10.5193 26.4659 10.5228 26.4659 10.5263C26.4659 10.5298 26.4659 10.5333 26.4659 10.5367C26.4659 10.5402 26.4659 10.5437 26.4659 10.5472C26.4659 10.5507 26.4659 10.5541 26.4659 10.5576C26.4659 10.5611 26.4659 10.5646 26.4659 10.5681C26.4659 10.5715 26.4659 10.575 26.4659 10.5785C26.4659 10.582 26.4659 10.5855 26.4659 10.5889C26.4659 10.5924 26.4659 10.5959 26.4659 10.5994C26.4659 10.6029 26.4659 10.6063 26.4659 10.6098C26.4659 10.6133 26.4659 10.6168 26.4659 10.6203C26.4659 10.6237 26.4659 10.6272 26.4659 10.6307C26.4659 10.6342 26.4659 10.6376 26.4659 10.6411C26.4659 10.6446 26.4659 10.6481 26.4659 10.6516C26.4659 10.655 26.4659 10.6585 26.4659 10.662C26.4659 10.6655 26.4659 10.6689 26.4659 10.6724C26.4659 10.6759 26.4659 10.6794 26.4659 10.6828C26.4659 10.6863 26.4659 10.6898 26.4659 10.6933C26.4659 10.6967 26.4659 10.7002 26.4659 10.7037C26.4659 10.7072 26.4659 10.7106 26.4659 10.7141C26.4659 10.7176 26.4659 10.7211 26.4659 10.7245C26.4659 10.728 26.4659 10.7315 26.4659 10.7349C26.4659 10.7384 26.4659 10.7419 26.4659 10.7454C26.4659 10.7488 26.4659 10.7523 26.4659 10.7558C26.4659 10.7592 26.4659 10.7627 26.4659 10.7662C26.4659 10.7696 26.4659 10.7731 26.4659 10.7766C26.4659 10.78 26.4659 10.7835 26.4659 10.787C26.4659 10.7904 26.4659 10.7939 26.4659 10.7974C26.4659 10.8008 26.4659 10.8043 26.4659 10.8078C26.4659 10.8112 26.4659 10.8147 26.4659 10.8182C26.4659 10.8216 26.4659 10.8251 26.4659 10.8285C26.4659 10.832 26.4659 10.8355 26.4659 10.8389C26.4659 10.8424 26.4659 10.8458 26.4659 10.8493C26.4659 10.8528 26.4659 10.8562 26.4659 10.8597C26.4659 10.8631 26.4659 10.8666 26.4659 10.8701C26.4659 10.8735 26.4659 10.877 26.4659 10.8804C26.4659 10.8839 26.4659 10.8873 26.4659 10.8908C26.4659 10.8942 26.4659 10.8977 26.4659 10.9011C26.4659 10.9046 26.4659 10.908 26.4659 10.9115C26.4659 10.9149 26.4659 10.9184 26.4659 10.9218C26.4659 10.9253 26.4659 10.9287 26.4659 10.9322C26.4659 10.9356 26.4659 10.9391 26.4659 10.9425C26.4659 10.946 26.4659 10.9494 26.4659 10.9529C26.4659 10.9563 26.4659 10.9598 26.4659 10.9632C26.4659 10.9666 26.4659 10.9701 26.4659 10.9735C26.4659 10.977 26.4659 10.9804 26.4659 10.9838C26.4659 10.9873 26.4659 10.9907 26.4659 10.9941C26.4659 10.9976 26.4659 11.001 26.4659 11.0045C26.4659 11.0079 26.4659 11.0113 26.4659 11.0148C26.4659 11.0182 26.4659 11.0216 26.4659 11.0251C26.4659 11.0285 26.4659 11.0319 26.4659 11.0353C26.4659 11.0388 26.4659 11.0422 26.4659 11.0456C26.4659 11.049 26.4659 11.0525 26.4659 11.0559C26.4659 11.0593 26.4659 11.0627 26.4659 11.0662C26.4659 11.0696 26.4659 11.073 26.4659 11.0764C26.4659 11.0799 26.4659 11.0833 26.4659 11.0867C26.4659 11.0901 26.4659 11.0935 26.4659 11.0969C26.4659 11.1004 26.4659 11.1038 26.4659 11.1072C26.4659 11.1106 26.4659 11.114 26.4659 11.1174C26.4659 11.1208 26.4659 11.1242 26.4659 11.1276C26.4659 11.1311 26.4659 11.1345 26.4659 11.1379C26.4659 11.1413 26.4659 11.1447 26.4659 11.1481C26.4659 11.1515 26.4659 11.1549 26.4659 11.1583C26.4659 11.1617 26.4659 11.1651 26.4659 11.1685C26.4659 11.1719 26.4659 11.1753 26.4659 11.1787C26.4659 11.1821 26.4659 11.1855 26.4659 11.1889C26.4659 11.1923 26.4659 11.1957 26.4659 11.199C26.4659 11.2024 26.4659 11.2058 26.4659 11.2092C26.4659 11.2126 26.4659 11.216 26.4659 11.2194C26.4659 11.2228 26.4659 11.2261 26.4659 11.2295C26.4659 11.2329 26.4659 11.2363 26.4659 11.2397C26.4659 11.243 26.4659 11.2464 26.4659 11.2498C26.4659 11.2532 26.4659 11.2565 26.4659 11.2599C26.4659 11.2633 26.4659 11.2667 26.4659 11.27C26.4659 11.2734 26.4659 11.2768 26.4659 11.2801C26.4659 11.2835 26.4659 11.2869 26.4659 11.2902C26.4659 11.2936 26.4659 11.297 26.4659 11.3003C26.4659 11.3037 26.4659 11.3071 26.4659 11.3104C26.4659 11.3138 26.4659 11.3171 26.4659 11.3205C26.4659 11.3238 26.4659 11.3272 26.4659 11.3305C26.4659 11.3339 26.4659 11.3372 26.4659 11.3406C26.4659 11.3439 26.4659 11.3473 26.4659 11.3506C26.4659 11.354 26.4659 11.3573 26.4659 11.3607C26.4659 11.364 26.4659 11.3674 26.4659 11.3707C26.4659 11.374 26.4659 11.3774 26.4659 11.3807C26.4659 11.384 26.4659 11.3874 26.4659 11.3907C26.4659 11.394 26.4659 11.3974 26.4659 11.4007C26.4659 11.404 26.4659 11.4073 26.4659 11.4107C26.4659 11.414 26.4659 11.4173 26.4659 11.4206C26.4659 11.424 26.4659 11.4273 26.4659 11.4306C26.4659 11.4339 26.4659 11.4372 26.4659 11.4405C26.4659 11.4439 26.4659 11.4472 26.4659 11.4505C26.4659 11.4538 26.4659 11.4571 26.4659 11.4604C26.4659 11.4637 26.4659 11.467 26.4659 11.4703C26.4659 11.4736 26.4659 11.4769 26.4659 11.4802C26.4659 11.4835 26.4659 11.4868 26.4659 11.4901C26.4659 11.4934 26.4659 11.4967 26.4659 11.5H28.4659C28.4659 11.4967 28.4659 11.4934 28.4659 11.4901C28.4659 11.4868 28.4659 11.4835 28.4659 11.4802C28.4659 11.4769 28.4659 11.4736 28.4659 11.4703C28.4659 11.467 28.4659 11.4637 28.4659 11.4604C28.4659 11.4571 28.4659 11.4538 28.4659 11.4505C28.4659 11.4472 28.4659 11.4439 28.4659 11.4405C28.4659 11.4372 28.4659 11.4339 28.4659 11.4306C28.4659 11.4273 28.4659 11.424 28.4659 11.4206C28.4659 11.4173 28.4659 11.414 28.4659 11.4107C28.4659 11.4073 28.4659 11.404 28.4659 11.4007C28.4659 11.3974 28.4659 11.394 28.4659 11.3907C28.4659 11.3874 28.4659 11.384 28.4659 11.3807C28.4659 11.3774 28.4659 11.374 28.4659 11.3707C28.4659 11.3674 28.4659 11.364 28.4659 11.3607C28.4659 11.3573 28.4659 11.354 28.4659 11.3506C28.4659 11.3473 28.4659 11.3439 28.4659 11.3406C28.4659 11.3372 28.4659 11.3339 28.4659 11.3305C28.4659 11.3272 28.4659 11.3238 28.4659 11.3205C28.4659 11.3171 28.4659 11.3138 28.4659 11.3104C28.4659 11.3071 28.4659 11.3037 28.4659 11.3003C28.4659 11.297 28.4659 11.2936 28.4659 11.2902C28.4659 11.2869 28.4659 11.2835 28.4659 11.2801C28.4659 11.2768 28.4659 11.2734 28.4659 11.27C28.4659 11.2667 28.4659 11.2633 28.4659 11.2599C28.4659 11.2565 28.4659 11.2532 28.4659 11.2498C28.4659 11.2464 28.4659 11.243 28.4659 11.2397C28.4659 11.2363 28.4659 11.2329 28.4659 11.2295C28.4659 11.2261 28.4659 11.2228 28.4659 11.2194C28.4659 11.216 28.4659 11.2126 28.4659 11.2092C28.4659 11.2058 28.4659 11.2024 28.4659 11.199C28.4659 11.1957 28.4659 11.1923 28.4659 11.1889C28.4659 11.1855 28.4659 11.1821 28.4659 11.1787C28.4659 11.1753 28.4659 11.1719 28.4659 11.1685C28.4659 11.1651 28.4659 11.1617 28.4659 11.1583C28.4659 11.1549 28.4659 11.1515 28.4659 11.1481C28.4659 11.1447 28.4659 11.1413 28.4659 11.1379C28.4659 11.1345 28.4659 11.1311 28.4659 11.1276C28.4659 11.1242 28.4659 11.1208 28.4659 11.1174C28.4659 11.114 28.4659 11.1106 28.4659 11.1072C28.4659 11.1038 28.4659 11.1004 28.4659 11.0969C28.4659 11.0935 28.4659 11.0901 28.4659 11.0867C28.4659 11.0833 28.4659 11.0799 28.4659 11.0764C28.4659 11.073 28.4659 11.0696 28.4659 11.0662C28.4659 11.0627 28.4659 11.0593 28.4659 11.0559C28.4659 11.0525 28.4659 11.049 28.4659 11.0456C28.4659 11.0422 28.4659 11.0388 28.4659 11.0353C28.4659 11.0319 28.4659 11.0285 28.4659 11.0251C28.4659 11.0216 28.4659 11.0182 28.4659 11.0148C28.4659 11.0113 28.4659 11.0079 28.4659 11.0045C28.4659 11.001 28.4659 10.9976 28.4659 10.9941C28.4659 10.9907 28.4659 10.9873 28.4659 10.9838C28.4659 10.9804 28.4659 10.977 28.4659 10.9735C28.4659 10.9701 28.4659 10.9666 28.4659 10.9632C28.4659 10.9598 28.4659 10.9563 28.4659 10.9529C28.4659 10.9494 28.4659 10.946 28.4659 10.9425C28.4659 10.9391 28.4659 10.9356 28.4659 10.9322C28.4659 10.9287 28.4659 10.9253 28.4659 10.9218C28.4659 10.9184 28.4659 10.9149 28.4659 10.9115C28.4659 10.908 28.4659 10.9046 28.4659 10.9011C28.4659 10.8977 28.4659 10.8942 28.4659 10.8908C28.4659 10.8873 28.4659 10.8839 28.4659 10.8804C28.4659 10.877 28.4659 10.8735 28.4659 10.8701C28.4659 10.8666 28.4659 10.8631 28.4659 10.8597C28.4659 10.8562 28.4659 10.8528 28.4659 10.8493C28.4659 10.8458 28.4659 10.8424 28.4659 10.8389C28.4659 10.8355 28.4659 10.832 28.4659 10.8285C28.4659 10.8251 28.4659 10.8216 28.4659 10.8182C28.4659 10.8147 28.4659 10.8112 28.4659 10.8078C28.4659 10.8043 28.4659 10.8008 28.4659 10.7974C28.4659 10.7939 28.4659 10.7904 28.4659 10.787C28.4659 10.7835 28.4659 10.78 28.4659 10.7766C28.4659 10.7731 28.4659 10.7696 28.4659 10.7662C28.4659 10.7627 28.4659 10.7592 28.4659 10.7558C28.4659 10.7523 28.4659 10.7488 28.4659 10.7454C28.4659 10.7419 28.4659 10.7384 28.4659 10.7349C28.4659 10.7315 28.4659 10.728 28.4659 10.7245C28.4659 10.7211 28.4659 10.7176 28.4659 10.7141C28.4659 10.7106 28.4659 10.7072 28.4659 10.7037C28.4659 10.7002 28.4659 10.6967 28.4659 10.6933C28.4659 10.6898 28.4659 10.6863 28.4659 10.6828C28.4659 10.6794 28.4659 10.6759 28.4659 10.6724C28.4659 10.6689 28.4659 10.6655 28.4659 10.662C28.4659 10.6585 28.4659 10.655 28.4659 10.6516C28.4659 10.6481 28.4659 10.6446 28.4659 10.6411C28.4659 10.6376 28.4659 10.6342 28.4659 10.6307C28.4659 10.6272 28.4659 10.6237 28.4659 10.6203C28.4659 10.6168 28.4659 10.6133 28.4659 10.6098C28.4659 10.6063 28.4659 10.6029 28.4659 10.5994C28.4659 10.5959 28.4659 10.5924 28.4659 10.5889C28.4659 10.5855 28.4659 10.582 28.4659 10.5785C28.4659 10.575 28.4659 10.5715 28.4659 10.5681C28.4659 10.5646 28.4659 10.5611 28.4659 10.5576C28.4659 10.5541 28.4659 10.5507 28.4659 10.5472C28.4659 10.5437 28.4659 10.5402 28.4659 10.5367C28.4659 10.5333 28.4659 10.5298 28.4659 10.5263C28.4659 10.5228 28.4659 10.5193 28.4659 10.5158C28.4659 10.5124 28.4659 10.5089 28.4659 10.5054C28.4659 10.5019 28.4659 10.4984 28.4659 10.495C28.4659 10.4915 28.4659 10.488 28.4659 10.4845C28.4659 10.481 28.4659 10.4776 28.4659 10.4741C28.4659 10.4706 28.4659 10.4671 28.4659 10.4636C28.4659 10.4602 28.4659 10.4567 28.4659 10.4532C28.4659 10.4497 28.4659 10.4462 28.4659 10.4428C28.4659 10.4393 28.4659 10.4358 28.4659 10.4323C28.4659 10.4288 28.4659 10.4254 28.4659 10.4219C28.4659 10.4184 28.4659 10.4149 28.4659 10.4114C28.4659 10.408 28.4659 10.4045 28.4659 10.401C28.4659 10.3975 28.4659 10.394 28.4659 10.3906C28.4659 10.3871 28.4659 10.3836 28.4659 10.3801C28.4659 10.3766 28.4659 10.3732 28.4659 10.3697C28.4659 10.3662 28.4659 10.3627 28.4659 10.3593C28.4659 10.3558 28.4659 10.3523 28.4659 10.3488C28.4659 10.3454 28.4659 10.3419 28.4659 10.3384C28.4659 10.3349 28.4659 10.3314 28.4659 10.328C28.4659 10.3245 28.4659 10.321 28.4659 10.3175C28.4659 10.3141 28.4659 10.3106 28.4659 10.3071C28.4659 10.3037 28.4659 10.3002 28.4659 10.2967C28.4659 10.2932 28.4659 10.2898 28.4659 10.2863C28.4659 10.2828 28.4659 10.2793 28.4659 10.2759C28.4659 10.2724 28.4659 10.2689 28.4659 10.2655C28.4659 10.262 28.4659 10.2585 28.4659 10.2551C28.4659 10.2516 28.4659 10.2481 28.4659 10.2446C28.4659 10.2412 28.4659 10.2377 28.4659 10.2342C28.4659 10.2308 28.4659 10.2273 28.4659 10.2238C28.4659 10.2204 28.4659 10.2169 28.4659 10.2134C28.4659 10.21 28.4659 10.2065 28.4659 10.2031C28.4659 10.1996 28.4659 10.1961 28.4659 10.1927C28.4659 10.1892 28.4659 10.1857 28.4659 10.1823C28.4659 10.1788 28.4659 10.1754 28.4659 10.1719C28.4659 10.1684 28.4659 10.165 28.4659 10.1615C28.4659 10.1581 28.4659 10.1546 28.4659 10.1511C28.4659 10.1477 28.4659 10.1442 28.4659 10.1408C28.4659 10.1373 28.4659 10.1339 28.4659 10.1304C28.4659 10.1269 28.4659 10.1235 28.4659 10.12C28.4659 10.1166 28.4659 10.1131 28.4659 10.1097C28.4659 10.1062 28.4659 10.1028 28.4659 10.0993C28.4659 10.0959 28.4659 10.0924 28.4659 10.089C28.4659 10.0855 28.4659 10.0821 28.4659 10.0786C28.4659 10.0752 28.4659 10.0717 28.4659 10.0683C28.4659 10.0649 28.4659 10.0614 28.4659 10.058C28.4659 10.0545 28.4659 10.0511 28.4659 10.0476C28.4659 10.0442 28.4659 10.0408 28.4659 10.0373C28.4659 10.0339 28.4659 10.0304 28.4659 10.027C28.4659 10.0236 28.4659 10.0201 28.4659 10.0167C28.4659 10.0133 28.4659 10.0098 28.4659 10.0064C28.4659 10.0029 28.4659 9.99951 28.4659 9.99608C28.4659 9.99265 28.4659 9.98922 28.4659 9.98579C28.4659 9.98236 28.4659 9.97893 28.4659 9.9755C28.4659 9.97207 28.4659 9.96864 28.4659 9.96522C28.4659 9.96179 28.4659 9.95837 28.4659 9.95494C28.4659 9.95152 28.4659 9.9481 28.4659 9.94467C28.4659 9.94125 28.4659 9.93783 28.4659 9.93441C28.4659 9.93099 28.4659 9.92757 28.4659 9.92416C28.4659 9.92074 28.4659 9.91732 28.4659 9.91391C28.4659 9.91049 28.4659 9.90708 28.4659 9.90366C28.4659 9.90025 28.4659 9.89684 28.4659 9.89343C28.4659 9.89002 28.4659 9.88661 28.4659 9.8832C28.4659 9.87979 28.4659 9.87639 28.4659 9.87298C28.4659 9.86957 28.4659 9.86617 28.4659 9.86277C28.4659 9.85936 28.4659 9.85596 28.4659 9.85256C28.4659 9.84916 28.4659 9.84576 28.4659 9.84236C28.4659 9.83896 28.4659 9.83557 28.4659 9.83217C28.4659 9.82878 28.4659 9.82538 28.4659 9.82199C28.4659 9.8186 28.4659 9.81521 28.4659 9.81182C28.4659 9.80843 28.4659 9.80504 28.4659 9.80165C28.4659 9.79826 28.4659 9.79488 28.4659 9.79149C28.4659 9.78811 28.4659 9.78472 28.4659 9.78134C28.4659 9.77796 28.4659 9.77458 28.4659 9.7712C28.4659 9.76782 28.4659 9.76444 28.4659 9.76107C28.4659 9.75769 28.4659 9.75432 28.4659 9.75094C28.4659 9.74757 28.4659 9.7442 28.4659 9.74083C28.4659 9.73746 28.4659 9.73409 28.4659 9.73072C28.4659 9.72736 28.4659 9.72399 28.4659 9.72063C28.4659 9.71726 28.4659 9.7139 28.4659 9.71054C28.4659 9.70718 28.4659 9.70382 28.4659 9.70046C28.4659 9.6971 28.4659 9.69375 28.4659 9.69039C28.4659 9.68704 28.4659 9.68368 28.4659 9.68033C28.4659 9.67698 28.4659 9.67363 28.4659 9.67028C28.4659 9.66693 28.4659 9.66359 28.4659 9.66024C28.4659 9.6569 28.4659 9.65356 28.4659 9.65021C28.4659 9.64687 28.4659 9.64353 28.4659 9.64019C28.4659 9.63686 28.4659 9.63352 28.4659 9.63019C28.4659 9.62685 28.4659 9.62352 28.4659 9.62019C28.4659 9.61685 28.4659 9.61352 28.4659 9.6102C28.4659 9.60687 28.4659 9.60354 28.4659 9.60022C28.4659 9.59689 28.4659 9.59357 28.4659 9.59025C28.4659 9.58693 28.4659 9.58361 28.4659 9.58029C28.4659 9.57698 28.4659 9.57366 28.4659 9.57035C28.4659 9.56704 28.4659 9.56372 28.4659 9.56041C28.4659 9.5571 28.4659 9.5538 28.4659 9.55049C28.4659 9.54718 28.4659 9.54388 28.4659 9.54058C28.4659 9.53728 28.4659 9.53398 28.4659 9.53068C28.4659 9.52738 28.4659 9.52408 28.4659 9.52079C28.4659 9.51749 28.4659 9.5142 28.4659 9.51091C28.4659 9.50762 28.4659 9.50433 28.4659 9.50104C28.4659 9.49776 28.4659 9.49447 28.4659 9.49119C28.4659 9.48791 28.4659 9.48463 28.4659 9.48135C28.4659 9.47807 28.4659 9.47479 28.4659 9.47152C28.4659 9.46824 28.4659 9.46497 28.4659 9.4617C28.4659 9.45843 28.4659 9.45516 28.4659 9.4519C28.4659 9.44863 28.4659 9.44536 28.4659 9.4421C28.4659 9.43884 28.4659 9.43558 28.4659 9.43232C28.4659 9.42906 28.4659 9.42581 28.4659 9.42255C28.4659 9.4193 28.4659 9.41605 28.4659 9.4128C28.4659 9.40955 28.4659 9.4063 28.4659 9.40306C28.4659 9.39981 28.4659 9.39657 28.4659 9.39333C28.4659 9.39009 28.4659 9.38685 28.4659 9.38362C28.4659 9.38038 28.4659 9.37714 28.4659 9.37391C28.4659 9.37068 28.4659 9.36745 28.4659 9.36423C28.4659 9.361 28.4659 9.35777 28.4659 9.35455C28.4659 9.35133 28.4659 9.34811 28.4659 9.34489C28.4659 9.34167 28.4659 9.33846 28.4659 9.33524C28.4659 9.33203 28.4659 9.32882 28.4659 9.32561C28.4659 9.3224 28.4659 9.31919 28.4659 9.31599C28.4659 9.31279 28.4659 9.30958 28.4659 9.30638C28.4659 9.30318 28.4659 9.29999 28.4659 9.29679C28.4659 9.2936 28.4659 9.29041 28.4659 9.28722C28.4659 9.28403 28.4659 9.28084 28.4659 9.27766C28.4659 9.27447 28.4659 9.27129 28.4659 9.26811C28.4659 9.26493 28.4659 9.26175 28.4659 9.25858C28.4659 9.2554 28.4659 9.25223 28.4659 9.24906C28.4659 9.24589 28.4659 9.24272 28.4659 9.23956C28.4659 9.23639 28.4659 9.23323 28.4659 9.23007C28.4659 9.22691 28.4659 9.22375 28.4659 9.2206C28.4659 9.21744 28.4659 9.21429 28.4659 9.21114C28.4659 9.20799 28.4659 9.20484 28.4659 9.2017C28.4659 9.19855 28.4659 9.19541 28.4659 9.19227C28.4659 9.18914 28.4659 9.186 28.4659 9.18287C28.4659 9.17973 28.4659 9.1766 28.4659 9.17347C28.4659 9.17034 28.4659 9.16722 28.4659 9.16409C28.4659 9.16097 28.4659 9.15785 28.4659 9.15473C28.4659 9.15161 28.4659 9.1485 28.4659 9.14539C28.4659 9.14227 28.4659 9.13916 28.4659 9.13606C28.4659 9.13295 28.4659 9.12985 28.4659 9.12675C28.4659 9.12364 28.4659 9.12055 28.4659 9.11745C28.4659 9.11435 28.4659 9.11126 28.4659 9.10817C28.4659 9.10508 28.4659 9.10199 28.4659 9.09891C28.4659 9.09582 28.4659 9.09274 28.4659 9.08966C28.4659 9.08658 28.4659 9.08351 28.4659 9.08043C28.4659 9.07736 28.4659 9.07429 28.4659 9.07122C28.4659 9.06816 28.4659 9.06509 28.4659 9.06203C28.4659 9.05897 28.4659 9.05591 28.4659 9.05285C28.4659 9.0498 28.4659 9.04675 28.4659 9.0437C28.4659 9.04065 28.4659 9.0376 28.4659 9.03456C28.4659 9.03151 28.4659 9.02847 28.4659 9.02543C28.4659 9.0224 28.4659 9.01936 28.4659 9.01633C28.4659 9.0133 28.4659 9.01027 28.4659 9.00724C28.4659 9.00422 28.4659 9.00119 28.4659 8.99817C28.4659 8.99515 28.4659 8.99214 28.4659 8.98912C28.4659 8.98611 28.4659 8.9831 28.4659 8.98009C28.4659 8.97708 28.4659 8.97408 28.4659 8.97108C28.4659 8.96808 28.4659 8.96508 28.4659 8.96208C28.4659 8.95909 28.4659 8.95609 28.4659 8.95311C28.4659 8.95012 28.4659 8.94713 28.4659 8.94415C28.4659 8.94117 28.4659 8.93819 28.4659 8.93521C28.4659 8.93223 28.4659 8.92926 28.4659 8.92629C28.4659 8.92332 28.4659 8.92036 28.4659 8.91739C28.4659 8.91443 28.4659 8.91147 28.4659 8.90851C28.4659 8.90556 28.4659 8.9026 28.4659 8.89965C28.4659 8.8967 28.4659 8.89375 28.4659 8.89081C28.4659 8.88787 28.4659 8.88493 28.4659 8.88199C28.4659 8.87905 28.4659 8.87612 28.4659 8.87319C28.4659 8.87026 28.4659 8.86733 28.4659 8.86441C28.4659 8.86148 28.4659 8.85856 28.4659 8.85565C28.4659 8.85273 28.4659 8.84982 28.4659 8.84691C28.4659 8.844 28.4659 8.84109 28.4659 8.83818C28.4659 8.83528 28.4659 8.83238 28.4659 8.82948C28.4659 8.82659 28.4659 8.8237 28.4659 8.82081C28.4659 8.81792 28.4659 8.81503 28.4659 8.81215C28.4659 8.80926 28.4659 8.80639 28.4659 8.80351C28.4659 8.80063 28.4659 8.79776 28.4659 8.79489C28.4659 8.79202 28.4659 8.78916 28.4659 8.7863C28.4659 8.78344 28.4659 8.78058 28.4659 8.77772C28.4659 8.77487 28.4659 8.77202 28.4659 8.76917C28.4659 8.76632 28.4659 8.76348 28.4659 8.76064C28.4659 8.7578 28.4659 8.75496 28.4659 8.75213C28.4659 8.74929 28.4659 8.74647 28.4659 8.74364C28.4659 8.74081 28.4659 8.73799 28.4659 8.73517C28.4659 8.73235 28.4659 8.72954 28.4659 8.72673C28.4659 8.72392 28.4659 8.72111 28.4659 8.71831C28.4659 8.7155 28.4659 8.7127 28.4659 8.70991C28.4659 8.70711 28.4659 8.70432 28.4659 8.70153C28.4659 8.69874 28.4659 8.69595 28.4659 8.69317C28.4659 8.69039 28.4659 8.68761 28.4659 8.68484C28.4659 8.68207 28.4659 8.6793 28.4659 8.67653C28.4659 8.67376 28.4659 8.671 28.4659 8.66824C28.4659 8.66548 28.4659 8.66273 28.4659 8.65998C28.4659 8.65723 28.4659 8.65448 28.4659 8.65173C28.4659 8.64899 28.4659 8.64625 28.4659 8.64352C28.4659 8.64078 28.4659 8.63805 28.4659 8.63532C28.4659 8.63259 28.4659 8.62987 28.4659 8.62715C28.4659 8.62443 28.4659 8.62171 28.4659 8.619C28.4659 8.61629 28.4659 8.61358 28.4659 8.61088C28.4659 8.60817 28.4659 8.60547 28.4659 8.60278C28.4659 8.60008 28.4659 8.59739 28.4659 8.5947C28.4659 8.59201 28.4659 8.58933 28.4659 8.58665C28.4659 8.58397 28.4659 8.58129 28.4659 8.57862C28.4659 8.57595 28.4659 8.57328 28.4659 8.57061C28.4659 8.56795 28.4659 8.56529 28.4659 8.56263C28.4659 8.55998 28.4659 8.55733 28.4659 8.55468C28.4659 8.55203 28.4659 8.54939 28.4659 8.54675C28.4659 8.54411 28.4659 8.54147 28.4659 8.53884C28.4659 8.53621 28.4659 8.53358 28.4659 8.53096C28.4659 8.52834 28.4659 8.52572 28.4659 8.5231C28.4659 8.52049 28.4659 8.51788 28.4659 8.51527C28.4659 8.51267 28.4659 8.51006 28.4659 8.50747C28.4659 8.50487 28.4659 8.50227 28.4659 8.49969C28.4659 8.4971 28.4659 8.49451 28.4659 8.49193C28.4659 8.48935 28.4659 8.48677 28.4659 8.4842C28.4659 8.48163 28.4659 8.47906 28.4659 8.4765C28.4659 8.47393 28.4659 8.47137 28.4659 8.46882C28.4659 8.46626 28.4659 8.46371 28.4659 8.46117C28.4659 8.45862 28.4659 8.45608 28.4659 8.45354C28.4659 8.451 28.4659 8.44847 28.4659 8.44594C28.4659 8.44341 28.4659 8.44089 28.4659 8.43837C28.4659 8.43585 28.4659 8.43333 28.4659 8.43082C28.4659 8.42831 28.4659 8.4258 28.4659 8.4233C28.4659 8.4208 28.4659 8.4183 28.4659 8.41581C28.4659 8.41331 28.4659 8.41082 28.4659 8.40834C28.4659 8.40585 28.4659 8.40337 28.4659 8.4009C28.4659 8.39842 28.4659 8.39595 28.4659 8.39348C28.4659 8.39102 28.4659 8.38856 28.4659 8.3861C28.4659 8.38364 28.4659 8.38119 28.4659 8.37874C28.4659 8.37629 28.4659 8.37385 28.4659 8.37141C28.4659 8.36897 28.4659 8.36654 28.4659 8.36411C28.4659 8.36168 28.4659 8.35925 28.4659 8.35683C28.4659 8.35441 28.4659 8.35199 28.4659 8.34958C28.4659 8.34717 28.4659 8.34476 28.4659 8.34236C28.4659 8.33996 28.4659 8.33756 28.4659 8.33517C28.4659 8.33278 28.4659 8.33039 28.4659 8.328C28.4659 8.32562 28.4659 8.32324 28.4659 8.32087C28.4659 8.31849 28.4659 8.31612 28.4659 8.31376C28.4659 8.3114 28.4659 8.30904 28.4659 8.30668C28.4659 8.30433 28.4659 8.30198 28.4659 8.29963C28.4659 8.29729 28.4659 8.29494 28.4659 8.29261C28.4659 8.29027 28.4659 8.28794 28.4659 8.28562C28.4659 8.28329 28.4659 8.28097 28.4659 8.27865C28.4659 8.27634 28.4659 8.27402 28.4659 8.27172C28.4659 8.26941 28.4659 8.26711 28.4659 8.26481C28.4659 8.26251 28.4659 8.26022 28.4659 8.25794C28.4659 8.25565 28.4659 8.25337 28.4659 8.25109C28.4659 8.24881 28.4659 8.24654 28.4659 8.24427C28.4659 8.242 28.4659 8.23974 28.4659 8.23748C28.4659 8.23523 28.4659 8.23297 28.4659 8.23073C28.4659 8.22848 28.4659 8.22624 28.4659 8.224C28.4659 8.22176 28.4659 8.21953 28.4659 8.2173C28.4659 8.21507 28.4659 8.21285 28.4659 8.21063C28.4659 8.20842 28.4659 8.2062 28.4659 8.204C28.4659 8.20179 28.4659 8.19959 28.4659 8.19739C28.4659 8.19519 28.4659 8.193 28.4659 8.19081C28.4659 8.18863 28.4659 8.18644 28.4659 8.18427C28.4659 8.18209 28.4659 8.17992 28.4659 8.17775C28.4659 8.17559 28.4659 8.17343 28.4659 8.17127C28.4659 8.16911 28.4659 8.16696 28.4659 8.16482C28.4659 8.16267 28.4659 8.16053 28.4659 8.15839C28.4659 8.15626 28.4659 8.15413 28.4659 8.152C28.4659 8.14988 28.4659 8.14776 28.4659 8.14565C28.4659 8.14353 28.4659 8.14142 28.4659 8.13932C28.4659 8.13721 28.4659 8.13512 28.4659 8.13302C28.4659 8.13093 28.4659 8.12884 28.4659 8.12676C28.4659 8.12468 28.4659 8.1226 28.4659 8.12053C28.4659 8.11845 28.4659 8.11639 28.4659 8.11433C28.4659 8.11227 28.4659 8.11021 28.4659 8.10816C28.4659 8.10611 28.4659 8.10406 28.4659 8.10202C28.4659 8.09998 28.4659 8.09795 28.4659 8.09592C28.4659 8.09389 28.4659 8.09187 28.4659 8.08985C28.4659 8.08783 28.4659 8.08582 28.4659 8.08381C28.4659 8.0818 28.4659 8.0798 28.4659 8.07781C28.4659 8.07581 28.4659 8.07382 28.4659 8.07183C28.4659 8.06985 28.4659 8.06787 28.4659 8.06589C28.4659 8.06392 28.4659 8.06195 28.4659 8.05999C28.4659 8.05802 28.4659 8.05607 28.4659 8.05411C28.4659 8.05216 28.4659 8.05022 28.4659 8.04827C28.4659 8.04633 28.4659 8.0444 28.4659 8.04247C28.4659 8.04054 28.4659 8.03861 28.4659 8.0367C28.4659 8.03478 28.4659 8.03286 28.4659 8.03096C28.4659 8.02905 28.4659 8.02715 28.4659 8.02525C28.4659 8.02336 28.4659 8.02146 28.4659 8.01958C28.4659 8.0177 28.4659 8.01582 28.4659 8.01394C28.4659 8.01207 28.4659 8.0102 28.4659 8.00834C28.4659 8.00648 28.4659 8.00462 28.4659 8.00277C28.4659 8.00092 28.4659 7.99908 28.4659 7.99724C28.4659 7.9954 28.4659 7.99356 28.4659 7.99174C28.4659 7.98991 28.4659 7.98809 28.4659 7.98627C28.4659 7.98446 28.4659 7.98265 28.4659 7.98084C28.4659 7.97904 28.4659 7.97724 28.4659 7.97545C28.4659 7.97365 28.4659 7.97187 28.4659 7.97009C28.4659 7.96831 28.4659 7.96653 28.4659 7.96476C28.4659 7.96299 28.4659 7.96123 28.4659 7.95947C28.4659 7.95771 28.4659 7.95596 28.4659 7.95422C28.4659 7.95247 28.4659 7.95073 28.4659 7.949C28.4659 7.94726 28.4659 7.94554 28.4659 7.94382C28.4659 7.94209 28.4659 7.94038 28.4659 7.93867C28.4659 7.93696 28.4659 7.93525 28.4659 7.93356C28.4659 7.93186 28.4659 7.93017 28.4659 7.92848C28.4659 7.9268 28.4659 7.92512 28.4659 7.92344C28.4659 7.92177 28.4659 7.9201 28.4659 7.91844C28.4659 7.91678 28.4659 7.91512 28.4659 7.91347C28.4659 7.91182 28.4659 7.91018 28.4659 7.90854C28.4659 7.9069 28.4659 7.90527 28.4659 7.90365C28.4659 7.90202 28.4659 7.9004 28.4659 7.89879C28.4659 7.89718 28.4659 7.89557 28.4659 7.89397C28.4659 7.89237 28.4659 7.89078 28.4659 7.88919C28.4659 7.8876 28.4659 7.88602 28.4659 7.88444C28.4659 7.88287 28.4659 7.8813 28.4659 7.87973C28.4659 7.87817 28.4659 7.87661 28.4659 7.87506C28.4659 7.87351 28.4659 7.87197 28.4659 7.87043C28.4659 7.86889 28.4659 7.86736 28.4659 7.86583C28.4659 7.86431 28.4659 7.86279 28.4659 7.86127C28.4659 7.85976 28.4659 7.85825 28.4659 7.85675C28.4659 7.85525 28.4659 7.85376 28.4659 7.85227C28.4659 7.85078 28.4659 7.8493 28.4659 7.84782C28.4659 7.84635 28.4659 7.84488 28.4659 7.84342C28.4659 7.84196 28.4659 7.8405 28.4659 7.83905C28.4659 7.8376 28.4659 7.83616 28.4659 7.83472C28.4659 7.83328 28.4659 7.83185 28.4659 7.83043C28.4659 7.829 28.4659 7.82759 28.4659 7.82618C28.4659 7.82476 28.4659 7.82336 28.4659 7.82196C28.4659 7.82056 28.4659 7.81917 28.4659 7.81779C28.4659 7.8164 28.4659 7.81502 28.4659 7.81365C28.4659 7.81228 28.4659 7.81091 28.4659 7.80955C28.4659 7.8082 28.4659 7.80684 28.4659 7.8055C28.4659 7.80415 28.4659 7.80281 28.4659 7.80148C28.4659 7.80015 28.4659 7.79882 28.4659 7.7975C28.4659 7.79618 28.4659 7.79487 28.4659 7.79356C28.4659 7.79226 28.4659 7.79096 28.4659 7.78966C28.4659 7.78837 28.4659 7.78708 28.4659 7.7858C28.4659 7.78452 28.4659 7.78325 28.4659 7.78199C28.4659 7.78072 28.4659 7.77946 28.4659 7.77821C28.4659 7.77695 28.4659 7.77571 28.4659 7.77447C28.4659 7.77323 28.4659 7.772 28.4659 7.77077C28.4659 7.76954 28.4659 7.76832 28.4659 7.76711C28.4659 7.7659 28.4659 7.76469 28.4659 7.76349C28.4659 7.7623 28.4659 7.7611 28.4659 7.75992C28.4659 7.75873 28.4659 7.75755 28.4659 7.75638C28.4659 7.75521 28.4659 7.75405 28.4659 7.75289C28.4659 7.75173 28.4659 7.75058 28.4659 7.74943C28.4659 7.74829 28.4659 7.74715 28.4659 7.74602C28.4659 7.74489 28.4659 7.74377 28.4659 7.74265C28.4659 7.74153 28.4659 7.74042 28.4659 7.73932C28.4659 7.73822 28.4659 7.73712 28.4659 7.73603C28.4659 7.73494 28.4659 7.73386 28.4659 7.73279C28.4659 7.73171 28.4659 7.73064 28.4659 7.72958C28.4659 7.72852 28.4659 7.72747 28.4659 7.72642C28.4659 7.72537 28.4659 7.72433 28.4659 7.7233C28.4659 7.72227 28.4659 7.72124 28.4659 7.72022C28.4659 7.7192 28.4659 7.71819 28.4659 7.71719C28.4659 7.71618 28.4659 7.71518 28.4659 7.71419C28.4659 7.7132 28.4659 7.71222 28.4659 7.71124C28.4659 7.71027 28.4659 7.7093 28.4659 7.70833C28.4659 7.70737 28.4659 7.70642 28.4659 7.70547C28.4659 7.70452 28.4659 7.70358 28.4659 7.70265C28.4659 7.70171 28.4659 7.70079 28.4659 7.69987C28.4659 7.69895 28.4659 7.69804 28.4659 7.69713C28.4659 7.69623 28.4659 7.69533 28.4659 7.69444C28.4659 7.69355 28.4659 7.69266 28.4659 7.69179C28.4659 7.69091 28.4659 7.69004 28.4659 7.68918C28.4659 7.68832 28.4659 7.68747 28.4659 7.68662C28.4659 7.68577 28.4659 7.68493 28.4659 7.6841C28.4659 7.68327 28.4659 7.68245 28.4659 7.68163C28.4659 7.68081 28.4659 7.68 28.4659 7.6792C28.4659 7.67839 28.4659 7.6776 28.4659 7.67681C28.4659 7.67602 28.4659 7.67524 28.4659 7.67447C28.4659 7.67369 28.4659 7.67293 28.4659 7.67217C28.4659 7.67141 28.4659 7.67066 28.4659 7.66992C28.4659 7.66917 28.4659 7.66844 28.4659 7.66771C28.4659 7.66698 28.4659 7.66626 28.4659 7.66554C28.4659 7.66483 28.4659 7.66412 28.4659 7.66342C28.4659 7.66273 28.4659 7.66203 28.4659 7.66135C28.4659 7.66067 28.4659 7.65999 28.4659 7.65932C28.4659 7.65865 28.4659 7.65799 28.4659 7.65734C28.4659 7.65668 28.4659 7.65604 28.4659 7.6554C28.4659 7.65476 28.4659 7.65413 28.4659 7.65351C28.4659 7.65288 28.4659 7.65227 28.4659 7.65166C28.4659 7.65105 28.4659 7.65045 28.4659 7.64986C28.4659 7.64926 28.4659 7.64868 28.4659 7.6481C28.4659 7.64752 28.4659 7.64695 28.4659 7.64639C28.4659 7.64583 28.4659 7.64528 28.4659 7.64473C28.4659 7.64418 28.4659 7.64364 28.4659 7.64311C28.4659 7.64258 28.4659 7.64206 28.4659 7.64154C28.4659 7.64102 28.4659 7.64051 28.4659 7.64001C28.4659 7.63951 28.4659 7.63902 28.4659 7.63854C28.4659 7.63805 28.4659 7.63757 28.4659 7.6371C28.4659 7.63663 28.4659 7.63617 28.4659 7.63572C28.4659 7.63527 28.4659 7.63482 28.4659 7.63438C28.4659 7.63394 28.4659 7.63351 28.4659 7.63309C28.4659 7.63267 28.4659 7.63225 28.4659 7.63185C28.4659 7.63144 28.4659 7.63104 28.4659 7.63065C28.4659 7.63026 28.4659 7.62988 28.4659 7.6295C28.4659 7.62913 28.4659 7.62876 28.4659 7.6284C28.4659 7.62804 28.4659 7.62769 28.4659 7.62735C28.4659 7.627 28.4659 7.62667 28.4659 7.62634C28.4659 7.62601 28.4659 7.62569 28.4659 7.62538C28.4659 7.62507 28.4659 7.62477 28.4659 7.62447C28.4659 7.62418 28.4659 7.62389 28.4659 7.62361C28.4659 7.62333 28.4659 7.62306 28.4659 7.6228C28.4659 7.62253 28.4659 7.62228 28.4659 7.62203C28.4659 7.62178 28.4659 7.62154 28.4659 7.62131C28.4659 7.62108 28.4659 7.62086 28.4659 7.62065C28.4659 7.62043 28.4659 7.62022 28.4659 7.62003C28.4659 7.61983 28.4659 7.61964 28.4659 7.61946C28.4659 7.61927 28.4659 7.6191 28.4659 7.61893C28.4659 7.61877 28.4659 7.61861 28.4659 7.61846C28.4659 7.61831 28.4659 7.61817 28.4659 7.61804C28.4659 7.61791 28.4659 7.61778 28.4659 7.61766C28.4659 7.61755 28.4659 7.61744 28.4659 7.61734C28.4659 7.61724 28.4659 7.61715 28.4659 7.61706C28.4659 7.61698 28.4659 7.61691 28.4659 7.61684C28.4659 7.61677 28.4659 7.61671 28.4659 7.61666C28.4659 7.61661 28.4659 7.61657 28.4659 7.61654C28.4659 7.61651 28.4659 7.61648 28.4659 7.61646C28.4659 7.61645 28.4659 7.61644 27.4659 7.61644Z" fill="#FB8500"/>
<path d="M13.3266 8.45954C13.4744 7.9274 13.1629 7.37619 12.6308 7.22838C12.0986 7.08056 11.5474 7.39211 11.3996 7.92425L13.3266 8.45954ZM8.41241 13.1837C8.0712 13.6179 8.14664 14.2466 8.58091 14.5878C9.01518 14.929 9.64384 14.8536 9.98505 14.4193L8.41241 13.1837ZM11.3996 7.92425C10.7387 10.3036 9.9916 11.1738 8.41241 13.1837L9.98505 14.4193C11.5702 12.4018 12.5492 11.2583 13.3266 8.45954L11.3996 7.92425Z" fill="#FFB703"/>
<path d="M15.7003 8.40142C15.5846 7.8614 15.9286 7.32981 16.4686 7.21409C17.0086 7.09837 17.5402 7.44234 17.6559 7.98237L15.7003 8.40142ZM20.5773 13.1232C20.9519 13.529 20.9266 14.1617 20.5208 14.5363C20.115 14.9109 19.4823 14.8856 19.1077 14.4798L20.5773 13.1232ZM17.6559 7.98237C18.0395 9.77218 18.9339 11.3428 20.5773 13.1232L19.1077 14.4798C17.2991 12.5204 16.1798 10.639 15.7003 8.40142L17.6559 7.98237Z" fill="#FFB703"/>
<path d="M13.2329 32.5C13.2329 33.0523 13.6806 33.5 14.2329 33.5C14.7852 33.5 15.2329 33.0523 15.2329 32.5H13.2329ZM15.2329 17.2534C15.2329 16.7011 14.7852 16.2534 14.2329 16.2534C13.6806 16.2534 13.2329 16.7011 13.2329 17.2534H15.2329ZM6.6439 26.8015C6.51537 27.3386 6.84659 27.8782 7.38371 28.0068C7.92083 28.1353 8.46045 27.8041 8.58899 27.267L6.6439 26.8015ZM8.19179 23.0068L9.19177 23.0017L8.19179 23.0068ZM7.61645 19.2671L6.65431 19.5397L7.61645 19.2671ZM6.32192 15.9589L7.28352 15.6844L6.32192 15.9589ZM6.74223 12.4136C6.69073 11.8637 6.20321 11.4597 5.65334 11.5112C5.10346 11.5627 4.69944 12.0502 4.75094 12.6001L6.74223 12.4136ZM15.2329 32.5V17.2534H13.2329V32.5H15.2329ZM7.61645 27.0342C8.58899 27.267 8.58901 27.2669 8.58903 27.2668C8.58904 27.2668 8.58906 27.2667 8.58908 27.2666C8.58912 27.2664 8.58917 27.2662 8.58923 27.2659C8.58935 27.2655 8.5895 27.2648 8.58969 27.264C8.59006 27.2625 8.59057 27.2603 8.59122 27.2576C8.59251 27.2521 8.59434 27.2444 8.59667 27.2344C8.60133 27.2145 8.608 27.1858 8.61639 27.149C8.63316 27.0756 8.65684 26.9701 8.68509 26.8389C8.74151 26.5769 8.81659 26.2108 8.89152 25.7927C9.0383 24.9738 9.19639 23.8921 9.19177 23.0017L7.1918 23.012C7.19542 23.7103 7.06584 24.6423 6.92289 25.4399C6.85295 25.8301 6.78265 26.1729 6.72991 26.4178C6.70358 26.5401 6.68173 26.6375 6.66662 26.7037C6.65906 26.7367 6.6532 26.7619 6.64932 26.7785C6.64738 26.7868 6.64594 26.7929 6.64502 26.7968C6.64456 26.7987 6.64424 26.8001 6.64405 26.8009C6.64396 26.8013 6.6439 26.8015 6.64387 26.8016C6.64386 26.8017 6.64386 26.8017 6.64386 26.8017C6.64386 26.8017 6.64388 26.8016 6.64388 26.8016C6.64389 26.8016 6.6439 26.8015 7.61645 27.0342ZM9.19177 23.0017C9.18323 21.353 9.01322 20.5287 8.57858 18.9945L6.65431 19.5397C7.05547 20.9557 7.18446 21.5943 7.1918 23.012L9.19177 23.0017ZM8.57858 18.9945C8.37315 18.2694 8.11049 17.6998 7.87892 17.1955C7.64539 16.6869 7.44331 16.2442 7.28352 15.6844L5.36033 16.2334C5.56701 16.9575 5.83022 17.5266 6.06136 18.03C6.29445 18.5377 6.49581 18.9802 6.65431 19.5397L8.57858 18.9945ZM7.28352 15.6844C7.11618 15.0982 6.97987 14.2929 6.88409 13.6026C6.83712 13.264 6.80145 12.9648 6.77757 12.7506C6.76565 12.6436 6.7567 12.5582 6.75078 12.5001C6.74783 12.471 6.74563 12.4488 6.7442 12.4341C6.74349 12.4268 6.74296 12.4214 6.74264 12.4179C6.74247 12.4162 6.74235 12.4149 6.74229 12.4142C6.74225 12.4139 6.74223 12.4136 6.74222 12.4135C6.74221 12.4135 6.74221 12.4134 6.74221 12.4135C6.74221 12.4135 6.74222 12.4135 6.74222 12.4135C6.74222 12.4135 6.74223 12.4136 5.74658 12.5068C4.75094 12.6001 4.75095 12.6001 4.75095 12.6002C4.75096 12.6003 4.75096 12.6003 4.75097 12.6004C4.75098 12.6005 4.751 12.6007 4.75102 12.6009C4.75106 12.6013 4.75111 12.6019 4.75117 12.6026C4.7513 12.6039 4.75148 12.6058 4.7517 12.6081C4.75215 12.6128 4.7528 12.6196 4.75364 12.6282C4.75533 12.6455 4.7578 12.6705 4.76105 12.7025C4.76755 12.7664 4.77718 12.8582 4.78988 12.9722C4.81527 13.1999 4.8531 13.5173 4.90307 13.8775C5.00118 14.5846 5.15255 15.5054 5.36033 16.2334L7.28352 15.6844Z" fill="#FFB703"/>
<path d="M23.7123 12.6234C23.7767 12.0749 23.3842 11.578 22.8357 11.5137C22.2872 11.4493 21.7903 11.8418 21.7259 12.3903L23.7123 12.6234ZM22.1438 15.6712L21.1757 15.4204L22.1438 15.6712ZM20.7054 19.6986L21.6702 19.9617L20.7054 19.6986ZM20.2739 23.8699L19.2774 23.9529C19.28 23.984 19.284 24.0149 19.2895 24.0456L20.2739 23.8699ZM21.5684 32.5V33.5C21.8553 33.5 22.1283 33.3768 22.3181 33.1618C22.508 32.9468 22.5963 32.6606 22.5607 32.376L21.5684 32.5ZM6.89722 32.5L5.90407 32.3831C5.8707 32.6668 5.96018 32.9511 6.14994 33.1645C6.33971 33.3779 6.61165 33.5 6.89722 33.5V32.5ZM8.321 29.0281C8.3895 28.4801 8.00078 27.9803 7.45276 27.9118C6.90474 27.8433 6.40495 28.232 6.33645 28.7801L8.321 29.0281ZM22.7191 12.5068C21.7259 12.3903 21.726 12.3902 21.726 12.3902C21.726 12.3902 21.726 12.3902 21.726 12.3901C21.726 12.3901 21.726 12.3901 21.726 12.3902C21.726 12.3902 21.7259 12.3904 21.7259 12.3906C21.7258 12.3912 21.7257 12.3921 21.7256 12.3934C21.7253 12.3961 21.7247 12.4004 21.724 12.4063C21.7226 12.4179 21.7204 12.4358 21.7175 12.4594C21.7116 12.5066 21.7026 12.5765 21.6906 12.6654C21.6667 12.8432 21.6309 13.0957 21.5837 13.392C21.4887 13.9894 21.3507 14.745 21.1757 15.4204L23.1118 15.922C23.3098 15.1577 23.4595 14.3312 23.5589 13.7062C23.609 13.3914 23.6471 13.1228 23.6727 12.9323C23.6856 12.8369 23.6953 12.7609 23.702 12.7081C23.7053 12.6817 23.7078 12.6611 23.7095 12.6469C23.7104 12.6397 23.711 12.6341 23.7115 12.6302C23.7117 12.6282 23.7119 12.6267 23.7121 12.6255C23.7121 12.625 23.7122 12.6245 23.7122 12.6241C23.7123 12.624 23.7123 12.6238 23.7123 12.6237C23.7123 12.6236 23.7123 12.6235 23.7123 12.6235C23.7123 12.6234 23.7123 12.6234 22.7191 12.5068ZM21.1757 15.4204C20.9946 16.1196 20.7677 16.6736 20.5125 17.2886C20.2583 17.901 19.9753 18.5753 19.7407 19.4355L21.6702 19.9617C21.8671 19.2398 22.1028 18.6741 22.3597 18.0553C22.6155 17.439 22.8921 16.7704 23.1118 15.922L21.1757 15.4204ZM19.7407 19.4355C19.3688 20.7991 19.1207 22.0727 19.2774 23.9529L21.2705 23.7868C21.1395 22.2149 21.336 21.1872 21.6702 19.9617L19.7407 19.4355ZM19.2895 24.0456C19.6461 26.0424 19.9678 28.1865 20.2007 29.8351C20.3171 30.6586 20.411 31.3566 20.4759 31.8486C20.5083 32.0945 20.5334 32.2888 20.5504 32.4215C20.5589 32.4878 20.5654 32.5386 20.5697 32.5728C20.5719 32.5899 20.5735 32.6028 20.5746 32.6114C20.5751 32.6157 20.5755 32.6189 20.5758 32.621C20.5759 32.6221 20.576 32.6229 20.5761 32.6234C20.5761 32.6236 20.5761 32.6238 20.5762 32.6239C20.5762 32.624 20.5762 32.624 20.5762 32.624C20.5762 32.624 20.5762 32.624 21.5684 32.5C22.5607 32.376 22.5607 32.3759 22.5607 32.3759C22.5607 32.3758 22.5607 32.3757 22.5607 32.3757C22.5607 32.3755 22.5606 32.3752 22.5606 32.3749C22.5605 32.3743 22.5604 32.3734 22.5603 32.3722C22.56 32.3699 22.5595 32.3664 22.559 32.3619C22.5578 32.3528 22.5561 32.3394 22.5539 32.3218C22.5494 32.2866 22.5429 32.2346 22.5342 32.1672C22.5169 32.0324 22.4915 31.8357 22.4587 31.5872C22.3932 31.0903 22.2984 30.3859 22.181 29.5553C21.9465 27.8956 21.621 25.7247 21.2584 23.6941L19.2895 24.0456ZM21.5684 31.5H6.89722V33.5H21.5684V31.5ZM6.89722 32.5C7.89037 32.6168 7.89037 32.6168 7.89037 32.6168C7.89037 32.6168 7.89038 32.6168 7.89038 32.6167C7.89039 32.6167 7.8904 32.6165 7.89042 32.6164C7.89045 32.6161 7.8905 32.6157 7.89057 32.6151C7.89071 32.6139 7.89092 32.6122 7.89119 32.6098C7.89174 32.6052 7.89255 32.5983 7.89362 32.5892C7.89576 32.571 7.89891 32.5443 7.90298 32.5097C7.91112 32.4407 7.92291 32.3408 7.9375 32.2173C7.96669 31.9703 8.00711 31.629 8.05202 31.2518C8.14194 30.4964 8.24949 29.6002 8.321 29.0281L6.33645 28.7801C6.26412 29.3587 6.15592 30.2604 6.06604 31.0153C6.02105 31.3933 5.98056 31.7352 5.95132 31.9826C5.9367 32.1063 5.92489 32.2064 5.91674 32.2756C5.91266 32.3102 5.90949 32.3371 5.90735 32.3553C5.90627 32.3644 5.90545 32.3714 5.9049 32.376C5.90463 32.3784 5.90442 32.3802 5.90428 32.3813C5.90421 32.3819 5.90416 32.3824 5.90412 32.3827C5.9041 32.3828 5.90409 32.3829 5.90408 32.383C5.90408 32.3831 5.90407 32.3831 5.90407 32.3831C5.90407 32.3831 5.90407 32.3831 6.89722 32.5Z" fill="#FB8500"/>
</svg>
