<svg width="30" height="29" viewBox="0 0 30 29" fill="none" xmlns="http://www.w3.org/2000/svg">
<path d="M2.41676 5.10057C2.19616 4.59426 1.60688 4.36264 1.10057 4.58324C0.594255 4.80384 0.362637 5.39312 0.583237 5.89943L2.41676 5.10057ZM4.30913 10.0524L3.96248 10.9904L4.04436 11.0207L4.13024 11.0363L4.30913 10.0524ZM8.78674 9.69421L8.53432 8.72659L8.5021 8.73499L8.47051 8.74552L8.78674 9.69421ZM13.7164 8.65666L13.9589 9.6268C14.0297 9.60911 14.0984 9.58372 14.1636 9.55109L13.7164 8.65666ZM15.9701 1.5C15.9701 0.947715 15.5224 0.5 14.9701 0.5C14.4178 0.5 13.9701 0.947715 13.9701 1.5H15.9701ZM16.403 8.65666L15.8394 9.4827L15.9948 9.58875L16.1781 9.63105L16.403 8.65666ZM21.0597 9.69421L21.2752 8.71771L21.2652 8.71549L21.2551 8.71348L21.0597 9.69421ZM25.5373 10.0895L25.7798 11.0596L25.8457 11.0432L25.9087 11.018L25.5373 10.0895ZM29.4572 5.78955C29.6171 5.26093 29.3182 4.70275 28.7896 4.54284C28.2609 4.38292 27.7028 4.68182 27.5428 5.21045L29.4572 5.78955ZM1.5 5.5C0.583237 5.89943 0.583276 5.89952 0.583322 5.89963C0.583347 5.89968 0.5834 5.89981 0.58345 5.89992C0.583549 5.90015 0.583675 5.90044 0.58383 5.90079C0.584139 5.9015 0.584559 5.90246 0.585088 5.90367C0.586147 5.90609 0.587644 5.90951 0.58957 5.9139C0.59342 5.92267 0.598984 5.93532 0.60618 5.95159C0.620571 5.98413 0.6415 6.0312 0.668313 6.09082C0.721916 6.21002 0.799173 6.37972 0.894843 6.58411C1.08567 6.99179 1.35214 7.5426 1.652 8.10822C1.94928 8.66896 2.2915 9.26737 2.63475 9.75964C2.80589 10.0051 2.99174 10.2451 3.18621 10.4467C3.36344 10.6304 3.62629 10.8662 3.96248 10.9904L4.65578 9.11442C4.74594 9.14774 4.73648 9.17305 4.62553 9.05806C4.53184 8.96094 4.41365 8.81411 4.2753 8.61569C3.99958 8.22029 3.70103 7.70333 3.41904 7.17142C3.13963 6.6444 2.88834 6.1253 2.70623 5.73623C2.61543 5.54225 2.54241 5.38186 2.49237 5.27057C2.46736 5.21495 2.44812 5.17167 2.43529 5.14267C2.42888 5.12817 2.42408 5.11725 2.42096 5.11015C2.4194 5.10661 2.41827 5.10401 2.41756 5.1024C2.41721 5.1016 2.41697 5.10104 2.41684 5.10074C2.41677 5.10058 2.41673 5.10049 2.41672 5.10046C2.41671 5.10045 2.41672 5.10048 2.41672 5.10047C2.41674 5.10051 2.41676 5.10057 1.5 5.5ZM4.13024 11.0363C5.17103 11.2255 5.98671 11.2837 6.78176 11.2042C7.56932 11.1254 8.2835 10.916 9.10297 10.6429L8.47051 8.74552C7.67804 9.00968 7.13848 9.15852 6.58276 9.21409C6.03453 9.26892 5.41737 9.23752 4.48801 9.06855L4.13024 11.0363ZM9.03916 10.6618C11.0844 10.1283 12.1043 9.92211 12.689 9.82651C12.9801 9.77892 13.1662 9.75809 13.3471 9.73552C13.5339 9.7122 13.7211 9.68627 13.9589 9.6268L13.4739 7.68652C13.3535 7.71661 13.2603 7.73082 13.0993 7.75092C12.9323 7.77177 12.7032 7.79764 12.3663 7.85272C11.6952 7.96245 10.6085 8.1855 8.53432 8.72659L9.03916 10.6618ZM14.1636 9.55109C14.5807 9.34255 14.913 9.12621 15.2001 8.82024C15.467 8.53581 15.6557 8.21075 15.8327 7.90883L14.1075 6.89703C13.9085 7.23647 13.8285 7.35917 13.7416 7.45172C13.675 7.52271 13.5685 7.61257 13.2692 7.76223L14.1636 9.55109ZM15.9701 7.40293C15.9701 7.40061 15.9701 7.39827 15.9701 7.39592C15.9701 7.39357 15.9701 7.39121 15.9701 7.38884C15.9701 7.38646 15.9701 7.38407 15.9701 7.38167C15.9701 7.37926 15.9701 7.37685 15.9701 7.37442C15.9701 7.37199 15.9701 7.36955 15.9701 7.36709C15.9701 7.36464 15.9701 7.36217 15.9701 7.35969C15.9701 7.35721 15.9701 7.35471 15.9701 7.3522C15.9701 7.3497 15.9701 7.34718 15.9701 7.34464C15.9701 7.34211 15.9701 7.33956 15.9701 7.337C15.9701 7.33444 15.9701 7.33187 15.9701 7.32929C15.9701 7.3267 15.9701 7.3241 15.9701 7.32149C15.9701 7.31888 15.9701 7.31626 15.9701 7.31362C15.9701 7.31099 15.9701 7.30834 15.9701 7.30568C15.9701 7.30301 15.9701 7.30034 15.9701 7.29765C15.9701 7.29497 15.9701 7.29227 15.9701 7.28955C15.9701 7.28684 15.9701 7.28412 15.9701 7.28138C15.9701 7.27864 15.9701 7.27589 15.9701 7.27313C15.9701 7.27037 15.9701 7.2676 15.9701 7.26481C15.9701 7.26202 15.9701 7.25922 15.9701 7.25641C15.9701 7.2536 15.9701 7.25078 15.9701 7.24794C15.9701 7.24511 15.9701 7.24226 15.9701 7.2394C15.9701 7.23654 15.9701 7.23367 15.9701 7.23078C15.9701 7.2279 15.9701 7.225 15.9701 7.22209C15.9701 7.21919 15.9701 7.21626 15.9701 7.21333C15.9701 7.2104 15.9701 7.20746 15.9701 7.2045C15.9701 7.20154 15.9701 7.19857 15.9701 7.19559C15.9701 7.19261 15.9701 7.18962 15.9701 7.18662C15.9701 7.18362 15.9701 7.1806 15.9701 7.17757C15.9701 7.17455 15.9701 7.17151 15.9701 7.16846C15.9701 7.16541 15.9701 7.16234 15.9701 7.15927C15.9701 7.15619 15.9701 7.15311 15.9701 7.15001C15.9701 7.14692 15.9701 7.14381 15.9701 7.14069C15.9701 7.13757 15.9701 7.13444 15.9701 7.13129C15.9701 7.12815 15.9701 7.12499 15.9701 7.12183C15.9701 7.11866 15.9701 7.11549 15.9701 7.1123C15.9701 7.10911 15.9701 7.10591 15.9701 7.1027C15.9701 7.09949 15.9701 7.09627 15.9701 7.09303C15.9701 7.0898 15.9701 7.08655 15.9701 7.0833C15.9701 7.08004 15.9701 7.07678 15.9701 7.0735C15.9701 7.07022 15.9701 7.06693 15.9701 7.06363C15.9701 7.06033 15.9701 7.05702 15.9701 7.0537C15.9701 7.05038 15.9701 7.04704 15.9701 7.0437C15.9701 7.04036 15.9701 7.037 15.9701 7.03364C15.9701 7.03027 15.9701 7.0269 15.9701 7.02351C15.9701 7.02012 15.9701 7.01673 15.9701 7.01332C15.9701 7.00991 15.9701 7.00649 15.9701 7.00306C15.9701 6.99963 15.9701 6.99619 15.9701 6.99274C15.9701 6.98929 15.9701 6.98583 15.9701 6.98236C15.9701 6.97888 15.9701 6.9754 15.9701 6.97191C15.9701 6.96842 15.9701 6.96491 15.9701 6.9614C15.9701 6.95789 15.9701 6.95436 15.9701 6.95083C15.9701 6.94729 15.9701 6.94375 15.9701 6.9402C15.9701 6.93664 15.9701 6.93308 15.9701 6.9295C15.9701 6.92592 15.9701 6.92234 15.9701 6.91874C15.9701 6.91515 15.9701 6.91154 15.9701 6.90793C15.9701 6.90431 15.9701 6.90069 15.9701 6.89705C15.9701 6.89341 15.9701 6.88977 15.9701 6.88611C15.9701 6.88246 15.9701 6.87879 15.9701 6.87511C15.9701 6.87144 15.9701 6.86775 15.9701 6.86406C15.9701 6.86036 15.9701 6.85666 15.9701 6.85294C15.9701 6.84923 15.9701 6.8455 15.9701 6.84177C15.9701 6.83803 15.9701 6.83429 15.9701 6.83054C15.9701 6.82678 15.9701 6.82302 15.9701 6.81925C15.9701 6.81547 15.9701 6.81169 15.9701 6.8079C15.9701 6.80411 15.9701 6.80031 15.9701 6.79649C15.9701 6.79268 15.9701 6.78886 15.9701 6.78503C15.9701 6.7812 15.9701 6.77736 15.9701 6.77351C15.9701 6.76967 15.9701 6.76581 15.9701 6.76194C15.9701 6.75807 15.9701 6.7542 15.9701 6.75031C15.9701 6.74643 15.9701 6.74253 15.9701 6.73863C15.9701 6.73472 15.9701 6.73081 15.9701 6.72689C15.9701 6.72297 15.9701 6.71903 15.9701 6.71509C15.9701 6.71115 15.9701 6.7072 15.9701 6.70325C15.9701 6.69929 15.9701 6.69532 15.9701 6.69134C15.9701 6.68737 15.9701 6.68338 15.9701 6.67939C15.9701 6.67539 15.9701 6.67139 15.9701 6.66738C15.9701 6.66337 15.9701 6.65935 15.9701 6.65532C15.9701 6.65129 15.9701 6.64725 15.9701 6.6432C15.9701 6.63916 15.9701 6.6351 15.9701 6.63104C15.9701 6.62698 15.9701 6.6229 15.9701 6.61882C15.9701 6.61474 15.9701 6.61065 15.9701 6.60655C15.9701 6.60246 15.9701 6.59835 15.9701 6.59423C15.9701 6.59012 15.9701 6.586 15.9701 6.58187C15.9701 6.57773 15.9701 6.57359 15.9701 6.56945C15.9701 6.5653 15.9701 6.56114 15.9701 6.55698C15.9701 6.55281 15.9701 6.54864 15.9701 6.54446C15.9701 6.54028 15.9701 6.53609 15.9701 6.53189C15.9701 6.52769 15.9701 6.52349 15.9701 6.51927C15.9701 6.51506 15.9701 6.51084 15.9701 6.50661C15.9701 6.50238 15.9701 6.49814 15.9701 6.4939C15.9701 6.48965 15.9701 6.4854 15.9701 6.48114C15.9701 6.47687 15.9701 6.47261 15.9701 6.46833C15.9701 6.46405 15.9701 6.45977 15.9701 6.45547C15.9701 6.45118 15.9701 6.44688 15.9701 6.44257C15.9701 6.43827 15.9701 6.43395 15.9701 6.42963C15.9701 6.4253 15.9701 6.42097 15.9701 6.41663C15.9701 6.4123 15.9701 6.40795 15.9701 6.4036C15.9701 6.39924 15.9701 6.39488 15.9701 6.39051C15.9701 6.38615 15.9701 6.38177 15.9701 6.37739C15.9701 6.373 15.9701 6.36861 15.9701 6.36422C15.9701 6.35982 15.9701 6.35541 15.9701 6.351C15.9701 6.34659 15.9701 6.34217 15.9701 6.33774C15.9701 6.33332 15.9701 6.32888 15.9701 6.32444C15.9701 6.32 15.9701 6.31555 15.9701 6.3111C15.9701 6.30664 15.9701 6.30218 15.9701 6.29771C15.9701 6.29324 15.9701 6.28876 15.9701 6.28428C15.9701 6.2798 15.9701 6.27531 15.9701 6.27081C15.9701 6.26631 15.9701 6.26181 15.9701 6.2573C15.9701 6.25279 15.9701 6.24827 15.9701 6.24375C15.9701 6.23922 15.9701 6.23469 15.9701 6.23015C15.9701 6.22561 15.9701 6.22107 15.9701 6.21652C15.9701 6.21197 15.9701 6.20741 15.9701 6.20285C15.9701 6.19828 15.9701 6.19371 15.9701 6.18913C15.9701 6.18456 15.9701 6.17997 15.9701 6.17538C15.9701 6.17079 15.9701 6.16619 15.9701 6.16159C15.9701 6.15699 15.9701 6.15238 15.9701 6.14776C15.9701 6.14315 15.9701 6.13852 15.9701 6.1339C15.9701 6.12927 15.9701 6.12463 15.9701 6.11999C15.9701 6.11535 15.9701 6.1107 15.9701 6.10605C15.9701 6.1014 15.9701 6.09674 15.9701 6.09207C15.9701 6.08741 15.9701 6.08273 15.9701 6.07806C15.9701 6.07338 15.9701 6.0687 15.9701 6.06401C15.9701 6.05932 15.9701 6.05462 15.9701 6.04992C15.9701 6.04522 15.9701 6.04051 15.9701 6.0358C15.9701 6.03108 15.9701 6.02637 15.9701 6.02164C15.9701 6.01692 15.9701 6.01219 15.9701 6.00745C15.9701 6.00271 15.9701 5.99797 15.9701 5.99322C15.9701 5.98848 15.9701 5.98372 15.9701 5.97896C15.9701 5.9742 15.9701 5.96944 15.9701 5.96467C15.9701 5.9599 15.9701 5.95512 15.9701 5.95034C15.9701 5.94556 15.9701 5.94078 15.9701 5.93598C15.9701 5.93119 15.9701 5.92639 15.9701 5.92159C15.9701 5.91679 15.9701 5.91198 15.9701 5.90717C15.9701 5.90236 15.9701 5.89754 15.9701 5.89271C15.9701 5.88789 15.9701 5.88306 15.9701 5.87823C15.9701 5.87339 15.9701 5.86855 15.9701 5.86371C15.9701 5.85886 15.9701 5.85401 15.9701 5.84916C15.9701 5.84431 15.9701 5.83945 15.9701 5.83458C15.9701 5.82972 15.9701 5.82485 15.9701 5.81997C15.9701 5.8151 15.9701 5.81022 15.9701 5.80533C15.9701 5.80045 15.9701 5.79556 15.9701 5.79067C15.9701 5.78577 15.9701 5.78088 15.9701 5.77597C15.9701 5.77107 15.9701 5.76616 15.9701 5.76125C15.9701 5.75634 15.9701 5.75142 15.9701 5.7465C15.9701 5.74157 15.9701 5.73665 15.9701 5.73172C15.9701 5.72678 15.9701 5.72185 15.9701 5.71691C15.9701 5.71197 15.9701 5.70702 15.9701 5.70207C15.9701 5.69713 15.9701 5.69217 15.9701 5.68721C15.9701 5.68226 15.9701 5.67729 15.9701 5.67233C15.9701 5.66736 15.9701 5.66239 15.9701 5.65742C15.9701 5.65244 15.9701 5.64746 15.9701 5.64248C15.9701 5.63749 15.9701 5.63251 15.9701 5.62751C15.9701 5.62252 15.9701 5.61753 15.9701 5.61253C15.9701 5.60753 15.9701 5.60252 15.9701 5.59751C15.9701 5.59251 15.9701 5.58749 15.9701 5.58248C15.9701 5.57746 15.9701 5.57244 15.9701 5.56742C15.9701 5.5624 15.9701 5.55737 15.9701 5.55234C15.9701 5.5473 15.9701 5.54227 15.9701 5.53723C15.9701 5.53219 15.9701 5.52715 15.9701 5.5221C15.9701 5.51706 15.9701 5.51201 15.9701 5.50695C15.9701 5.5019 15.9701 5.49684 15.9701 5.49178C15.9701 5.48672 15.9701 5.48165 15.9701 5.47659C15.9701 5.47152 15.9701 5.46645 15.9701 5.46137C15.9701 5.4563 15.9701 5.45122 15.9701 5.44614C15.9701 5.44106 15.9701 5.43597 15.9701 5.43088C15.9701 5.42579 15.9701 5.4207 15.9701 5.41561C15.9701 5.41051 15.9701 5.40541 15.9701 5.40031C15.9701 5.39521 15.9701 5.39011 15.9701 5.385C15.9701 5.37989 15.9701 5.37478 15.9701 5.36967C15.9701 5.36455 15.9701 5.35943 15.9701 5.35431C15.9701 5.34919 15.9701 5.34407 15.9701 5.33895C15.9701 5.33382 15.9701 5.32869 15.9701 5.32356C15.9701 5.31843 15.9701 5.31329 15.9701 5.30815C15.9701 5.30302 15.9701 5.29788 15.9701 5.29273C15.9701 5.28759 15.9701 5.28244 15.9701 5.2773C15.9701 5.27215 15.9701 5.26699 15.9701 5.26184C15.9701 5.25669 15.9701 5.25153 15.9701 5.24637C15.9701 5.24121 15.9701 5.23605 15.9701 5.23089C15.9701 5.22572 15.9701 5.22055 15.9701 5.21539C15.9701 5.21022 15.9701 5.20504 15.9701 5.19987C15.9701 5.1947 15.9701 5.18952 15.9701 5.18434C15.9701 5.17916 15.9701 5.17398 15.9701 5.1688C15.9701 5.16361 15.9701 5.15843 15.9701 5.15324C15.9701 5.14805 15.9701 5.14286 15.9701 5.13767C15.9701 5.13248 15.9701 5.12728 15.9701 5.12209C15.9701 5.11689 15.9701 5.11169 15.9701 5.10649C15.9701 5.10129 15.9701 5.09609 15.9701 5.09088C15.9701 5.08568 15.9701 5.08047 15.9701 5.07526C15.9701 5.07005 15.9701 5.06484 15.9701 5.05963C15.9701 5.05442 15.9701 5.0492 15.9701 5.04399C15.9701 5.03877 15.9701 5.03355 15.9701 5.02833C15.9701 5.02311 15.9701 5.01789 15.9701 5.01267C15.9701 5.00745 15.9701 5.00222 15.9701 4.997C15.9701 4.99177 15.9701 4.98654 15.9701 4.98131C15.9701 4.97608 15.9701 4.97085 15.9701 4.96562C15.9701 4.96039 15.9701 4.95516 15.9701 4.94992C15.9701 4.94469 15.9701 4.93945 15.9701 4.93421C15.9701 4.92897 15.9701 4.92373 15.9701 4.91849C15.9701 4.91325 15.9701 4.90801 15.9701 4.90277C15.9701 4.89752 15.9701 4.89228 15.9701 4.88703C15.9701 4.88179 15.9701 4.87654 15.9701 4.87129C15.9701 4.86605 15.9701 4.8608 15.9701 4.85555C15.9701 4.8503 15.9701 4.84505 15.9701 4.8398C15.9701 4.83454 15.9701 4.82929 15.9701 4.82404C15.9701 4.81878 15.9701 4.81353 15.9701 4.80827C15.9701 4.80302 15.9701 4.79776 15.9701 4.7925C15.9701 4.78725 15.9701 4.78199 15.9701 4.77673C15.9701 4.77147 15.9701 4.76621 15.9701 4.76095C15.9701 4.75569 15.9701 4.75043 15.9701 4.74517C15.9701 4.73991 15.9701 4.73464 15.9701 4.72938C15.9701 4.72412 15.9701 4.71885 15.9701 4.71359C15.9701 4.70833 15.9701 4.70306 15.9701 4.6978C15.9701 4.69253 15.9701 4.68727 15.9701 4.682C15.9701 4.67674 15.9701 4.67147 15.9701 4.6662C15.9701 4.66094 15.9701 4.65567 15.9701 4.6504C15.9701 4.64514 15.9701 4.63987 15.9701 4.6346C15.9701 4.62934 15.9701 4.62407 15.9701 4.6188C15.9701 4.61353 15.9701 4.60827 15.9701 4.603C15.9701 4.59773 15.9701 4.59246 15.9701 4.5872C15.9701 4.58193 15.9701 4.57666 15.9701 4.57139C15.9701 4.56612 15.9701 4.56086 15.9701 4.55559C15.9701 4.55032 15.9701 4.54505 15.9701 4.53979C15.9701 4.53452 15.9701 4.52925 15.9701 4.52399C15.9701 4.51872 15.9701 4.51345 15.9701 4.50819C15.9701 4.50292 15.9701 4.49765 15.9701 4.49239C15.9701 4.48712 15.9701 4.48186 15.9701 4.47659C15.9701 4.47133 15.9701 4.46606 15.9701 4.4608C15.9701 4.45554 15.9701 4.45027 15.9701 4.44501C15.9701 4.43975 15.9701 4.43448 15.9701 4.42922C15.9701 4.42396 15.9701 4.4187 15.9701 4.41344C15.9701 4.40818 15.9701 4.40292 15.9701 4.39766C15.9701 4.3924 15.9701 4.38714 15.9701 4.38189C15.9701 4.37663 15.9701 4.37137 15.9701 4.36612C15.9701 4.36086 15.9701 4.3556 15.9701 4.35035C15.9701 4.3451 15.9701 4.33984 15.9701 4.33459C15.9701 4.32934 15.9701 4.32409 15.9701 4.31884C15.9701 4.31359 15.9701 4.30834 15.9701 4.30309C15.9701 4.29784 15.9701 4.2926 15.9701 4.28735C15.9701 4.2821 15.9701 4.27686 15.9701 4.27162C15.9701 4.26637 15.9701 4.26113 15.9701 4.25589C15.9701 4.25065 15.9701 4.24541 15.9701 4.24017C15.9701 4.23493 15.9701 4.2297 15.9701 4.22446C15.9701 4.21923 15.9701 4.21399 15.9701 4.20876C15.9701 4.20353 15.9701 4.19829 15.9701 4.19307C15.9701 4.18784 15.9701 4.18261 15.9701 4.17738C15.9701 4.17215 15.9701 4.16693 15.9701 4.16171C15.9701 4.15648 15.9701 4.15126 15.9701 4.14604C15.9701 4.14082 15.9701 4.1356 15.9701 4.13039C15.9701 4.12517 15.9701 4.11996 15.9701 4.11474C15.9701 4.10953 15.9701 4.10432 15.9701 4.09911C15.9701 4.0939 15.9701 4.0887 15.9701 4.08349C15.9701 4.07829 15.9701 4.07308 15.9701 4.06788C15.9701 4.06268 15.9701 4.05748 15.9701 4.05228C15.9701 4.04709 15.9701 4.04189 15.9701 4.0367C15.9701 4.03151 15.9701 4.02632 15.9701 4.02113C15.9701 4.01594 15.9701 4.01075 15.9701 4.00557C15.9701 4.00038 15.9701 3.9952 15.9701 3.99002C15.9701 3.98484 15.9701 3.97967 15.9701 3.97449C15.9701 3.96932 15.9701 3.96414 15.9701 3.95898C15.9701 3.95381 15.9701 3.94864 15.9701 3.94347C15.9701 3.93831 15.9701 3.93315 15.9701 3.92799C15.9701 3.92283 15.9701 3.91767 15.9701 3.91251C15.9701 3.90736 15.9701 3.90221 15.9701 3.89706C15.9701 3.89191 15.9701 3.88676 15.9701 3.88162C15.9701 3.87648 15.9701 3.87133 15.9701 3.8662C15.9701 3.86106 15.9701 3.85592 15.9701 3.85079C15.9701 3.84566 15.9701 3.84053 15.9701 3.8354C15.9701 3.83027 15.9701 3.82515 15.9701 3.82003C15.9701 3.81491 15.9701 3.80979 15.9701 3.80468C15.9701 3.79956 15.9701 3.79445 15.9701 3.78934C15.9701 3.78423 15.9701 3.77913 15.9701 3.77403C15.9701 3.76892 15.9701 3.76383 15.9701 3.75873C15.9701 3.75363 15.9701 3.74854 15.9701 3.74345C15.9701 3.73836 15.9701 3.73328 15.9701 3.7282C15.9701 3.72311 15.9701 3.71803 15.9701 3.71296C15.9701 3.70788 15.9701 3.70281 15.9701 3.69774C15.9701 3.69267 15.9701 3.68761 15.9701 3.68255C15.9701 3.67748 15.9701 3.67243 15.9701 3.66737C15.9701 3.66232 15.9701 3.65727 15.9701 3.65222C15.9701 3.64717 15.9701 3.64213 15.9701 3.63709C15.9701 3.63205 15.9701 3.62701 15.9701 3.62198C15.9701 3.61695 15.9701 3.61192 15.9701 3.6069C15.9701 3.60187 15.9701 3.59685 15.9701 3.59183C15.9701 3.58682 15.9701 3.5818 15.9701 3.57679C15.9701 3.57179 15.9701 3.56678 15.9701 3.56178C15.9701 3.55678 15.9701 3.55178 15.9701 3.54679C15.9701 3.5418 15.9701 3.53681 15.9701 3.53182C15.9701 3.52684 15.9701 3.52186 15.9701 3.51688C15.9701 3.51191 15.9701 3.50694 15.9701 3.50197C15.9701 3.497 15.9701 3.49204 15.9701 3.48708C15.9701 3.48212 15.9701 3.47717 15.9701 3.47222C15.9701 3.46727 15.9701 3.46232 15.9701 3.45738C15.9701 3.45244 15.9701 3.4475 15.9701 3.44257C15.9701 3.43764 15.9701 3.43271 15.9701 3.42779C15.9701 3.42286 15.9701 3.41795 15.9701 3.41303C15.9701 3.40812 15.9701 3.40321 15.9701 3.3983C15.9701 3.3934 15.9701 3.3885 15.9701 3.38361C15.9701 3.37871 15.9701 3.37382 15.9701 3.36894C15.9701 3.36405 15.9701 3.35917 15.9701 3.35429C15.9701 3.34942 15.9701 3.34455 15.9701 3.33968C15.9701 3.33482 15.9701 3.32996 15.9701 3.3251C15.9701 3.32025 15.9701 3.3154 15.9701 3.31055C15.9701 3.3057 15.9701 3.30086 15.9701 3.29603C15.9701 3.29119 15.9701 3.28636 15.9701 3.28154C15.9701 3.27671 15.9701 3.27189 15.9701 3.26708C15.9701 3.26227 15.9701 3.25746 15.9701 3.25265C15.9701 3.24785 15.9701 3.24305 15.9701 3.23826C15.9701 3.23346 15.9701 3.22868 15.9701 3.22389C15.9701 3.21911 15.9701 3.21434 15.9701 3.20956C15.9701 3.20479 15.9701 3.20003 15.9701 3.19527C15.9701 3.19051 15.9701 3.18575 15.9701 3.181C15.9701 3.17626 15.9701 3.17151 15.9701 3.16678C15.9701 3.16204 15.9701 3.15731 15.9701 3.15258C15.9701 3.14785 15.9701 3.14313 15.9701 3.13842C15.9701 3.1337 15.9701 3.129 15.9701 3.12429C15.9701 3.11959 15.9701 3.11489 15.9701 3.1102C15.9701 3.10551 15.9701 3.10083 15.9701 3.09615C15.9701 3.09147 15.9701 3.0868 15.9701 3.08213C15.9701 3.07746 15.9701 3.0728 15.9701 3.06815C15.9701 3.06349 15.9701 3.05884 15.9701 3.0542C15.9701 3.04956 15.9701 3.04492 15.9701 3.04029C15.9701 3.03566 15.9701 3.03104 15.9701 3.02642C15.9701 3.02181 15.9701 3.0172 15.9701 3.01259C15.9701 3.00799 15.9701 3.00339 15.9701 2.9988C15.9701 2.99421 15.9701 2.98962 15.9701 2.98504C15.9701 2.98046 15.9701 2.97589 15.9701 2.97132C15.9701 2.96676 15.9701 2.9622 15.9701 2.95765C15.9701 2.95309 15.9701 2.94855 15.9701 2.94401C15.9701 2.93947 15.9701 2.93494 15.9701 2.93041C15.9701 2.92589 15.9701 2.92137 15.9701 2.91686C15.9701 2.91234 15.9701 2.90784 15.9701 2.90334C15.9701 2.89884 15.9701 2.89435 15.9701 2.88986C15.9701 2.88538 15.9701 2.8809 15.9701 2.87643C15.9701 2.87196 15.9701 2.8675 15.9701 2.86304C15.9701 2.85858 15.9701 2.85413 15.9701 2.84969C15.9701 2.84525 15.9701 2.84081 15.9701 2.83638C15.9701 2.83196 15.9701 2.82753 15.9701 2.82312C15.9701 2.81871 15.9701 2.8143 15.9701 2.8099C15.9701 2.8055 15.9701 2.80111 15.9701 2.79673C15.9701 2.79234 15.9701 2.78796 15.9701 2.78359C15.9701 2.77922 15.9701 2.77486 15.9701 2.77051C15.9701 2.76615 15.9701 2.7618 15.9701 2.75746C15.9701 2.75312 15.9701 2.74879 15.9701 2.74447C15.9701 2.74014 15.9701 2.73583 15.9701 2.73152C15.9701 2.72721 15.9701 2.7229 15.9701 2.71861C15.9701 2.71432 15.9701 2.71003 15.9701 2.70575C15.9701 2.70147 15.9701 2.6972 15.9701 2.69294C15.9701 2.68868 15.9701 2.68442 15.9701 2.68017C15.9701 2.67593 15.9701 2.67169 15.9701 2.66746C15.9701 2.66323 15.9701 2.659 15.9701 2.65479C15.9701 2.65057 15.9701 2.64636 15.9701 2.64217C15.9701 2.63797 15.9701 2.63378 15.9701 2.62959C15.9701 2.62541 15.9701 2.62123 15.9701 2.61707C15.9701 2.6129 15.9701 2.60874 15.9701 2.60459C15.9701 2.60044 15.9701 2.5963 15.9701 2.59217C15.9701 2.58804 15.9701 2.58391 15.9701 2.57979C15.9701 2.57568 15.9701 2.57157 15.9701 2.56747C15.9701 2.56337 15.9701 2.55928 15.9701 2.5552C15.9701 2.55111 15.9701 2.54704 15.9701 2.54297C15.9701 2.53891 15.9701 2.53485 15.9701 2.5308C15.9701 2.52675 15.9701 2.52271 15.9701 2.51868C15.9701 2.51465 15.9701 2.51063 15.9701 2.50662C15.9701 2.5026 15.9701 2.4986 15.9701 2.4946C15.9701 2.49061 15.9701 2.48662 15.9701 2.48264C15.9701 2.47866 15.9701 2.47469 15.9701 2.47073C15.9701 2.46677 15.9701 2.46282 15.9701 2.45888C15.9701 2.45494 15.9701 2.451 15.9701 2.44708C15.9701 2.44316 15.9701 2.43924 15.9701 2.43534C15.9701 2.43143 15.9701 2.42753 15.9701 2.42364C15.9701 2.41976 15.9701 2.41588 15.9701 2.41201C15.9701 2.40814 15.9701 2.40428 15.9701 2.40043C15.9701 2.39658 15.9701 2.39274 15.9701 2.38891C15.9701 2.38507 15.9701 2.38125 15.9701 2.37744C15.9701 2.37363 15.9701 2.36982 15.9701 2.36603C15.9701 2.36223 15.9701 2.35845 15.9701 2.35467C15.9701 2.3509 15.9701 2.34713 15.9701 2.34338C15.9701 2.33962 15.9701 2.33588 15.9701 2.33214C15.9701 2.3284 15.9701 2.32468 15.9701 2.32096C15.9701 2.31724 15.9701 2.31354 15.9701 2.30984C15.9701 2.30614 15.9701 2.30245 15.9701 2.29878C15.9701 2.2951 15.9701 2.29143 15.9701 2.28777C15.9701 2.28411 15.9701 2.28047 15.9701 2.27683C15.9701 2.27319 15.9701 2.26956 15.9701 2.26594C15.9701 2.26233 15.9701 2.25872 15.9701 2.25512C15.9701 2.25152 15.9701 2.24794 15.9701 2.24436C15.9701 2.24078 15.9701 2.23721 15.9701 2.23366C15.9701 2.2301 15.9701 2.22655 15.9701 2.22302C15.9701 2.21948 15.9701 2.21595 15.9701 2.21244C15.9701 2.20892 15.9701 2.20542 15.9701 2.20192C15.9701 2.19843 15.9701 2.19494 15.9701 2.19147C15.9701 2.188 15.9701 2.18453 15.9701 2.18108C15.9701 2.17763 15.9701 2.17418 15.9701 2.17075C15.9701 2.16732 15.9701 2.1639 15.9701 2.16049C15.9701 2.15708 15.9701 2.15368 15.9701 2.15029C15.9701 2.1469 15.9701 2.14352 15.9701 2.14015C15.9701 2.13679 15.9701 2.13343 15.9701 2.13008C15.9701 2.12674 15.9701 2.1234 15.9701 2.12008C15.9701 2.11676 15.9701 2.11344 15.9701 2.11014C15.9701 2.10684 15.9701 2.10355 15.9701 2.10027C15.9701 2.09699 15.9701 2.09372 15.9701 2.09046C15.9701 2.0872 15.9701 2.08395 15.9701 2.08072C15.9701 2.07748 15.9701 2.07426 15.9701 2.07105C15.9701 2.06783 15.9701 2.06463 15.9701 2.06144C15.9701 2.05825 15.9701 2.05507 15.9701 2.0519C15.9701 2.04873 15.9701 2.04558 15.9701 2.04243C15.9701 2.03929 15.9701 2.03615 15.9701 2.03303C15.9701 2.02991 15.9701 2.0268 15.9701 2.0237C15.9701 2.0206 15.9701 2.01751 15.9701 2.01443C15.9701 2.01136 15.9701 2.00829 15.9701 2.00524C15.9701 2.00218 15.9701 1.99914 15.9701 1.99611C15.9701 1.99308 15.9701 1.99007 15.9701 1.98706C15.9701 1.98405 15.9701 1.98106 15.9701 1.97808C15.9701 1.97509 15.9701 1.97212 15.9701 1.96916C15.9701 1.96621 15.9701 1.96326 15.9701 1.96032C15.9701 1.95739 15.9701 1.95447 15.9701 1.95156C15.9701 1.94864 15.9701 1.94575 15.9701 1.94286C15.9701 1.93997 15.9701 1.9371 15.9701 1.93423C15.9701 1.93137 15.9701 1.92852 15.9701 1.92568C15.9701 1.92284 15.9701 1.92002 15.9701 1.9172C15.9701 1.91439 15.9701 1.91159 15.9701 1.9088C15.9701 1.90601 15.9701 1.90323 15.9701 1.90047C15.9701 1.89771 15.9701 1.89495 15.9701 1.89221C15.9701 1.88947 15.9701 1.88675 15.9701 1.88403C15.9701 1.88132 15.9701 1.87862 15.9701 1.87593C15.9701 1.87324 15.9701 1.87056 15.9701 1.8679C15.9701 1.86523 15.9701 1.86258 15.9701 1.85994C15.9701 1.8573 15.9701 1.85468 15.9701 1.85206C15.9701 1.84945 15.9701 1.84685 15.9701 1.84426C15.9701 1.84167 15.9701 1.8391 15.9701 1.83654C15.9701 1.83397 15.9701 1.83142 15.9701 1.82889C15.9701 1.82635 15.9701 1.82383 15.9701 1.82132C15.9701 1.81881 15.9701 1.81631 15.9701 1.81383C15.9701 1.81134 15.9701 1.80887 15.9701 1.80641C15.9701 1.80395 15.9701 1.80151 15.9701 1.79908C15.9701 1.79665 15.9701 1.79423 15.9701 1.79182C15.9701 1.78942 15.9701 1.78703 15.9701 1.78465C15.9701 1.78227 15.9701 1.7799 15.9701 1.77755C15.9701 1.7752 15.9701 1.77286 15.9701 1.77053C15.9701 1.76821 15.9701 1.7659 15.9701 1.7636C15.9701 1.7613 15.9701 1.75902 15.9701 1.75674C15.9701 1.75447 15.9701 1.75222 15.9701 1.74997C15.9701 1.74773 15.9701 1.7455 15.9701 1.74328C15.9701 1.74106 15.9701 1.73886 15.9701 1.73667C15.9701 1.73448 15.9701 1.73231 15.9701 1.73015C15.9701 1.72798 15.9701 1.72584 15.9701 1.7237C15.9701 1.72157 15.9701 1.71945 15.9701 1.71734C15.9701 1.71524 15.9701 1.71314 15.9701 1.71106C15.9701 1.70899 15.9701 1.70692 15.9701 1.70487C15.9701 1.70282 15.9701 1.70079 15.9701 1.69876C15.9701 1.69674 15.9701 1.69473 15.9701 1.69274C15.9701 1.69075 15.9701 1.68877 15.9701 1.6868C15.9701 1.68483 15.9701 1.68288 15.9701 1.68095C15.9701 1.67901 15.9701 1.67709 15.9701 1.67518C15.9701 1.67327 15.9701 1.67138 15.9701 1.6695C15.9701 1.66762 15.9701 1.66575 15.9701 1.6639C15.9701 1.66205 15.9701 1.66022 15.9701 1.65839C15.9701 1.65657 15.9701 1.65477 15.9701 1.65297C15.9701 1.65118 15.9701 1.6494 15.9701 1.64764C15.9701 1.64588 15.9701 1.64413 15.9701 1.6424C15.9701 1.64066 15.9701 1.63894 15.9701 1.63724C15.9701 1.63553 15.9701 1.63385 15.9701 1.63217C15.9701 1.6305 15.9701 1.62884 15.9701 1.62719C15.9701 1.62555 15.9701 1.62392 15.9701 1.6223C15.9701 1.62069 15.9701 1.61909 15.9701 1.6175C15.9701 1.61592 15.9701 1.61435 15.9701 1.61279C15.9701 1.61124 15.9701 1.6097 15.9701 1.60817C15.9701 1.60665 15.9701 1.60514 15.9701 1.60365C15.9701 1.60215 15.9701 1.60067 15.9701 1.59921C15.9701 1.59775 15.9701 1.5963 15.9701 1.59487C15.9701 1.59343 15.9701 1.59202 15.9701 1.59061C15.9701 1.58921 15.9701 1.58782 15.9701 1.58645C15.9701 1.58508 15.9701 1.58373 15.9701 1.58239C15.9701 1.58104 15.9701 1.57972 15.9701 1.57841C15.9701 1.5771 15.9701 1.57581 15.9701 1.57453C15.9701 1.57325 15.9701 1.57199 15.9701 1.57074C15.9701 1.5695 15.9701 1.56827 15.9701 1.56705C15.9701 1.56583 15.9701 1.56464 15.9701 1.56345C15.9701 1.56227 15.9701 1.5611 15.9701 1.55995C15.9701 1.5588 15.9701 1.55766 15.9701 1.55654C15.9701 1.55542 15.9701 1.55432 15.9701 1.55323C15.9701 1.55214 15.9701 1.55107 15.9701 1.55001C15.9701 1.54896 15.9701 1.54792 15.9701 1.54689C15.9701 1.54587 15.9701 1.54486 15.9701 1.54387C15.9701 1.54288 15.9701 1.54191 15.9701 1.54095C15.9701 1.53999 15.9701 1.53904 15.9701 1.53812C15.9701 1.53719 15.9701 1.53628 15.9701 1.53539C15.9701 1.5345 15.9701 1.53362 15.9701 1.53276C15.9701 1.5319 15.9701 1.53105 15.9701 1.53022C15.9701 1.5294 15.9701 1.52859 15.9701 1.52779C15.9701 1.527 15.9701 1.52622 15.9701 1.52546C15.9701 1.52469 15.9701 1.52395 15.9701 1.52322C15.9701 1.52249 15.9701 1.52178 15.9701 1.52109C15.9701 1.52039 15.9701 1.51971 15.9701 1.51905C15.9701 1.51839 15.9701 1.51775 15.9701 1.51712C15.9701 1.51649 15.9701 1.51588 15.9701 1.51529C15.9701 1.5147 15.9701 1.51412 15.9701 1.51356C15.9701 1.513 15.9701 1.51246 15.9701 1.51193C15.9701 1.51141 15.9701 1.5109 15.9701 1.5104C15.9701 1.50991 15.9701 1.50944 15.9701 1.50898C15.9701 1.50852 15.9701 1.50808 15.9701 1.50766C15.9701 1.50724 15.9701 1.50683 15.9701 1.50645C15.9701 1.50606 15.9701 1.50569 15.9701 1.50533C15.9701 1.50498 15.9701 1.50464 15.9701 1.50432C15.9701 1.50401 15.9701 1.5037 15.9701 1.50342C15.9701 1.50314 15.9701 1.50287 15.9701 1.50262C15.9701 1.50237 15.9701 1.50214 15.9701 1.50193C15.9701 1.50172 15.9701 1.50152 15.9701 1.50134C15.9701 1.50116 15.9701 1.501 15.9701 1.50086C15.9701 1.50072 15.9701 1.50059 15.9701 1.50048C15.9701 1.50038 15.9701 1.50029 15.9701 1.50022C15.9701 1.50014 15.9701 1.50009 15.9701 1.50005C15.9701 1.50002 15.9701 1.5 14.9701 1.5C13.9701 1.5 13.9701 1.50002 13.9701 1.50005C13.9701 1.50009 13.9701 1.50014 13.9701 1.50022C13.9701 1.50029 13.9701 1.50038 13.9701 1.50048C13.9701 1.50059 13.9701 1.50072 13.9701 1.50086C13.9701 1.501 13.9701 1.50116 13.9701 1.50134C13.9701 1.50152 13.9701 1.50172 13.9701 1.50193C13.9701 1.50214 13.9701 1.50237 13.9701 1.50262C13.9701 1.50287 13.9701 1.50314 13.9701 1.50342C13.9701 1.5037 13.9701 1.50401 13.9701 1.50432C13.9701 1.50464 13.9701 1.50498 13.9701 1.50533C13.9701 1.50569 13.9701 1.50606 13.9701 1.50645C13.9701 1.50683 13.9701 1.50724 13.9701 1.50766C13.9701 1.50808 13.9701 1.50852 13.9701 1.50898C13.9701 1.50944 13.9701 1.50991 13.9701 1.5104C13.9701 1.5109 13.9701 1.51141 13.9701 1.51193C13.9701 1.51246 13.9701 1.513 13.9701 1.51356C13.9701 1.51412 13.9701 1.5147 13.9701 1.51529C13.9701 1.51588 13.9701 1.51649 13.9701 1.51712C13.9701 1.51775 13.9701 1.51839 13.9701 1.51905C13.9701 1.51971 13.9701 1.52039 13.9701 1.52109C13.9701 1.52178 13.9701 1.52249 13.9701 1.52322C13.9701 1.52395 13.9701 1.52469 13.9701 1.52546C13.9701 1.52622 13.9701 1.527 13.9701 1.52779C13.9701 1.52859 13.9701 1.5294 13.9701 1.53022C13.9701 1.53105 13.9701 1.5319 13.9701 1.53276C13.9701 1.53362 13.9701 1.5345 13.9701 1.53539C13.9701 1.53628 13.9701 1.53719 13.9701 1.53812C13.9701 1.53904 13.9701 1.53999 13.9701 1.54095C13.9701 1.54191 13.9701 1.54288 13.9701 1.54387C13.9701 1.54486 13.9701 1.54587 13.9701 1.54689C13.9701 1.54792 13.9701 1.54896 13.9701 1.55001C13.9701 1.55107 13.9701 1.55214 13.9701 1.55323C13.9701 1.55432 13.9701 1.55542 13.9701 1.55654C13.9701 1.55766 13.9701 1.5588 13.9701 1.55995C13.9701 1.5611 13.9701 1.56227 13.9701 1.56345C13.9701 1.56464 13.9701 1.56583 13.9701 1.56705C13.9701 1.56827 13.9701 1.5695 13.9701 1.57074C13.9701 1.57199 13.9701 1.57325 13.9701 1.57453C13.9701 1.57581 13.9701 1.5771 13.9701 1.57841C13.9701 1.57972 13.9701 1.58104 13.9701 1.58239C13.9701 1.58373 13.9701 1.58508 13.9701 1.58645C13.9701 1.58782 13.9701 1.58921 13.9701 1.59061C13.9701 1.59202 13.9701 1.59343 13.9701 1.59487C13.9701 1.5963 13.9701 1.59775 13.9701 1.59921C13.9701 1.60067 13.9701 1.60215 13.9701 1.60365C13.9701 1.60514 13.9701 1.60665 13.9701 1.60817C13.9701 1.6097 13.9701 1.61124 13.9701 1.61279C13.9701 1.61435 13.9701 1.61592 13.9701 1.6175C13.9701 1.61909 13.9701 1.62069 13.9701 1.6223C13.9701 1.62392 13.9701 1.62555 13.9701 1.62719C13.9701 1.62884 13.9701 1.6305 13.9701 1.63217C13.9701 1.63385 13.9701 1.63553 13.9701 1.63724C13.9701 1.63894 13.9701 1.64066 13.9701 1.6424C13.9701 1.64413 13.9701 1.64588 13.9701 1.64764C13.9701 1.6494 13.9701 1.65118 13.9701 1.65297C13.9701 1.65477 13.9701 1.65657 13.9701 1.65839C13.9701 1.66022 13.9701 1.66205 13.9701 1.6639C13.9701 1.66575 13.9701 1.66762 13.9701 1.6695C13.9701 1.67138 13.9701 1.67327 13.9701 1.67518C13.9701 1.67709 13.9701 1.67901 13.9701 1.68095C13.9701 1.68288 13.9701 1.68483 13.9701 1.6868C13.9701 1.68877 13.9701 1.69075 13.9701 1.69274C13.9701 1.69473 13.9701 1.69674 13.9701 1.69876C13.9701 1.70079 13.9701 1.70282 13.9701 1.70487C13.9701 1.70692 13.9701 1.70899 13.9701 1.71106C13.9701 1.71314 13.9701 1.71524 13.9701 1.71734C13.9701 1.71945 13.9701 1.72157 13.9701 1.7237C13.9701 1.72584 13.9701 1.72798 13.9701 1.73015C13.9701 1.73231 13.9701 1.73448 13.9701 1.73667C13.9701 1.73886 13.9701 1.74106 13.9701 1.74328C13.9701 1.7455 13.9701 1.74773 13.9701 1.74997C13.9701 1.75222 13.9701 1.75447 13.9701 1.75674C13.9701 1.75902 13.9701 1.7613 13.9701 1.7636C13.9701 1.7659 13.9701 1.76821 13.9701 1.77053C13.9701 1.77286 13.9701 1.7752 13.9701 1.77755C13.9701 1.7799 13.9701 1.78227 13.9701 1.78465C13.9701 1.78703 13.9701 1.78942 13.9701 1.79182C13.9701 1.79423 13.9701 1.79665 13.9701 1.79908C13.9701 1.80151 13.9701 1.80395 13.9701 1.80641C13.9701 1.80887 13.9701 1.81134 13.9701 1.81383C13.9701 1.81631 13.9701 1.81881 13.9701 1.82132C13.9701 1.82383 13.9701 1.82635 13.9701 1.82889C13.9701 1.83142 13.9701 1.83397 13.9701 1.83654C13.9701 1.8391 13.9701 1.84167 13.9701 1.84426C13.9701 1.84685 13.9701 1.84945 13.9701 1.85206C13.9701 1.85468 13.9701 1.8573 13.9701 1.85994C13.9701 1.86258 13.9701 1.86523 13.9701 1.8679C13.9701 1.87056 13.9701 1.87324 13.9701 1.87593C13.9701 1.87862 13.9701 1.88132 13.9701 1.88403C13.9701 1.88675 13.9701 1.88947 13.9701 1.89221C13.9701 1.89495 13.9701 1.89771 13.9701 1.90047C13.9701 1.90323 13.9701 1.90601 13.9701 1.9088C13.9701 1.91159 13.9701 1.91439 13.9701 1.9172C13.9701 1.92002 13.9701 1.92284 13.9701 1.92568C13.9701 1.92852 13.9701 1.93137 13.9701 1.93423C13.9701 1.9371 13.9701 1.93997 13.9701 1.94286C13.9701 1.94575 13.9701 1.94864 13.9701 1.95156C13.9701 1.95447 13.9701 1.95739 13.9701 1.96032C13.9701 1.96326 13.9701 1.96621 13.9701 1.96916C13.9701 1.97212 13.9701 1.97509 13.9701 1.97808C13.9701 1.98106 13.9701 1.98405 13.9701 1.98706C13.9701 1.99007 13.9701 1.99308 13.9701 1.99611C13.9701 1.99914 13.9701 2.00218 13.9701 2.00524C13.9701 2.00829 13.9701 2.01136 13.9701 2.01443C13.9701 2.01751 13.9701 2.0206 13.9701 2.0237C13.9701 2.0268 13.9701 2.02991 13.9701 2.03303C13.9701 2.03615 13.9701 2.03929 13.9701 2.04243C13.9701 2.04558 13.9701 2.04873 13.9701 2.0519C13.9701 2.05507 13.9701 2.05825 13.9701 2.06144C13.9701 2.06463 13.9701 2.06783 13.9701 2.07105C13.9701 2.07426 13.9701 2.07748 13.9701 2.08072C13.9701 2.08395 13.9701 2.0872 13.9701 2.09046C13.9701 2.09372 13.9701 2.09699 13.9701 2.10027C13.9701 2.10355 13.9701 2.10684 13.9701 2.11014C13.9701 2.11344 13.9701 2.11676 13.9701 2.12008C13.9701 2.1234 13.9701 2.12674 13.9701 2.13008C13.9701 2.13343 13.9701 2.13679 13.9701 2.14015C13.9701 2.14352 13.9701 2.1469 13.9701 2.15029C13.9701 2.15368 13.9701 2.15708 13.9701 2.16049C13.9701 2.1639 13.9701 2.16732 13.9701 2.17075C13.9701 2.17418 13.9701 2.17763 13.9701 2.18108C13.9701 2.18453 13.9701 2.188 13.9701 2.19147C13.9701 2.19494 13.9701 2.19843 13.9701 2.20192C13.9701 2.20542 13.9701 2.20892 13.9701 2.21244C13.9701 2.21595 13.9701 2.21948 13.9701 2.22302C13.9701 2.22655 13.9701 2.2301 13.9701 2.23366C13.9701 2.23721 13.9701 2.24078 13.9701 2.24436C13.9701 2.24794 13.9701 2.25152 13.9701 2.25512C13.9701 2.25872 13.9701 2.26233 13.9701 2.26594C13.9701 2.26956 13.9701 2.27319 13.9701 2.27683C13.9701 2.28047 13.9701 2.28411 13.9701 2.28777C13.9701 2.29143 13.9701 2.2951 13.9701 2.29878C13.9701 2.30245 13.9701 2.30614 13.9701 2.30984C13.9701 2.31354 13.9701 2.31724 13.9701 2.32096C13.9701 2.32468 13.9701 2.3284 13.9701 2.33214C13.9701 2.33588 13.9701 2.33962 13.9701 2.34338C13.9701 2.34713 13.9701 2.3509 13.9701 2.35467C13.9701 2.35845 13.9701 2.36223 13.9701 2.36603C13.9701 2.36982 13.9701 2.37363 13.9701 2.37744C13.9701 2.38125 13.9701 2.38507 13.9701 2.38891C13.9701 2.39274 13.9701 2.39658 13.9701 2.40043C13.9701 2.40428 13.9701 2.40814 13.9701 2.41201C13.9701 2.41588 13.9701 2.41976 13.9701 2.42364C13.9701 2.42753 13.9701 2.43143 13.9701 2.43534C13.9701 2.43924 13.9701 2.44316 13.9701 2.44708C13.9701 2.451 13.9701 2.45494 13.9701 2.45888C13.9701 2.46282 13.9701 2.46677 13.9701 2.47073C13.9701 2.47469 13.9701 2.47866 13.9701 2.48264C13.9701 2.48662 13.9701 2.49061 13.9701 2.4946C13.9701 2.4986 13.9701 2.5026 13.9701 2.50662C13.9701 2.51063 13.9701 2.51465 13.9701 2.51868C13.9701 2.52271 13.9701 2.52675 13.9701 2.5308C13.9701 2.53485 13.9701 2.53891 13.9701 2.54297C13.9701 2.54704 13.9701 2.55111 13.9701 2.5552C13.9701 2.55928 13.9701 2.56337 13.9701 2.56747C13.9701 2.57157 13.9701 2.57568 13.9701 2.57979C13.9701 2.58391 13.9701 2.58804 13.9701 2.59217C13.9701 2.5963 13.9701 2.60044 13.9701 2.60459C13.9701 2.60874 13.9701 2.6129 13.9701 2.61707C13.9701 2.62123 13.9701 2.62541 13.9701 2.62959C13.9701 2.63378 13.9701 2.63797 13.9701 2.64217C13.9701 2.64636 13.9701 2.65057 13.9701 2.65479C13.9701 2.659 13.9701 2.66323 13.9701 2.66746C13.9701 2.67169 13.9701 2.67593 13.9701 2.68017C13.9701 2.68442 13.9701 2.68868 13.9701 2.69294C13.9701 2.6972 13.9701 2.70147 13.9701 2.70575C13.9701 2.71003 13.9701 2.71432 13.9701 2.71861C13.9701 2.7229 13.9701 2.72721 13.9701 2.73152C13.9701 2.73583 13.9701 2.74014 13.9701 2.74447C13.9701 2.74879 13.9701 2.75312 13.9701 2.75746C13.9701 2.7618 13.9701 2.76615 13.9701 2.77051C13.9701 2.77486 13.9701 2.77922 13.9701 2.78359C13.9701 2.78796 13.9701 2.79234 13.9701 2.79673C13.9701 2.80111 13.9701 2.8055 13.9701 2.8099C13.9701 2.8143 13.9701 2.81871 13.9701 2.82312C13.9701 2.82753 13.9701 2.83196 13.9701 2.83638C13.9701 2.84081 13.9701 2.84525 13.9701 2.84969C13.9701 2.85413 13.9701 2.85858 13.9701 2.86304C13.9701 2.8675 13.9701 2.87196 13.9701 2.87643C13.9701 2.8809 13.9701 2.88538 13.9701 2.88986C13.9701 2.89435 13.9701 2.89884 13.9701 2.90334C13.9701 2.90784 13.9701 2.91234 13.9701 2.91686C13.9701 2.92137 13.9701 2.92589 13.9701 2.93041C13.9701 2.93494 13.9701 2.93947 13.9701 2.94401C13.9701 2.94855 13.9701 2.95309 13.9701 2.95765C13.9701 2.9622 13.9701 2.96676 13.9701 2.97132C13.9701 2.97589 13.9701 2.98046 13.9701 2.98504C13.9701 2.98962 13.9701 2.99421 13.9701 2.9988C13.9701 3.00339 13.9701 3.00799 13.9701 3.01259C13.9701 3.0172 13.9701 3.02181 13.9701 3.02642C13.9701 3.03104 13.9701 3.03566 13.9701 3.04029C13.9701 3.04492 13.9701 3.04956 13.9701 3.0542C13.9701 3.05884 13.9701 3.06349 13.9701 3.06815C13.9701 3.0728 13.9701 3.07746 13.9701 3.08213C13.9701 3.0868 13.9701 3.09147 13.9701 3.09615C13.9701 3.10083 13.9701 3.10551 13.9701 3.1102C13.9701 3.11489 13.9701 3.11959 13.9701 3.12429C13.9701 3.129 13.9701 3.1337 13.9701 3.13842C13.9701 3.14313 13.9701 3.14785 13.9701 3.15258C13.9701 3.15731 13.9701 3.16204 13.9701 3.16678C13.9701 3.17151 13.9701 3.17626 13.9701 3.181C13.9701 3.18575 13.9701 3.19051 13.9701 3.19527C13.9701 3.20003 13.9701 3.20479 13.9701 3.20956C13.9701 3.21434 13.9701 3.21911 13.9701 3.22389C13.9701 3.22868 13.9701 3.23346 13.9701 3.23826C13.9701 3.24305 13.9701 3.24785 13.9701 3.25265C13.9701 3.25746 13.9701 3.26227 13.9701 3.26708C13.9701 3.27189 13.9701 3.27671 13.9701 3.28154C13.9701 3.28636 13.9701 3.29119 13.9701 3.29603C13.9701 3.30086 13.9701 3.3057 13.9701 3.31055C13.9701 3.3154 13.9701 3.32025 13.9701 3.3251C13.9701 3.32996 13.9701 3.33482 13.9701 3.33968C13.9701 3.34455 13.9701 3.34942 13.9701 3.35429C13.9701 3.35917 13.9701 3.36405 13.9701 3.36894C13.9701 3.37382 13.9701 3.37871 13.9701 3.38361C13.9701 3.3885 13.9701 3.3934 13.9701 3.3983C13.9701 3.40321 13.9701 3.40812 13.9701 3.41303C13.9701 3.41795 13.9701 3.42286 13.9701 3.42779C13.9701 3.43271 13.9701 3.43764 13.9701 3.44257C13.9701 3.4475 13.9701 3.45244 13.9701 3.45738C13.9701 3.46232 13.9701 3.46727 13.9701 3.47222C13.9701 3.47717 13.9701 3.48212 13.9701 3.48708C13.9701 3.49204 13.9701 3.497 13.9701 3.50197C13.9701 3.50694 13.9701 3.51191 13.9701 3.51688C13.9701 3.52186 13.9701 3.52684 13.9701 3.53182C13.9701 3.53681 13.9701 3.5418 13.9701 3.54679C13.9701 3.55178 13.9701 3.55678 13.9701 3.56178C13.9701 3.56678 13.9701 3.57179 13.9701 3.57679C13.9701 3.5818 13.9701 3.58682 13.9701 3.59183C13.9701 3.59685 13.9701 3.60187 13.9701 3.6069C13.9701 3.61192 13.9701 3.61695 13.9701 3.62198C13.9701 3.62701 13.9701 3.63205 13.9701 3.63709C13.9701 3.64213 13.9701 3.64717 13.9701 3.65222C13.9701 3.65727 13.9701 3.66232 13.9701 3.66737C13.9701 3.67243 13.9701 3.67748 13.9701 3.68255C13.9701 3.68761 13.9701 3.69267 13.9701 3.69774C13.9701 3.70281 13.9701 3.70788 13.9701 3.71296C13.9701 3.71803 13.9701 3.72311 13.9701 3.7282C13.9701 3.73328 13.9701 3.73836 13.9701 3.74345C13.9701 3.74854 13.9701 3.75363 13.9701 3.75873C13.9701 3.76383 13.9701 3.76892 13.9701 3.77403C13.9701 3.77913 13.9701 3.78423 13.9701 3.78934C13.9701 3.79445 13.9701 3.79956 13.9701 3.80468C13.9701 3.80979 13.9701 3.81491 13.9701 3.82003C13.9701 3.82515 13.9701 3.83027 13.9701 3.8354C13.9701 3.84053 13.9701 3.84566 13.9701 3.85079C13.9701 3.85592 13.9701 3.86106 13.9701 3.8662C13.9701 3.87133 13.9701 3.87648 13.9701 3.88162C13.9701 3.88676 13.9701 3.89191 13.9701 3.89706C13.9701 3.90221 13.9701 3.90736 13.9701 3.91251C13.9701 3.91767 13.9701 3.92283 13.9701 3.92799C13.9701 3.93315 13.9701 3.93831 13.9701 3.94347C13.9701 3.94864 13.9701 3.95381 13.9701 3.95898C13.9701 3.96414 13.9701 3.96932 13.9701 3.97449C13.9701 3.97967 13.9701 3.98484 13.9701 3.99002C13.9701 3.9952 13.9701 4.00038 13.9701 4.00557C13.9701 4.01075 13.9701 4.01594 13.9701 4.02113C13.9701 4.02632 13.9701 4.03151 13.9701 4.0367C13.9701 4.04189 13.9701 4.04709 13.9701 4.05228C13.9701 4.05748 13.9701 4.06268 13.9701 4.06788C13.9701 4.07308 13.9701 4.07829 13.9701 4.08349C13.9701 4.0887 13.9701 4.0939 13.9701 4.09911C13.9701 4.10432 13.9701 4.10953 13.9701 4.11474C13.9701 4.11996 13.9701 4.12517 13.9701 4.13039C13.9701 4.1356 13.9701 4.14082 13.9701 4.14604C13.9701 4.15126 13.9701 4.15648 13.9701 4.16171C13.9701 4.16693 13.9701 4.17215 13.9701 4.17738C13.9701 4.18261 13.9701 4.18784 13.9701 4.19307C13.9701 4.19829 13.9701 4.20353 13.9701 4.20876C13.9701 4.21399 13.9701 4.21923 13.9701 4.22446C13.9701 4.2297 13.9701 4.23493 13.9701 4.24017C13.9701 4.24541 13.9701 4.25065 13.9701 4.25589C13.9701 4.26113 13.9701 4.26637 13.9701 4.27162C13.9701 4.27686 13.9701 4.2821 13.9701 4.28735C13.9701 4.2926 13.9701 4.29784 13.9701 4.30309C13.9701 4.30834 13.9701 4.31359 13.9701 4.31884C13.9701 4.32409 13.9701 4.32934 13.9701 4.33459C13.9701 4.33984 13.9701 4.3451 13.9701 4.35035C13.9701 4.3556 13.9701 4.36086 13.9701 4.36612C13.9701 4.37137 13.9701 4.37663 13.9701 4.38189C13.9701 4.38714 13.9701 4.3924 13.9701 4.39766C13.9701 4.40292 13.9701 4.40818 13.9701 4.41344C13.9701 4.4187 13.9701 4.42396 13.9701 4.42922C13.9701 4.43448 13.9701 4.43975 13.9701 4.44501C13.9701 4.45027 13.9701 4.45554 13.9701 4.4608C13.9701 4.46606 13.9701 4.47133 13.9701 4.47659C13.9701 4.48186 13.9701 4.48712 13.9701 4.49239C13.9701 4.49765 13.9701 4.50292 13.9701 4.50819C13.9701 4.51345 13.9701 4.51872 13.9701 4.52399C13.9701 4.52925 13.9701 4.53452 13.9701 4.53979C13.9701 4.54505 13.9701 4.55032 13.9701 4.55559C13.9701 4.56086 13.9701 4.56612 13.9701 4.57139C13.9701 4.57666 13.9701 4.58193 13.9701 4.5872C13.9701 4.59246 13.9701 4.59773 13.9701 4.603C13.9701 4.60827 13.9701 4.61353 13.9701 4.6188C13.9701 4.62407 13.9701 4.62934 13.9701 4.6346C13.9701 4.63987 13.9701 4.64514 13.9701 4.6504C13.9701 4.65567 13.9701 4.66094 13.9701 4.6662C13.9701 4.67147 13.9701 4.67674 13.9701 4.682C13.9701 4.68727 13.9701 4.69253 13.9701 4.6978C13.9701 4.70306 13.9701 4.70833 13.9701 4.71359C13.9701 4.71885 13.9701 4.72412 13.9701 4.72938C13.9701 4.73464 13.9701 4.73991 13.9701 4.74517C13.9701 4.75043 13.9701 4.75569 13.9701 4.76095C13.9701 4.76621 13.9701 4.77147 13.9701 4.77673C13.9701 4.78199 13.9701 4.78725 13.9701 4.7925C13.9701 4.79776 13.9701 4.80302 13.9701 4.80827C13.9701 4.81353 13.9701 4.81878 13.9701 4.82404C13.9701 4.82929 13.9701 4.83454 13.9701 4.8398C13.9701 4.84505 13.9701 4.8503 13.9701 4.85555C13.9701 4.8608 13.9701 4.86605 13.9701 4.87129C13.9701 4.87654 13.9701 4.88179 13.9701 4.88703C13.9701 4.89228 13.9701 4.89752 13.9701 4.90277C13.9701 4.90801 13.9701 4.91325 13.9701 4.91849C13.9701 4.92373 13.9701 4.92897 13.9701 4.93421C13.9701 4.93945 13.9701 4.94469 13.9701 4.94992C13.9701 4.95516 13.9701 4.96039 13.9701 4.96562C13.9701 4.97085 13.9701 4.97608 13.9701 4.98131C13.9701 4.98654 13.9701 4.99177 13.9701 4.997C13.9701 5.00222 13.9701 5.00745 13.9701 5.01267C13.9701 5.01789 13.9701 5.02311 13.9701 5.02833C13.9701 5.03355 13.9701 5.03877 13.9701 5.04399C13.9701 5.0492 13.9701 5.05442 13.9701 5.05963C13.9701 5.06484 13.9701 5.07005 13.9701 5.07526C13.9701 5.08047 13.9701 5.08568 13.9701 5.09088C13.9701 5.09609 13.9701 5.10129 13.9701 5.10649C13.9701 5.11169 13.9701 5.11689 13.9701 5.12209C13.9701 5.12728 13.9701 5.13248 13.9701 5.13767C13.9701 5.14286 13.9701 5.14805 13.9701 5.15324C13.9701 5.15843 13.9701 5.16361 13.9701 5.1688C13.9701 5.17398 13.9701 5.17916 13.9701 5.18434C13.9701 5.18952 13.9701 5.1947 13.9701 5.19987C13.9701 5.20504 13.9701 5.21022 13.9701 5.21539C13.9701 5.22055 13.9701 5.22572 13.9701 5.23089C13.9701 5.23605 13.9701 5.24121 13.9701 5.24637C13.9701 5.25153 13.9701 5.25669 13.9701 5.26184C13.9701 5.26699 13.9701 5.27215 13.9701 5.2773C13.9701 5.28244 13.9701 5.28759 13.9701 5.29273C13.9701 5.29788 13.9701 5.30302 13.9701 5.30815C13.9701 5.31329 13.9701 5.31843 13.9701 5.32356C13.9701 5.32869 13.9701 5.33382 13.9701 5.33895C13.9701 5.34407 13.9701 5.34919 13.9701 5.35431C13.9701 5.35943 13.9701 5.36455 13.9701 5.36967C13.9701 5.37478 13.9701 5.37989 13.9701 5.385C13.9701 5.39011 13.9701 5.39521 13.9701 5.40031C13.9701 5.40541 13.9701 5.41051 13.9701 5.41561C13.9701 5.4207 13.9701 5.42579 13.9701 5.43088C13.9701 5.43597 13.9701 5.44106 13.9701 5.44614C13.9701 5.45122 13.9701 5.4563 13.9701 5.46137C13.9701 5.46645 13.9701 5.47152 13.9701 5.47659C13.9701 5.48165 13.9701 5.48672 13.9701 5.49178C13.9701 5.49684 13.9701 5.5019 13.9701 5.50695C13.9701 5.51201 13.9701 5.51706 13.9701 5.5221C13.9701 5.52715 13.9701 5.53219 13.9701 5.53723C13.9701 5.54227 13.9701 5.5473 13.9701 5.55234C13.9701 5.55737 13.9701 5.5624 13.9701 5.56742C13.9701 5.57244 13.9701 5.57746 13.9701 5.58248C13.9701 5.58749 13.9701 5.59251 13.9701 5.59751C13.9701 5.60252 13.9701 5.60753 13.9701 5.61253C13.9701 5.61753 13.9701 5.62252 13.9701 5.62751C13.9701 5.63251 13.9701 5.63749 13.9701 5.64248C13.9701 5.64746 13.9701 5.65244 13.9701 5.65742C13.9701 5.66239 13.9701 5.66736 13.9701 5.67233C13.9701 5.67729 13.9701 5.68226 13.9701 5.68721C13.9701 5.69217 13.9701 5.69713 13.9701 5.70207C13.9701 5.70702 13.9701 5.71197 13.9701 5.71691C13.9701 5.72185 13.9701 5.72678 13.9701 5.73172C13.9701 5.73665 13.9701 5.74157 13.9701 5.7465C13.9701 5.75142 13.9701 5.75634 13.9701 5.76125C13.9701 5.76616 13.9701 5.77107 13.9701 5.77597C13.9701 5.78088 13.9701 5.78577 13.9701 5.79067C13.9701 5.79556 13.9701 5.80045 13.9701 5.80533C13.9701 5.81022 13.9701 5.8151 13.9701 5.81997C13.9701 5.82485 13.9701 5.82972 13.9701 5.83458C13.9701 5.83945 13.9701 5.84431 13.9701 5.84916C13.9701 5.85401 13.9701 5.85886 13.9701 5.86371C13.9701 5.86855 13.9701 5.87339 13.9701 5.87823C13.9701 5.88306 13.9701 5.88789 13.9701 5.89271C13.9701 5.89754 13.9701 5.90236 13.9701 5.90717C13.9701 5.91198 13.9701 5.91679 13.9701 5.92159C13.9701 5.92639 13.9701 5.93119 13.9701 5.93598C13.9701 5.94078 13.9701 5.94556 13.9701 5.95034C13.9701 5.95512 13.9701 5.9599 13.9701 5.96467C13.9701 5.96944 13.9701 5.9742 13.9701 5.97896C13.9701 5.98372 13.9701 5.98848 13.9701 5.99322C13.9701 5.99797 13.9701 6.00271 13.9701 6.00745C13.9701 6.01219 13.9701 6.01692 13.9701 6.02164C13.9701 6.02637 13.9701 6.03108 13.9701 6.0358C13.9701 6.04051 13.9701 6.04522 13.9701 6.04992C13.9701 6.05462 13.9701 6.05932 13.9701 6.06401C13.9701 6.0687 13.9701 6.07338 13.9701 6.07806C13.9701 6.08273 13.9701 6.08741 13.9701 6.09207C13.9701 6.09674 13.9701 6.1014 13.9701 6.10605C13.9701 6.1107 13.9701 6.11535 13.9701 6.11999C13.9701 6.12463 13.9701 6.12927 13.9701 6.1339C13.9701 6.13852 13.9701 6.14315 13.9701 6.14776C13.9701 6.15238 13.9701 6.15699 13.9701 6.16159C13.9701 6.16619 13.9701 6.17079 13.9701 6.17538C13.9701 6.17997 13.9701 6.18456 13.9701 6.18913C13.9701 6.19371 13.9701 6.19828 13.9701 6.20285C13.9701 6.20741 13.9701 6.21197 13.9701 6.21652C13.9701 6.22107 13.9701 6.22561 13.9701 6.23015C13.9701 6.23469 13.9701 6.23922 13.9701 6.24375C13.9701 6.24827 13.9701 6.25279 13.9701 6.2573C13.9701 6.26181 13.9701 6.26631 13.9701 6.27081C13.9701 6.27531 13.9701 6.2798 13.9701 6.28428C13.9701 6.28876 13.9701 6.29324 13.9701 6.29771C13.9701 6.30218 13.9701 6.30664 13.9701 6.3111C13.9701 6.31555 13.9701 6.32 13.9701 6.32444C13.9701 6.32888 13.9701 6.33332 13.9701 6.33774C13.9701 6.34217 13.9701 6.34659 13.9701 6.351C13.9701 6.35541 13.9701 6.35982 13.9701 6.36422C13.9701 6.36861 13.9701 6.373 13.9701 6.37739C13.9701 6.38177 13.9701 6.38615 13.9701 6.39051C13.9701 6.39488 13.9701 6.39924 13.9701 6.4036C13.9701 6.40795 13.9701 6.4123 13.9701 6.41663C13.9701 6.42097 13.9701 6.4253 13.9701 6.42963C13.9701 6.43395 13.9701 6.43827 13.9701 6.44257C13.9701 6.44688 13.9701 6.45118 13.9701 6.45547C13.9701 6.45977 13.9701 6.46405 13.9701 6.46833C13.9701 6.47261 13.9701 6.47687 13.9701 6.48114C13.9701 6.4854 13.9701 6.48965 13.9701 6.4939C13.9701 6.49814 13.9701 6.50238 13.9701 6.50661C13.9701 6.51084 13.9701 6.51506 13.9701 6.51927C13.9701 6.52349 13.9701 6.52769 13.9701 6.53189C13.9701 6.53609 13.9701 6.54028 13.9701 6.54446C13.9701 6.54864 13.9701 6.55281 13.9701 6.55698C13.9701 6.56114 13.9701 6.5653 13.9701 6.56945C13.9701 6.57359 13.9701 6.57773 13.9701 6.58187C13.9701 6.586 13.9701 6.59012 13.9701 6.59423C13.9701 6.59835 13.9701 6.60246 13.9701 6.60655C13.9701 6.61065 13.9701 6.61474 13.9701 6.61882C13.9701 6.6229 13.9701 6.62698 13.9701 6.63104C13.9701 6.6351 13.9701 6.63916 13.9701 6.6432C13.9701 6.64725 13.9701 6.65129 13.9701 6.65532C13.9701 6.65935 13.9701 6.66337 13.9701 6.66738C13.9701 6.67139 13.9701 6.67539 13.9701 6.67939C13.9701 6.68338 13.9701 6.68737 13.9701 6.69134C13.9701 6.69532 13.9701 6.69929 13.9701 6.70325C13.9701 6.7072 13.9701 6.71115 13.9701 6.71509C13.9701 6.71903 13.9701 6.72297 13.9701 6.72689C13.9701 6.73081 13.9701 6.73472 13.9701 6.73863C13.9701 6.74253 13.9701 6.74643 13.9701 6.75031C13.9701 6.7542 13.9701 6.75807 13.9701 6.76194C13.9701 6.76581 13.9701 6.76967 13.9701 6.77351C13.9701 6.77736 13.9701 6.7812 13.9701 6.78503C13.9701 6.78886 13.9701 6.79268 13.9701 6.79649C13.9701 6.80031 13.9701 6.80411 13.9701 6.8079C13.9701 6.81169 13.9701 6.81547 13.9701 6.81925C13.9701 6.82302 13.9701 6.82678 13.9701 6.83054C13.9701 6.83429 13.9701 6.83803 13.9701 6.84177C13.9701 6.8455 13.9701 6.84923 13.9701 6.85294C13.9701 6.85666 13.9701 6.86036 13.9701 6.86406C13.9701 6.86775 13.9701 6.87144 13.9701 6.87511C13.9701 6.87879 13.9701 6.88246 13.9701 6.88611C13.9701 6.88977 13.9701 6.89341 13.9701 6.89705C13.9701 6.90069 13.9701 6.90431 13.9701 6.90793C13.9701 6.91154 13.9701 6.91515 13.9701 6.91874C13.9701 6.92234 13.9701 6.92592 13.9701 6.9295C13.9701 6.93308 13.9701 6.93664 13.9701 6.9402C13.9701 6.94375 13.9701 6.94729 13.9701 6.95083C13.9701 6.95436 13.9701 6.95789 13.9701 6.9614C13.9701 6.96491 13.9701 6.96842 13.9701 6.97191C13.9701 6.9754 13.9701 6.97888 13.9701 6.98236C13.9701 6.98583 13.9701 6.98929 13.9701 6.99274C13.9701 6.99619 13.9701 6.99963 13.9701 7.00306C13.9701 7.00649 13.9701 7.00991 13.9701 7.01332C13.9701 7.01673 13.9701 7.02012 13.9701 7.02351C13.9701 7.0269 13.9701 7.03027 13.9701 7.03364C13.9701 7.037 13.9701 7.04036 13.9701 7.0437C13.9701 7.04704 13.9701 7.05038 13.9701 7.0537C13.9701 7.05702 13.9701 7.06033 13.9701 7.06363C13.9701 7.06693 13.9701 7.07022 13.9701 7.0735C13.9701 7.07678 13.9701 7.08004 13.9701 7.0833C13.9701 7.08655 13.9701 7.0898 13.9701 7.09303C13.9701 7.09627 13.9701 7.09949 13.9701 7.1027C13.9701 7.10591 13.9701 7.10911 13.9701 7.1123C13.9701 7.11549 13.9701 7.11866 13.9701 7.12183C13.9701 7.12499 13.9701 7.12815 13.9701 7.13129C13.9701 7.13444 13.9701 7.13757 13.9701 7.14069C13.9701 7.14381 13.9701 7.14692 13.9701 7.15001C13.9701 7.15311 13.9701 7.15619 13.9701 7.15927C13.9701 7.16234 13.9701 7.16541 13.9701 7.16846C13.9701 7.17151 13.9701 7.17455 13.9701 7.17757C13.9701 7.1806 13.9701 7.18362 13.9701 7.18662C13.9701 7.18962 13.9701 7.19261 13.9701 7.19559C13.9701 7.19857 13.9701 7.20154 13.9701 7.2045C13.9701 7.20746 13.9701 7.2104 13.9701 7.21333C13.9701 7.21626 13.9701 7.21919 13.9701 7.22209C13.9701 7.225 13.9701 7.2279 13.9701 7.23078C13.9701 7.23367 13.9701 7.23654 13.9701 7.2394C13.9701 7.24226 13.9701 7.24511 13.9701 7.24794C13.9701 7.25078 13.9701 7.2536 13.9701 7.25641C13.9701 7.25922 13.9701 7.26202 13.9701 7.26481C13.9701 7.2676 13.9701 7.27037 13.9701 7.27313C13.9701 7.27589 13.9701 7.27864 13.9701 7.28138C13.9701 7.28412 13.9701 7.28684 13.9701 7.28955C13.9701 7.29227 13.9701 7.29497 13.9701 7.29765C13.9701 7.30034 13.9701 7.30301 13.9701 7.30568C13.9701 7.30834 13.9701 7.31099 13.9701 7.31362C13.9701 7.31626 13.9701 7.31888 13.9701 7.32149C13.9701 7.3241 13.9701 7.3267 13.9701 7.32929C13.9701 7.33187 13.9701 7.33444 13.9701 7.337C13.9701 7.33956 13.9701 7.34211 13.9701 7.34464C13.9701 7.34718 13.9701 7.3497 13.9701 7.3522C13.9701 7.35471 13.9701 7.35721 13.9701 7.35969C13.9701 7.36217 13.9701 7.36464 13.9701 7.36709C13.9701 7.36955 13.9701 7.37199 13.9701 7.37442C13.9701 7.37685 13.9701 7.37926 13.9701 7.38167C13.9701 7.38407 13.9701 7.38646 13.9701 7.38884C13.9701 7.39121 13.9701 7.39357 13.9701 7.39592C13.9701 7.39827 13.9701 7.40061 13.9701 7.40293H15.9701ZM14.263 8.11004C14.8241 8.67112 15.2175 9.05841 15.8394 9.4827L16.9666 7.83062C16.5138 7.52169 16.2353 7.25385 15.6772 6.69582L14.263 8.11004ZM16.1781 9.63105C18.4969 10.1661 19.2334 10.35 20.8643 10.6749L21.2551 8.71348C19.6621 8.39613 18.9658 8.2218 16.6278 7.68227L16.1781 9.63105ZM20.8442 10.6707C22.5343 11.0437 24.0643 11.4885 25.7798 11.0596L25.2948 9.11936C24.1446 9.40689 23.1672 9.13528 21.2752 8.71771L20.8442 10.6707ZM25.9087 11.018C26.5935 10.7441 27.135 10.2101 27.5444 9.68508C27.9642 9.14667 28.3135 8.52859 28.5888 7.96505C28.8662 7.3972 29.0816 6.85767 29.2273 6.46191C29.3005 6.26318 29.3569 6.0986 29.3955 5.9822C29.4147 5.92395 29.4296 5.87763 29.4399 5.84497C29.4451 5.82864 29.4491 5.81571 29.452 5.8064C29.4534 5.80175 29.4546 5.798 29.4554 5.79519C29.4559 5.79378 29.4562 5.7926 29.4565 5.79166C29.4567 5.79119 29.4568 5.79078 29.4569 5.79043C29.4569 5.79025 29.457 5.79004 29.457 5.78995C29.4571 5.78974 29.4572 5.78955 28.5 5.5C27.5428 5.21045 27.5429 5.21029 27.5429 5.21014C27.5429 5.21011 27.543 5.20998 27.543 5.20992C27.543 5.20981 27.543 5.20975 27.543 5.20975C27.543 5.20975 27.543 5.20998 27.5428 5.21043C27.5426 5.21135 27.542 5.21316 27.5412 5.21586C27.5395 5.22126 27.5367 5.23017 27.5329 5.24238C27.5252 5.2668 27.5131 5.30439 27.4969 5.35344C27.4643 5.45165 27.4152 5.59525 27.3505 5.77081C27.2206 6.12365 27.0312 6.59717 26.7918 7.08713C26.5503 7.58142 26.2708 8.06593 25.9672 8.45522C25.6532 8.85787 25.3766 9.07673 25.1659 9.16102L25.9087 11.018Z" fill="#FFB703"/>
<circle cx="14.9701" cy="25.3133" r="0.716418" fill="#FFB703"/>
<path d="M1.97285 3.76857C1.84504 3.23128 1.30586 2.89933 0.768571 3.02715C0.23128 3.15496 -0.100666 3.69414 0.0271481 4.23143L1.97285 3.76857ZM1.71642 8.65672L0.716733 8.68183L1.71642 8.65672ZM2.07463 12.597L1.10026 12.822L1.10026 12.822L2.07463 12.597ZM2.97015 15.8209L3.91846 15.5036L3.91846 15.5036L2.97015 15.8209ZM3.32836 19.5821L2.32901 19.5459L3.32836 19.5821ZM2.43284 24.2388L1.43456 24.2975L2.43284 24.2388ZM3.50746 28L2.8045 28.7112C2.99169 28.8962 3.24427 29 3.50746 29V28ZM26.4328 28V29C26.8351 29 27.1983 28.7589 27.3544 28.3882L26.4328 28ZM27.7612 20.5933C27.6272 20.0575 27.0843 19.7317 26.5485 19.8657C26.0127 19.9996 25.687 20.5426 25.8209 21.0784L27.7612 20.5933ZM1 4C0.0271481 4.23143 0.0271358 4.23138 0.027126 4.23134C0.0271262 4.23134 0.0271189 4.23131 0.0271192 4.23131C0.0271196 4.23131 0.0271302 4.23135 0.0271508 4.23144C0.0271921 4.23161 0.0272734 4.23196 0.0273943 4.23247C0.027636 4.23349 0.0280357 4.23518 0.0285884 4.23752C0.0296939 4.24221 0.0314114 4.24952 0.0337015 4.25934C0.0382822 4.27897 0.0451513 4.3086 0.0539949 4.34732C0.0716866 4.42478 0.0972525 4.53847 0.128188 4.68102C0.190127 4.96644 0.273235 5.36595 0.357658 5.821C0.529249 6.7459 0.695719 7.84538 0.716733 8.68183L2.7161 8.6316C2.69091 7.62868 2.49917 6.3998 2.3241 5.45618C2.2352 4.97697 2.14787 4.55719 2.0827 4.25688C2.05008 4.10657 2.02292 3.98578 2.00378 3.90198C1.99421 3.86007 1.98663 3.82738 1.98137 3.80484C1.97874 3.79357 1.97669 3.78484 1.97526 3.77875C1.97454 3.77571 1.97398 3.77333 1.97358 3.77163C1.97338 3.77078 1.97321 3.7701 1.97309 3.76959C1.97303 3.76933 1.97298 3.76912 1.97294 3.76895C1.97292 3.76887 1.9729 3.76877 1.97289 3.76873C1.97287 3.76864 1.97285 3.76857 1 4ZM0.716733 8.68183C0.756389 10.2603 0.709171 11.1282 1.10026 12.822L3.04899 12.372C2.71351 10.9191 2.75756 10.2817 2.7161 8.6316L0.716733 8.68183ZM1.10026 12.822C1.40801 14.1549 1.58212 14.8242 2.02184 16.1382L3.91846 15.5036C3.50429 14.2659 3.3466 13.661 3.04899 12.372L1.10026 12.822ZM2.02184 16.1382C2.42808 17.3522 2.38307 18.0532 2.32901 19.5459L4.3277 19.6183C4.38104 18.1454 4.45391 17.1037 3.91846 15.5036L2.02184 16.1382ZM2.32901 19.5459C2.30094 20.3212 2.10081 20.8807 1.86402 21.5976C1.62586 22.3187 1.36771 23.1611 1.43456 24.2975L3.43111 24.1801C3.38737 23.4364 3.5429 22.8916 3.76312 22.2248C3.9847 21.5539 4.28762 20.7251 4.3277 19.6183L2.32901 19.5459ZM1.43456 24.2975C1.52469 25.8297 1.81504 26.8846 2.11314 27.5854C2.26203 27.9355 2.41167 28.1944 2.53645 28.3778C2.59874 28.4693 2.65451 28.5416 2.70041 28.5966C2.72335 28.6241 2.74378 28.6472 2.76128 28.6663C2.77003 28.6758 2.77805 28.6843 2.78527 28.6917C2.78888 28.6955 2.79229 28.699 2.7955 28.7022C2.7971 28.7038 2.79866 28.7054 2.80016 28.7069C2.80091 28.7077 2.80165 28.7084 2.80237 28.7091C2.80273 28.7095 2.80327 28.71 2.80345 28.7102C2.80398 28.7107 2.8045 28.7112 3.50746 28C4.21042 27.2888 4.21094 27.2893 4.21146 27.2898C4.21163 27.29 4.21214 27.2905 4.21247 27.2908C4.21314 27.2915 4.2138 27.2921 4.21444 27.2928C4.21572 27.294 4.21694 27.2953 4.21811 27.2965C4.22045 27.2988 4.22256 27.301 4.22445 27.3029C4.22823 27.3069 4.23114 27.31 4.23321 27.3122C4.23736 27.3167 4.23816 27.3178 4.23599 27.3152C4.23169 27.3101 4.21535 27.29 4.19007 27.2528C4.13969 27.1788 4.05228 27.0347 3.95358 26.8026C3.75652 26.3393 3.50955 25.5136 3.43111 24.1801L1.43456 24.2975ZM3.50746 29H26.4328V27H3.50746V29ZM26.4328 28C27.3544 28.3882 27.3545 28.3881 27.3545 28.388C27.3545 28.3879 27.3546 28.3878 27.3546 28.3877C27.3547 28.3875 27.3548 28.3873 27.3549 28.3871C27.3551 28.3866 27.3553 28.386 27.3556 28.3853C27.3562 28.3839 27.357 28.382 27.358 28.3796C27.3599 28.375 27.3626 28.3685 27.366 28.3603C27.3728 28.3439 27.3824 28.3205 27.3944 28.2909C27.4184 28.2316 27.4521 28.1468 27.4926 28.0416C27.5735 27.8316 27.6822 27.5373 27.7943 27.1986C28.0113 26.5429 28.2689 25.6393 28.3258 24.8478L26.3309 24.7044C26.2927 25.2366 26.1025 25.945 25.8956 26.5702C25.7957 26.8721 25.6983 27.1356 25.6261 27.3232C25.5901 27.4168 25.5606 27.4909 25.5404 27.5407C25.5304 27.5656 25.5226 27.5843 25.5177 27.5964C25.5152 27.6024 25.5134 27.6068 25.5123 27.6094C25.5117 27.6107 25.5114 27.6115 25.5112 27.612C25.5111 27.6122 25.5111 27.6123 25.5111 27.6122C25.5111 27.6122 25.5111 27.6122 25.5111 27.6121C25.5111 27.6121 25.5112 27.612 25.5112 27.612C25.5112 27.6119 25.5112 27.6118 26.4328 28ZM28.3258 24.8478C28.4338 23.3447 28.1169 22.0162 27.7612 20.5933L25.8209 21.0784C26.1816 22.5212 26.4132 23.5602 26.3309 24.7044L28.3258 24.8478Z" fill="#FB8500"/>
<path d="M25.791 16.7164C25.791 17.2687 26.2387 17.7164 26.791 17.7164C27.3433 17.7164 27.791 17.2687 27.791 16.7164H25.791ZM27.8656 12.597L28.8509 12.7681L27.8656 12.597ZM28.2239 8.83582L29.2113 8.99381C29.2197 8.94156 29.2239 8.88873 29.2239 8.83582H28.2239ZM29.9104 4.24254C30.0444 3.70674 29.7186 3.16381 29.1828 3.02986C28.647 2.89591 28.1041 3.22167 27.9701 3.75746L29.9104 4.24254ZM27.791 16.7164C27.791 16.0915 27.9338 15.632 28.1502 15.0597C28.3679 14.4839 28.6795 13.755 28.8509 12.7681L26.8804 12.4259C26.749 13.1824 26.5233 13.7072 26.2794 14.3523C26.0342 15.0009 25.791 15.7294 25.791 16.7164H27.791ZM28.8509 12.7681C28.9886 11.975 29.01 11.416 29.0333 10.8716C29.0558 10.344 29.0805 9.81105 29.2113 8.99381L27.2364 8.67783C27.0874 9.60921 27.0588 10.2325 27.0351 10.7861C27.0121 11.3229 26.9942 11.7703 26.8804 12.4259L28.8509 12.7681ZM29.2239 8.83582C29.2239 6.29749 29.5434 5.71048 29.9104 4.24254L27.9701 3.75746C27.6207 5.15519 27.2239 6.00102 27.2239 8.83582H29.2239Z" fill="#FB8500"/>
</svg>
