<svg width="30" height="30" viewBox="0 0 30 30" fill="none" xmlns="http://www.w3.org/2000/svg">
<path d="M20.7116 0.609179C23.7391 1.64168 24.8241 7.69668 21.5375 9.19001C20.2158 9.79001 18.1633 10.4492 16.3833 10.05C14.1025 9.53918 12.4491 9.85168 12.4491 9.85168C12.4491 9.85168 16.4466 11.6767 17.7316 15.1208C19.0166 18.565 18.625 21.0967 20.4275 22.7567C21.8508 24.0675 22.7525 25.84 21.7933 26.9183C20.5058 28.3667 18.5191 26.895 16.71 28.985C15.4416 30.45 12.7016 29.97 10.8033 29.1033C8.40412 28.0083 11.4758 27.2775 12.3383 27.1892C13.2966 27.0917 16.7466 25.2325 15.1133 22.5692C11.6166 16.8683 8.02912 13.7825 5.68579 12.0608C3.59079 10.5225 3.37579 7.63335 5.56329 5.00668C6.94829 3.34335 9.92079 2.04501 13.2741 1.06251C15.6075 0.378346 18.2516 -0.229987 20.7116 0.609179Z" fill="#FB8500"/>
<path d="M6.8893 10.8726L6.8543 10.8559C6.70206 10.7752 6.58811 10.6373 6.53748 10.4726C6.48685 10.3079 6.50369 10.1299 6.5843 9.97757C7.54596 8.16174 6.97763 6.64507 6.95346 6.58091C6.89139 6.4206 6.89508 6.24228 6.96373 6.08468C7.03239 5.92708 7.16046 5.80294 7.32013 5.73924C7.47939 5.67568 7.65735 5.67789 7.81498 5.74538C7.97262 5.81287 8.09704 5.94013 8.16096 6.09924C8.19513 6.18424 8.98846 8.21674 7.73346 10.5851C7.65595 10.7316 7.52538 10.843 7.36846 10.8964C7.21154 10.9499 7.04013 10.9413 6.8893 10.8726Z" fill="#FFB703"/>
</svg>
