<svg width="28" height="28" viewBox="0 0 28 28" fill="none" xmlns="http://www.w3.org/2000/svg">
<path fill-rule="evenodd" clip-rule="evenodd" d="M3.56376 1.22966C3.55545 1.13151 3.52788 1.03596 3.48264 0.948462C3.43739 0.860967 3.37535 0.783242 3.30007 0.719726C3.22478 0.656209 3.13772 0.608145 3.04385 0.578278C2.94999 0.548411 2.85116 0.537325 2.75301 0.545656L1.25827 0.673156C1.06018 0.689954 0.876875 0.784705 0.748619 0.936588C0.620362 1.08847 0.557651 1.28506 0.574265 1.48316L0.821015 4.38491C0.713117 4.46014 0.626904 4.56244 0.571028 4.68152C0.515153 4.8006 0.491579 4.93229 0.502672 5.06336C0.513766 5.19443 0.559137 5.32028 0.634232 5.42828C0.709328 5.53627 0.811506 5.62262 0.930515 5.67866L1.19301 8.77015C1.20133 8.8683 1.2289 8.96385 1.27414 9.05135C1.31939 9.13884 1.38143 9.21657 1.45671 9.28009C1.532 9.3436 1.61906 9.39167 1.71293 9.42153C1.80679 9.4514 1.90562 9.46248 2.00376 9.45415L3.49851 9.32665C3.6966 9.30986 3.8799 9.21511 4.00816 9.06322C4.13642 8.91134 4.19913 8.71475 4.18251 8.51665L3.90501 5.25716C4.28751 5.18891 4.66251 5.12366 5.03301 5.06216C5.11176 6.29966 5.34051 8.3989 5.76201 10.3759C6.03201 11.6359 6.40101 12.9514 6.91401 13.9864C7.16901 14.5024 7.50051 15.0304 7.93926 15.4474C8.32701 15.8164 8.85201 16.1427 9.50001 16.2282V19.4772C9.4185 19.448 9.33699 19.4187 9.25551 19.3894L9.08826 19.3294C8.33451 19.0594 7.56876 18.7849 6.98376 18.6372C6.70026 18.5652 6.27051 18.4714 5.84901 18.5089C5.48921 18.5365 5.14593 18.6713 4.86351 18.8959C4.67051 19.0532 4.51521 19.2517 4.40904 19.4769C4.30288 19.7021 4.24853 19.9482 4.25001 20.1972C4.25001 20.8144 4.46076 22.4022 4.64001 23.6704C4.75053 24.4533 4.86553 25.2356 4.98501 26.0172L5.00901 26.1739L5.01576 26.2152L5.01726 26.2257V26.2294L6.50001 25.9999L5.01801 26.2302C5.0755 26.5936 5.26454 26.9232 5.5492 27.1563C5.83386 27.3894 6.19427 27.5098 6.56188 27.4945C6.9295 27.4792 7.27868 27.3294 7.54301 27.0734C7.80734 26.8175 7.96839 26.4733 7.99551 26.1064L8.27301 22.2244C9.10626 22.5229 10.079 22.8672 11.0398 23.1372C11.9945 23.4057 13.0423 23.6322 14 23.6322C14.9578 23.6322 16.0055 23.4057 16.9603 23.1372C17.9128 22.8694 18.8773 22.5282 19.7053 22.2319L20.0045 26.1147C20.033 26.4812 20.1951 26.8246 20.4601 27.0795C20.7251 27.3344 21.0745 27.4831 21.4419 27.4974C21.8093 27.5116 22.1691 27.3904 22.4531 27.1568C22.737 26.9232 22.9252 26.5934 22.982 26.2302L21.5 25.9999L22.982 26.2294L22.9828 26.2257L22.9843 26.2152L22.991 26.1739L23.015 26.0164C23.135 25.2351 23.25 24.4531 23.36 23.6704C23.5393 22.4022 23.75 20.8144 23.75 20.1979C23.75 19.7554 23.5775 19.2544 23.1365 18.8959C22.8541 18.6712 22.5108 18.5364 22.151 18.5089C21.7295 18.4714 21.2998 18.5652 21.0155 18.6364C20.4305 18.7849 19.6655 19.0594 18.9118 19.3294L18.7445 19.3894L18.5 19.4772V16.2319C19.9175 16.0737 20.7763 14.9247 21.2495 14.0104C21.7985 12.9514 22.157 11.6127 22.4 10.3459C22.781 8.36665 22.931 6.2884 22.9798 5.07191C23.3458 5.13191 23.717 5.19566 24.0943 5.26241L23.8168 8.51665C23.8002 8.71487 23.863 8.91157 23.9914 9.06347C24.1198 9.21537 24.3033 9.31004 24.5015 9.32665L25.9955 9.45415C26.0937 9.46248 26.1925 9.4514 26.2864 9.42153C26.3802 9.39167 26.4673 9.3436 26.5426 9.28009C26.6178 9.21657 26.6799 9.13884 26.7251 9.05135C26.7704 8.96385 26.7979 8.8683 26.8063 8.77015L27.0688 5.67866C27.1882 5.62303 27.2908 5.53689 27.3662 5.42891C27.4417 5.32094 27.4873 5.19496 27.4985 5.06371C27.5097 4.93245 27.486 4.80057 27.4299 4.68139C27.3738 4.5622 27.2873 4.45993 27.179 4.38491L27.4258 1.48316C27.4424 1.28506 27.3797 1.08847 27.2514 0.936588C27.1231 0.784705 26.9398 0.689954 26.7418 0.673156L25.247 0.545656C25.0489 0.529041 24.8523 0.591753 24.7004 0.720009C24.5486 0.848266 24.4538 1.03157 24.437 1.22966L24.2218 3.76166C23.7531 3.67922 23.2839 3.60047 22.814 3.52541C22.7019 3.32211 22.5441 3.1476 22.3531 3.01564C22.1621 2.88367 21.9431 2.79784 21.7133 2.76491C21.4835 2.73197 21.2491 2.75283 21.0288 2.82584C20.8084 2.89885 20.608 3.02202 20.4433 3.18566C15.8855 2.61041 12.0268 2.61116 7.54851 3.17816C7.38382 3.01703 7.18423 2.89601 6.96522 2.82448C6.7462 2.75295 6.51365 2.73283 6.28561 2.76569C6.05756 2.79855 5.84015 2.8835 5.65024 3.01395C5.46033 3.1444 5.30302 3.31684 5.19051 3.51791C4.72851 3.59141 4.25826 3.67091 3.77826 3.75641L3.56376 1.22891V1.22966ZM8.69601 9.74965C8.34701 8.06177 8.11844 6.35121 8.01201 4.63091C12.1603 4.12616 15.7708 4.12616 19.9933 4.64141C19.9648 5.64041 19.8373 7.7869 19.454 9.7789C19.229 10.9497 18.9365 11.9547 18.5863 12.6304C18.3478 13.0902 18.1843 13.2192 18.1303 13.2499H9.98226C9.89526 13.1592 9.76101 12.9754 9.60201 12.6544C9.25551 11.9547 8.94801 10.9264 8.69601 9.74891V9.74965ZM17.375 8.3749C17.375 9.27001 17.0194 10.1285 16.3865 10.7614C15.7536 11.3943 14.8951 11.7499 14 11.7499C13.1049 11.7499 12.2465 11.3943 11.6135 10.7614C10.9806 10.1285 10.625 9.27001 10.625 8.3749C10.625 7.4798 10.9806 6.62136 11.6135 5.98842C12.2465 5.35548 13.1049 4.99991 14 4.99991C14.8951 4.99991 15.7536 5.35548 16.3865 5.98842C17.0194 6.62136 17.375 7.4798 17.375 8.3749Z" fill="#FB8500"/>
</svg>
